<?xml version="1.0" encoding="us-ascii" standalone="no"?><svg xmlns="http://www.w3.org/2000/svg" xmlns:xlink="http://www.w3.org/1999/xlink" contentStyleType="text/css" height="151px" preserveAspectRatio="none" style="width:316px;height:151px;background:#FFFFFF;" version="1.1" viewBox="0 0 316 151" width="316px" zoomAndPan="magnify"><defs/><g><!--class Being--><g id="elem_Being"><rect codeLine="2" fill="#F1F1F1" height="130.4414" id="Being" rx="2.5" ry="2.5" style="stroke:#181818;stroke-width:0.5;" width="295" x="7" y="7"/><ellipse cx="131.25" cy="23" fill="#ADD1B2" rx="11" ry="11" style="stroke:#181818;stroke-width:1.0;"/><path d="M133.7231,29.1431 Q133.1421,29.4419 132.5029,29.5913 Q131.8638,29.7407 131.1582,29.7407 Q128.6514,29.7407 127.3315,28.0889 Q126.0117,26.437 126.0117,23.3159 Q126.0117,20.1865 127.3315,18.5347 Q128.6514,16.8828 131.1582,16.8828 Q131.8638,16.8828 132.5112,17.0322 Q133.1587,17.1816 133.7231,17.4805 L133.7231,20.2031 Q133.0923,19.6221 132.4988,19.3523 Q131.9053,19.0825 131.2744,19.0825 Q129.9297,19.0825 129.2449,20.1492 Q128.5601,21.2158 128.5601,23.3159 Q128.5601,25.4077 129.2449,26.4744 Q129.9297,27.541 131.2744,27.541 Q131.9053,27.541 132.4988,27.2712 Q133.0923,27.0015 133.7231,26.4204 Z " fill="#000000"/><text fill="#000000" font-family="sans-serif" font-size="14" lengthAdjust="spacing" textLength="38" x="151.75" y="28.291">Being</text><line style="stroke:#181818;stroke-width:0.5;" x1="8" x2="301" y1="39" y2="39"/><rect fill="none" height="6" style="stroke:#C82930;stroke-width:1.0;" width="6" x="15" y="49.7441"/><text fill="#000000" font-family="sans-serif" font-size="14" lengthAdjust="spacing" textLength="87" x="27" y="56.5352">name: String</text><rect fill="none" height="6" style="stroke:#C82930;stroke-width:1.0;" width="6" x="15" y="66.2324"/><text fill="#000000" font-family="sans-serif" font-size="14" lengthAdjust="spacing" textLength="126" x="27" y="73.0234">description: String</text><line style="stroke:#181818;stroke-width:0.5;" x1="8" x2="301" y1="79.9766" y2="79.9766"/><ellipse cx="18" cy="93.7207" fill="#84BE84" rx="3" ry="3" style="stroke:#038048;stroke-width:1.0;"/><text fill="#000000" font-family="sans-serif" font-size="14" lengthAdjust="spacing" textLength="269" x="27" y="97.5117">Being(name: String, description: String)</text><ellipse cx="18" cy="110.209" fill="#84BE84" rx="3" ry="3" style="stroke:#038048;stroke-width:1.0;"/><text fill="#000000" font-family="sans-serif" font-size="14" lengthAdjust="spacing" textLength="100" x="27" y="114">name(): String</text><ellipse cx="18" cy="126.6973" fill="#84BE84" rx="3" ry="3" style="stroke:#038048;stroke-width:1.0;"/><text fill="#000000" font-family="sans-serif" font-size="14" lengthAdjust="spacing" textLength="140" x="27" y="130.4883">description(): String</text></g><!--SRC=[Iyv9B2vMS4hDp4jNgEPI00BTlCJSL2k5u98Ye1X492MrEBaeiw0aCpyFHK8Rh4y3MOEE0XR5cX3LwQabVa2b6fgeXW25NH1wa6HhkG00]--></g></svg>