<?xml version="1.0" encoding="us-ascii" standalone="no"?><svg xmlns="http://www.w3.org/2000/svg" xmlns:xlink="http://www.w3.org/1999/xlink" contentStyleType="text/css" height="1261px" preserveAspectRatio="none" style="width:926px;height:1261px;background:#FFFFFF;" version="1.1" viewBox="0 0 926 1261" width="926px" zoomAndPan="magnify"><defs/><g><!--class Describable--><g id="elem_Describable"><rect codeLine="4" fill="#F1F1F1" height="80.9766" id="Describable" rx="2.5" ry="2.5" style="stroke:#181818;stroke-width:0.5;" width="185" x="379.5" y="184.47"/><ellipse cx="427.75" cy="200.47" fill="#B4A7E5" rx="11" ry="11" style="stroke:#181818;stroke-width:1.0;"/><path d="M424.1777,196.7351 L424.1777,194.5769 L431.5571,194.5769 L431.5571,196.7351 L429.0918,196.7351 L429.0918,204.8118 L431.5571,204.8118 L431.5571,206.97 L424.1777,206.97 L424.1777,204.8118 L426.6431,204.8118 L426.6431,196.7351 Z " fill="#000000"/><text fill="#000000" font-family="sans-serif" font-size="14" font-style="italic" lengthAdjust="spacing" textLength="80" x="448.25" y="205.761">Describable</text><line style="stroke:#181818;stroke-width:0.5;" x1="380.5" x2="563.5" y1="216.47" y2="216.47"/><line style="stroke:#181818;stroke-width:0.5;" x1="380.5" x2="563.5" y1="224.47" y2="224.47"/><ellipse cx="390.5" cy="238.2141" fill="#84BE84" rx="3" ry="3" style="stroke:#038048;stroke-width:1.0;"/><text fill="#000000" font-family="sans-serif" font-size="14" lengthAdjust="spacing" textLength="120" x="399.5" y="242.0052">getName(): String</text><ellipse cx="390.5" cy="254.7024" fill="#84BE84" rx="3" ry="3" style="stroke:#038048;stroke-width:1.0;"/><text fill="#000000" font-family="sans-serif" font-size="14" lengthAdjust="spacing" textLength="159" x="399.5" y="258.4934">getDescription(): String</text></g><!--class Mortal--><g id="elem_Mortal"><rect codeLine="9" fill="#F1F1F1" height="97.4648" id="Mortal" rx="2.5" ry="2.5" style="stroke:#181818;stroke-width:0.5;" width="211" x="654.5" y="342.93"/><ellipse cx="733.75" cy="358.93" fill="#B4A7E5" rx="11" ry="11" style="stroke:#181818;stroke-width:1.0;"/><path d="M730.1777,355.1951 L730.1777,353.0369 L737.5571,353.0369 L737.5571,355.1951 L735.0918,355.1951 L735.0918,363.2718 L737.5571,363.2718 L737.5571,365.43 L730.1777,365.43 L730.1777,363.2718 L732.6431,363.2718 L732.6431,355.1951 Z " fill="#000000"/><text fill="#000000" font-family="sans-serif" font-size="14" font-style="italic" lengthAdjust="spacing" textLength="44" x="754.25" y="364.221">Mortal</text><line style="stroke:#181818;stroke-width:0.5;" x1="655.5" x2="864.5" y1="374.93" y2="374.93"/><line style="stroke:#181818;stroke-width:0.5;" x1="655.5" x2="864.5" y1="382.93" y2="382.93"/><ellipse cx="665.5" cy="396.6741" fill="#84BE84" rx="3" ry="3" style="stroke:#038048;stroke-width:1.0;"/><text fill="#000000" font-family="sans-serif" font-size="14" lengthAdjust="spacing" textLength="103" x="674.5" y="400.4652">getBirth(): Date</text><ellipse cx="665.5" cy="413.1624" fill="#84BE84" rx="3" ry="3" style="stroke:#038048;stroke-width:1.0;"/><text fill="#000000" font-family="sans-serif" font-size="14" lengthAdjust="spacing" textLength="111" x="674.5" y="416.9534">getDeath(): Date</text><ellipse cx="665.5" cy="429.6507" fill="#84BE84" rx="3" ry="3" style="stroke:#038048;stroke-width:1.0;"/><text fill="#000000" font-family="sans-serif" font-size="14" lengthAdjust="spacing" textLength="185" x="674.5" y="433.4417">setDeath(death: Date): void</text></g><!--class Wrath--><g id="elem_Wrath"><rect codeLine="15" fill="#F1F1F1" height="64.4883" id="Wrath" rx="2.5" ry="2.5" style="stroke:#181818;stroke-width:0.5;" width="112" x="177" y="359.42"/><ellipse cx="210" cy="375.42" fill="#B4A7E5" rx="11" ry="11" style="stroke:#181818;stroke-width:1.0;"/><path d="M206.4277,371.6851 L206.4277,369.5269 L213.8071,369.5269 L213.8071,371.6851 L211.3418,371.6851 L211.3418,379.7618 L213.8071,379.7618 L213.8071,381.92 L206.4277,381.92 L206.4277,379.7618 L208.8931,379.7618 L208.8931,371.6851 Z " fill="#000000"/><text fill="#000000" font-family="sans-serif" font-size="14" font-style="italic" lengthAdjust="spacing" textLength="40" x="228" y="380.711">Wrath</text><line style="stroke:#181818;stroke-width:0.5;" x1="178" x2="288" y1="391.42" y2="391.42"/><line style="stroke:#181818;stroke-width:0.5;" x1="178" x2="288" y1="399.42" y2="399.42"/><ellipse cx="188" cy="413.1641" fill="#84BE84" rx="3" ry="3" style="stroke:#038048;stroke-width:1.0;"/><text fill="#000000" font-family="sans-serif" font-size="14" lengthAdjust="spacing" textLength="86" x="197" y="416.9552">wrath(): void</text></g><!--class Litany--><g id="elem_Litany"><rect codeLine="19" fill="#F1F1F1" height="97.4648" id="Litany" rx="2.5" ry="2.5" style="stroke:#181818;stroke-width:0.5;" width="242" x="574" y="10"/><ellipse cx="604.75" cy="26" fill="#B4A7E5" rx="11" ry="11" style="stroke:#181818;stroke-width:1.0;"/><path d="M601.1777,22.2651 L601.1777,20.1069 L608.5571,20.1069 L608.5571,22.2651 L606.0918,22.2651 L606.0918,30.3418 L608.5571,30.3418 L608.5571,32.5 L601.1777,32.5 L601.1777,30.3418 L603.6431,30.3418 L603.6431,22.2651 Z " fill="#000000"/><text fill="#000000" font-family="sans-serif" font-size="14" font-style="italic" lengthAdjust="spacing" textLength="40" x="622.25" y="31.291">Litany</text><rect fill="#FFFFFF" height="16.1328" style="stroke:#181818;stroke-width:1.0;stroke-dasharray:2.0,2.0;" width="133" x="686" y="7"/><text fill="#000000" font-family="sans-serif" font-size="12" font-style="italic" lengthAdjust="spacing" textLength="131" x="687" y="19.6016">T extends Describable</text><line style="stroke:#181818;stroke-width:0.5;" x1="575" x2="815" y1="42" y2="42"/><line style="stroke:#181818;stroke-width:0.5;" x1="575" x2="815" y1="50" y2="50"/><ellipse cx="585" cy="63.7441" fill="#84BE84" rx="3" ry="3" style="stroke:#038048;stroke-width:1.0;"/><text fill="#000000" font-family="sans-serif" font-size="14" lengthAdjust="spacing" textLength="110" x="594" y="67.5352">getAll(): Set&lt;T&gt;</text><ellipse cx="585" cy="80.2324" fill="#84BE84" rx="3" ry="3" style="stroke:#038048;stroke-width:1.0;"/><text fill="#000000" font-family="sans-serif" font-size="14" lengthAdjust="spacing" textLength="120" x="594" y="84.0234">add(item: T): void</text><ellipse cx="585" cy="96.7207" fill="#84BE84" rx="3" ry="3" style="stroke:#038048;stroke-width:1.0;"/><text fill="#000000" font-family="sans-serif" font-size="14" lengthAdjust="spacing" textLength="216" x="594" y="100.5117">remove(itemName: String): void</text></g><!--class Being--><g id="elem_Being"><rect codeLine="25" fill="#F1F1F1" height="130.4414" id="Being" rx="2.5" ry="2.5" style="stroke:#181818;stroke-width:0.5;" width="295" x="324.5" y="326.44"/><ellipse cx="448.75" cy="342.44" fill="#A9DCDF" rx="11" ry="11" style="stroke:#181818;stroke-width:1.0;"/><path d="M448.6133,337.7881 L447.4595,342.8599 L449.7754,342.8599 Z M447.1191,335.5469 L450.1157,335.5469 L453.4609,347.94 L451.0122,347.94 L450.2485,344.877 L446.9697,344.877 L446.2227,347.94 L443.7739,347.94 Z " fill="#000000"/><text fill="#000000" font-family="sans-serif" font-size="14" font-style="italic" lengthAdjust="spacing" textLength="38" x="469.25" y="347.731">Being</text><line style="stroke:#181818;stroke-width:0.5;" x1="325.5" x2="618.5" y1="358.44" y2="358.44"/><rect fill="none" height="6" style="stroke:#C82930;stroke-width:1.0;" width="6" x="332.5" y="369.1841"/><text fill="#000000" font-family="sans-serif" font-size="14" lengthAdjust="spacing" textLength="87" x="344.5" y="375.9752">name: String</text><rect fill="none" height="6" style="stroke:#C82930;stroke-width:1.0;" width="6" x="332.5" y="385.6724"/><text fill="#000000" font-family="sans-serif" font-size="14" lengthAdjust="spacing" textLength="126" x="344.5" y="392.4634">description: String</text><line style="stroke:#181818;stroke-width:0.5;" x1="325.5" x2="618.5" y1="399.4166" y2="399.4166"/><ellipse cx="335.5" cy="413.1607" fill="#84BE84" rx="3" ry="3" style="stroke:#038048;stroke-width:1.0;"/><text fill="#000000" font-family="sans-serif" font-size="14" lengthAdjust="spacing" textLength="269" x="344.5" y="416.9517">Being(name: String, description: String)</text><ellipse cx="335.5" cy="429.649" fill="#84BE84" rx="3" ry="3" style="stroke:#038048;stroke-width:1.0;"/><text fill="#000000" font-family="sans-serif" font-size="14" lengthAdjust="spacing" textLength="120" x="344.5" y="433.44">getName(): String</text><ellipse cx="335.5" cy="446.1373" fill="#84BE84" rx="3" ry="3" style="stroke:#038048;stroke-width:1.0;"/><text fill="#000000" font-family="sans-serif" font-size="14" lengthAdjust="spacing" textLength="159" x="344.5" y="449.9283">getDescription(): String</text></g><!--class Human--><g id="elem_Human"><rect codeLine="33" fill="#F1F1F1" height="146.9297" id="Human" rx="2.5" ry="2.5" style="stroke:#181818;stroke-width:0.5;" width="386" x="433" y="517.88"/><ellipse cx="597.25" cy="533.88" fill="#ADD1B2" rx="11" ry="11" style="stroke:#181818;stroke-width:1.0;"/><path d="M599.7231,540.0231 Q599.1421,540.3219 598.5029,540.4713 Q597.8638,540.6207 597.1582,540.6207 Q594.6514,540.6207 593.3315,538.9689 Q592.0117,537.317 592.0117,534.1959 Q592.0117,531.0665 593.3315,529.4147 Q594.6514,527.7628 597.1582,527.7628 Q597.8638,527.7628 598.5112,527.9122 Q599.1587,528.0616 599.7231,528.3605 L599.7231,531.0831 Q599.0923,530.5021 598.4988,530.2323 Q597.9053,529.9625 597.2744,529.9625 Q595.9297,529.9625 595.2449,531.0292 Q594.5601,532.0958 594.5601,534.1959 Q594.5601,536.2877 595.2449,537.3544 Q595.9297,538.421 597.2744,538.421 Q597.9053,538.421 598.4988,538.1512 Q599.0923,537.8815 599.7231,537.3004 Z " fill="#000000"/><text fill="#000000" font-family="sans-serif" font-size="14" lengthAdjust="spacing" textLength="49" x="617.75" y="539.171">Human</text><line style="stroke:#181818;stroke-width:0.5;" x1="434" x2="818" y1="549.88" y2="549.88"/><rect fill="none" height="6" style="stroke:#C82930;stroke-width:1.0;" width="6" x="441" y="560.6241"/><text fill="#000000" font-family="sans-serif" font-size="14" lengthAdjust="spacing" textLength="72" x="453" y="567.4152">birth: Date</text><rect fill="none" height="6" style="stroke:#C82930;stroke-width:1.0;" width="6" x="441" y="577.1124"/><text fill="#000000" font-family="sans-serif" font-size="14" lengthAdjust="spacing" textLength="78" x="453" y="583.9034">death: Date</text><line style="stroke:#181818;stroke-width:0.5;" x1="434" x2="818" y1="590.8566" y2="590.8566"/><ellipse cx="444" cy="604.6007" fill="#84BE84" rx="3" ry="3" style="stroke:#038048;stroke-width:1.0;"/><text fill="#000000" font-family="sans-serif" font-size="14" lengthAdjust="spacing" textLength="360" x="453" y="608.3917">Human(name: String, description: String, birth: Date)</text><ellipse cx="444" cy="621.089" fill="#84BE84" rx="3" ry="3" style="stroke:#038048;stroke-width:1.0;"/><text fill="#000000" font-family="sans-serif" font-size="14" lengthAdjust="spacing" textLength="103" x="453" y="624.88">getBirth(): Date</text><ellipse cx="444" cy="637.5773" fill="#84BE84" rx="3" ry="3" style="stroke:#038048;stroke-width:1.0;"/><text fill="#000000" font-family="sans-serif" font-size="14" lengthAdjust="spacing" textLength="111" x="453" y="641.3683">getDeath(): Date</text><ellipse cx="444" cy="654.0655" fill="#84BE84" rx="3" ry="3" style="stroke:#038048;stroke-width:1.0;"/><text fill="#000000" font-family="sans-serif" font-size="14" lengthAdjust="spacing" textLength="185" x="453" y="657.8566">setDeath(death: Date): void</text></g><!--class God--><g id="elem_God"><rect codeLine="42" fill="#F1F1F1" height="64.4883" id="God" rx="2.5" ry="2.5" style="stroke:#181818;stroke-width:0.5;" width="112" x="286" y="559.11"/><ellipse cx="324.4" cy="575.11" fill="#ADD1B2" rx="11" ry="11" style="stroke:#181818;stroke-width:1.0;"/><path d="M326.8731,581.2531 Q326.2921,581.5519 325.6529,581.7013 Q325.0138,581.8507 324.3082,581.8507 Q321.8014,581.8507 320.4815,580.1989 Q319.1617,578.547 319.1617,575.4259 Q319.1617,572.2965 320.4815,570.6447 Q321.8014,568.9928 324.3082,568.9928 Q325.0138,568.9928 325.6612,569.1422 Q326.3087,569.2916 326.8731,569.5905 L326.8731,572.3131 Q326.2423,571.7321 325.6488,571.4623 Q325.0553,571.1925 324.4244,571.1925 Q323.0797,571.1925 322.3949,572.2592 Q321.7101,573.3258 321.7101,575.4259 Q321.7101,577.5177 322.3949,578.5844 Q323.0797,579.651 324.4244,579.651 Q325.0553,579.651 325.6488,579.3812 Q326.2423,579.1115 326.8731,578.5304 Z " fill="#000000"/><text fill="#000000" font-family="sans-serif" font-size="14" lengthAdjust="spacing" textLength="28" x="343.6" y="580.401">God</text><line style="stroke:#181818;stroke-width:0.5;" x1="287" x2="397" y1="591.11" y2="591.11"/><line style="stroke:#181818;stroke-width:0.5;" x1="287" x2="397" y1="599.11" y2="599.11"/><ellipse cx="297" cy="612.8541" fill="#84BE84" rx="3" ry="3" style="stroke:#038048;stroke-width:1.0;"/><text fill="#000000" font-family="sans-serif" font-size="14" lengthAdjust="spacing" textLength="86" x="306" y="616.6452">wrath(): void</text></g><!--class Hero--><g id="elem_Hero"><rect codeLine="46" fill="#F1F1F1" height="97.4648" id="Hero" rx="2.5" ry="2.5" style="stroke:#181818;stroke-width:0.5;" width="248" x="502" y="742.3"/><ellipse cx="605.25" cy="758.3" fill="#ADD1B2" rx="11" ry="11" style="stroke:#181818;stroke-width:1.0;"/><path d="M607.7231,764.4431 Q607.1421,764.7419 606.5029,764.8913 Q605.8638,765.0407 605.1582,765.0407 Q602.6514,765.0407 601.3315,763.3889 Q600.0117,761.737 600.0117,758.6159 Q600.0117,755.4865 601.3315,753.8347 Q602.6514,752.1828 605.1582,752.1828 Q605.8638,752.1828 606.5112,752.3322 Q607.1587,752.4816 607.7231,752.7805 L607.7231,755.5031 Q607.0923,754.9221 606.4988,754.6523 Q605.9053,754.3825 605.2744,754.3825 Q603.9297,754.3825 603.2449,755.4492 Q602.5601,756.5158 602.5601,758.6159 Q602.5601,760.7077 603.2449,761.7744 Q603.9297,762.841 605.2744,762.841 Q605.9053,762.841 606.4988,762.5712 Q607.0923,762.3015 607.7231,761.7204 Z " fill="#000000"/><text fill="#000000" font-family="sans-serif" font-size="14" lengthAdjust="spacing" textLength="33" x="625.75" y="763.591">Hero</text><line style="stroke:#181818;stroke-width:0.5;" x1="503" x2="749" y1="774.3" y2="774.3"/><rect fill="none" height="6" style="stroke:#C82930;stroke-width:1.0;" width="6" x="510" y="785.0441"/><text fill="#000000" font-family="sans-serif" font-size="14" lengthAdjust="spacing" textLength="105" x="522" y="791.8352">legend: Legend</text><line style="stroke:#181818;stroke-width:0.5;" x1="503" x2="749" y1="798.7883" y2="798.7883"/><ellipse cx="513" cy="812.5324" fill="#84BE84" rx="3" ry="3" style="stroke:#038048;stroke-width:1.0;"/><text fill="#000000" font-family="sans-serif" font-size="14" lengthAdjust="spacing" textLength="140" x="522" y="816.3234">getLegend(): Legend</text><ellipse cx="513" cy="829.0207" fill="#84BE84" rx="3" ry="3" style="stroke:#038048;stroke-width:1.0;"/><text fill="#000000" font-family="sans-serif" font-size="14" lengthAdjust="spacing" textLength="222" x="522" y="832.8117">setLegend(legend: Legend): void</text></g><!--class SemiGod--><g id="elem_SemiGod"><rect codeLine="52" fill="#F1F1F1" height="130.4414" id="SemiGod" rx="2.5" ry="2.5" style="stroke:#181818;stroke-width:0.5;" width="282" x="185" y="725.81"/><ellipse cx="291.25" cy="741.81" fill="#ADD1B2" rx="11" ry="11" style="stroke:#181818;stroke-width:1.0;"/><path d="M293.7231,747.9531 Q293.1421,748.2519 292.5029,748.4013 Q291.8638,748.5507 291.1582,748.5507 Q288.6514,748.5507 287.3315,746.8989 Q286.0117,745.247 286.0117,742.1259 Q286.0117,738.9965 287.3315,737.3447 Q288.6514,735.6928 291.1582,735.6928 Q291.8638,735.6928 292.5112,735.8422 Q293.1587,735.9916 293.7231,736.2905 L293.7231,739.0131 Q293.0923,738.4321 292.4988,738.1623 Q291.9053,737.8925 291.2744,737.8925 Q289.9297,737.8925 289.2449,738.9592 Q288.5601,740.0258 288.5601,742.1259 Q288.5601,744.2177 289.2449,745.2844 Q289.9297,746.351 291.2744,746.351 Q291.9053,746.351 292.4988,746.0812 Q293.0923,745.8115 293.7231,745.2304 Z " fill="#000000"/><text fill="#000000" font-family="sans-serif" font-size="14" lengthAdjust="spacing" textLength="61" x="311.75" y="747.101">SemiGod</text><line style="stroke:#181818;stroke-width:0.5;" x1="186" x2="466" y1="757.81" y2="757.81"/><rect fill="none" height="6" style="stroke:#C82930;stroke-width:1.0;" width="6" x="193" y="768.5541"/><text fill="#000000" font-family="sans-serif" font-size="14" lengthAdjust="spacing" textLength="105" x="205" y="775.3452">legend: Legend</text><line style="stroke:#181818;stroke-width:0.5;" x1="186" x2="466" y1="782.2983" y2="782.2983"/><ellipse cx="196" cy="796.0424" fill="#84BE84" rx="3" ry="3" style="stroke:#038048;stroke-width:1.0;"/><text fill="#000000" font-family="sans-serif" font-size="14" lengthAdjust="spacing" textLength="140" x="205" y="799.8334">getLegend(): Legend</text><ellipse cx="196" cy="812.5307" fill="#84BE84" rx="3" ry="3" style="stroke:#038048;stroke-width:1.0;"/><text fill="#000000" font-family="sans-serif" font-size="14" lengthAdjust="spacing" textLength="222" x="205" y="816.3217">setLegend(legend: Legend): void</text><ellipse cx="196" cy="829.019" fill="#84BE84" rx="3" ry="3" style="stroke:#038048;stroke-width:1.0;"/><text fill="#000000" font-family="sans-serif" font-size="14" lengthAdjust="spacing" textLength="256" x="205" y="832.81">{override} setDeath(death: Date): void</text><ellipse cx="196" cy="845.5073" fill="#84BE84" rx="3" ry="3" style="stroke:#038048;stroke-width:1.0;"/><text fill="#000000" font-family="sans-serif" font-size="14" lengthAdjust="spacing" textLength="86" x="205" y="849.2983">wrath(): void</text></g><!--class Deed--><g id="elem_Deed"><rect codeLine="60" fill="#F1F1F1" height="130.4414" id="Deed" rx="2.5" ry="2.5" style="stroke:#181818;stroke-width:0.5;" width="292" x="7" y="1124.21"/><ellipse cx="131.25" cy="1140.21" fill="#ADD1B2" rx="11" ry="11" style="stroke:#181818;stroke-width:1.0;"/><path d="M133.7231,1146.3531 Q133.1421,1146.6519 132.5029,1146.8013 Q131.8638,1146.9507 131.1582,1146.9507 Q128.6514,1146.9507 127.3315,1145.2989 Q126.0117,1143.647 126.0117,1140.5259 Q126.0117,1137.3965 127.3315,1135.7447 Q128.6514,1134.0928 131.1582,1134.0928 Q131.8638,1134.0928 132.5112,1134.2422 Q133.1587,1134.3916 133.7231,1134.6905 L133.7231,1137.4131 Q133.0923,1136.8321 132.4988,1136.5623 Q131.9053,1136.2925 131.2744,1136.2925 Q129.9297,1136.2925 129.2449,1137.3592 Q128.5601,1138.4258 128.5601,1140.5259 Q128.5601,1142.6177 129.2449,1143.6844 Q129.9297,1144.751 131.2744,1144.751 Q131.9053,1144.751 132.4988,1144.4812 Q133.0923,1144.2115 133.7231,1143.6304 Z " fill="#000000"/><text fill="#000000" font-family="sans-serif" font-size="14" lengthAdjust="spacing" textLength="35" x="151.75" y="1145.501">Deed</text><line style="stroke:#181818;stroke-width:0.5;" x1="8" x2="298" y1="1156.21" y2="1156.21"/><rect fill="none" height="6" style="stroke:#C82930;stroke-width:1.0;" width="6" x="15" y="1166.9541"/><text fill="#000000" font-family="sans-serif" font-size="14" lengthAdjust="spacing" textLength="87" x="27" y="1173.7452">name: String</text><rect fill="none" height="6" style="stroke:#C82930;stroke-width:1.0;" width="6" x="15" y="1183.4424"/><text fill="#000000" font-family="sans-serif" font-size="14" lengthAdjust="spacing" textLength="126" x="27" y="1190.2334">description: String</text><line style="stroke:#181818;stroke-width:0.5;" x1="8" x2="298" y1="1197.1866" y2="1197.1866"/><ellipse cx="18" cy="1210.9307" fill="#84BE84" rx="3" ry="3" style="stroke:#038048;stroke-width:1.0;"/><text fill="#000000" font-family="sans-serif" font-size="14" lengthAdjust="spacing" textLength="266" x="27" y="1214.7217">Deed(name: String, description: String)</text><ellipse cx="18" cy="1227.419" fill="#84BE84" rx="3" ry="3" style="stroke:#038048;stroke-width:1.0;"/><text fill="#000000" font-family="sans-serif" font-size="14" lengthAdjust="spacing" textLength="120" x="27" y="1231.21">getName(): String</text><ellipse cx="18" cy="1243.9073" fill="#84BE84" rx="3" ry="3" style="stroke:#038048;stroke-width:1.0;"/><text fill="#000000" font-family="sans-serif" font-size="14" lengthAdjust="spacing" textLength="159" x="27" y="1247.6983">getDescription(): String</text></g><!--class Legend--><g id="elem_Legend"><rect codeLine="68" fill="#F1F1F1" height="113.9531" id="Legend" rx="2.5" ry="2.5" style="stroke:#181818;stroke-width:0.5;" width="242" x="339" y="933.26"/><ellipse cx="430.75" cy="949.26" fill="#ADD1B2" rx="11" ry="11" style="stroke:#181818;stroke-width:1.0;"/><path d="M433.2231,955.4031 Q432.6421,955.7019 432.0029,955.8513 Q431.3638,956.0007 430.6582,956.0007 Q428.1514,956.0007 426.8315,954.3489 Q425.5117,952.697 425.5117,949.5759 Q425.5117,946.4465 426.8315,944.7947 Q428.1514,943.1428 430.6582,943.1428 Q431.3638,943.1428 432.0112,943.2922 Q432.6587,943.4416 433.2231,943.7405 L433.2231,946.4631 Q432.5923,945.8821 431.9988,945.6123 Q431.4053,945.3425 430.7744,945.3425 Q429.4297,945.3425 428.7449,946.4092 Q428.0601,947.4758 428.0601,949.5759 Q428.0601,951.6677 428.7449,952.7344 Q429.4297,953.801 430.7744,953.801 Q431.4053,953.801 431.9988,953.5312 Q432.5923,953.2615 433.2231,952.6804 Z " fill="#000000"/><text fill="#000000" font-family="sans-serif" font-size="14" lengthAdjust="spacing" textLength="50" x="451.25" y="954.551">Legend</text><line style="stroke:#181818;stroke-width:0.5;" x1="340" x2="580" y1="965.26" y2="965.26"/><rect fill="none" height="6" style="stroke:#C82930;stroke-width:1.0;" width="6" x="347" y="976.0041"/><text fill="#000000" font-family="sans-serif" font-size="14" lengthAdjust="spacing" textLength="127" x="359" y="982.7952">deeds: Set&lt;Deed&gt;</text><line style="stroke:#181818;stroke-width:0.5;" x1="340" x2="580" y1="989.7483" y2="989.7483"/><ellipse cx="350" cy="1003.4924" fill="#84BE84" rx="3" ry="3" style="stroke:#038048;stroke-width:1.0;"/><text fill="#000000" font-family="sans-serif" font-size="14" lengthAdjust="spacing" textLength="110" x="359" y="1007.2834">getAll(): Set&lt;T&gt;</text><ellipse cx="350" cy="1019.9807" fill="#84BE84" rx="3" ry="3" style="stroke:#038048;stroke-width:1.0;"/><text fill="#000000" font-family="sans-serif" font-size="14" lengthAdjust="spacing" textLength="120" x="359" y="1023.7717">add(item: T): void</text><ellipse cx="350" cy="1036.469" fill="#84BE84" rx="3" ry="3" style="stroke:#038048;stroke-width:1.0;"/><text fill="#000000" font-family="sans-serif" font-size="14" lengthAdjust="spacing" textLength="216" x="359" y="1040.26">remove(itemName: String): void</text></g><!--reverse link Describable to Being--><g id="link_Describable_Being"><path d="M472,283.83 C472,301.92 472,305.77 472,326.11 " fill="none" id="Describable-backto-Being" style="stroke:#181818;stroke-width:1.0;stroke-dasharray:7.0,7.0;"/><polygon fill="none" points="472,265.83,466,283.83,478,283.83,472,265.83" style="stroke:#181818;stroke-width:1.0;"/></g><!--reverse link Being to Human--><g id="link_Being_Human"><path d="M533.2711,471.3204 C548.2811,490.5904 553.78,497.65 569.18,517.42 " fill="none" id="Being-backto-Human" style="stroke:#181818;stroke-width:1.0;"/><polygon fill="none" points="522.21,457.12,528.5377,475.0074,538.0046,467.6334,522.21,457.12" style="stroke:#181818;stroke-width:1.0;"/></g><!--reverse link Mortal to Human--><g id="link_Mortal_Human"><path d="M717.291,455.67 C701.641,478.76 692.66,492.01 675.29,517.64 " fill="none" id="Mortal-backto-Human" style="stroke:#181818;stroke-width:1.0;stroke-dasharray:7.0,7.0;"/><polygon fill="none" points="727.39,440.77,712.3243,452.3037,722.2577,459.0363,727.39,440.77" style="stroke:#181818;stroke-width:1.0;"/></g><!--reverse link Being to God--><g id="link_Being_God"><path d="M419.7225,472.1612 C397.3525,506.1912 380.78,531.39 362.83,558.67 " fill="none" id="Being-backto-God" style="stroke:#181818;stroke-width:1.0;"/><polygon fill="none" points="429.61,457.12,414.7088,468.8654,424.7362,475.457,429.61,457.12" style="stroke:#181818;stroke-width:1.0;"/></g><!--reverse link Wrath to God--><g id="link_Wrath_God"><path d="M258.9626,439.752 C279.3126,476.652 304.24,521.86 324.63,558.85 " fill="none" id="Wrath-backto-God" style="stroke:#181818;stroke-width:1.0;stroke-dasharray:7.0,7.0;"/><polygon fill="none" points="250.27,423.99,253.7086,442.6495,264.2166,436.8544,250.27,423.99" style="stroke:#181818;stroke-width:1.0;"/></g><!--reverse link Human to Hero--><g id="link_Human_Hero"><path d="M626,683.12 C626,708.77 626,718.94 626,742.03 " fill="none" id="Human-backto-Hero" style="stroke:#181818;stroke-width:1.0;"/><polygon fill="none" points="626,665.12,620,683.12,632,683.12,626,665.12" style="stroke:#181818;stroke-width:1.0;"/></g><!--reverse link Human to SemiGod--><g id="link_Human_SemiGod"><path d="M500.5387,675.0226 C470.4687,694.8326 453.14,706.26 423.82,725.58 " fill="none" id="Human-backto-SemiGod" style="stroke:#181818;stroke-width:1.0;"/><polygon fill="none" points="515.57,665.12,497.2379,670.0121,503.8396,680.033,515.57,665.12" style="stroke:#181818;stroke-width:1.0;"/></g><!--reverse link Wrath to SemiGod--><g id="link_Wrath_SemiGod"><path d="M234.7266,442.2932 C236.9466,493.7032 243.57,580.14 268,664.81 C273.88,685.19 282.62,706.44 291.55,725.53 " fill="none" id="Wrath-backto-SemiGod" style="stroke:#181818;stroke-width:1.0;stroke-dasharray:7.0,7.0;"/><polygon fill="none" points="233.95,424.31,228.7321,442.5521,240.721,442.0344,233.95,424.31" style="stroke:#181818;stroke-width:1.0;"/></g><!--reverse link Describable to Deed--><g id="link_Describable_Deed"><path d="M361.3034,232.827 C258.2134,243.927 124,277.53 124,390.66 C124,390.66 124,390.66 124,991.23 C124,1035.87 131.36,1085.59 138.67,1123.94 " fill="none" id="Describable-backto-Deed" style="stroke:#181818;stroke-width:1.0;stroke-dasharray:7.0,7.0;"/><polygon fill="none" points="379.2,230.9,360.6611,226.8615,361.9458,238.7925,379.2,230.9" style="stroke:#181818;stroke-width:1.0;"/></g><!--reverse link Litany to Legend--><g id="link_Litany_Legend"><path d="M832.3477,107.8123 C885.1277,133.6423 919,165.61 919,223.95 C919,223.95 919,223.95 919,792.03 C919,939.15 717.48,977.89 581.5,987.28 " fill="none" id="Litany-backto-Legend" style="stroke:#181818;stroke-width:1.0;stroke-dasharray:7.0,7.0;"/><polygon fill="none" points="816.18,99.9,829.7103,113.2016,834.9852,102.4231,816.18,99.9" style="stroke:#181818;stroke-width:1.0;"/></g><!--reverse link Hero to Legend--><g id="link_Hero_Legend"><path codeLine="75" d="M577.8744,849.2023 C554.2744,877.2523 532.08,903.61 507.36,932.97 " fill="none" id="Hero-backto-Legend" style="stroke:#181818;stroke-width:1.0;"/><polygon fill="#181818" points="585.6,840.02,578.6764,842.036,577.8744,849.2023,584.798,847.1864,585.6,840.02" style="stroke:#181818;stroke-width:1.0;"/><text fill="#000000" font-family="sans-serif" font-size="13" lengthAdjust="spacing" textLength="8" x="544" y="899.8284">1</text></g><!--reverse link SemiGod to Legend--><g id="link_SemiGod_Legend"><path codeLine="76" d="M376.6228,866.5265 C393.3328,891.1265 405.5,909.02 421.66,932.81 " fill="none" id="SemiGod-backto-Legend" style="stroke:#181818;stroke-width:1.0;"/><polygon fill="#181818" points="369.88,856.6,369.9425,863.8108,376.6228,866.5265,376.5602,859.3157,369.88,856.6" style="stroke:#181818;stroke-width:1.0;"/><text fill="#000000" font-family="sans-serif" font-size="13" lengthAdjust="spacing" textLength="8" x="403" y="899.8284">1</text></g><!--reverse link Legend to Deed--><g id="link_Legend_Deed"><path codeLine="77" d="M362.3432,1053.965 C325.3032,1077.755 292.03,1099.12 253.68,1123.76 " fill="none" id="Legend-backto-Deed" style="stroke:#181818;stroke-width:1.0;"/><polygon fill="none" points="372.44,1047.48,365.2299,1047.3569,362.3432,1053.965,369.5533,1054.0881,372.44,1047.48" style="stroke:#181818;stroke-width:1.0;"/><text fill="#000000" font-family="sans-serif" font-size="13" lengthAdjust="spacing" textLength="34" x="326" y="1090.7784">many</text></g><!--reverse link Litany to Describable--><g id="link_Litany_Describable"><path codeLine="78" d="M619.9362,115.0142 C587.0362,139.2342 557.3,161.14 526.12,184.1 " fill="none" id="Litany-backto-Describable" style="stroke:#181818;stroke-width:1.0;"/><polygon fill="none" points="629.6,107.9,622.3967,108.2358,619.9362,115.0142,627.1395,114.6783,629.6,107.9" style="stroke:#181818;stroke-width:1.0;"/><text fill="#000000" font-family="sans-serif" font-size="13" lengthAdjust="spacing" textLength="34" x="585" y="151.0384">many</text></g><!--SRC=[jLHDQy904BtdLmnUgjKSUWqYL8JsO7jHw7cJ7UD2FcHtQYlYV-z-9753eaBH71BoPlBcpPl9Fa666m8gGOfqIy25n8H4MGI1A0ZbXYK82rI9536BCuHZ0FeQfqYVBCVXA88LIL6a3UoITuR3YvvylezI4iiyghcGj3NP2qO87XNhmAg6kRcxaCxObu93kygNr0braHzPKPd4TjvI42iEqpNWBs71bT_kp1FvccMs8QJfUkPGnlbG4EOHh6jgYqlCoptQa76fTi4hps95aYK4ISQKWZdgC8Xybs6E1QaUoyF2Ot88FrlT7eEb6_eVJA0dUVJlMJhLxzyvAnhREZsqnXp6PiPkNhLwrWB6bkwswWbuLAF-7UfVePiRT6xjhUIN6xk-MPKtACk6mHbL6P5Xgi48blRPA7MlXiWFg2RG_gnJRuMvy4MxaXT4trU3JJhgXPTIS3p1DOElMRP0vFVx1mpRuty1vuIlsXqdjM2kLIXtQ1X1iyUS9dRPdiEmbXF1u6KGr2lH2LGlfSQjvnhLotBG0QVT1SxcD_4_]--></g></svg>