<?xml version="1.0" encoding="us-ascii" standalone="no"?><svg xmlns="http://www.w3.org/2000/svg" xmlns:xlink="http://www.w3.org/1999/xlink" contentStyleType="text/css" height="1294px" preserveAspectRatio="none" style="width:1181px;height:1294px;background:#FFFFFF;" version="1.1" viewBox="0 0 1181 1294" width="1181px" zoomAndPan="magnify"><defs/><g><!--class Gender--><g id="elem_Gender"><rect codeLine="4" fill="#F1F1F1" height="80.9766" id="Gender" rx="2.5" ry="2.5" style="stroke:#181818;stroke-width:0.5;" width="82" x="360.5" y="616.33"/><ellipse cx="375.5" cy="632.33" fill="#EB937F" rx="11" ry="11" style="stroke:#181818;stroke-width:1.0;"/><path d="M379.1143,638.83 L371.3945,638.83 L371.3945,626.4369 L379.1143,626.4369 L379.1143,628.5951 L373.8433,628.5951 L373.8433,631.268 L378.6162,631.268 L378.6162,633.4262 L373.8433,633.4262 L373.8433,636.6718 L379.1143,636.6718 Z " fill="#000000"/><text fill="#000000" font-family="sans-serif" font-size="14" lengthAdjust="spacing" textLength="50" x="389.5" y="637.621">Gender</text><line style="stroke:#181818;stroke-width:0.5;" x1="361.5" x2="441.5" y1="648.33" y2="648.33"/><text fill="#000000" font-family="sans-serif" font-size="14" lengthAdjust="spacing" textLength="37" x="366.5" y="665.8652">MALE</text><text fill="#000000" font-family="sans-serif" font-size="14" lengthAdjust="spacing" textLength="53" x="366.5" y="682.3534">FEMALE</text><line style="stroke:#181818;stroke-width:0.5;" x1="361.5" x2="441.5" y1="689.3066" y2="689.3066"/></g><!--class Describable--><g id="elem_Describable"><rect codeLine="9" fill="#F1F1F1" height="80.9766" id="Describable" rx="2.5" ry="2.5" style="stroke:#181818;stroke-width:0.5;" width="185" x="455" y="184.47"/><ellipse cx="503.25" cy="200.47" fill="#B4A7E5" rx="11" ry="11" style="stroke:#181818;stroke-width:1.0;"/><path d="M499.6777,196.7351 L499.6777,194.5769 L507.0571,194.5769 L507.0571,196.7351 L504.5918,196.7351 L504.5918,204.8118 L507.0571,204.8118 L507.0571,206.97 L499.6777,206.97 L499.6777,204.8118 L502.1431,204.8118 L502.1431,196.7351 Z " fill="#000000"/><text fill="#000000" font-family="sans-serif" font-size="14" font-style="italic" lengthAdjust="spacing" textLength="80" x="523.75" y="205.761">Describable</text><line style="stroke:#181818;stroke-width:0.5;" x1="456" x2="639" y1="216.47" y2="216.47"/><line style="stroke:#181818;stroke-width:0.5;" x1="456" x2="639" y1="224.47" y2="224.47"/><ellipse cx="466" cy="238.2141" fill="#84BE84" rx="3" ry="3" style="stroke:#038048;stroke-width:1.0;"/><text fill="#000000" font-family="sans-serif" font-size="14" lengthAdjust="spacing" textLength="120" x="475" y="242.0052">getName(): String</text><ellipse cx="466" cy="254.7024" fill="#84BE84" rx="3" ry="3" style="stroke:#038048;stroke-width:1.0;"/><text fill="#000000" font-family="sans-serif" font-size="14" lengthAdjust="spacing" textLength="159" x="475" y="258.4934">getDescription(): String</text></g><!--class Mortal--><g id="elem_Mortal"><rect codeLine="14" fill="#F1F1F1" height="97.4648" id="Mortal" rx="2.5" ry="2.5" style="stroke:#181818;stroke-width:0.5;" width="211" x="859" y="367.67"/><ellipse cx="938.25" cy="383.67" fill="#B4A7E5" rx="11" ry="11" style="stroke:#181818;stroke-width:1.0;"/><path d="M934.6777,379.9351 L934.6777,377.7769 L942.0571,377.7769 L942.0571,379.9351 L939.5918,379.9351 L939.5918,388.0118 L942.0571,388.0118 L942.0571,390.17 L934.6777,390.17 L934.6777,388.0118 L937.1431,388.0118 L937.1431,379.9351 Z " fill="#000000"/><text fill="#000000" font-family="sans-serif" font-size="14" font-style="italic" lengthAdjust="spacing" textLength="44" x="958.75" y="388.961">Mortal</text><line style="stroke:#181818;stroke-width:0.5;" x1="860" x2="1069" y1="399.67" y2="399.67"/><line style="stroke:#181818;stroke-width:0.5;" x1="860" x2="1069" y1="407.67" y2="407.67"/><ellipse cx="870" cy="421.4141" fill="#84BE84" rx="3" ry="3" style="stroke:#038048;stroke-width:1.0;"/><text fill="#000000" font-family="sans-serif" font-size="14" lengthAdjust="spacing" textLength="103" x="879" y="425.2052">getBirth(): Date</text><ellipse cx="870" cy="437.9024" fill="#84BE84" rx="3" ry="3" style="stroke:#038048;stroke-width:1.0;"/><text fill="#000000" font-family="sans-serif" font-size="14" lengthAdjust="spacing" textLength="111" x="879" y="441.6934">getDeath(): Date</text><ellipse cx="870" cy="454.3907" fill="#84BE84" rx="3" ry="3" style="stroke:#038048;stroke-width:1.0;"/><text fill="#000000" font-family="sans-serif" font-size="14" lengthAdjust="spacing" textLength="185" x="879" y="458.1817">setDeath(death: Date): void</text></g><!--class Wrath--><g id="elem_Wrath"><rect codeLine="20" fill="#F1F1F1" height="64.4883" id="Wrath" rx="2.5" ry="2.5" style="stroke:#181818;stroke-width:0.5;" width="112" x="123.5" y="384.15"/><ellipse cx="156.5" cy="400.15" fill="#B4A7E5" rx="11" ry="11" style="stroke:#181818;stroke-width:1.0;"/><path d="M152.9277,396.4151 L152.9277,394.2569 L160.3071,394.2569 L160.3071,396.4151 L157.8418,396.4151 L157.8418,404.4918 L160.3071,404.4918 L160.3071,406.65 L152.9277,406.65 L152.9277,404.4918 L155.3931,404.4918 L155.3931,396.4151 Z " fill="#000000"/><text fill="#000000" font-family="sans-serif" font-size="14" font-style="italic" lengthAdjust="spacing" textLength="40" x="174.5" y="405.441">Wrath</text><line style="stroke:#181818;stroke-width:0.5;" x1="124.5" x2="234.5" y1="416.15" y2="416.15"/><line style="stroke:#181818;stroke-width:0.5;" x1="124.5" x2="234.5" y1="424.15" y2="424.15"/><ellipse cx="134.5" cy="437.8941" fill="#84BE84" rx="3" ry="3" style="stroke:#038048;stroke-width:1.0;"/><text fill="#000000" font-family="sans-serif" font-size="14" lengthAdjust="spacing" textLength="86" x="143.5" y="441.6852">wrath(): void</text></g><!--class Litany--><g id="elem_Litany"><rect codeLine="24" fill="#F1F1F1" height="97.4648" id="Litany" rx="2.5" ry="2.5" style="stroke:#181818;stroke-width:0.5;" width="242" x="739.5" y="10"/><ellipse cx="770.25" cy="26" fill="#B4A7E5" rx="11" ry="11" style="stroke:#181818;stroke-width:1.0;"/><path d="M766.6777,22.2651 L766.6777,20.1069 L774.0571,20.1069 L774.0571,22.2651 L771.5918,22.2651 L771.5918,30.3418 L774.0571,30.3418 L774.0571,32.5 L766.6777,32.5 L766.6777,30.3418 L769.1431,30.3418 L769.1431,22.2651 Z " fill="#000000"/><text fill="#000000" font-family="sans-serif" font-size="14" font-style="italic" lengthAdjust="spacing" textLength="40" x="787.75" y="31.291">Litany</text><rect fill="#FFFFFF" height="16.1328" style="stroke:#181818;stroke-width:1.0;stroke-dasharray:2.0,2.0;" width="133" x="851.5" y="7"/><text fill="#000000" font-family="sans-serif" font-size="12" font-style="italic" lengthAdjust="spacing" textLength="131" x="852.5" y="19.6016">T extends Describable</text><line style="stroke:#181818;stroke-width:0.5;" x1="740.5" x2="980.5" y1="42" y2="42"/><line style="stroke:#181818;stroke-width:0.5;" x1="740.5" x2="980.5" y1="50" y2="50"/><ellipse cx="750.5" cy="63.7441" fill="#84BE84" rx="3" ry="3" style="stroke:#038048;stroke-width:1.0;"/><text fill="#000000" font-family="sans-serif" font-size="14" lengthAdjust="spacing" textLength="110" x="759.5" y="67.5352">getAll(): Set&lt;T&gt;</text><ellipse cx="750.5" cy="80.2324" fill="#84BE84" rx="3" ry="3" style="stroke:#038048;stroke-width:1.0;"/><text fill="#000000" font-family="sans-serif" font-size="14" lengthAdjust="spacing" textLength="120" x="759.5" y="84.0234">add(item: T): void</text><ellipse cx="750.5" cy="96.7207" fill="#84BE84" rx="3" ry="3" style="stroke:#038048;stroke-width:1.0;"/><text fill="#000000" font-family="sans-serif" font-size="14" lengthAdjust="spacing" textLength="216" x="759.5" y="100.5117">remove(itemName: String): void</text></g><!--class Being--><g id="elem_Being"><rect codeLine="30" fill="#F1F1F1" height="179.9063" id="Being" rx="2.5" ry="2.5" style="stroke:#181818;stroke-width:0.5;" width="553" x="271" y="326.44"/><ellipse cx="524.25" cy="342.44" fill="#A9DCDF" rx="11" ry="11" style="stroke:#181818;stroke-width:1.0;"/><path d="M524.1133,337.7881 L522.9595,342.8599 L525.2754,342.8599 Z M522.6191,335.5469 L525.6157,335.5469 L528.9609,347.94 L526.5122,347.94 L525.7485,344.877 L522.4697,344.877 L521.7227,347.94 L519.2739,347.94 Z " fill="#000000"/><text fill="#000000" font-family="sans-serif" font-size="14" font-style="italic" lengthAdjust="spacing" textLength="38" x="544.75" y="347.731">Being</text><line style="stroke:#181818;stroke-width:0.5;" x1="272" x2="823" y1="358.44" y2="358.44"/><rect fill="none" height="6" style="stroke:#C82930;stroke-width:1.0;" width="6" x="279" y="369.1841"/><text fill="#000000" font-family="sans-serif" font-size="14" lengthAdjust="spacing" textLength="87" x="291" y="375.9752">name: String</text><rect fill="none" height="6" style="stroke:#C82930;stroke-width:1.0;" width="6" x="279" y="385.6724"/><text fill="#000000" font-family="sans-serif" font-size="14" lengthAdjust="spacing" textLength="126" x="291" y="392.4634">description: String</text><rect fill="none" height="6" style="stroke:#C82930;stroke-width:1.0;" width="6" x="279" y="402.1607"/><text fill="#000000" font-family="sans-serif" font-size="14" lengthAdjust="spacing" textLength="250" x="291" y="408.9517">genderMap: Map&lt;Gender, Boolean&gt;</text><line style="stroke:#181818;stroke-width:0.5;" x1="272" x2="823" y1="415.9048" y2="415.9048"/><ellipse cx="282" cy="429.649" fill="#84BE84" rx="3" ry="3" style="stroke:#038048;stroke-width:1.0;"/><text fill="#000000" font-family="sans-serif" font-size="14" lengthAdjust="spacing" textLength="527" x="291" y="433.44">Being(name: String, description: String, genderMap: Map&lt;Gender, Boolean&gt;)</text><ellipse cx="282" cy="446.1373" fill="#84BE84" rx="3" ry="3" style="stroke:#038048;stroke-width:1.0;"/><text fill="#000000" font-family="sans-serif" font-size="14" lengthAdjust="spacing" textLength="120" x="291" y="449.9283">getName(): String</text><ellipse cx="282" cy="462.6255" fill="#84BE84" rx="3" ry="3" style="stroke:#038048;stroke-width:1.0;"/><text fill="#000000" font-family="sans-serif" font-size="14" lengthAdjust="spacing" textLength="159" x="291" y="466.4166">getDescription(): String</text><ellipse cx="282" cy="479.1138" fill="#84BE84" rx="3" ry="3" style="stroke:#038048;stroke-width:1.0;"/><text fill="#000000" font-family="sans-serif" font-size="14" lengthAdjust="spacing" textLength="117" x="291" y="482.9048">isMale(): boolean</text><ellipse cx="282" cy="495.6021" fill="#84BE84" rx="3" ry="3" style="stroke:#038048;stroke-width:1.0;"/><text fill="#000000" font-family="sans-serif" font-size="14" lengthAdjust="spacing" textLength="134" x="291" y="499.3931">isFemale(): boolean</text></g><!--class Human--><g id="elem_Human"><rect codeLine="41" fill="#F1F1F1" height="146.9297" id="Human" rx="2.5" ry="2.5" style="stroke:#181818;stroke-width:0.5;" width="644" x="477.5" y="583.35"/><ellipse cx="770.75" cy="599.35" fill="#ADD1B2" rx="11" ry="11" style="stroke:#181818;stroke-width:1.0;"/><path d="M773.2231,605.4931 Q772.6421,605.7919 772.0029,605.9413 Q771.3638,606.0907 770.6582,606.0907 Q768.1514,606.0907 766.8315,604.4389 Q765.5117,602.787 765.5117,599.6659 Q765.5117,596.5365 766.8315,594.8847 Q768.1514,593.2328 770.6582,593.2328 Q771.3638,593.2328 772.0112,593.3822 Q772.6587,593.5316 773.2231,593.8305 L773.2231,596.5531 Q772.5923,595.9721 771.9988,595.7023 Q771.4053,595.4325 770.7744,595.4325 Q769.4297,595.4325 768.7449,596.4992 Q768.0601,597.5658 768.0601,599.6659 Q768.0601,601.7577 768.7449,602.8244 Q769.4297,603.891 770.7744,603.891 Q771.4053,603.891 771.9988,603.6212 Q772.5923,603.3515 773.2231,602.7704 Z " fill="#000000"/><text fill="#000000" font-family="sans-serif" font-size="14" lengthAdjust="spacing" textLength="49" x="791.25" y="604.641">Human</text><line style="stroke:#181818;stroke-width:0.5;" x1="478.5" x2="1120.5" y1="615.35" y2="615.35"/><rect fill="none" height="6" style="stroke:#C82930;stroke-width:1.0;" width="6" x="485.5" y="626.0941"/><text fill="#000000" font-family="sans-serif" font-size="14" lengthAdjust="spacing" textLength="72" x="497.5" y="632.8852">birth: Date</text><rect fill="none" height="6" style="stroke:#C82930;stroke-width:1.0;" width="6" x="485.5" y="642.5824"/><text fill="#000000" font-family="sans-serif" font-size="14" lengthAdjust="spacing" textLength="78" x="497.5" y="649.3734">death: Date</text><line style="stroke:#181818;stroke-width:0.5;" x1="478.5" x2="1120.5" y1="656.3266" y2="656.3266"/><ellipse cx="488.5" cy="670.0707" fill="#84BE84" rx="3" ry="3" style="stroke:#038048;stroke-width:1.0;"/><text fill="#000000" font-family="sans-serif" font-size="14" lengthAdjust="spacing" textLength="618" x="497.5" y="673.8617">Human(name: String, description: String, genderMap: Map&lt;Gender, Boolean&gt;, birth: Date)</text><ellipse cx="488.5" cy="686.559" fill="#84BE84" rx="3" ry="3" style="stroke:#038048;stroke-width:1.0;"/><text fill="#000000" font-family="sans-serif" font-size="14" lengthAdjust="spacing" textLength="103" x="497.5" y="690.35">getBirth(): Date</text><ellipse cx="488.5" cy="703.0473" fill="#84BE84" rx="3" ry="3" style="stroke:#038048;stroke-width:1.0;"/><text fill="#000000" font-family="sans-serif" font-size="14" lengthAdjust="spacing" textLength="111" x="497.5" y="706.8383">getDeath(): Date</text><ellipse cx="488.5" cy="719.5355" fill="#84BE84" rx="3" ry="3" style="stroke:#038048;stroke-width:1.0;"/><text fill="#000000" font-family="sans-serif" font-size="14" lengthAdjust="spacing" textLength="185" x="497.5" y="723.3266">setDeath(death: Date): void</text></g><!--class God--><g id="elem_God"><rect codeLine="50" fill="#F1F1F1" height="64.4883" id="God" rx="2.5" ry="2.5" style="stroke:#181818;stroke-width:0.5;" width="112" x="213.5" y="624.57"/><ellipse cx="251.9" cy="640.57" fill="#ADD1B2" rx="11" ry="11" style="stroke:#181818;stroke-width:1.0;"/><path d="M254.3731,646.7131 Q253.7921,647.0119 253.1529,647.1613 Q252.5138,647.3107 251.8082,647.3107 Q249.3014,647.3107 247.9815,645.6589 Q246.6617,644.007 246.6617,640.8859 Q246.6617,637.7565 247.9815,636.1047 Q249.3014,634.4528 251.8082,634.4528 Q252.5138,634.4528 253.1612,634.6022 Q253.8087,634.7516 254.3731,635.0505 L254.3731,637.7731 Q253.7423,637.1921 253.1488,636.9223 Q252.5553,636.6525 251.9244,636.6525 Q250.5797,636.6525 249.8949,637.7192 Q249.2101,638.7858 249.2101,640.8859 Q249.2101,642.9777 249.8949,644.0444 Q250.5797,645.111 251.9244,645.111 Q252.5553,645.111 253.1488,644.8412 Q253.7423,644.5715 254.3731,643.9904 Z " fill="#000000"/><text fill="#000000" font-family="sans-serif" font-size="14" lengthAdjust="spacing" textLength="28" x="271.1" y="645.861">God</text><line style="stroke:#181818;stroke-width:0.5;" x1="214.5" x2="324.5" y1="656.57" y2="656.57"/><line style="stroke:#181818;stroke-width:0.5;" x1="214.5" x2="324.5" y1="664.57" y2="664.57"/><ellipse cx="224.5" cy="678.3141" fill="#84BE84" rx="3" ry="3" style="stroke:#038048;stroke-width:1.0;"/><text fill="#000000" font-family="sans-serif" font-size="14" lengthAdjust="spacing" textLength="86" x="233.5" y="682.1052">wrath(): void</text></g><!--class Hero--><g id="elem_Hero"><rect codeLine="54" fill="#F1F1F1" height="80.9766" id="Hero" rx="2.5" ry="2.5" style="stroke:#181818;stroke-width:0.5;" width="166" x="716.5" y="807.77"/><ellipse cx="778.75" cy="823.77" fill="#ADD1B2" rx="11" ry="11" style="stroke:#181818;stroke-width:1.0;"/><path d="M781.2231,829.9131 Q780.6421,830.2119 780.0029,830.3613 Q779.3638,830.5107 778.6582,830.5107 Q776.1514,830.5107 774.8315,828.8589 Q773.5117,827.207 773.5117,824.0859 Q773.5117,820.9565 774.8315,819.3047 Q776.1514,817.6528 778.6582,817.6528 Q779.3638,817.6528 780.0112,817.8022 Q780.6587,817.9516 781.2231,818.2505 L781.2231,820.9731 Q780.5923,820.3921 779.9988,820.1223 Q779.4053,819.8525 778.7744,819.8525 Q777.4297,819.8525 776.7449,820.9192 Q776.0601,821.9858 776.0601,824.0859 Q776.0601,826.1777 776.7449,827.2444 Q777.4297,828.311 778.7744,828.311 Q779.4053,828.311 779.9988,828.0412 Q780.5923,827.7715 781.2231,827.1904 Z " fill="#000000"/><text fill="#000000" font-family="sans-serif" font-size="14" lengthAdjust="spacing" textLength="33" x="799.25" y="829.061">Hero</text><line style="stroke:#181818;stroke-width:0.5;" x1="717.5" x2="881.5" y1="839.77" y2="839.77"/><rect fill="none" height="6" style="stroke:#C82930;stroke-width:1.0;" width="6" x="724.5" y="850.5141"/><text fill="#000000" font-family="sans-serif" font-size="14" lengthAdjust="spacing" textLength="105" x="736.5" y="857.3052">legend: Legend</text><line style="stroke:#181818;stroke-width:0.5;" x1="717.5" x2="881.5" y1="864.2583" y2="864.2583"/><ellipse cx="727.5" cy="878.0024" fill="#84BE84" rx="3" ry="3" style="stroke:#038048;stroke-width:1.0;"/><text fill="#000000" font-family="sans-serif" font-size="14" lengthAdjust="spacing" textLength="140" x="736.5" y="881.7934">getLegend(): Legend</text></g><!--class SemiGod--><g id="elem_SemiGod"><rect codeLine="59" fill="#F1F1F1" height="113.9531" id="SemiGod" rx="2.5" ry="2.5" style="stroke:#181818;stroke-width:0.5;" width="282" x="399.5" y="791.28"/><ellipse cx="505.75" cy="807.28" fill="#ADD1B2" rx="11" ry="11" style="stroke:#181818;stroke-width:1.0;"/><path d="M508.2231,813.4231 Q507.6421,813.7219 507.0029,813.8713 Q506.3638,814.0207 505.6582,814.0207 Q503.1514,814.0207 501.8315,812.3689 Q500.5117,810.717 500.5117,807.5959 Q500.5117,804.4665 501.8315,802.8147 Q503.1514,801.1628 505.6582,801.1628 Q506.3638,801.1628 507.0112,801.3122 Q507.6587,801.4616 508.2231,801.7605 L508.2231,804.4831 Q507.5923,803.9021 506.9988,803.6323 Q506.4053,803.3625 505.7744,803.3625 Q504.4297,803.3625 503.7449,804.4292 Q503.0601,805.4958 503.0601,807.5959 Q503.0601,809.6877 503.7449,810.7544 Q504.4297,811.821 505.7744,811.821 Q506.4053,811.821 506.9988,811.5512 Q507.5923,811.2815 508.2231,810.7004 Z " fill="#000000"/><text fill="#000000" font-family="sans-serif" font-size="14" lengthAdjust="spacing" textLength="61" x="526.25" y="812.571">SemiGod</text><line style="stroke:#181818;stroke-width:0.5;" x1="400.5" x2="680.5" y1="823.28" y2="823.28"/><rect fill="none" height="6" style="stroke:#C82930;stroke-width:1.0;" width="6" x="407.5" y="834.0241"/><text fill="#000000" font-family="sans-serif" font-size="14" lengthAdjust="spacing" textLength="105" x="419.5" y="840.8152">legend: Legend</text><line style="stroke:#181818;stroke-width:0.5;" x1="400.5" x2="680.5" y1="847.7683" y2="847.7683"/><ellipse cx="410.5" cy="861.5124" fill="#84BE84" rx="3" ry="3" style="stroke:#038048;stroke-width:1.0;"/><text fill="#000000" font-family="sans-serif" font-size="14" lengthAdjust="spacing" textLength="140" x="419.5" y="865.3034">getLegend(): Legend</text><ellipse cx="410.5" cy="878.0007" fill="#84BE84" rx="3" ry="3" style="stroke:#038048;stroke-width:1.0;"/><text fill="#000000" font-family="sans-serif" font-size="14" lengthAdjust="spacing" textLength="256" x="419.5" y="881.7917">{override} setDeath(death: Date): void</text><ellipse cx="410.5" cy="894.489" fill="#84BE84" rx="3" ry="3" style="stroke:#038048;stroke-width:1.0;"/><text fill="#000000" font-family="sans-serif" font-size="14" lengthAdjust="spacing" textLength="86" x="419.5" y="898.28">wrath(): void</text></g><!--class Deed--><g id="elem_Deed"><rect codeLine="66" fill="#F1F1F1" height="113.9531" id="Deed" rx="2.5" ry="2.5" style="stroke:#181818;stroke-width:0.5;" width="185" x="7" y="1173.19"/><ellipse cx="77.75" cy="1189.19" fill="#ADD1B2" rx="11" ry="11" style="stroke:#181818;stroke-width:1.0;"/><path d="M80.2231,1195.3331 Q79.6421,1195.6319 79.0029,1195.7813 Q78.3638,1195.9307 77.6582,1195.9307 Q75.1514,1195.9307 73.8315,1194.2789 Q72.5117,1192.627 72.5117,1189.5059 Q72.5117,1186.3765 73.8315,1184.7247 Q75.1514,1183.0728 77.6582,1183.0728 Q78.3638,1183.0728 79.0112,1183.2222 Q79.6587,1183.3716 80.2231,1183.6705 L80.2231,1186.3931 Q79.5923,1185.8121 78.9988,1185.5423 Q78.4053,1185.2725 77.7744,1185.2725 Q76.4297,1185.2725 75.7449,1186.3392 Q75.0601,1187.4058 75.0601,1189.5059 Q75.0601,1191.5977 75.7449,1192.6644 Q76.4297,1193.731 77.7744,1193.731 Q78.4053,1193.731 78.9988,1193.4612 Q79.5923,1193.1915 80.2231,1192.6104 Z " fill="#000000"/><text fill="#000000" font-family="sans-serif" font-size="14" lengthAdjust="spacing" textLength="35" x="98.25" y="1194.481">Deed</text><line style="stroke:#181818;stroke-width:0.5;" x1="8" x2="191" y1="1205.19" y2="1205.19"/><rect fill="none" height="6" style="stroke:#C82930;stroke-width:1.0;" width="6" x="15" y="1215.9341"/><text fill="#000000" font-family="sans-serif" font-size="14" lengthAdjust="spacing" textLength="87" x="27" y="1222.7252">name: String</text><rect fill="none" height="6" style="stroke:#C82930;stroke-width:1.0;" width="6" x="15" y="1232.4224"/><text fill="#000000" font-family="sans-serif" font-size="14" lengthAdjust="spacing" textLength="126" x="27" y="1239.2134">description: String</text><line style="stroke:#181818;stroke-width:0.5;" x1="8" x2="191" y1="1246.1666" y2="1246.1666"/><ellipse cx="18" cy="1259.9107" fill="#84BE84" rx="3" ry="3" style="stroke:#038048;stroke-width:1.0;"/><text fill="#000000" font-family="sans-serif" font-size="14" lengthAdjust="spacing" textLength="120" x="27" y="1263.7017">getName(): String</text><ellipse cx="18" cy="1276.399" fill="#84BE84" rx="3" ry="3" style="stroke:#038048;stroke-width:1.0;"/><text fill="#000000" font-family="sans-serif" font-size="14" lengthAdjust="spacing" textLength="159" x="27" y="1280.19">getDescription(): String</text></g><!--class Legend--><g id="elem_Legend"><rect codeLine="73" fill="#F1F1F1" height="113.9531" id="Legend" rx="2.5" ry="2.5" style="stroke:#181818;stroke-width:0.5;" width="242" x="497.5" y="982.23"/><ellipse cx="589.25" cy="998.23" fill="#ADD1B2" rx="11" ry="11" style="stroke:#181818;stroke-width:1.0;"/><path d="M591.7231,1004.3731 Q591.1421,1004.6719 590.5029,1004.8213 Q589.8638,1004.9707 589.1582,1004.9707 Q586.6514,1004.9707 585.3315,1003.3189 Q584.0117,1001.667 584.0117,998.5459 Q584.0117,995.4165 585.3315,993.7647 Q586.6514,992.1128 589.1582,992.1128 Q589.8638,992.1128 590.5112,992.2622 Q591.1587,992.4116 591.7231,992.7105 L591.7231,995.4331 Q591.0923,994.8521 590.4988,994.5823 Q589.9053,994.3125 589.2744,994.3125 Q587.9297,994.3125 587.2449,995.3792 Q586.5601,996.4458 586.5601,998.5459 Q586.5601,1000.6377 587.2449,1001.7044 Q587.9297,1002.771 589.2744,1002.771 Q589.9053,1002.771 590.4988,1002.5012 Q591.0923,1002.2315 591.7231,1001.6504 Z " fill="#000000"/><text fill="#000000" font-family="sans-serif" font-size="14" lengthAdjust="spacing" textLength="50" x="609.75" y="1003.521">Legend</text><line style="stroke:#181818;stroke-width:0.5;" x1="498.5" x2="738.5" y1="1014.23" y2="1014.23"/><rect fill="none" height="6" style="stroke:#C82930;stroke-width:1.0;" width="6" x="505.5" y="1024.9741"/><text fill="#000000" font-family="sans-serif" font-size="14" lengthAdjust="spacing" textLength="127" x="517.5" y="1031.7652">deeds: Set&lt;Deed&gt;</text><line style="stroke:#181818;stroke-width:0.5;" x1="498.5" x2="738.5" y1="1038.7183" y2="1038.7183"/><ellipse cx="508.5" cy="1052.4624" fill="#84BE84" rx="3" ry="3" style="stroke:#038048;stroke-width:1.0;"/><text fill="#000000" font-family="sans-serif" font-size="14" lengthAdjust="spacing" textLength="110" x="517.5" y="1056.2534">getAll(): Set&lt;T&gt;</text><ellipse cx="508.5" cy="1068.9507" fill="#84BE84" rx="3" ry="3" style="stroke:#038048;stroke-width:1.0;"/><text fill="#000000" font-family="sans-serif" font-size="14" lengthAdjust="spacing" textLength="120" x="517.5" y="1072.7417">add(item: T): void</text><ellipse cx="508.5" cy="1085.439" fill="#84BE84" rx="3" ry="3" style="stroke:#038048;stroke-width:1.0;"/><text fill="#000000" font-family="sans-serif" font-size="14" lengthAdjust="spacing" textLength="216" x="517.5" y="1089.23">remove(itemName: String): void</text></g><!--reverse link Describable to Being--><g id="link_Describable_Being"><path d="M547.5,283.67 C547.5,301.35 547.5,304.95 547.5,326.18 " fill="none" id="Describable-backto-Being" style="stroke:#181818;stroke-width:1.0;stroke-dasharray:7.0,7.0;"/><polygon fill="none" points="547.5,265.67,541.5,283.67,553.5,283.67,547.5,265.67" style="stroke:#181818;stroke-width:1.0;"/></g><!--reverse link Being to Human--><g id="link_Being_Human"><path d="M654.7655,518.8806 C681.4755,544.1506 697.14,558.97 722.68,583.13 " fill="none" id="Being-backto-Human" style="stroke:#181818;stroke-width:1.0;"/><polygon fill="none" points="641.69,506.51,650.642,523.2391,658.889,514.5221,641.69,506.51" style="stroke:#181818;stroke-width:1.0;"/></g><!--reverse link Mortal to Human--><g id="link_Mortal_Human"><path d="M921.0656,480.1604 C897.7256,513.8804 876.32,544.82 849.88,583.02 " fill="none" id="Mortal-backto-Human" style="stroke:#181818;stroke-width:1.0;stroke-dasharray:7.0,7.0;"/><polygon fill="none" points="931.31,465.36,916.1321,476.7456,925.9991,483.5752,931.31,465.36" style="stroke:#181818;stroke-width:1.0;"/></g><!--reverse link Being to God--><g id="link_Being_God"><path d="M419.0257,518.0231 C389.0657,542.3031 371.13,557.67 342.5,583.35 C328.14,596.23 312.91,611.14 300.09,624.07 " fill="none" id="Being-backto-God" style="stroke:#181818;stroke-width:1.0;"/><polygon fill="none" points="433.01,506.69,415.248,513.3616,422.8034,522.6845,433.01,506.69" style="stroke:#181818;stroke-width:1.0;"/></g><!--reverse link Wrath to God--><g id="link_Wrath_God"><path d="M197.8061,465.9004 C215.0661,511.6304 240.43,578.82 257.64,624.4 " fill="none" id="Wrath-backto-God" style="stroke:#181818;stroke-width:1.0;stroke-dasharray:7.0,7.0;"/><polygon fill="none" points="191.45,449.06,192.1927,468.0191,203.4196,463.7817,191.45,449.06" style="stroke:#181818;stroke-width:1.0;"/></g><!--reverse link Human to Hero--><g id="link_Human_Hero"><path d="M799.5,748.52 C799.5,774.6 799.5,785.05 799.5,807.33 " fill="none" id="Human-backto-Hero" style="stroke:#181818;stroke-width:1.0;"/><polygon fill="none" points="799.5,730.52,793.5,748.52,805.5,748.52,799.5,730.52" style="stroke:#181818;stroke-width:1.0;"/></g><!--reverse link Human to SemiGod--><g id="link_Human_SemiGod"><path d="M685.5706,741.1452 C658.1806,761.1752 643.42,771.98 617.51,790.93 " fill="none" id="Human-backto-SemiGod" style="stroke:#181818;stroke-width:1.0;"/><polygon fill="none" points="700.1,730.52,682.0288,736.3021,689.1123,745.9884,700.1,730.52" style="stroke:#181818;stroke-width:1.0;"/></g><!--reverse link Wrath to SemiGod--><g id="link_Wrath_SemiGod"><path d="M166.3179,466.2284 C151.1379,527.2984 131.85,646.12 195.5,730.28 C243.19,793.34 326.56,822.7 399.4,836.25 " fill="none" id="Wrath-backto-SemiGod" style="stroke:#181818;stroke-width:1.0;stroke-dasharray:7.0,7.0;"/><polygon fill="none" points="170.66,448.76,160.4951,464.7811,172.1407,467.6758,170.66,448.76" style="stroke:#181818;stroke-width:1.0;"/></g><!--reverse link Describable to Deed--><g id="link_Describable_Deed"><path d="M436.6742,239.1614 C322.9842,254.1414 157.13,282.09 105.5,326.44 C73.27,354.13 70.5,372.91 70.5,415.4 C70.5,415.4 70.5,415.4 70.5,1040.21 C70.5,1085.18 78.62,1135.48 86.27,1172.87 " fill="none" id="Describable-backto-Deed" style="stroke:#181818;stroke-width:1.0;stroke-dasharray:7.0,7.0;"/><polygon fill="none" points="454.52,236.81,435.8904,233.2128,437.458,245.11,454.52,236.81" style="stroke:#181818;stroke-width:1.0;"/></g><!--reverse link Litany to Legend--><g id="link_Litany_Legend"><path d="M999.5303,77.9594 C1087.8903,96.1494 1174.5,133.22 1174.5,223.96 C1174.5,223.96 1174.5,223.96 1174.5,849.26 C1174.5,940.37 903.43,996.37 739.83,1021.87 " fill="none" id="Litany-backto-Legend" style="stroke:#181818;stroke-width:1.0;stroke-dasharray:7.0,7.0;"/><polygon fill="none" points="981.9,74.33,998.3205,83.8362,1000.7401,72.0826,981.9,74.33" style="stroke:#181818;stroke-width:1.0;"/></g><!--reverse link Hero to Legend--><g id="link_Hero_Legend"><path codeLine="80" d="M753.2567,897.5335 C727.4367,924.4735 701.2,951.87 672.53,981.81 " fill="none" id="Hero-backto-Legend" style="stroke:#181818;stroke-width:1.0;"/><polygon fill="#181818" points="761.56,888.87,754.5205,890.434,753.2567,897.5335,760.2962,895.9695,761.56,888.87" style="stroke:#181818;stroke-width:1.0;"/><text fill="#000000" font-family="sans-serif" font-size="13" lengthAdjust="spacing" textLength="8" x="715.5" y="948.7984">1</text></g><!--reverse link SemiGod to Legend--><g id="link_SemiGod_Legend"><path codeLine="81" d="M568.3774,916.7827 C578.2974,940.8227 585.27,957.7 595.19,981.74 " fill="none" id="SemiGod-backto-Legend" style="stroke:#181818;stroke-width:1.0;"/><polygon fill="#181818" points="563.8,905.69,562.3911,912.7621,568.3774,916.7827,569.7862,909.7106,563.8,905.69" style="stroke:#181818;stroke-width:1.0;"/><text fill="#000000" font-family="sans-serif" font-size="13" lengthAdjust="spacing" textLength="8" x="583.5" y="948.7984">1</text></g><!--reverse link Legend to Deed--><g id="link_Legend_Deed"><path codeLine="82" d="M485.874,1088.4952 C392.704,1122.4152 277.28,1164.44 192.16,1195.43 " fill="none" id="Legend-backto-Deed" style="stroke:#181818;stroke-width:1.0;"/><polygon fill="none" points="497.15,1084.39,490.1436,1082.6839,485.874,1088.4952,492.8804,1090.2013,497.15,1084.39" style="stroke:#181818;stroke-width:1.0;"/><text fill="#000000" font-family="sans-serif" font-size="13" lengthAdjust="spacing" textLength="34" x="376.5" y="1139.7584">many</text></g><!--reverse link Litany to Describable--><g id="link_Litany_Describable"><path codeLine="83" d="M758.0743,113.4763 C711.9043,137.7063 667.22,161.14 623.47,184.1 " fill="none" id="Litany-backto-Describable" style="stroke:#181818;stroke-width:1.0;"/><polygon fill="none" points="768.7,107.9,761.5284,107.1463,758.0743,113.4763,765.246,114.2301,768.7,107.9" style="stroke:#181818;stroke-width:1.0;"/><text fill="#000000" font-family="sans-serif" font-size="13" lengthAdjust="spacing" textLength="34" x="705.5" y="151.0384">many</text></g><!--reverse link Being to Gender--><g id="link_Being_Gender"><path codeLine="84" d="M486.6625,516.7432 C463.5725,554.4432 444.13,586.2 425.87,616.02 " fill="none" id="Being-backto-Gender" style="stroke:#181818;stroke-width:1.0;"/><polygon fill="#181818" points="492.93,506.51,486.3852,509.5374,486.6625,516.7432,493.2073,513.7158,492.93,506.51" style="stroke:#181818;stroke-width:1.0;"/><text fill="#000000" font-family="sans-serif" font-size="13" lengthAdjust="spacing" textLength="28" x="475.5" y="549.9184">[1,2]</text></g><!--SRC=[jLLDJ-Cm4BtdLunweLtI0noZgX9L-JYqUw7I7bPxSEAXMF97PHjOXFZlE9uuE5le8WGzfCcywPitRoRk4KYyyU0DMB6zzS25nSOBeui2zPs2IzGSBJmL43xhizLvlBauZxVFHI6qHtl36eGbkiQAcjKIk_JZBVgVJE5uKi6rjq9l-p0bxzf26JhWMnlhcSoe5iBwspPxoJn2HiNsmYw5UNibA6JS6y5XMEMN3Gcfo8FjgDh4OTvAUAOVPnl0lpvOul9svvd8CobZG-Xdcpb56UTZuL5Li4dKCMvHcNkCKEjISY4hpshdBMiyD98v1miCC0YrawXGU_U6vLETCL64lrez1BPnj6ksgo1SPZJf4XR6I6Iw4nzhZdFM4jvWBE4_R9FFRKH4XLip6NzJ4riANw3w1mYcaLTNTuhfVbXxpWsMQrgtcqLRaZnZWy1nfFi26qh8Qas-OxMf_Kl3ts_-yCvt_g4rFGEPsPabiUsnWbNyxhNIOqlK0JtLDIgHwo6sT_Hyc3u2J-45ibPmV8O3lXniT8d8l-oT-io9HpAegrm8dJX90myo7PqhhUBvznmuSUe_fjCafuBHoQX80zm3kWSJuj7640sZVGm0QIVWrSyUfvMCXDqVJ81-dvIdVqR52m00]--></g></svg>