<?xml version="1.0" encoding="us-ascii" standalone="no"?><svg xmlns="http://www.w3.org/2000/svg" xmlns:xlink="http://www.w3.org/1999/xlink" contentStyleType="text/css" height="1294px" preserveAspectRatio="none" style="width:1215px;height:1294px;background:#FFFFFF;" version="1.1" viewBox="0 0 1215 1294" width="1215px" zoomAndPan="magnify"><defs/><g><!--class Gender--><g id="elem_Gender"><rect codeLine="4" fill="#F1F1F1" height="80.9766" id="Gender" rx="2.5" ry="2.5" style="stroke:#181818;stroke-width:0.5;" width="82" x="174.5" y="616.33"/><ellipse cx="189.5" cy="632.33" fill="#EB937F" rx="11" ry="11" style="stroke:#181818;stroke-width:1.0;"/><path d="M193.1143,638.83 L185.3945,638.83 L185.3945,626.4369 L193.1143,626.4369 L193.1143,628.5951 L187.8433,628.5951 L187.8433,631.268 L192.6162,631.268 L192.6162,633.4262 L187.8433,633.4262 L187.8433,636.6718 L193.1143,636.6718 Z " fill="#000000"/><text fill="#000000" font-family="sans-serif" font-size="14" lengthAdjust="spacing" textLength="50" x="203.5" y="637.621">Gender</text><line style="stroke:#181818;stroke-width:0.5;" x1="175.5" x2="255.5" y1="648.33" y2="648.33"/><text fill="#000000" font-family="sans-serif" font-size="14" lengthAdjust="spacing" textLength="37" x="180.5" y="665.8652">MALE</text><text fill="#000000" font-family="sans-serif" font-size="14" lengthAdjust="spacing" textLength="53" x="180.5" y="682.3534">FEMALE</text><line style="stroke:#181818;stroke-width:0.5;" x1="175.5" x2="255.5" y1="689.3066" y2="689.3066"/></g><!--class Describable--><g id="elem_Describable"><rect codeLine="9" fill="#F1F1F1" height="80.9766" id="Describable" rx="2.5" ry="2.5" style="stroke:#181818;stroke-width:0.5;" width="185" x="308" y="184.47"/><ellipse cx="356.25" cy="200.47" fill="#B4A7E5" rx="11" ry="11" style="stroke:#181818;stroke-width:1.0;"/><path d="M352.6777,196.7351 L352.6777,194.5769 L360.0571,194.5769 L360.0571,196.7351 L357.5918,196.7351 L357.5918,204.8118 L360.0571,204.8118 L360.0571,206.97 L352.6777,206.97 L352.6777,204.8118 L355.1431,204.8118 L355.1431,196.7351 Z " fill="#000000"/><text fill="#000000" font-family="sans-serif" font-size="14" font-style="italic" lengthAdjust="spacing" textLength="80" x="376.75" y="205.761">Describable</text><line style="stroke:#181818;stroke-width:0.5;" x1="309" x2="492" y1="216.47" y2="216.47"/><line style="stroke:#181818;stroke-width:0.5;" x1="309" x2="492" y1="224.47" y2="224.47"/><ellipse cx="319" cy="238.2141" fill="#84BE84" rx="3" ry="3" style="stroke:#038048;stroke-width:1.0;"/><text fill="#000000" font-family="sans-serif" font-size="14" lengthAdjust="spacing" textLength="120" x="328" y="242.0052">getName(): String</text><ellipse cx="319" cy="254.7024" fill="#84BE84" rx="3" ry="3" style="stroke:#038048;stroke-width:1.0;"/><text fill="#000000" font-family="sans-serif" font-size="14" lengthAdjust="spacing" textLength="159" x="328" y="258.4934">getDescription(): String</text></g><!--class Mortal--><g id="elem_Mortal"><rect codeLine="14" fill="#F1F1F1" height="97.4648" id="Mortal" rx="2.5" ry="2.5" style="stroke:#181818;stroke-width:0.5;" width="211" x="862" y="367.67"/><ellipse cx="941.25" cy="383.67" fill="#B4A7E5" rx="11" ry="11" style="stroke:#181818;stroke-width:1.0;"/><path d="M937.6777,379.9351 L937.6777,377.7769 L945.0571,377.7769 L945.0571,379.9351 L942.5918,379.9351 L942.5918,388.0118 L945.0571,388.0118 L945.0571,390.17 L937.6777,390.17 L937.6777,388.0118 L940.1431,388.0118 L940.1431,379.9351 Z " fill="#000000"/><text fill="#000000" font-family="sans-serif" font-size="14" font-style="italic" lengthAdjust="spacing" textLength="44" x="961.75" y="388.961">Mortal</text><line style="stroke:#181818;stroke-width:0.5;" x1="863" x2="1072" y1="399.67" y2="399.67"/><line style="stroke:#181818;stroke-width:0.5;" x1="863" x2="1072" y1="407.67" y2="407.67"/><ellipse cx="873" cy="421.4141" fill="#84BE84" rx="3" ry="3" style="stroke:#038048;stroke-width:1.0;"/><text fill="#000000" font-family="sans-serif" font-size="14" lengthAdjust="spacing" textLength="103" x="882" y="425.2052">getBirth(): Date</text><ellipse cx="873" cy="437.9024" fill="#84BE84" rx="3" ry="3" style="stroke:#038048;stroke-width:1.0;"/><text fill="#000000" font-family="sans-serif" font-size="14" lengthAdjust="spacing" textLength="111" x="882" y="441.6934">getDeath(): Date</text><ellipse cx="873" cy="454.3907" fill="#84BE84" rx="3" ry="3" style="stroke:#038048;stroke-width:1.0;"/><text fill="#000000" font-family="sans-serif" font-size="14" lengthAdjust="spacing" textLength="185" x="882" y="458.1817">setDeath(death: Date): void</text></g><!--class Wrath--><g id="elem_Wrath"><rect codeLine="20" fill="#F1F1F1" height="64.4883" id="Wrath" rx="2.5" ry="2.5" style="stroke:#181818;stroke-width:0.5;" width="112" x="878.5" y="192.71"/><ellipse cx="911.5" cy="208.71" fill="#B4A7E5" rx="11" ry="11" style="stroke:#181818;stroke-width:1.0;"/><path d="M907.9277,204.9751 L907.9277,202.8169 L915.3071,202.8169 L915.3071,204.9751 L912.8418,204.9751 L912.8418,213.0518 L915.3071,213.0518 L915.3071,215.21 L907.9277,215.21 L907.9277,213.0518 L910.3931,213.0518 L910.3931,204.9751 Z " fill="#000000"/><text fill="#000000" font-family="sans-serif" font-size="14" font-style="italic" lengthAdjust="spacing" textLength="40" x="929.5" y="214.001">Wrath</text><line style="stroke:#181818;stroke-width:0.5;" x1="879.5" x2="989.5" y1="224.71" y2="224.71"/><line style="stroke:#181818;stroke-width:0.5;" x1="879.5" x2="989.5" y1="232.71" y2="232.71"/><ellipse cx="889.5" cy="246.4541" fill="#84BE84" rx="3" ry="3" style="stroke:#038048;stroke-width:1.0;"/><text fill="#000000" font-family="sans-serif" font-size="14" lengthAdjust="spacing" textLength="86" x="898.5" y="250.2452">wrath(): void</text></g><!--class Justice--><g id="elem_Justice"><rect codeLine="24" fill="#F1F1F1" height="64.4883" id="Justice" rx="2.5" ry="2.5" style="stroke:#181818;stroke-width:0.5;" width="114" x="712.5" y="384.15"/><ellipse cx="744.6" cy="400.15" fill="#B4A7E5" rx="11" ry="11" style="stroke:#181818;stroke-width:1.0;"/><path d="M741.0277,396.4151 L741.0277,394.2569 L748.4071,394.2569 L748.4071,396.4151 L745.9418,396.4151 L745.9418,404.4918 L748.4071,404.4918 L748.4071,406.65 L741.0277,406.65 L741.0277,404.4918 L743.4931,404.4918 L743.4931,396.4151 Z " fill="#000000"/><text fill="#000000" font-family="sans-serif" font-size="14" font-style="italic" lengthAdjust="spacing" textLength="44" x="762.4" y="405.441">Justice</text><line style="stroke:#181818;stroke-width:0.5;" x1="713.5" x2="825.5" y1="416.15" y2="416.15"/><line style="stroke:#181818;stroke-width:0.5;" x1="713.5" x2="825.5" y1="424.15" y2="424.15"/><ellipse cx="723.5" cy="437.8941" fill="#84BE84" rx="3" ry="3" style="stroke:#038048;stroke-width:1.0;"/><text fill="#000000" font-family="sans-serif" font-size="14" lengthAdjust="spacing" textLength="88" x="732.5" y="441.6852">mercy(): void</text></g><!--class Litany--><g id="elem_Litany"><rect codeLine="28" fill="#F1F1F1" height="97.4648" id="Litany" rx="2.5" ry="2.5" style="stroke:#181818;stroke-width:0.5;" width="242" x="683.5" y="10"/><ellipse cx="714.25" cy="26" fill="#B4A7E5" rx="11" ry="11" style="stroke:#181818;stroke-width:1.0;"/><path d="M710.6777,22.2651 L710.6777,20.1069 L718.0571,20.1069 L718.0571,22.2651 L715.5918,22.2651 L715.5918,30.3418 L718.0571,30.3418 L718.0571,32.5 L710.6777,32.5 L710.6777,30.3418 L713.1431,30.3418 L713.1431,22.2651 Z " fill="#000000"/><text fill="#000000" font-family="sans-serif" font-size="14" font-style="italic" lengthAdjust="spacing" textLength="40" x="731.75" y="31.291">Litany</text><rect fill="#FFFFFF" height="16.1328" style="stroke:#181818;stroke-width:1.0;stroke-dasharray:2.0,2.0;" width="133" x="795.5" y="7"/><text fill="#000000" font-family="sans-serif" font-size="12" font-style="italic" lengthAdjust="spacing" textLength="131" x="796.5" y="19.6016">T extends Describable</text><line style="stroke:#181818;stroke-width:0.5;" x1="684.5" x2="924.5" y1="42" y2="42"/><line style="stroke:#181818;stroke-width:0.5;" x1="684.5" x2="924.5" y1="50" y2="50"/><ellipse cx="694.5" cy="63.7441" fill="#84BE84" rx="3" ry="3" style="stroke:#038048;stroke-width:1.0;"/><text fill="#000000" font-family="sans-serif" font-size="14" lengthAdjust="spacing" textLength="110" x="703.5" y="67.5352">getAll(): Set&lt;T&gt;</text><ellipse cx="694.5" cy="80.2324" fill="#84BE84" rx="3" ry="3" style="stroke:#038048;stroke-width:1.0;"/><text fill="#000000" font-family="sans-serif" font-size="14" lengthAdjust="spacing" textLength="120" x="703.5" y="84.0234">add(item: T): void</text><ellipse cx="694.5" cy="96.7207" fill="#84BE84" rx="3" ry="3" style="stroke:#038048;stroke-width:1.0;"/><text fill="#000000" font-family="sans-serif" font-size="14" lengthAdjust="spacing" textLength="216" x="703.5" y="100.5117">remove(itemName: String): void</text></g><!--class Being--><g id="elem_Being"><rect codeLine="34" fill="#F1F1F1" height="179.9063" id="Being" rx="2.5" ry="2.5" style="stroke:#181818;stroke-width:0.5;" width="553" x="124" y="326.44"/><ellipse cx="377.25" cy="342.44" fill="#A9DCDF" rx="11" ry="11" style="stroke:#181818;stroke-width:1.0;"/><path d="M377.1133,337.7881 L375.9595,342.8599 L378.2754,342.8599 Z M375.6191,335.5469 L378.6157,335.5469 L381.9609,347.94 L379.5122,347.94 L378.7485,344.877 L375.4697,344.877 L374.7227,347.94 L372.2739,347.94 Z " fill="#000000"/><text fill="#000000" font-family="sans-serif" font-size="14" font-style="italic" lengthAdjust="spacing" textLength="38" x="397.75" y="347.731">Being</text><line style="stroke:#181818;stroke-width:0.5;" x1="125" x2="676" y1="358.44" y2="358.44"/><rect fill="none" height="6" style="stroke:#C82930;stroke-width:1.0;" width="6" x="132" y="369.1841"/><text fill="#000000" font-family="sans-serif" font-size="14" lengthAdjust="spacing" textLength="87" x="144" y="375.9752">name: String</text><rect fill="none" height="6" style="stroke:#C82930;stroke-width:1.0;" width="6" x="132" y="385.6724"/><text fill="#000000" font-family="sans-serif" font-size="14" lengthAdjust="spacing" textLength="126" x="144" y="392.4634">description: String</text><rect fill="none" height="6" style="stroke:#C82930;stroke-width:1.0;" width="6" x="132" y="402.1607"/><text fill="#000000" font-family="sans-serif" font-size="14" lengthAdjust="spacing" textLength="250" x="144" y="408.9517">genderMap: Map&lt;Gender, Boolean&gt;</text><line style="stroke:#181818;stroke-width:0.5;" x1="125" x2="676" y1="415.9048" y2="415.9048"/><ellipse cx="135" cy="429.649" fill="#84BE84" rx="3" ry="3" style="stroke:#038048;stroke-width:1.0;"/><text fill="#000000" font-family="sans-serif" font-size="14" lengthAdjust="spacing" textLength="527" x="144" y="433.44">Being(name: String, description: String, genderMap: Map&lt;Gender, Boolean&gt;)</text><ellipse cx="135" cy="446.1373" fill="#84BE84" rx="3" ry="3" style="stroke:#038048;stroke-width:1.0;"/><text fill="#000000" font-family="sans-serif" font-size="14" lengthAdjust="spacing" textLength="120" x="144" y="449.9283">getName(): String</text><ellipse cx="135" cy="462.6255" fill="#84BE84" rx="3" ry="3" style="stroke:#038048;stroke-width:1.0;"/><text fill="#000000" font-family="sans-serif" font-size="14" lengthAdjust="spacing" textLength="159" x="144" y="466.4166">getDescription(): String</text><ellipse cx="135" cy="479.1138" fill="#84BE84" rx="3" ry="3" style="stroke:#038048;stroke-width:1.0;"/><text fill="#000000" font-family="sans-serif" font-size="14" lengthAdjust="spacing" textLength="117" x="144" y="482.9048">isMale(): boolean</text><ellipse cx="135" cy="495.6021" fill="#84BE84" rx="3" ry="3" style="stroke:#038048;stroke-width:1.0;"/><text fill="#000000" font-family="sans-serif" font-size="14" lengthAdjust="spacing" textLength="134" x="144" y="499.3931">isFemale(): boolean</text></g><!--class Human--><g id="elem_Human"><rect codeLine="45" fill="#F1F1F1" height="146.9297" id="Human" rx="2.5" ry="2.5" style="stroke:#181818;stroke-width:0.5;" width="644" x="440.5" y="583.35"/><ellipse cx="733.75" cy="599.35" fill="#ADD1B2" rx="11" ry="11" style="stroke:#181818;stroke-width:1.0;"/><path d="M736.2231,605.4931 Q735.6421,605.7919 735.0029,605.9413 Q734.3638,606.0907 733.6582,606.0907 Q731.1514,606.0907 729.8315,604.4389 Q728.5117,602.787 728.5117,599.6659 Q728.5117,596.5365 729.8315,594.8847 Q731.1514,593.2328 733.6582,593.2328 Q734.3638,593.2328 735.0112,593.3822 Q735.6587,593.5316 736.2231,593.8305 L736.2231,596.5531 Q735.5923,595.9721 734.9988,595.7023 Q734.4053,595.4325 733.7744,595.4325 Q732.4297,595.4325 731.7449,596.4992 Q731.0601,597.5658 731.0601,599.6659 Q731.0601,601.7577 731.7449,602.8244 Q732.4297,603.891 733.7744,603.891 Q734.4053,603.891 734.9988,603.6212 Q735.5923,603.3515 736.2231,602.7704 Z " fill="#000000"/><text fill="#000000" font-family="sans-serif" font-size="14" lengthAdjust="spacing" textLength="49" x="754.25" y="604.641">Human</text><line style="stroke:#181818;stroke-width:0.5;" x1="441.5" x2="1083.5" y1="615.35" y2="615.35"/><rect fill="none" height="6" style="stroke:#C82930;stroke-width:1.0;" width="6" x="448.5" y="626.0941"/><text fill="#000000" font-family="sans-serif" font-size="14" lengthAdjust="spacing" textLength="72" x="460.5" y="632.8852">birth: Date</text><rect fill="none" height="6" style="stroke:#C82930;stroke-width:1.0;" width="6" x="448.5" y="642.5824"/><text fill="#000000" font-family="sans-serif" font-size="14" lengthAdjust="spacing" textLength="78" x="460.5" y="649.3734">death: Date</text><line style="stroke:#181818;stroke-width:0.5;" x1="441.5" x2="1083.5" y1="656.3266" y2="656.3266"/><ellipse cx="451.5" cy="670.0707" fill="#84BE84" rx="3" ry="3" style="stroke:#038048;stroke-width:1.0;"/><text fill="#000000" font-family="sans-serif" font-size="14" lengthAdjust="spacing" textLength="618" x="460.5" y="673.8617">Human(name: String, description: String, genderMap: Map&lt;Gender, Boolean&gt;, birth: Date)</text><ellipse cx="451.5" cy="686.559" fill="#84BE84" rx="3" ry="3" style="stroke:#038048;stroke-width:1.0;"/><text fill="#000000" font-family="sans-serif" font-size="14" lengthAdjust="spacing" textLength="103" x="460.5" y="690.35">getBirth(): Date</text><ellipse cx="451.5" cy="703.0473" fill="#84BE84" rx="3" ry="3" style="stroke:#038048;stroke-width:1.0;"/><text fill="#000000" font-family="sans-serif" font-size="14" lengthAdjust="spacing" textLength="111" x="460.5" y="706.8383">getDeath(): Date</text><ellipse cx="451.5" cy="719.5355" fill="#84BE84" rx="3" ry="3" style="stroke:#038048;stroke-width:1.0;"/><text fill="#000000" font-family="sans-serif" font-size="14" lengthAdjust="spacing" textLength="185" x="460.5" y="723.3266">setDeath(death: Date): void</text></g><!--class God--><g id="elem_God"><rect codeLine="54" fill="#F1F1F1" height="80.9766" id="God" rx="2.5" ry="2.5" style="stroke:#181818;stroke-width:0.5;" width="114" x="291.5" y="616.33"/><ellipse cx="330.8" cy="632.33" fill="#ADD1B2" rx="11" ry="11" style="stroke:#181818;stroke-width:1.0;"/><path d="M333.2731,638.4731 Q332.6921,638.7719 332.0529,638.9213 Q331.4138,639.0707 330.7082,639.0707 Q328.2014,639.0707 326.8815,637.4189 Q325.5617,635.767 325.5617,632.6459 Q325.5617,629.5165 326.8815,627.8647 Q328.2014,626.2128 330.7082,626.2128 Q331.4138,626.2128 332.0612,626.3622 Q332.7087,626.5116 333.2731,626.8105 L333.2731,629.5331 Q332.6423,628.9521 332.0488,628.6823 Q331.4553,628.4125 330.8244,628.4125 Q329.4797,628.4125 328.7949,629.4792 Q328.1101,630.5458 328.1101,632.6459 Q328.1101,634.7377 328.7949,635.8044 Q329.4797,636.871 330.8244,636.871 Q331.4553,636.871 332.0488,636.6012 Q332.6423,636.3315 333.2731,635.7504 Z " fill="#000000"/><text fill="#000000" font-family="sans-serif" font-size="14" lengthAdjust="spacing" textLength="28" x="350.2" y="637.621">God</text><line style="stroke:#181818;stroke-width:0.5;" x1="292.5" x2="404.5" y1="648.33" y2="648.33"/><line style="stroke:#181818;stroke-width:0.5;" x1="292.5" x2="404.5" y1="656.33" y2="656.33"/><ellipse cx="302.5" cy="670.0741" fill="#84BE84" rx="3" ry="3" style="stroke:#038048;stroke-width:1.0;"/><text fill="#000000" font-family="sans-serif" font-size="14" lengthAdjust="spacing" textLength="86" x="311.5" y="673.8652">wrath(): void</text><ellipse cx="302.5" cy="686.5624" fill="#84BE84" rx="3" ry="3" style="stroke:#038048;stroke-width:1.0;"/><text fill="#000000" font-family="sans-serif" font-size="14" lengthAdjust="spacing" textLength="88" x="311.5" y="690.3534">mercy(): void</text></g><!--class Hero--><g id="elem_Hero"><rect codeLine="59" fill="#F1F1F1" height="80.9766" id="Hero" rx="2.5" ry="2.5" style="stroke:#181818;stroke-width:0.5;" width="166" x="672.5" y="807.77"/><ellipse cx="734.75" cy="823.77" fill="#ADD1B2" rx="11" ry="11" style="stroke:#181818;stroke-width:1.0;"/><path d="M737.2231,829.9131 Q736.6421,830.2119 736.0029,830.3613 Q735.3638,830.5107 734.6582,830.5107 Q732.1514,830.5107 730.8315,828.8589 Q729.5117,827.207 729.5117,824.0859 Q729.5117,820.9565 730.8315,819.3047 Q732.1514,817.6528 734.6582,817.6528 Q735.3638,817.6528 736.0112,817.8022 Q736.6587,817.9516 737.2231,818.2505 L737.2231,820.9731 Q736.5923,820.3921 735.9988,820.1223 Q735.4053,819.8525 734.7744,819.8525 Q733.4297,819.8525 732.7449,820.9192 Q732.0601,821.9858 732.0601,824.0859 Q732.0601,826.1777 732.7449,827.2444 Q733.4297,828.311 734.7744,828.311 Q735.4053,828.311 735.9988,828.0412 Q736.5923,827.7715 737.2231,827.1904 Z " fill="#000000"/><text fill="#000000" font-family="sans-serif" font-size="14" lengthAdjust="spacing" textLength="33" x="755.25" y="829.061">Hero</text><line style="stroke:#181818;stroke-width:0.5;" x1="673.5" x2="837.5" y1="839.77" y2="839.77"/><rect fill="none" height="6" style="stroke:#C82930;stroke-width:1.0;" width="6" x="680.5" y="850.5141"/><text fill="#000000" font-family="sans-serif" font-size="14" lengthAdjust="spacing" textLength="105" x="692.5" y="857.3052">legend: Legend</text><line style="stroke:#181818;stroke-width:0.5;" x1="673.5" x2="837.5" y1="864.2583" y2="864.2583"/><ellipse cx="683.5" cy="878.0024" fill="#84BE84" rx="3" ry="3" style="stroke:#038048;stroke-width:1.0;"/><text fill="#000000" font-family="sans-serif" font-size="14" lengthAdjust="spacing" textLength="140" x="692.5" y="881.7934">getLegend(): Legend</text></g><!--class SemiGod--><g id="elem_SemiGod"><rect codeLine="64" fill="#F1F1F1" height="113.9531" id="SemiGod" rx="2.5" ry="2.5" style="stroke:#181818;stroke-width:0.5;" width="282" x="873.5" y="791.28"/><ellipse cx="979.75" cy="807.28" fill="#ADD1B2" rx="11" ry="11" style="stroke:#181818;stroke-width:1.0;"/><path d="M982.2231,813.4231 Q981.6421,813.7219 981.0029,813.8713 Q980.3638,814.0207 979.6582,814.0207 Q977.1514,814.0207 975.8315,812.3689 Q974.5117,810.717 974.5117,807.5959 Q974.5117,804.4665 975.8315,802.8147 Q977.1514,801.1628 979.6582,801.1628 Q980.3638,801.1628 981.0112,801.3122 Q981.6587,801.4616 982.2231,801.7605 L982.2231,804.4831 Q981.5923,803.9021 980.9988,803.6323 Q980.4053,803.3625 979.7744,803.3625 Q978.4297,803.3625 977.7449,804.4292 Q977.0601,805.4958 977.0601,807.5959 Q977.0601,809.6877 977.7449,810.7544 Q978.4297,811.821 979.7744,811.821 Q980.4053,811.821 980.9988,811.5512 Q981.5923,811.2815 982.2231,810.7004 Z " fill="#000000"/><text fill="#000000" font-family="sans-serif" font-size="14" lengthAdjust="spacing" textLength="61" x="1000.25" y="812.571">SemiGod</text><line style="stroke:#181818;stroke-width:0.5;" x1="874.5" x2="1154.5" y1="823.28" y2="823.28"/><rect fill="none" height="6" style="stroke:#C82930;stroke-width:1.0;" width="6" x="881.5" y="834.0241"/><text fill="#000000" font-family="sans-serif" font-size="14" lengthAdjust="spacing" textLength="105" x="893.5" y="840.8152">legend: Legend</text><line style="stroke:#181818;stroke-width:0.5;" x1="874.5" x2="1154.5" y1="847.7683" y2="847.7683"/><ellipse cx="884.5" cy="861.5124" fill="#84BE84" rx="3" ry="3" style="stroke:#038048;stroke-width:1.0;"/><text fill="#000000" font-family="sans-serif" font-size="14" lengthAdjust="spacing" textLength="140" x="893.5" y="865.3034">getLegend(): Legend</text><ellipse cx="884.5" cy="878.0007" fill="#84BE84" rx="3" ry="3" style="stroke:#038048;stroke-width:1.0;"/><text fill="#000000" font-family="sans-serif" font-size="14" lengthAdjust="spacing" textLength="256" x="893.5" y="881.7917">{override} setDeath(death: Date): void</text><ellipse cx="884.5" cy="894.489" fill="#84BE84" rx="3" ry="3" style="stroke:#038048;stroke-width:1.0;"/><text fill="#000000" font-family="sans-serif" font-size="14" lengthAdjust="spacing" textLength="86" x="893.5" y="898.28">wrath(): void</text></g><!--class Deed--><g id="elem_Deed"><rect codeLine="71" fill="#F1F1F1" height="113.9531" id="Deed" rx="2.5" ry="2.5" style="stroke:#181818;stroke-width:0.5;" width="185" x="7" y="1173.19"/><ellipse cx="77.75" cy="1189.19" fill="#ADD1B2" rx="11" ry="11" style="stroke:#181818;stroke-width:1.0;"/><path d="M80.2231,1195.3331 Q79.6421,1195.6319 79.0029,1195.7813 Q78.3638,1195.9307 77.6582,1195.9307 Q75.1514,1195.9307 73.8315,1194.2789 Q72.5117,1192.627 72.5117,1189.5059 Q72.5117,1186.3765 73.8315,1184.7247 Q75.1514,1183.0728 77.6582,1183.0728 Q78.3638,1183.0728 79.0112,1183.2222 Q79.6587,1183.3716 80.2231,1183.6705 L80.2231,1186.3931 Q79.5923,1185.8121 78.9988,1185.5423 Q78.4053,1185.2725 77.7744,1185.2725 Q76.4297,1185.2725 75.7449,1186.3392 Q75.0601,1187.4058 75.0601,1189.5059 Q75.0601,1191.5977 75.7449,1192.6644 Q76.4297,1193.731 77.7744,1193.731 Q78.4053,1193.731 78.9988,1193.4612 Q79.5923,1193.1915 80.2231,1192.6104 Z " fill="#000000"/><text fill="#000000" font-family="sans-serif" font-size="14" lengthAdjust="spacing" textLength="35" x="98.25" y="1194.481">Deed</text><line style="stroke:#181818;stroke-width:0.5;" x1="8" x2="191" y1="1205.19" y2="1205.19"/><rect fill="none" height="6" style="stroke:#C82930;stroke-width:1.0;" width="6" x="15" y="1215.9341"/><text fill="#000000" font-family="sans-serif" font-size="14" lengthAdjust="spacing" textLength="87" x="27" y="1222.7252">name: String</text><rect fill="none" height="6" style="stroke:#C82930;stroke-width:1.0;" width="6" x="15" y="1232.4224"/><text fill="#000000" font-family="sans-serif" font-size="14" lengthAdjust="spacing" textLength="126" x="27" y="1239.2134">description: String</text><line style="stroke:#181818;stroke-width:0.5;" x1="8" x2="191" y1="1246.1666" y2="1246.1666"/><ellipse cx="18" cy="1259.9107" fill="#84BE84" rx="3" ry="3" style="stroke:#038048;stroke-width:1.0;"/><text fill="#000000" font-family="sans-serif" font-size="14" lengthAdjust="spacing" textLength="120" x="27" y="1263.7017">getName(): String</text><ellipse cx="18" cy="1276.399" fill="#84BE84" rx="3" ry="3" style="stroke:#038048;stroke-width:1.0;"/><text fill="#000000" font-family="sans-serif" font-size="14" lengthAdjust="spacing" textLength="159" x="27" y="1280.19">getDescription(): String</text></g><!--class Legend--><g id="elem_Legend"><rect codeLine="78" fill="#F1F1F1" height="113.9531" id="Legend" rx="2.5" ry="2.5" style="stroke:#181818;stroke-width:0.5;" width="242" x="738.5" y="982.23"/><ellipse cx="830.25" cy="998.23" fill="#ADD1B2" rx="11" ry="11" style="stroke:#181818;stroke-width:1.0;"/><path d="M832.7231,1004.3731 Q832.1421,1004.6719 831.5029,1004.8213 Q830.8638,1004.9707 830.1582,1004.9707 Q827.6514,1004.9707 826.3315,1003.3189 Q825.0117,1001.667 825.0117,998.5459 Q825.0117,995.4165 826.3315,993.7647 Q827.6514,992.1128 830.1582,992.1128 Q830.8638,992.1128 831.5112,992.2622 Q832.1587,992.4116 832.7231,992.7105 L832.7231,995.4331 Q832.0923,994.8521 831.4988,994.5823 Q830.9053,994.3125 830.2744,994.3125 Q828.9297,994.3125 828.2449,995.3792 Q827.5601,996.4458 827.5601,998.5459 Q827.5601,1000.6377 828.2449,1001.7044 Q828.9297,1002.771 830.2744,1002.771 Q830.9053,1002.771 831.4988,1002.5012 Q832.0923,1002.2315 832.7231,1001.6504 Z " fill="#000000"/><text fill="#000000" font-family="sans-serif" font-size="14" lengthAdjust="spacing" textLength="50" x="850.75" y="1003.521">Legend</text><line style="stroke:#181818;stroke-width:0.5;" x1="739.5" x2="979.5" y1="1014.23" y2="1014.23"/><rect fill="none" height="6" style="stroke:#C82930;stroke-width:1.0;" width="6" x="746.5" y="1024.9741"/><text fill="#000000" font-family="sans-serif" font-size="14" lengthAdjust="spacing" textLength="127" x="758.5" y="1031.7652">deeds: Set&lt;Deed&gt;</text><line style="stroke:#181818;stroke-width:0.5;" x1="739.5" x2="979.5" y1="1038.7183" y2="1038.7183"/><ellipse cx="749.5" cy="1052.4624" fill="#84BE84" rx="3" ry="3" style="stroke:#038048;stroke-width:1.0;"/><text fill="#000000" font-family="sans-serif" font-size="14" lengthAdjust="spacing" textLength="110" x="758.5" y="1056.2534">getAll(): Set&lt;T&gt;</text><ellipse cx="749.5" cy="1068.9507" fill="#84BE84" rx="3" ry="3" style="stroke:#038048;stroke-width:1.0;"/><text fill="#000000" font-family="sans-serif" font-size="14" lengthAdjust="spacing" textLength="120" x="758.5" y="1072.7417">add(item: T): void</text><ellipse cx="749.5" cy="1085.439" fill="#84BE84" rx="3" ry="3" style="stroke:#038048;stroke-width:1.0;"/><text fill="#000000" font-family="sans-serif" font-size="14" lengthAdjust="spacing" textLength="216" x="758.5" y="1089.23">remove(itemName: String): void</text></g><!--reverse link Wrath to Justice--><g id="link_Wrath_Justice"><path d="M893.8087,270.7723 C875.9987,290.4723 864.78,303.11 844.5,326.44 C828.07,345.35 809.96,366.81 795.65,383.92 " fill="none" id="Wrath-backto-Justice" style="stroke:#181818;stroke-width:1.0;"/><polygon fill="none" points="905.88,257.42,889.3579,266.7485,898.2595,274.7961,905.88,257.42" style="stroke:#181818;stroke-width:1.0;"/></g><!--reverse link Describable to Being--><g id="link_Describable_Being"><path d="M400.5,283.67 C400.5,301.35 400.5,304.95 400.5,326.18 " fill="none" id="Describable-backto-Being" style="stroke:#181818;stroke-width:1.0;stroke-dasharray:7.0,7.0;"/><polygon fill="none" points="400.5,265.67,394.5,283.67,406.5,283.67,400.5,265.67" style="stroke:#181818;stroke-width:1.0;"/></g><!--reverse link Being to Human--><g id="link_Being_Human"><path d="M551.1025,516.5808 C589.2425,541.7008 615.22,558.81 651.72,582.86 " fill="none" id="Being-backto-Human" style="stroke:#181818;stroke-width:1.0;"/><polygon fill="none" points="536.07,506.68,547.8022,521.5916,554.4027,511.5699,536.07,506.68" style="stroke:#181818;stroke-width:1.0;"/></g><!--reverse link Mortal to Human--><g id="link_Mortal_Human"><path d="M914.5254,479.0092 C885.5354,512.7292 857.94,544.82 825.09,583.02 " fill="none" id="Mortal-backto-Human" style="stroke:#181818;stroke-width:1.0;stroke-dasharray:7.0,7.0;"/><polygon fill="none" points="926.26,465.36,909.9757,475.0977,919.0752,482.9207,926.26,465.36" style="stroke:#181818;stroke-width:1.0;"/></g><!--reverse link Being to God--><g id="link_Being_God"><path d="M377.2254,524.0968 C369.0054,561.7968 363.68,586.2 357.18,616.02 " fill="none" id="Being-backto-God" style="stroke:#181818;stroke-width:1.0;"/><polygon fill="none" points="381.06,506.51,371.3632,522.8186,383.0877,525.375,381.06,506.51" style="stroke:#181818;stroke-width:1.0;"/></g><!--reverse link Justice to God--><g id="link_Justice_God"><path d="M739.8376,463.5071 C726.4276,482.7471 717.24,491.66 694.5,506.35 C589.33,574.3 532,520.86 423.5,583.35 C408.59,591.94 394.42,604.13 382.49,616.07 " fill="none" id="Justice-backto-God" style="stroke:#181818;stroke-width:1.0;stroke-dasharray:7.0,7.0;"/><polygon fill="none" points="750.13,448.74,734.9152,460.0762,744.7599,466.9379,750.13,448.74" style="stroke:#181818;stroke-width:1.0;"/></g><!--reverse link Human to Hero--><g id="link_Human_Hero"><path d="M759.1479,748.5078 C758.1879,774.5878 757.8,785.05 756.98,807.33 " fill="none" id="Human-backto-Hero" style="stroke:#181818;stroke-width:1.0;"/><polygon fill="none" points="759.81,730.52,753.1519,748.2871,765.1438,748.7285,759.81,730.52" style="stroke:#181818;stroke-width:1.0;"/></g><!--reverse link Human to SemiGod--><g id="link_Human_SemiGod"><path d="M873.599,741.3347 C900.249,761.3647 914.36,771.98 939.57,790.93 " fill="none" id="Human-backto-SemiGod" style="stroke:#181818;stroke-width:1.0;"/><polygon fill="none" points="859.21,730.52,869.9941,746.131,877.2039,736.5384,859.21,730.52" style="stroke:#181818;stroke-width:1.0;"/></g><!--reverse link Wrath to SemiGod--><g id="link_Wrath_SemiGod"><path d="M1007.2156,253.8906 C1042.4256,269.9006 1068.7,288.44 1090.5,326.44 C1179.82,482.2 1157.94,559.83 1101.5,730.28 C1094.3,752.02 1081.32,773.01 1067.54,791.06 " fill="none" id="Wrath-backto-SemiGod" style="stroke:#181818;stroke-width:1.0;stroke-dasharray:7.0,7.0;"/><polygon fill="none" points="990.83,246.44,1004.7321,259.3524,1009.6992,248.4287,990.83,246.44" style="stroke:#181818;stroke-width:1.0;"/></g><!--reverse link Describable to Deed--><g id="link_Describable_Deed"><path d="M289.8806,240.6322 C226.1606,252.8222 161.25,274.63 106.5,326.44 C75.52,355.76 70.5,372.75 70.5,415.4 C70.5,415.4 70.5,415.4 70.5,1040.21 C70.5,1085.18 78.62,1135.48 86.27,1172.87 " fill="none" id="Describable-backto-Deed" style="stroke:#181818;stroke-width:1.0;stroke-dasharray:7.0,7.0;"/><polygon fill="none" points="307.56,237.25,288.7532,234.739,291.008,246.5253,307.56,237.25" style="stroke:#181818;stroke-width:1.0;"/></g><!--reverse link Litany to Legend--><g id="link_Litany_Legend"><path d="M943.512,88.7606 C1062.492,116.7406 1208.5,162.3 1208.5,223.96 C1208.5,223.96 1208.5,223.96 1208.5,849.26 C1208.5,955.71 1081.38,1002.49 980.58,1022.86 " fill="none" id="Litany-backto-Legend" style="stroke:#181818;stroke-width:1.0;stroke-dasharray:7.0,7.0;"/><polygon fill="none" points="925.99,84.64,942.1385,94.6012,944.8855,82.9199,925.99,84.64" style="stroke:#181818;stroke-width:1.0;"/></g><!--reverse link Hero to Legend--><g id="link_Hero_Legend"><path codeLine="85" d="M783.0869,899.3824 C797.9169,926.3224 811.98,951.87 828.46,981.81 " fill="none" id="Hero-backto-Legend" style="stroke:#181818;stroke-width:1.0;"/><polygon fill="#181818" points="777.3,888.87,776.6893,896.0552,783.0869,899.3824,783.6976,892.1973,777.3,888.87" style="stroke:#181818;stroke-width:1.0;"/><text fill="#000000" font-family="sans-serif" font-size="13" lengthAdjust="spacing" textLength="8" x="812.5" y="948.7984">1</text></g><!--reverse link SemiGod to Legend--><g id="link_SemiGod_Legend"><path codeLine="86" d="M960.5917,914.9697 C940.8817,939.0097 925.54,957.7 905.82,981.74 " fill="none" id="SemiGod-backto-Legend" style="stroke:#181818;stroke-width:1.0;"/><polygon fill="#181818" points="968.2,905.69,961.3026,907.7938,960.5917,914.9697,967.4891,912.866,968.2,905.69" style="stroke:#181818;stroke-width:1.0;"/><text fill="#000000" font-family="sans-serif" font-size="13" lengthAdjust="spacing" textLength="8" x="943.5" y="948.7984">1</text></g><!--reverse link Legend to Deed--><g id="link_Legend_Deed"><path codeLine="87" d="M726.5944,1073.2549 C574.7744,1110.9949 329.69,1171.93 192.5,1206.04 " fill="none" id="Legend-backto-Deed" style="stroke:#181818;stroke-width:1.0;"/><polygon fill="none" points="738.24,1070.36,731.4522,1067.9256,726.5944,1073.2549,733.3822,1075.6893,738.24,1070.36" style="stroke:#181818;stroke-width:1.0;"/><text fill="#000000" font-family="sans-serif" font-size="13" lengthAdjust="spacing" textLength="34" x="503.5" y="1139.7584">many</text></g><!--reverse link Litany to Describable--><g id="link_Litany_Describable"><path codeLine="88" d="M674.9029,112.4177 C613.4329,137.3977 550.56,162.96 493.3,186.23 " fill="none" id="Litany-backto-Describable" style="stroke:#181818;stroke-width:1.0;"/><polygon fill="none" points="686.02,107.9,678.9555,106.4532,674.9029,112.4177,681.9674,113.8646,686.02,107.9" style="stroke:#181818;stroke-width:1.0;"/><text fill="#000000" font-family="sans-serif" font-size="13" lengthAdjust="spacing" textLength="34" x="603.5" y="151.0384">many</text></g><!--reverse link Being to Gender--><g id="link_Being_Gender"><path codeLine="89" d="M323.994,515.991 C294.744,553.691 269.52,586.2 246.38,616.02 " fill="none" id="Being-backto-Gender" style="stroke:#181818;stroke-width:1.0;"/><polygon fill="#181818" points="331.35,506.51,324.5117,508.7985,323.994,515.991,330.8324,513.7025,331.35,506.51" style="stroke:#181818;stroke-width:1.0;"/><text fill="#000000" font-family="sans-serif" font-size="13" lengthAdjust="spacing" textLength="28" x="309.5" y="549.9184">[1,2]</text></g><!--SRC=[jLLBRzim3BxxLn2vD5cTGtSqWW0DqWU6P9S6s67OGRROL80UWQHq2uh-zycYvSfBkWr5wuCV_AYFv2TIFWE9znwy0Iks3nwuiDXuONHHeDuhk47DqS9J0U5QNwwkuilrLNnzBWgXFTfxrY0iqJLMrAoMsBcVRz5_PGh7amhkl1Lwsvl9UTS6oj01tzfOpsH6jH3MFxJUI-OHCYfsP7R9pDixGS7ZqGWEmoZVR718GNxQZgfr7FfzsJilmXD_-Q286wu3XROvd5wu4fxfmspJhynqccVLNKePbK0_syp9oZWV2u-gWasYZdQBoZnYX5fvatnPU5OxRrdZeP7CELXWW46edKI5shiJUpNL6HDP-CiU3O5jx8arsrKGRZDgaH8MnaXakai-nXpdh2MSO2pX7soJjxLIH8LRCndNrCIMpDUe_W22QAJLxLuntM_MaNA3hfpMRKjIUoNDsC1m7kdUGOOIibYJZvW9Al_6yDUBJqDmSboYwMWGEb7HcfwM5EuKbDWMNi4gFli2wBCbwe2UwWwLo9CajYp9V3B_cpu2Js6gh1KSd-4lOhroL51sIqJ-ReFsblEJqg2gyaJe64evy92ceyEcpNZ-CQTGtFLFqsbAfuBHnQX86tW4T1ycsAECmHgszX00ofs05prxdFeq4dQ_gm1zloW__nWLlm40]--></g></svg>