<?xml version="1.0" encoding="us-ascii" standalone="no"?><svg xmlns="http://www.w3.org/2000/svg" xmlns:xlink="http://www.w3.org/1999/xlink" contentStyleType="text/css" height="202px" preserveAspectRatio="none" style="width:474px;height:202px;background:#FFFFFF;" version="1.1" viewBox="0 0 474 202" width="474px" zoomAndPan="magnify"><defs/><g><!--class Wrath--><g id="elem_Wrath"><rect codeLine="4" fill="#F1F1F1" height="64.4883" id="Wrath" rx="2.5" ry="2.5" style="stroke:#181818;stroke-width:0.5;" width="112" x="7" y="69.25"/><ellipse cx="40" cy="85.25" fill="#B4A7E5" rx="11" ry="11" style="stroke:#181818;stroke-width:1.0;"/><path d="M36.4277,81.5151 L36.4277,79.3569 L43.8071,79.3569 L43.8071,81.5151 L41.3418,81.5151 L41.3418,89.5918 L43.8071,89.5918 L43.8071,91.75 L36.4277,91.75 L36.4277,89.5918 L38.8931,89.5918 L38.8931,81.5151 Z " fill="#000000"/><text fill="#000000" font-family="sans-serif" font-size="14" font-style="italic" lengthAdjust="spacing" textLength="40" x="58" y="90.541">Wrath</text><line style="stroke:#181818;stroke-width:0.5;" x1="8" x2="118" y1="101.25" y2="101.25"/><line style="stroke:#181818;stroke-width:0.5;" x1="8" x2="118" y1="109.25" y2="109.25"/><ellipse cx="18" cy="122.9941" fill="#84BE84" rx="3" ry="3" style="stroke:#038048;stroke-width:1.0;"/><text fill="#000000" font-family="sans-serif" font-size="14" lengthAdjust="spacing" textLength="86" x="27" y="126.7852">wrath(): void</text></g><!--class Justice--><g id="elem_Justice"><rect codeLine="8" fill="#F1F1F1" height="64.4883" id="Justice" rx="2.5" ry="2.5" style="stroke:#181818;stroke-width:0.5;" width="114" x="179" y="15.25"/><ellipse cx="211.1" cy="31.25" fill="#B4A7E5" rx="11" ry="11" style="stroke:#181818;stroke-width:1.0;"/><path d="M207.5277,27.5151 L207.5277,25.3569 L214.9071,25.3569 L214.9071,27.5151 L212.4418,27.5151 L212.4418,35.5918 L214.9071,35.5918 L214.9071,37.75 L207.5277,37.75 L207.5277,35.5918 L209.9931,35.5918 L209.9931,27.5151 Z " fill="#000000"/><text fill="#000000" font-family="sans-serif" font-size="14" font-style="italic" lengthAdjust="spacing" textLength="44" x="228.9" y="36.541">Justice</text><line style="stroke:#181818;stroke-width:0.5;" x1="180" x2="292" y1="47.25" y2="47.25"/><line style="stroke:#181818;stroke-width:0.5;" x1="180" x2="292" y1="55.25" y2="55.25"/><ellipse cx="190" cy="68.9941" fill="#84BE84" rx="3" ry="3" style="stroke:#038048;stroke-width:1.0;"/><text fill="#000000" font-family="sans-serif" font-size="14" lengthAdjust="spacing" textLength="88" x="199" y="72.7852">mercy(): void</text></g><!--class God--><g id="elem_God"><rect codeLine="12" fill="#F1F1F1" height="80.9766" id="God" rx="2.5" ry="2.5" style="stroke:#181818;stroke-width:0.5;" width="114" x="353" y="7"/><ellipse cx="392.3" cy="23" fill="#ADD1B2" rx="11" ry="11" style="stroke:#181818;stroke-width:1.0;"/><path d="M394.7731,29.1431 Q394.1921,29.4419 393.5529,29.5913 Q392.9138,29.7407 392.2082,29.7407 Q389.7014,29.7407 388.3815,28.0889 Q387.0617,26.437 387.0617,23.3159 Q387.0617,20.1865 388.3815,18.5347 Q389.7014,16.8828 392.2082,16.8828 Q392.9138,16.8828 393.5612,17.0322 Q394.2087,17.1816 394.7731,17.4805 L394.7731,20.2031 Q394.1423,19.6221 393.5488,19.3523 Q392.9553,19.0825 392.3244,19.0825 Q390.9797,19.0825 390.2949,20.1492 Q389.6101,21.2158 389.6101,23.3159 Q389.6101,25.4077 390.2949,26.4744 Q390.9797,27.541 392.3244,27.541 Q392.9553,27.541 393.5488,27.2712 Q394.1423,27.0015 394.7731,26.4204 Z " fill="#000000"/><text fill="#000000" font-family="sans-serif" font-size="14" lengthAdjust="spacing" textLength="28" x="411.7" y="28.291">God</text><line style="stroke:#181818;stroke-width:0.5;" x1="354" x2="466" y1="39" y2="39"/><line style="stroke:#181818;stroke-width:0.5;" x1="354" x2="466" y1="47" y2="47"/><ellipse cx="364" cy="60.7441" fill="#84BE84" rx="3" ry="3" style="stroke:#038048;stroke-width:1.0;"/><text fill="#000000" font-family="sans-serif" font-size="14" lengthAdjust="spacing" textLength="86" x="373" y="64.5352">wrath(): void</text><ellipse cx="364" cy="77.2324" fill="#84BE84" rx="3" ry="3" style="stroke:#038048;stroke-width:1.0;"/><text fill="#000000" font-family="sans-serif" font-size="14" lengthAdjust="spacing" textLength="88" x="373" y="81.0234">mercy(): void</text></g><!--class SemiGod--><g id="elem_SemiGod"><rect codeLine="17" fill="#F1F1F1" height="80.9766" id="SemiGod" rx="2.5" ry="2.5" style="stroke:#181818;stroke-width:0.5;" width="112" x="180" y="115"/><ellipse cx="203.55" cy="131" fill="#ADD1B2" rx="11" ry="11" style="stroke:#181818;stroke-width:1.0;"/><path d="M206.0231,137.1431 Q205.4421,137.4419 204.8029,137.5913 Q204.1638,137.7407 203.4582,137.7407 Q200.9514,137.7407 199.6315,136.0889 Q198.3117,134.437 198.3117,131.3159 Q198.3117,128.1865 199.6315,126.5347 Q200.9514,124.8828 203.4582,124.8828 Q204.1638,124.8828 204.8112,125.0322 Q205.4587,125.1816 206.0231,125.4805 L206.0231,128.2031 Q205.3923,127.6221 204.7988,127.3523 Q204.2053,127.0825 203.5744,127.0825 Q202.2297,127.0825 201.5449,128.1492 Q200.8601,129.2158 200.8601,131.3159 Q200.8601,133.4077 201.5449,134.4744 Q202.2297,135.541 203.5744,135.541 Q204.2053,135.541 204.7988,135.2712 Q205.3923,135.0015 206.0231,134.4204 Z " fill="#000000"/><text fill="#000000" font-family="sans-serif" font-size="14" lengthAdjust="spacing" textLength="61" x="219.45" y="136.291">SemiGod</text><line style="stroke:#181818;stroke-width:0.5;" x1="181" x2="291" y1="147" y2="147"/><line style="stroke:#181818;stroke-width:0.5;" x1="181" x2="291" y1="155" y2="155"/><text fill="#000000" font-family="sans-serif" font-size="14" lengthAdjust="spacing" textLength="22" x="200" y="172.5352">(...)</text><ellipse cx="191" cy="185.2324" fill="#84BE84" rx="3" ry="3" style="stroke:#038048;stroke-width:1.0;"/><text fill="#000000" font-family="sans-serif" font-size="14" lengthAdjust="spacing" textLength="86" x="200" y="189.0234">wrath(): void</text></g><!--reverse link Wrath to Justice--><g id="link_Wrath_Justice"><path d="M136.2152,78.6918 C155.2552,72.6818 159.44,71.35 178.59,65.31 " fill="none" id="Wrath-backto-Justice" style="stroke:#181818;stroke-width:1.0;"/><polygon fill="none" points="119.05,84.11,138.0212,84.4135,134.4091,72.9701,119.05,84.11" style="stroke:#181818;stroke-width:1.0;"/></g><!--reverse link Justice to God--><g id="link_Justice_God"><path d="M311.32,47.49 C330.33,47.49 333.54,47.49 352.55,47.49 " fill="none" id="Justice-backto-God" style="stroke:#181818;stroke-width:1.0;stroke-dasharray:7.0,7.0;"/><polygon fill="none" points="293.32,47.49,311.32,53.49,311.32,41.49,293.32,47.49" style="stroke:#181818;stroke-width:1.0;"/></g><!--reverse link Wrath to SemiGod--><g id="link_Wrath_SemiGod"><path d="M136.2134,124.2937 C155.6434,130.4337 160.32,131.91 179.76,138.05 " fill="none" id="Wrath-backto-SemiGod" style="stroke:#181818;stroke-width:1.0;stroke-dasharray:7.0,7.0;"/><polygon fill="none" points="119.05,118.87,134.4055,130.0149,138.0213,118.5726,119.05,118.87" style="stroke:#181818;stroke-width:1.0;"/></g><!--SRC=[TO_D2W8n38JlVOevxYBq0Nm1OQyUF9SswmRw8qtyGtntLmzBbJMNOKBc6n9fL6X1vUEa25p9AvTi36UbEZfFE5Id4nu6ysokRzFrMrmA1_DixuQpACzADwKSv3k7HDNVsw2FJWIx4i3f52bHLbaOgssVrH_EdXB_iDh-pbhRht_m0W00]--></g></svg>