<?xml version="1.0" encoding="us-ascii" standalone="no"?><svg xmlns="http://www.w3.org/2000/svg" xmlns:xlink="http://www.w3.org/1999/xlink" contentStyleType="text/css" height="318px" preserveAspectRatio="none" style="width:427px;height:318px;background:#FFFFFF;" version="1.1" viewBox="0 0 427 318" width="427px" zoomAndPan="magnify"><defs/><g><!--class Deed--><g id="elem_Deed"><rect codeLine="4" fill="#F1F1F1" height="113.9531" id="Deed" rx="2.5" ry="2.5" style="stroke:#181818;stroke-width:0.5;" width="185" x="7" y="197.96"/><ellipse cx="77.75" cy="213.96" fill="#ADD1B2" rx="11" ry="11" style="stroke:#181818;stroke-width:1.0;"/><path d="M80.2231,220.1031 Q79.6421,220.4019 79.0029,220.5513 Q78.3638,220.7007 77.6582,220.7007 Q75.1514,220.7007 73.8315,219.0489 Q72.5117,217.397 72.5117,214.2759 Q72.5117,211.1465 73.8315,209.4947 Q75.1514,207.8428 77.6582,207.8428 Q78.3638,207.8428 79.0112,207.9922 Q79.6587,208.1416 80.2231,208.4405 L80.2231,211.1631 Q79.5923,210.5821 78.9988,210.3123 Q78.4053,210.0425 77.7744,210.0425 Q76.4297,210.0425 75.7449,211.1092 Q75.0601,212.1758 75.0601,214.2759 Q75.0601,216.3677 75.7449,217.4344 Q76.4297,218.501 77.7744,218.501 Q78.4053,218.501 78.9988,218.2312 Q79.5923,217.9615 80.2231,217.3804 Z " fill="#000000"/><text fill="#000000" font-family="sans-serif" font-size="14" lengthAdjust="spacing" textLength="35" x="98.25" y="219.251">Deed</text><line style="stroke:#181818;stroke-width:0.5;" x1="8" x2="191" y1="229.96" y2="229.96"/><rect fill="none" height="6" style="stroke:#C82930;stroke-width:1.0;" width="6" x="15" y="240.7041"/><text fill="#000000" font-family="sans-serif" font-size="14" lengthAdjust="spacing" textLength="87" x="27" y="247.4952">name: String</text><rect fill="none" height="6" style="stroke:#C82930;stroke-width:1.0;" width="6" x="15" y="257.1924"/><text fill="#000000" font-family="sans-serif" font-size="14" lengthAdjust="spacing" textLength="126" x="27" y="263.9834">description: String</text><line style="stroke:#181818;stroke-width:0.5;" x1="8" x2="191" y1="270.9366" y2="270.9366"/><ellipse cx="18" cy="284.6807" fill="#84BE84" rx="3" ry="3" style="stroke:#038048;stroke-width:1.0;"/><text fill="#000000" font-family="sans-serif" font-size="14" lengthAdjust="spacing" textLength="120" x="27" y="288.4717">getName(): String</text><ellipse cx="18" cy="301.169" fill="#84BE84" rx="3" ry="3" style="stroke:#038048;stroke-width:1.0;"/><text fill="#000000" font-family="sans-serif" font-size="14" lengthAdjust="spacing" textLength="159" x="27" y="304.96">getDescription(): String</text></g><!--class Legend--><g id="elem_Legend"><rect codeLine="11" fill="#F1F1F1" height="113.9531" id="Legend" rx="2.5" ry="2.5" style="stroke:#181818;stroke-width:0.5;" width="242" x="138.5" y="7"/><ellipse cx="230.25" cy="23" fill="#ADD1B2" rx="11" ry="11" style="stroke:#181818;stroke-width:1.0;"/><path d="M232.7231,29.1431 Q232.1421,29.4419 231.5029,29.5913 Q230.8638,29.7407 230.1582,29.7407 Q227.6514,29.7407 226.3315,28.0889 Q225.0117,26.437 225.0117,23.3159 Q225.0117,20.1865 226.3315,18.5347 Q227.6514,16.8828 230.1582,16.8828 Q230.8638,16.8828 231.5112,17.0322 Q232.1587,17.1816 232.7231,17.4805 L232.7231,20.2031 Q232.0923,19.6221 231.4988,19.3523 Q230.9053,19.0825 230.2744,19.0825 Q228.9297,19.0825 228.2449,20.1492 Q227.5601,21.2158 227.5601,23.3159 Q227.5601,25.4077 228.2449,26.4744 Q228.9297,27.541 230.2744,27.541 Q230.9053,27.541 231.4988,27.2712 Q232.0923,27.0015 232.7231,26.4204 Z " fill="#000000"/><text fill="#000000" font-family="sans-serif" font-size="14" lengthAdjust="spacing" textLength="50" x="250.75" y="28.291">Legend</text><line style="stroke:#181818;stroke-width:0.5;" x1="139.5" x2="379.5" y1="39" y2="39"/><rect fill="none" height="6" style="stroke:#C82930;stroke-width:1.0;" width="6" x="146.5" y="49.7441"/><text fill="#000000" font-family="sans-serif" font-size="14" lengthAdjust="spacing" textLength="127" x="158.5" y="56.5352">deeds: Set&lt;Deed&gt;</text><line style="stroke:#181818;stroke-width:0.5;" x1="139.5" x2="379.5" y1="63.4883" y2="63.4883"/><ellipse cx="149.5" cy="77.2324" fill="#84BE84" rx="3" ry="3" style="stroke:#038048;stroke-width:1.0;"/><text fill="#000000" font-family="sans-serif" font-size="14" lengthAdjust="spacing" textLength="136" x="158.5" y="81.0234">getAll(): Set&lt;Deed&gt;</text><ellipse cx="149.5" cy="93.7207" fill="#84BE84" rx="3" ry="3" style="stroke:#038048;stroke-width:1.0;"/><text fill="#000000" font-family="sans-serif" font-size="14" lengthAdjust="spacing" textLength="146" x="158.5" y="97.5117">add(Deed deed): void</text><ellipse cx="149.5" cy="110.209" fill="#84BE84" rx="3" ry="3" style="stroke:#038048;stroke-width:1.0;"/><text fill="#000000" font-family="sans-serif" font-size="14" lengthAdjust="spacing" textLength="216" x="158.5" y="114">remove(String deedName): void</text></g><!--class Hero--><g id="elem_Hero"><rect codeLine="18" fill="#F1F1F1" height="64.4883" id="Hero" rx="2.5" ry="2.5" style="stroke:#181818;stroke-width:0.5;" width="65" x="227" y="222.69"/><ellipse cx="242" cy="238.69" fill="#ADD1B2" rx="11" ry="11" style="stroke:#181818;stroke-width:1.0;"/><path d="M244.4731,244.8331 Q243.8921,245.1319 243.2529,245.2813 Q242.6138,245.4307 241.9082,245.4307 Q239.4014,245.4307 238.0815,243.7789 Q236.7617,242.127 236.7617,239.0059 Q236.7617,235.8765 238.0815,234.2247 Q239.4014,232.5728 241.9082,232.5728 Q242.6138,232.5728 243.2612,232.7222 Q243.9087,232.8716 244.4731,233.1705 L244.4731,235.8931 Q243.8423,235.3121 243.2488,235.0423 Q242.6553,234.7725 242.0244,234.7725 Q240.6797,234.7725 239.9949,235.8392 Q239.3101,236.9058 239.3101,239.0059 Q239.3101,241.0977 239.9949,242.1644 Q240.6797,243.231 242.0244,243.231 Q242.6553,243.231 243.2488,242.9612 Q243.8423,242.6915 244.4731,242.1104 Z " fill="#000000"/><text fill="#000000" font-family="sans-serif" font-size="14" lengthAdjust="spacing" textLength="33" x="256" y="243.981">Hero</text><line style="stroke:#181818;stroke-width:0.5;" x1="228" x2="291" y1="254.69" y2="254.69"/><line style="stroke:#181818;stroke-width:0.5;" x1="228" x2="291" y1="262.69" y2="262.69"/><text fill="#000000" font-family="sans-serif" font-size="14" lengthAdjust="spacing" textLength="22" x="233" y="280.2252">(...)</text></g><!--class SemiGod--><g id="elem_SemiGod"><rect codeLine="22" fill="#F1F1F1" height="64.4883" id="SemiGod" rx="2.5" ry="2.5" style="stroke:#181818;stroke-width:0.5;" width="93" x="327" y="222.69"/><ellipse cx="342" cy="238.69" fill="#ADD1B2" rx="11" ry="11" style="stroke:#181818;stroke-width:1.0;"/><path d="M344.4731,244.8331 Q343.8921,245.1319 343.2529,245.2813 Q342.6138,245.4307 341.9082,245.4307 Q339.4014,245.4307 338.0815,243.7789 Q336.7617,242.127 336.7617,239.0059 Q336.7617,235.8765 338.0815,234.2247 Q339.4014,232.5728 341.9082,232.5728 Q342.6138,232.5728 343.2612,232.7222 Q343.9087,232.8716 344.4731,233.1705 L344.4731,235.8931 Q343.8423,235.3121 343.2488,235.0423 Q342.6553,234.7725 342.0244,234.7725 Q340.6797,234.7725 339.9949,235.8392 Q339.3101,236.9058 339.3101,239.0059 Q339.3101,241.0977 339.9949,242.1644 Q340.6797,243.231 342.0244,243.231 Q342.6553,243.231 343.2488,242.9612 Q343.8423,242.6915 344.4731,242.1104 Z " fill="#000000"/><text fill="#000000" font-family="sans-serif" font-size="14" lengthAdjust="spacing" textLength="61" x="356" y="243.981">SemiGod</text><line style="stroke:#181818;stroke-width:0.5;" x1="328" x2="419" y1="254.69" y2="254.69"/><line style="stroke:#181818;stroke-width:0.5;" x1="328" x2="419" y1="262.69" y2="262.69"/><text fill="#000000" font-family="sans-serif" font-size="14" lengthAdjust="spacing" textLength="22" x="333" y="280.2252">(...)</text></g><!--reverse link Legend to Hero--><g id="link_Legend_Hero"><path d="M259.5,139.42 C259.5,172.48 259.5,194.99 259.5,222.46 " fill="none" id="Legend-backto-Hero" style="stroke:#181818;stroke-width:1.0;"/><polygon fill="none" points="259.5,121.42,253.5,139.42,265.5,139.42,259.5,121.42" style="stroke:#181818;stroke-width:1.0;"/></g><!--reverse link Legend to SemiGod--><g id="link_Legend_SemiGod"><path d="M302.8466,136.8334 C322.7866,169.8934 337.94,194.99 354.51,222.46 " fill="none" id="Legend-backto-SemiGod" style="stroke:#181818;stroke-width:1.0;"/><polygon fill="none" points="293.55,121.42,297.7087,139.9323,307.9844,133.7346,293.55,121.42" style="stroke:#181818;stroke-width:1.0;"/></g><!--reverse link Legend to Deed--><g id="link_Legend_Deed"><path codeLine="26" d="M203.9549,130.5775 C183.6049,154.6075 167.67,173.42 147.32,197.46 " fill="none" id="Legend-backto-Deed" style="stroke:#181818;stroke-width:1.0;"/><polygon fill="none" points="211.71,121.42,204.78,123.4137,203.9549,130.5775,210.885,128.5837,211.71,121.42" style="stroke:#181818;stroke-width:1.0;"/><text fill="#000000" font-family="sans-serif" font-size="13" lengthAdjust="spacing" textLength="34" x="185.5" y="164.5284">many</text></g><!--SRC=[XP1D2i8m58JtFSMZ6rEaFK0HGIZeGjpq1A5vna1-90b54UzkqjZMwi8ivvl936y54iyUl04h-CK34nOxBupEiavIvw11PF388BnIKuKrjDuApPF2q7LMN6DW0TOS_IcuIV4ZDtFaWpx7lYDor5CZ2-qkcD1luf3jzCjEoY6z19GnCWoEkO1x8rWY5fNfaQIs0STvesLgFw0rW3SV9dnD8LLL5REnHINsXltnlbLJbkcEDUIAwdkUlG00]--></g></svg>