<?xml version="1.0" encoding="us-ascii" standalone="no"?><svg xmlns="http://www.w3.org/2000/svg" xmlns:xlink="http://www.w3.org/1999/xlink" contentStyleType="text/css" height="476px" preserveAspectRatio="none" style="width:381px;height:476px;background:#FFFFFF;" version="1.1" viewBox="0 0 381 476" width="381px" zoomAndPan="magnify"><defs/><g><!--class Hero--><g id="elem_Hero"><rect codeLine="4" fill="#F1F1F1" height="80.9766" id="Hero" rx="2.5" ry="2.5" style="stroke:#181818;stroke-width:0.5;" width="166" x="7" y="7"/><ellipse cx="69.25" cy="23" fill="#ADD1B2" rx="11" ry="11" style="stroke:#181818;stroke-width:1.0;"/><path d="M71.7231,29.1431 Q71.1421,29.4419 70.5029,29.5913 Q69.8638,29.7407 69.1582,29.7407 Q66.6514,29.7407 65.3315,28.0889 Q64.0117,26.437 64.0117,23.3159 Q64.0117,20.1865 65.3315,18.5347 Q66.6514,16.8828 69.1582,16.8828 Q69.8638,16.8828 70.5112,17.0322 Q71.1587,17.1816 71.7231,17.4805 L71.7231,20.2031 Q71.0923,19.6221 70.4988,19.3523 Q69.9053,19.0825 69.2744,19.0825 Q67.9297,19.0825 67.2449,20.1492 Q66.5601,21.2158 66.5601,23.3159 Q66.5601,25.4077 67.2449,26.4744 Q67.9297,27.541 69.2744,27.541 Q69.9053,27.541 70.4988,27.2712 Q71.0923,27.0015 71.7231,26.4204 Z " fill="#000000"/><text fill="#000000" font-family="sans-serif" font-size="14" lengthAdjust="spacing" textLength="33" x="89.75" y="28.291">Hero</text><line style="stroke:#181818;stroke-width:0.5;" x1="8" x2="172" y1="39" y2="39"/><rect fill="none" height="6" style="stroke:#C82930;stroke-width:1.0;" width="6" x="15" y="49.7441"/><text fill="#000000" font-family="sans-serif" font-size="14" lengthAdjust="spacing" textLength="105" x="27" y="56.5352">legend: Legend</text><line style="stroke:#181818;stroke-width:0.5;" x1="8" x2="172" y1="63.4883" y2="63.4883"/><ellipse cx="18" cy="77.2324" fill="#84BE84" rx="3" ry="3" style="stroke:#038048;stroke-width:1.0;"/><text fill="#000000" font-family="sans-serif" font-size="14" lengthAdjust="spacing" textLength="140" x="27" y="81.0234">getLegend(): Legend</text></g><!--class SemiGod--><g id="elem_SemiGod"><rect codeLine="9" fill="#F1F1F1" height="80.9766" id="SemiGod" rx="2.5" ry="2.5" style="stroke:#181818;stroke-width:0.5;" width="166" x="208" y="7"/><ellipse cx="256.25" cy="23" fill="#ADD1B2" rx="11" ry="11" style="stroke:#181818;stroke-width:1.0;"/><path d="M258.7231,29.1431 Q258.1421,29.4419 257.5029,29.5913 Q256.8638,29.7407 256.1582,29.7407 Q253.6514,29.7407 252.3315,28.0889 Q251.0117,26.437 251.0117,23.3159 Q251.0117,20.1865 252.3315,18.5347 Q253.6514,16.8828 256.1582,16.8828 Q256.8638,16.8828 257.5112,17.0322 Q258.1587,17.1816 258.7231,17.4805 L258.7231,20.2031 Q258.0923,19.6221 257.4988,19.3523 Q256.9053,19.0825 256.2744,19.0825 Q254.9297,19.0825 254.2449,20.1492 Q253.5601,21.2158 253.5601,23.3159 Q253.5601,25.4077 254.2449,26.4744 Q254.9297,27.541 256.2744,27.541 Q256.9053,27.541 257.4988,27.2712 Q258.0923,27.0015 258.7231,26.4204 Z " fill="#000000"/><text fill="#000000" font-family="sans-serif" font-size="14" lengthAdjust="spacing" textLength="61" x="276.75" y="28.291">SemiGod</text><line style="stroke:#181818;stroke-width:0.5;" x1="209" x2="373" y1="39" y2="39"/><rect fill="none" height="6" style="stroke:#C82930;stroke-width:1.0;" width="6" x="216" y="49.7441"/><text fill="#000000" font-family="sans-serif" font-size="14" lengthAdjust="spacing" textLength="105" x="228" y="56.5352">legend: Legend</text><line style="stroke:#181818;stroke-width:0.5;" x1="209" x2="373" y1="63.4883" y2="63.4883"/><ellipse cx="219" cy="77.2324" fill="#84BE84" rx="3" ry="3" style="stroke:#038048;stroke-width:1.0;"/><text fill="#000000" font-family="sans-serif" font-size="14" lengthAdjust="spacing" textLength="140" x="228" y="81.0234">getLegend(): Legend</text></g><!--class Deed--><g id="elem_Deed"><rect codeLine="14" fill="#F1F1F1" height="113.9531" id="Deed" rx="2.5" ry="2.5" style="stroke:#181818;stroke-width:0.5;" width="185" x="97.5" y="355.93"/><ellipse cx="168.25" cy="371.93" fill="#ADD1B2" rx="11" ry="11" style="stroke:#181818;stroke-width:1.0;"/><path d="M170.7231,378.0731 Q170.1421,378.3719 169.5029,378.5213 Q168.8638,378.6707 168.1582,378.6707 Q165.6514,378.6707 164.3315,377.0189 Q163.0117,375.367 163.0117,372.2459 Q163.0117,369.1165 164.3315,367.4647 Q165.6514,365.8128 168.1582,365.8128 Q168.8638,365.8128 169.5112,365.9622 Q170.1587,366.1116 170.7231,366.4105 L170.7231,369.1331 Q170.0923,368.5521 169.4988,368.2823 Q168.9053,368.0125 168.2744,368.0125 Q166.9297,368.0125 166.2449,369.0792 Q165.5601,370.1458 165.5601,372.2459 Q165.5601,374.3377 166.2449,375.4044 Q166.9297,376.471 168.2744,376.471 Q168.9053,376.471 169.4988,376.2012 Q170.0923,375.9315 170.7231,375.3504 Z " fill="#000000"/><text fill="#000000" font-family="sans-serif" font-size="14" lengthAdjust="spacing" textLength="35" x="188.75" y="377.221">Deed</text><line style="stroke:#181818;stroke-width:0.5;" x1="98.5" x2="281.5" y1="387.93" y2="387.93"/><rect fill="none" height="6" style="stroke:#C82930;stroke-width:1.0;" width="6" x="105.5" y="398.6741"/><text fill="#000000" font-family="sans-serif" font-size="14" lengthAdjust="spacing" textLength="87" x="117.5" y="405.4652">name: String</text><rect fill="none" height="6" style="stroke:#C82930;stroke-width:1.0;" width="6" x="105.5" y="415.1624"/><text fill="#000000" font-family="sans-serif" font-size="14" lengthAdjust="spacing" textLength="126" x="117.5" y="421.9534">description: String</text><line style="stroke:#181818;stroke-width:0.5;" x1="98.5" x2="281.5" y1="428.9066" y2="428.9066"/><ellipse cx="108.5" cy="442.6507" fill="#84BE84" rx="3" ry="3" style="stroke:#038048;stroke-width:1.0;"/><text fill="#000000" font-family="sans-serif" font-size="14" lengthAdjust="spacing" textLength="120" x="117.5" y="446.4417">getName(): String</text><ellipse cx="108.5" cy="459.139" fill="#84BE84" rx="3" ry="3" style="stroke:#038048;stroke-width:1.0;"/><text fill="#000000" font-family="sans-serif" font-size="14" lengthAdjust="spacing" textLength="159" x="117.5" y="462.93">getDescription(): String</text></g><!--class Legend--><g id="elem_Legend"><rect codeLine="21" fill="#F1F1F1" height="113.9531" id="Legend" rx="2.5" ry="2.5" style="stroke:#181818;stroke-width:0.5;" width="242" x="69" y="164.97"/><ellipse cx="160.75" cy="180.97" fill="#ADD1B2" rx="11" ry="11" style="stroke:#181818;stroke-width:1.0;"/><path d="M163.2231,187.1131 Q162.6421,187.4119 162.0029,187.5613 Q161.3638,187.7107 160.6582,187.7107 Q158.1514,187.7107 156.8315,186.0589 Q155.5117,184.407 155.5117,181.2859 Q155.5117,178.1565 156.8315,176.5047 Q158.1514,174.8528 160.6582,174.8528 Q161.3638,174.8528 162.0112,175.0022 Q162.6587,175.1516 163.2231,175.4505 L163.2231,178.1731 Q162.5923,177.5921 161.9988,177.3223 Q161.4053,177.0525 160.7744,177.0525 Q159.4297,177.0525 158.7449,178.1192 Q158.0601,179.1858 158.0601,181.2859 Q158.0601,183.3777 158.7449,184.4444 Q159.4297,185.511 160.7744,185.511 Q161.4053,185.511 161.9988,185.2412 Q162.5923,184.9715 163.2231,184.3904 Z " fill="#000000"/><text fill="#000000" font-family="sans-serif" font-size="14" lengthAdjust="spacing" textLength="50" x="181.25" y="186.261">Legend</text><line style="stroke:#181818;stroke-width:0.5;" x1="70" x2="310" y1="196.97" y2="196.97"/><rect fill="none" height="6" style="stroke:#C82930;stroke-width:1.0;" width="6" x="77" y="207.7141"/><text fill="#000000" font-family="sans-serif" font-size="14" lengthAdjust="spacing" textLength="127" x="89" y="214.5052">deeds: Set&lt;Deed&gt;</text><line style="stroke:#181818;stroke-width:0.5;" x1="70" x2="310" y1="221.4583" y2="221.4583"/><ellipse cx="80" cy="235.2024" fill="#84BE84" rx="3" ry="3" style="stroke:#038048;stroke-width:1.0;"/><text fill="#000000" font-family="sans-serif" font-size="14" lengthAdjust="spacing" textLength="136" x="89" y="238.9934">getAll(): Set&lt;Deed&gt;</text><ellipse cx="80" cy="251.6907" fill="#84BE84" rx="3" ry="3" style="stroke:#038048;stroke-width:1.0;"/><text fill="#000000" font-family="sans-serif" font-size="14" lengthAdjust="spacing" textLength="146" x="89" y="255.4817">add(Deed deed): void</text><ellipse cx="80" cy="268.179" fill="#84BE84" rx="3" ry="3" style="stroke:#038048;stroke-width:1.0;"/><text fill="#000000" font-family="sans-serif" font-size="14" lengthAdjust="spacing" textLength="216" x="89" y="271.97">remove(String deedName): void</text></g><!--reverse link Legend to Deed--><g id="link_Legend_Deed"><path codeLine="28" d="M190,291.39 C190,315.42 190,331.39 190,355.43 " fill="none" id="Legend-backto-Deed" style="stroke:#181818;stroke-width:1.0;"/><polygon fill="none" points="190,279.39,186,285.39,190,291.39,194,285.39,190,279.39" style="stroke:#181818;stroke-width:1.0;"/><text fill="#000000" font-family="sans-serif" font-size="13" lengthAdjust="spacing" textLength="34" x="191" y="322.4984">many</text></g><!--reverse link Hero to Legend--><g id="link_Hero_Legend"><path codeLine="30" d="M118.9591,98.4312 C132.1091,121.1112 142.81,139.56 157.31,164.57 " fill="none" id="Hero-backto-Legend" style="stroke:#181818;stroke-width:1.0;"/><polygon fill="#181818" points="112.94,88.05,112.4891,95.247,118.9591,98.4312,119.41,91.2343,112.94,88.05" style="stroke:#181818;stroke-width:1.0;"/><text fill="#000000" font-family="sans-serif" font-size="13" lengthAdjust="spacing" textLength="8" x="141" y="131.5384">1</text></g><!--reverse link SemiGod to Legend--><g id="link_SemiGod_Legend"><path codeLine="31" d="M261.7665,98.4054 C248.4865,121.0854 237.66,139.56 223.02,164.57 " fill="none" id="SemiGod-backto-Legend" style="stroke:#181818;stroke-width:1.0;"/><polygon fill="#181818" points="267.83,88.05,261.3465,91.2065,261.7665,98.4054,268.2501,95.2489,267.83,88.05" style="stroke:#181818;stroke-width:1.0;"/><text fill="#000000" font-family="sans-serif" font-size="13" lengthAdjust="spacing" textLength="8" x="250" y="131.5384">1</text></g><!--SRC=[dL2x2i8m5Dtp5PSkLgM3Qn51AEWWBls2q5nZ84qa2GKH_zqyscXrCql8UTnpRXOWyUB0QJ22NnqmOR1pGYj2EacjXICQ3Gy2_bGIEIfMmodU4LjpTEbPBZFndCmjzkAWsT_-1Z6R5UsnXjOPeNX26DhEY5jeEoF2pBDNXubVSFEsVB0vB-LFYSodMoz2jmr5TddANihedXEKiJ8M3ZvF3rgCEnhizO1bIejqg3T9VFgOgwighLn3qLDrBmY9tx_o-2ZnpAOWqx_-42y0]--></g></svg>