<?xml version="1.0" encoding="us-ascii" standalone="no"?><svg xmlns="http://www.w3.org/2000/svg" xmlns:xlink="http://www.w3.org/1999/xlink" contentStyleType="text/css" height="255px" preserveAspectRatio="none" style="width:1057px;height:255px;background:#FFFFFF;" version="1.1" viewBox="0 0 1057 255" width="1057px" zoomAndPan="magnify"><defs/><g><!--class Describable--><g id="elem_Describable"><rect codeLine="4" fill="#F1F1F1" height="80.9766" id="Describable" rx="2.5" ry="2.5" style="stroke:#181818;stroke-width:0.5;" width="185" x="7" y="35.73"/><ellipse cx="55.25" cy="51.73" fill="#B4A7E5" rx="11" ry="11" style="stroke:#181818;stroke-width:1.0;"/><path d="M51.6777,47.9951 L51.6777,45.8369 L59.0571,45.8369 L59.0571,47.9951 L56.5918,47.9951 L56.5918,56.0718 L59.0571,56.0718 L59.0571,58.23 L51.6777,58.23 L51.6777,56.0718 L54.1431,56.0718 L54.1431,47.9951 Z " fill="#000000"/><text fill="#000000" font-family="sans-serif" font-size="14" font-style="italic" lengthAdjust="spacing" textLength="80" x="75.75" y="57.021">Describable</text><line style="stroke:#181818;stroke-width:0.5;" x1="8" x2="191" y1="67.73" y2="67.73"/><line style="stroke:#181818;stroke-width:0.5;" x1="8" x2="191" y1="75.73" y2="75.73"/><ellipse cx="18" cy="89.4741" fill="#84BE84" rx="3" ry="3" style="stroke:#038048;stroke-width:1.0;"/><text fill="#000000" font-family="sans-serif" font-size="14" lengthAdjust="spacing" textLength="120" x="27" y="93.2652">getName(): String</text><ellipse cx="18" cy="105.9624" fill="#84BE84" rx="3" ry="3" style="stroke:#038048;stroke-width:1.0;"/><text fill="#000000" font-family="sans-serif" font-size="14" lengthAdjust="spacing" textLength="159" x="27" y="109.7534">getDescription(): String</text></g><!--class Wrath--><g id="elem_Wrath"><rect codeLine="9" fill="#F1F1F1" height="64.4883" id="Wrath" rx="2.5" ry="2.5" style="stroke:#181818;stroke-width:0.5;" width="112" x="288.5" y="171.97"/><ellipse cx="321.5" cy="187.97" fill="#B4A7E5" rx="11" ry="11" style="stroke:#181818;stroke-width:1.0;"/><path d="M317.9277,184.2351 L317.9277,182.0769 L325.3071,182.0769 L325.3071,184.2351 L322.8418,184.2351 L322.8418,192.3118 L325.3071,192.3118 L325.3071,194.47 L317.9277,194.47 L317.9277,192.3118 L320.3931,192.3118 L320.3931,184.2351 Z " fill="#000000"/><text fill="#000000" font-family="sans-serif" font-size="14" font-style="italic" lengthAdjust="spacing" textLength="40" x="339.5" y="193.261">Wrath</text><line style="stroke:#181818;stroke-width:0.5;" x1="289.5" x2="399.5" y1="203.97" y2="203.97"/><line style="stroke:#181818;stroke-width:0.5;" x1="289.5" x2="399.5" y1="211.97" y2="211.97"/><ellipse cx="299.5" cy="225.7141" fill="#84BE84" rx="3" ry="3" style="stroke:#038048;stroke-width:1.0;"/><text fill="#000000" font-family="sans-serif" font-size="14" lengthAdjust="spacing" textLength="86" x="308.5" y="229.5052">wrath(): void</text></g><!--class Being--><g id="elem_Being"><rect codeLine="13" fill="#F1F1F1" height="113.9531" id="Being" rx="2.5" ry="2.5" style="stroke:#181818;stroke-width:0.5;" width="185" x="252" y="19.24"/><ellipse cx="321.25" cy="35.24" fill="#A9DCDF" rx="11" ry="11" style="stroke:#181818;stroke-width:1.0;"/><path d="M321.1133,30.5881 L319.9595,35.6599 L322.2754,35.6599 Z M319.6191,28.3469 L322.6157,28.3469 L325.9609,40.74 L323.5122,40.74 L322.7485,37.677 L319.4697,37.677 L318.7227,40.74 L316.2739,40.74 Z " fill="#000000"/><text fill="#000000" font-family="sans-serif" font-size="14" font-style="italic" lengthAdjust="spacing" textLength="38" x="341.75" y="40.531">Being</text><line style="stroke:#181818;stroke-width:0.5;" x1="253" x2="436" y1="51.24" y2="51.24"/><rect fill="none" height="6" style="stroke:#C82930;stroke-width:1.0;" width="6" x="260" y="61.9841"/><text fill="#000000" font-family="sans-serif" font-size="14" lengthAdjust="spacing" textLength="87" x="272" y="68.7752">name: String</text><rect fill="none" height="6" style="stroke:#C82930;stroke-width:1.0;" width="6" x="260" y="78.4724"/><text fill="#000000" font-family="sans-serif" font-size="14" lengthAdjust="spacing" textLength="126" x="272" y="85.2634">description: String</text><line style="stroke:#181818;stroke-width:0.5;" x1="253" x2="436" y1="92.2166" y2="92.2166"/><ellipse cx="263" cy="105.9607" fill="#84BE84" rx="3" ry="3" style="stroke:#038048;stroke-width:1.0;"/><text fill="#000000" font-family="sans-serif" font-size="14" lengthAdjust="spacing" textLength="120" x="272" y="109.7517">getName(): String</text><ellipse cx="263" cy="122.449" fill="#84BE84" rx="3" ry="3" style="stroke:#038048;stroke-width:1.0;"/><text fill="#000000" font-family="sans-serif" font-size="14" lengthAdjust="spacing" textLength="159" x="272" y="126.24">getDescription(): String</text></g><!--class Human--><g id="elem_Human"><rect codeLine="20" fill="#F1F1F1" height="130.4414" id="Human" rx="2.5" ry="2.5" style="stroke:#181818;stroke-width:0.5;" width="211" x="497" y="7"/><ellipse cx="573.75" cy="23" fill="#ADD1B2" rx="11" ry="11" style="stroke:#181818;stroke-width:1.0;"/><path d="M576.2231,29.1431 Q575.6421,29.4419 575.0029,29.5913 Q574.3638,29.7407 573.6582,29.7407 Q571.1514,29.7407 569.8315,28.0889 Q568.5117,26.437 568.5117,23.3159 Q568.5117,20.1865 569.8315,18.5347 Q571.1514,16.8828 573.6582,16.8828 Q574.3638,16.8828 575.0112,17.0322 Q575.6587,17.1816 576.2231,17.4805 L576.2231,20.2031 Q575.5923,19.6221 574.9988,19.3523 Q574.4053,19.0825 573.7744,19.0825 Q572.4297,19.0825 571.7449,20.1492 Q571.0601,21.2158 571.0601,23.3159 Q571.0601,25.4077 571.7449,26.4744 Q572.4297,27.541 573.7744,27.541 Q574.4053,27.541 574.9988,27.2712 Q575.5923,27.0015 576.2231,26.4204 Z " fill="#000000"/><text fill="#000000" font-family="sans-serif" font-size="14" lengthAdjust="spacing" textLength="49" x="594.25" y="28.291">Human</text><line style="stroke:#181818;stroke-width:0.5;" x1="498" x2="707" y1="39" y2="39"/><rect fill="none" height="6" style="stroke:#C82930;stroke-width:1.0;" width="6" x="505" y="49.7441"/><text fill="#000000" font-family="sans-serif" font-size="14" lengthAdjust="spacing" textLength="72" x="517" y="56.5352">birth: Date</text><rect fill="none" height="6" style="stroke:#C82930;stroke-width:1.0;" width="6" x="505" y="66.2324"/><text fill="#000000" font-family="sans-serif" font-size="14" lengthAdjust="spacing" textLength="78" x="517" y="73.0234">death: Date</text><line style="stroke:#181818;stroke-width:0.5;" x1="498" x2="707" y1="79.9766" y2="79.9766"/><ellipse cx="508" cy="93.7207" fill="#84BE84" rx="3" ry="3" style="stroke:#038048;stroke-width:1.0;"/><text fill="#000000" font-family="sans-serif" font-size="14" lengthAdjust="spacing" textLength="103" x="517" y="97.5117">getBirth(): Date</text><ellipse cx="508" cy="110.209" fill="#84BE84" rx="3" ry="3" style="stroke:#038048;stroke-width:1.0;"/><text fill="#000000" font-family="sans-serif" font-size="14" lengthAdjust="spacing" textLength="111" x="517" y="114">getDeath(): Date</text><ellipse cx="508" cy="126.6973" fill="#84BE84" rx="3" ry="3" style="stroke:#038048;stroke-width:1.0;"/><text fill="#000000" font-family="sans-serif" font-size="14" lengthAdjust="spacing" textLength="185" x="517" y="130.4883">setDeath(death: Date): void</text></g><!--class God--><g id="elem_God"><rect codeLine="28" fill="#F1F1F1" height="64.4883" id="God" rx="2.5" ry="2.5" style="stroke:#181818;stroke-width:0.5;" width="112" x="546.5" y="171.97"/><ellipse cx="584.9" cy="187.97" fill="#ADD1B2" rx="11" ry="11" style="stroke:#181818;stroke-width:1.0;"/><path d="M587.3731,194.1131 Q586.7921,194.4119 586.1529,194.5613 Q585.5138,194.7107 584.8082,194.7107 Q582.3014,194.7107 580.9815,193.0589 Q579.6617,191.407 579.6617,188.2859 Q579.6617,185.1565 580.9815,183.5047 Q582.3014,181.8528 584.8082,181.8528 Q585.5138,181.8528 586.1612,182.0022 Q586.8087,182.1516 587.3731,182.4505 L587.3731,185.1731 Q586.7423,184.5921 586.1488,184.3223 Q585.5553,184.0525 584.9244,184.0525 Q583.5797,184.0525 582.8949,185.1192 Q582.2101,186.1858 582.2101,188.2859 Q582.2101,190.3777 582.8949,191.4444 Q583.5797,192.511 584.9244,192.511 Q585.5553,192.511 586.1488,192.2412 Q586.7423,191.9715 587.3731,191.3904 Z " fill="#000000"/><text fill="#000000" font-family="sans-serif" font-size="14" lengthAdjust="spacing" textLength="28" x="604.1" y="193.261">God</text><line style="stroke:#181818;stroke-width:0.5;" x1="547.5" x2="657.5" y1="203.97" y2="203.97"/><line style="stroke:#181818;stroke-width:0.5;" x1="547.5" x2="657.5" y1="211.97" y2="211.97"/><ellipse cx="557.5" cy="225.7141" fill="#84BE84" rx="3" ry="3" style="stroke:#038048;stroke-width:1.0;"/><text fill="#000000" font-family="sans-serif" font-size="14" lengthAdjust="spacing" textLength="86" x="566.5" y="229.5052">wrath(): void</text></g><!--class Hero--><g id="elem_Hero"><rect codeLine="32" fill="#F1F1F1" height="80.9766" id="Hero" rx="2.5" ry="2.5" style="stroke:#181818;stroke-width:0.5;" width="166" x="826" y="31.73"/><ellipse cx="888.25" cy="47.73" fill="#ADD1B2" rx="11" ry="11" style="stroke:#181818;stroke-width:1.0;"/><path d="M890.7231,53.8731 Q890.1421,54.1719 889.5029,54.3213 Q888.8638,54.4707 888.1582,54.4707 Q885.6514,54.4707 884.3315,52.8189 Q883.0117,51.167 883.0117,48.0459 Q883.0117,44.9165 884.3315,43.2647 Q885.6514,41.6128 888.1582,41.6128 Q888.8638,41.6128 889.5112,41.7622 Q890.1587,41.9116 890.7231,42.2105 L890.7231,44.9331 Q890.0923,44.3521 889.4988,44.0823 Q888.9053,43.8125 888.2744,43.8125 Q886.9297,43.8125 886.2449,44.8792 Q885.5601,45.9458 885.5601,48.0459 Q885.5601,50.1377 886.2449,51.2044 Q886.9297,52.271 888.2744,52.271 Q888.9053,52.271 889.4988,52.0012 Q890.0923,51.7315 890.7231,51.1504 Z " fill="#000000"/><text fill="#000000" font-family="sans-serif" font-size="14" lengthAdjust="spacing" textLength="33" x="908.75" y="53.021">Hero</text><line style="stroke:#181818;stroke-width:0.5;" x1="827" x2="991" y1="63.73" y2="63.73"/><rect fill="none" height="6" style="stroke:#C82930;stroke-width:1.0;" width="6" x="834" y="74.4741"/><text fill="#000000" font-family="sans-serif" font-size="14" lengthAdjust="spacing" textLength="105" x="846" y="81.2652">legend: Legend</text><line style="stroke:#181818;stroke-width:0.5;" x1="827" x2="991" y1="88.2183" y2="88.2183"/><ellipse cx="837" cy="101.9624" fill="#84BE84" rx="3" ry="3" style="stroke:#038048;stroke-width:1.0;"/><text fill="#000000" font-family="sans-serif" font-size="14" lengthAdjust="spacing" textLength="140" x="846" y="105.7534">getLegend(): Legend</text></g><!--class SemiGod--><g id="elem_SemiGod"><rect codeLine="37" fill="#F1F1F1" height="97.4648" id="SemiGod" rx="2.5" ry="2.5" style="stroke:#181818;stroke-width:0.5;" width="282" x="768" y="151.49"/><ellipse cx="874.25" cy="167.49" fill="#ADD1B2" rx="11" ry="11" style="stroke:#181818;stroke-width:1.0;"/><path d="M876.7231,173.6331 Q876.1421,173.9319 875.5029,174.0813 Q874.8638,174.2307 874.1582,174.2307 Q871.6514,174.2307 870.3315,172.5789 Q869.0117,170.927 869.0117,167.8059 Q869.0117,164.6765 870.3315,163.0247 Q871.6514,161.3728 874.1582,161.3728 Q874.8638,161.3728 875.5112,161.5222 Q876.1587,161.6716 876.7231,161.9705 L876.7231,164.6931 Q876.0923,164.1121 875.4988,163.8423 Q874.9053,163.5725 874.2744,163.5725 Q872.9297,163.5725 872.2449,164.6392 Q871.5601,165.7058 871.5601,167.8059 Q871.5601,169.8977 872.2449,170.9644 Q872.9297,172.031 874.2744,172.031 Q874.9053,172.031 875.4988,171.7612 Q876.0923,171.4915 876.7231,170.9104 Z " fill="#000000"/><text fill="#000000" font-family="sans-serif" font-size="14" lengthAdjust="spacing" textLength="61" x="894.75" y="172.781">SemiGod</text><line style="stroke:#181818;stroke-width:0.5;" x1="769" x2="1049" y1="183.49" y2="183.49"/><rect fill="none" height="6" style="stroke:#C82930;stroke-width:1.0;" width="6" x="776" y="194.2341"/><text fill="#000000" font-family="sans-serif" font-size="14" lengthAdjust="spacing" textLength="105" x="788" y="201.0252">legend: Legend</text><line style="stroke:#181818;stroke-width:0.5;" x1="769" x2="1049" y1="207.9783" y2="207.9783"/><ellipse cx="779" cy="221.7224" fill="#84BE84" rx="3" ry="3" style="stroke:#038048;stroke-width:1.0;"/><text fill="#000000" font-family="sans-serif" font-size="14" lengthAdjust="spacing" textLength="140" x="788" y="225.5134">getLegend(): Legend</text><ellipse cx="779" cy="238.2107" fill="#84BE84" rx="3" ry="3" style="stroke:#038048;stroke-width:1.0;"/><text fill="#000000" font-family="sans-serif" font-size="14" lengthAdjust="spacing" textLength="256" x="788" y="242.0017">{override} setDeath(death: Date): void</text></g><!--reverse link Describable to Being--><g id="link_Describable_Being"><path d="M210.37,76.22 C229.72,76.22 232.14,76.22 251.5,76.22 " fill="none" id="Describable-backto-Being" style="stroke:#181818;stroke-width:1.0;stroke-dasharray:7.0,7.0;"/><polygon fill="none" points="192.37,76.22,210.37,82.22,210.37,70.22,192.37,76.22" style="stroke:#181818;stroke-width:1.0;"/></g><!--reverse link Being to Human--><g id="link_Being_Human"><path d="M455.1978,74.4991 C474.4178,74.1991 476.84,74.17 496.51,73.86 " fill="none" id="Being-backto-Human" style="stroke:#181818;stroke-width:1.0;"/><polygon fill="none" points="437.2,74.78,455.2914,80.4983,455.1042,68.4998,437.2,74.78" style="stroke:#181818;stroke-width:1.0;"/></g><!--reverse link Being to God--><g id="link_Being_God"><path d="M453.299,133.1769 C472.909,143.3469 477.59,145.61 497,155.22 C512.89,163.08 530.29,171.37 546.24,178.84 " fill="none" id="Being-backto-God" style="stroke:#181818;stroke-width:1.0;"/><polygon fill="none" points="437.32,124.89,450.5367,138.5032,456.0613,127.8506,437.32,124.89" style="stroke:#181818;stroke-width:1.0;"/></g><!--reverse link Wrath to God--><g id="link_Wrath_God"><path d="M418.73,204.22 C461.8,204.22 503.32,204.22 546.37,204.22 " fill="none" id="Wrath-backto-God" style="stroke:#181818;stroke-width:1.0;stroke-dasharray:7.0,7.0;"/><polygon fill="none" points="400.73,204.22,418.73,210.22,418.73,198.22,400.73,204.22" style="stroke:#181818;stroke-width:1.0;"/></g><!--reverse link Human to Hero--><g id="link_Human_Hero"><path d="M726.29,72.22 C764.65,72.22 789.49,72.22 825.61,72.22 " fill="none" id="Human-backto-Hero" style="stroke:#181818;stroke-width:1.0;"/><polygon fill="none" points="708.29,72.22,726.29,78.22,726.29,66.22,708.29,72.22" style="stroke:#181818;stroke-width:1.0;"/></g><!--reverse link Human to SemiGod--><g id="link_Human_SemiGod"><path d="M724.8838,123.2447 C751.5538,134.4547 763.78,139.59 791.01,151.04 " fill="none" id="Human-backto-SemiGod" style="stroke:#181818;stroke-width:1.0;"/><polygon fill="none" points="708.29,116.27,722.5589,128.776,727.2087,117.7135,708.29,116.27" style="stroke:#181818;stroke-width:1.0;"/></g><!--reverse link God to SemiGod--><g id="link_God_SemiGod"><path d="M676.9985,203.2549 C707.6185,202.8549 729.15,202.57 767.66,202.06 " fill="none" id="God-backto-SemiGod" style="stroke:#181818;stroke-width:1.0;"/><polygon fill="none" points="659,203.49,677.0768,209.2544,676.9201,197.2554,659,203.49" style="stroke:#181818;stroke-width:1.0;"/></g><!--SRC=[bP2xRiCm34LtVmN71cr-m6DWe1sABXawqnPZ4z0ZeDYqG91_Z-LNvRG842-2BkcZGrewA6W0uRPJC2pKA0TV5EoLv80DGKMn4QwnjWJd0lhlkINzG4TFcnBsAkpR9HwRZucHLIyvxrDGkvdqdIwfynJOf3wiemes2et56657_V_0xcZ9aTVuZytMzoehaQtvjVXZ-AZuwF7svT03_IXvCrjDpzSisfLGeTByEgw2XD-bfWHUfHNXRHhdDADawnbjNeEvSSasT7-_qpWaOI6CiqtJM6hxi8JtuLnCnsi2JOK5jIV7kSz0UnaK7qGEXNCuaGWRki3zLLm1]--></g></svg>