<?xml version="1.0" encoding="us-ascii" standalone="no"?><svg xmlns="http://www.w3.org/2000/svg" xmlns:xlink="http://www.w3.org/1999/xlink" contentStyleType="text/css" height="310px" preserveAspectRatio="none" style="width:1057px;height:310px;background:#FFFFFF;" version="1.1" viewBox="0 0 1057 310" width="1057px" zoomAndPan="magnify"><defs/><g><!--class Describable--><g id="elem_Describable"><rect codeLine="4" fill="#F1F1F1" height="80.9766" id="Describable" rx="2.5" ry="2.5" style="stroke:#181818;stroke-width:0.5;" width="185" x="7" y="57.74"/><ellipse cx="55.25" cy="73.74" fill="#B4A7E5" rx="11" ry="11" style="stroke:#181818;stroke-width:1.0;"/><path d="M51.6777,70.0051 L51.6777,67.8469 L59.0571,67.8469 L59.0571,70.0051 L56.5918,70.0051 L56.5918,78.0818 L59.0571,78.0818 L59.0571,80.24 L51.6777,80.24 L51.6777,78.0818 L54.1431,78.0818 L54.1431,70.0051 Z " fill="#000000"/><text fill="#000000" font-family="sans-serif" font-size="14" font-style="italic" lengthAdjust="spacing" textLength="80" x="75.75" y="79.031">Describable</text><line style="stroke:#181818;stroke-width:0.5;" x1="8" x2="191" y1="89.74" y2="89.74"/><line style="stroke:#181818;stroke-width:0.5;" x1="8" x2="191" y1="97.74" y2="97.74"/><ellipse cx="18" cy="111.4841" fill="#84BE84" rx="3" ry="3" style="stroke:#038048;stroke-width:1.0;"/><text fill="#000000" font-family="sans-serif" font-size="14" lengthAdjust="spacing" textLength="120" x="27" y="115.2752">getName(): String</text><ellipse cx="18" cy="127.9724" fill="#84BE84" rx="3" ry="3" style="stroke:#038048;stroke-width:1.0;"/><text fill="#000000" font-family="sans-serif" font-size="14" lengthAdjust="spacing" textLength="159" x="27" y="131.7634">getDescription(): String</text></g><!--class Wrath--><g id="elem_Wrath"><rect codeLine="9" fill="#F1F1F1" height="64.4883" id="Wrath" rx="2.5" ry="2.5" style="stroke:#181818;stroke-width:0.5;" width="112" x="288.5" y="214.98"/><ellipse cx="321.5" cy="230.98" fill="#B4A7E5" rx="11" ry="11" style="stroke:#181818;stroke-width:1.0;"/><path d="M317.9277,227.2451 L317.9277,225.0869 L325.3071,225.0869 L325.3071,227.2451 L322.8418,227.2451 L322.8418,235.3218 L325.3071,235.3218 L325.3071,237.48 L317.9277,237.48 L317.9277,235.3218 L320.3931,235.3218 L320.3931,227.2451 Z " fill="#000000"/><text fill="#000000" font-family="sans-serif" font-size="14" font-style="italic" lengthAdjust="spacing" textLength="40" x="339.5" y="236.271">Wrath</text><line style="stroke:#181818;stroke-width:0.5;" x1="289.5" x2="399.5" y1="246.98" y2="246.98"/><line style="stroke:#181818;stroke-width:0.5;" x1="289.5" x2="399.5" y1="254.98" y2="254.98"/><ellipse cx="299.5" cy="268.7241" fill="#84BE84" rx="3" ry="3" style="stroke:#038048;stroke-width:1.0;"/><text fill="#000000" font-family="sans-serif" font-size="14" lengthAdjust="spacing" textLength="86" x="308.5" y="272.5152">wrath(): void</text></g><!--class Being--><g id="elem_Being"><rect codeLine="13" fill="#F1F1F1" height="113.9531" id="Being" rx="2.5" ry="2.5" style="stroke:#181818;stroke-width:0.5;" width="185" x="252" y="41.25"/><ellipse cx="321.25" cy="57.25" fill="#A9DCDF" rx="11" ry="11" style="stroke:#181818;stroke-width:1.0;"/><path d="M321.1133,52.5981 L319.9595,57.6699 L322.2754,57.6699 Z M319.6191,50.3569 L322.6157,50.3569 L325.9609,62.75 L323.5122,62.75 L322.7485,59.687 L319.4697,59.687 L318.7227,62.75 L316.2739,62.75 Z " fill="#000000"/><text fill="#000000" font-family="sans-serif" font-size="14" font-style="italic" lengthAdjust="spacing" textLength="38" x="341.75" y="62.541">Being</text><line style="stroke:#181818;stroke-width:0.5;" x1="253" x2="436" y1="73.25" y2="73.25"/><rect fill="none" height="6" style="stroke:#C82930;stroke-width:1.0;" width="6" x="260" y="83.9941"/><text fill="#000000" font-family="sans-serif" font-size="14" lengthAdjust="spacing" textLength="87" x="272" y="90.7852">name: String</text><rect fill="none" height="6" style="stroke:#C82930;stroke-width:1.0;" width="6" x="260" y="100.4824"/><text fill="#000000" font-family="sans-serif" font-size="14" lengthAdjust="spacing" textLength="126" x="272" y="107.2734">description: String</text><line style="stroke:#181818;stroke-width:0.5;" x1="253" x2="436" y1="114.2266" y2="114.2266"/><ellipse cx="263" cy="127.9707" fill="#84BE84" rx="3" ry="3" style="stroke:#038048;stroke-width:1.0;"/><text fill="#000000" font-family="sans-serif" font-size="14" lengthAdjust="spacing" textLength="120" x="272" y="131.7617">getName(): String</text><ellipse cx="263" cy="144.459" fill="#84BE84" rx="3" ry="3" style="stroke:#038048;stroke-width:1.0;"/><text fill="#000000" font-family="sans-serif" font-size="14" lengthAdjust="spacing" textLength="159" x="272" y="148.25">getDescription(): String</text></g><!--class Human--><g id="elem_Human"><rect codeLine="20" fill="#F1F1F1" height="130.4414" id="Human" rx="2.5" ry="2.5" style="stroke:#181818;stroke-width:0.5;" width="211" x="497" y="7"/><ellipse cx="573.75" cy="23" fill="#ADD1B2" rx="11" ry="11" style="stroke:#181818;stroke-width:1.0;"/><path d="M576.2231,29.1431 Q575.6421,29.4419 575.0029,29.5913 Q574.3638,29.7407 573.6582,29.7407 Q571.1514,29.7407 569.8315,28.0889 Q568.5117,26.437 568.5117,23.3159 Q568.5117,20.1865 569.8315,18.5347 Q571.1514,16.8828 573.6582,16.8828 Q574.3638,16.8828 575.0112,17.0322 Q575.6587,17.1816 576.2231,17.4805 L576.2231,20.2031 Q575.5923,19.6221 574.9988,19.3523 Q574.4053,19.0825 573.7744,19.0825 Q572.4297,19.0825 571.7449,20.1492 Q571.0601,21.2158 571.0601,23.3159 Q571.0601,25.4077 571.7449,26.4744 Q572.4297,27.541 573.7744,27.541 Q574.4053,27.541 574.9988,27.2712 Q575.5923,27.0015 576.2231,26.4204 Z " fill="#000000"/><text fill="#000000" font-family="sans-serif" font-size="14" lengthAdjust="spacing" textLength="49" x="594.25" y="28.291">Human</text><line style="stroke:#181818;stroke-width:0.5;" x1="498" x2="707" y1="39" y2="39"/><rect fill="none" height="6" style="stroke:#C82930;stroke-width:1.0;" width="6" x="505" y="49.7441"/><text fill="#000000" font-family="sans-serif" font-size="14" lengthAdjust="spacing" textLength="72" x="517" y="56.5352">birth: Date</text><rect fill="none" height="6" style="stroke:#C82930;stroke-width:1.0;" width="6" x="505" y="66.2324"/><text fill="#000000" font-family="sans-serif" font-size="14" lengthAdjust="spacing" textLength="78" x="517" y="73.0234">death: Date</text><line style="stroke:#181818;stroke-width:0.5;" x1="498" x2="707" y1="79.9766" y2="79.9766"/><ellipse cx="508" cy="93.7207" fill="#84BE84" rx="3" ry="3" style="stroke:#038048;stroke-width:1.0;"/><text fill="#000000" font-family="sans-serif" font-size="14" lengthAdjust="spacing" textLength="103" x="517" y="97.5117">getBirth(): Date</text><ellipse cx="508" cy="110.209" fill="#84BE84" rx="3" ry="3" style="stroke:#038048;stroke-width:1.0;"/><text fill="#000000" font-family="sans-serif" font-size="14" lengthAdjust="spacing" textLength="111" x="517" y="114">getDeath(): Date</text><ellipse cx="508" cy="126.6973" fill="#84BE84" rx="3" ry="3" style="stroke:#038048;stroke-width:1.0;"/><text fill="#000000" font-family="sans-serif" font-size="14" lengthAdjust="spacing" textLength="185" x="517" y="130.4883">setDeath(death: Date): void</text></g><!--class God--><g id="elem_God"><rect codeLine="28" fill="#F1F1F1" height="64.4883" id="God" rx="2.5" ry="2.5" style="stroke:#181818;stroke-width:0.5;" width="112" x="546.5" y="171.98"/><ellipse cx="584.9" cy="187.98" fill="#ADD1B2" rx="11" ry="11" style="stroke:#181818;stroke-width:1.0;"/><path d="M587.3731,194.1231 Q586.7921,194.4219 586.1529,194.5713 Q585.5138,194.7207 584.8082,194.7207 Q582.3014,194.7207 580.9815,193.0689 Q579.6617,191.417 579.6617,188.2959 Q579.6617,185.1665 580.9815,183.5147 Q582.3014,181.8628 584.8082,181.8628 Q585.5138,181.8628 586.1612,182.0122 Q586.8087,182.1616 587.3731,182.4605 L587.3731,185.1831 Q586.7423,184.6021 586.1488,184.3323 Q585.5553,184.0625 584.9244,184.0625 Q583.5797,184.0625 582.8949,185.1292 Q582.2101,186.1958 582.2101,188.2959 Q582.2101,190.3877 582.8949,191.4544 Q583.5797,192.521 584.9244,192.521 Q585.5553,192.521 586.1488,192.2512 Q586.7423,191.9815 587.3731,191.4004 Z " fill="#000000"/><text fill="#000000" font-family="sans-serif" font-size="14" lengthAdjust="spacing" textLength="28" x="604.1" y="193.271">God</text><line style="stroke:#181818;stroke-width:0.5;" x1="547.5" x2="657.5" y1="203.98" y2="203.98"/><line style="stroke:#181818;stroke-width:0.5;" x1="547.5" x2="657.5" y1="211.98" y2="211.98"/><ellipse cx="557.5" cy="225.7241" fill="#84BE84" rx="3" ry="3" style="stroke:#038048;stroke-width:1.0;"/><text fill="#000000" font-family="sans-serif" font-size="14" lengthAdjust="spacing" textLength="86" x="566.5" y="229.5152">wrath(): void</text></g><!--class Hero--><g id="elem_Hero"><rect codeLine="32" fill="#F1F1F1" height="80.9766" id="Hero" rx="2.5" ry="2.5" style="stroke:#181818;stroke-width:0.5;" width="166" x="826" y="31.74"/><ellipse cx="888.25" cy="47.74" fill="#ADD1B2" rx="11" ry="11" style="stroke:#181818;stroke-width:1.0;"/><path d="M890.7231,53.8831 Q890.1421,54.1819 889.5029,54.3313 Q888.8638,54.4807 888.1582,54.4807 Q885.6514,54.4807 884.3315,52.8289 Q883.0117,51.177 883.0117,48.0559 Q883.0117,44.9265 884.3315,43.2747 Q885.6514,41.6228 888.1582,41.6228 Q888.8638,41.6228 889.5112,41.7722 Q890.1587,41.9216 890.7231,42.2205 L890.7231,44.9431 Q890.0923,44.3621 889.4988,44.0923 Q888.9053,43.8225 888.2744,43.8225 Q886.9297,43.8225 886.2449,44.8892 Q885.5601,45.9558 885.5601,48.0559 Q885.5601,50.1477 886.2449,51.2144 Q886.9297,52.281 888.2744,52.281 Q888.9053,52.281 889.4988,52.0112 Q890.0923,51.7415 890.7231,51.1604 Z " fill="#000000"/><text fill="#000000" font-family="sans-serif" font-size="14" lengthAdjust="spacing" textLength="33" x="908.75" y="53.031">Hero</text><line style="stroke:#181818;stroke-width:0.5;" x1="827" x2="991" y1="63.74" y2="63.74"/><rect fill="none" height="6" style="stroke:#C82930;stroke-width:1.0;" width="6" x="834" y="74.4841"/><text fill="#000000" font-family="sans-serif" font-size="14" lengthAdjust="spacing" textLength="105" x="846" y="81.2752">legend: Legend</text><line style="stroke:#181818;stroke-width:0.5;" x1="827" x2="991" y1="88.2283" y2="88.2283"/><ellipse cx="837" cy="101.9724" fill="#84BE84" rx="3" ry="3" style="stroke:#038048;stroke-width:1.0;"/><text fill="#000000" font-family="sans-serif" font-size="14" lengthAdjust="spacing" textLength="140" x="846" y="105.7634">getLegend(): Legend</text></g><!--class SemiGod--><g id="elem_SemiGod"><rect codeLine="37" fill="#F1F1F1" height="113.9531" id="SemiGod" rx="2.5" ry="2.5" style="stroke:#181818;stroke-width:0.5;" width="282" x="768" y="189.25"/><ellipse cx="874.25" cy="205.25" fill="#ADD1B2" rx="11" ry="11" style="stroke:#181818;stroke-width:1.0;"/><path d="M876.7231,211.3931 Q876.1421,211.6919 875.5029,211.8413 Q874.8638,211.9907 874.1582,211.9907 Q871.6514,211.9907 870.3315,210.3389 Q869.0117,208.687 869.0117,205.5659 Q869.0117,202.4365 870.3315,200.7847 Q871.6514,199.1328 874.1582,199.1328 Q874.8638,199.1328 875.5112,199.2822 Q876.1587,199.4316 876.7231,199.7305 L876.7231,202.4531 Q876.0923,201.8721 875.4988,201.6023 Q874.9053,201.3325 874.2744,201.3325 Q872.9297,201.3325 872.2449,202.3992 Q871.5601,203.4658 871.5601,205.5659 Q871.5601,207.6577 872.2449,208.7244 Q872.9297,209.791 874.2744,209.791 Q874.9053,209.791 875.4988,209.5212 Q876.0923,209.2515 876.7231,208.6704 Z " fill="#000000"/><text fill="#000000" font-family="sans-serif" font-size="14" lengthAdjust="spacing" textLength="61" x="894.75" y="210.541">SemiGod</text><line style="stroke:#181818;stroke-width:0.5;" x1="769" x2="1049" y1="221.25" y2="221.25"/><rect fill="none" height="6" style="stroke:#C82930;stroke-width:1.0;" width="6" x="776" y="231.9941"/><text fill="#000000" font-family="sans-serif" font-size="14" lengthAdjust="spacing" textLength="105" x="788" y="238.7852">legend: Legend</text><line style="stroke:#181818;stroke-width:0.5;" x1="769" x2="1049" y1="245.7383" y2="245.7383"/><ellipse cx="779" cy="259.4824" fill="#84BE84" rx="3" ry="3" style="stroke:#038048;stroke-width:1.0;"/><text fill="#000000" font-family="sans-serif" font-size="14" lengthAdjust="spacing" textLength="140" x="788" y="263.2734">getLegend(): Legend</text><ellipse cx="779" cy="275.9707" fill="#84BE84" rx="3" ry="3" style="stroke:#038048;stroke-width:1.0;"/><text fill="#000000" font-family="sans-serif" font-size="14" lengthAdjust="spacing" textLength="256" x="788" y="279.7617">{override} setDeath(death: Date): void</text><ellipse cx="779" cy="292.459" fill="#84BE84" rx="3" ry="3" style="stroke:#038048;stroke-width:1.0;"/><text fill="#000000" font-family="sans-serif" font-size="14" lengthAdjust="spacing" textLength="86" x="788" y="296.25">wrath(): void</text></g><!--reverse link Describable to Being--><g id="link_Describable_Being"><path d="M210.37,98.22 C229.72,98.22 232.14,98.22 251.5,98.22 " fill="none" id="Describable-backto-Being" style="stroke:#181818;stroke-width:1.0;stroke-dasharray:7.0,7.0;"/><polygon fill="none" points="192.37,98.22,210.37,104.22,210.37,92.22,192.37,98.22" style="stroke:#181818;stroke-width:1.0;"/></g><!--reverse link Being to Human--><g id="link_Being_Human"><path d="M455.1081,87.0931 C474.3281,85.1431 476.84,84.88 496.51,82.89 " fill="none" id="Being-backto-Human" style="stroke:#181818;stroke-width:1.0;"/><polygon fill="none" points="437.2,88.91,455.7137,93.0625,454.5024,81.1237,437.2,88.91" style="stroke:#181818;stroke-width:1.0;"/></g><!--reverse link Being to God--><g id="link_Being_God"><path d="M453.8305,143.0768 C490.2705,158.1668 514.36,168.14 546.15,181.3 " fill="none" id="Being-backto-God" style="stroke:#181818;stroke-width:1.0;"/><polygon fill="none" points="437.2,136.19,451.5349,148.6203,456.1261,137.5333,437.2,136.19" style="stroke:#181818;stroke-width:1.0;"/></g><!--reverse link Wrath to God--><g id="link_Wrath_God"><path d="M418.481,234.9661 C461.551,227.7261 503.32,220.71 546.37,213.48 " fill="none" id="Wrath-backto-God" style="stroke:#181818;stroke-width:1.0;stroke-dasharray:7.0,7.0;"/><polygon fill="none" points="400.73,237.95,419.4756,240.8831,417.4863,229.0491,400.73,237.95" style="stroke:#181818;stroke-width:1.0;"/></g><!--reverse link Human to Hero--><g id="link_Human_Hero"><path d="M726.29,72.22 C764.65,72.22 789.49,72.22 825.61,72.22 " fill="none" id="Human-backto-Hero" style="stroke:#181818;stroke-width:1.0;"/><polygon fill="none" points="708.29,72.22,726.29,78.22,726.29,66.22,708.29,72.22" style="stroke:#181818;stroke-width:1.0;"/></g><!--reverse link Human to SemiGod--><g id="link_Human_SemiGod"><path d="M723.9169,141.0331 C756.0869,159.4231 775.77,170.67 807.64,188.87 " fill="none" id="Human-backto-SemiGod" style="stroke:#181818;stroke-width:1.0;"/><polygon fill="none" points="708.29,132.1,720.9392,146.2421,726.8946,135.8242,708.29,132.1" style="stroke:#181818;stroke-width:1.0;"/></g><!--reverse link Wrath to SemiGod--><g id="link_Wrath_SemiGod"><path d="M418.8661,251.328 C447.5361,252.808 465.15,253.49 497,254.22 C590.75,256.39 614.24,256.1 708,254.22 C727.28,253.84 747.6,253.24 767.61,252.55 " fill="none" id="Wrath-backto-SemiGod" style="stroke:#181818;stroke-width:1.0;stroke-dasharray:7.0,7.0;"/><polygon fill="none" points="400.89,250.4,418.5567,257.32,419.1754,245.3359,400.89,250.4" style="stroke:#181818;stroke-width:1.0;"/></g><!--SRC=[bP31Ri8m38RlVGeVXoPUe4TKQJjCkt3OsMrCQobDa6FO9CIxqv2sInb3MozHVhjVFjlIJa4z2BUTWc6XHjcxec2d93ji22eAZN2DjIKu5J1ypotfE_Rqj2fXgyAkdUFKl8-Ch7hEUH-2sasaptY9dKVF9lPX7LImKMWiXW0R6lu7xlUMUd8QxjYitQ2o45cRRuiVXlyLJnwlXnuTq9UICvFL-7pDebq95IfDh-CYYFXDR8hWHLeHtgPXIZDAjfvay-BDZKkseSVx7SSXyJCXpJPEOwaTmXBUhkTicguHD1Pcr9PwpdqIxHUVF-ElXPC_aWWREiEZjTmTz080]--></g></svg>