<?xml version="1.0" encoding="us-ascii" standalone="no"?><svg xmlns="http://www.w3.org/2000/svg" xmlns:xlink="http://www.w3.org/1999/xlink" contentStyleType="text/css" height="414px" preserveAspectRatio="none" style="width:1152px;height:414px;background:#FFFFFF;" version="1.1" viewBox="0 0 1152 414" width="1152px" zoomAndPan="magnify"><defs/><g><!--class Describable--><g id="elem_Describable"><rect codeLine="4" fill="#F1F1F1" height="80.9766" id="Describable" rx="2.5" ry="2.5" style="stroke:#181818;stroke-width:0.5;" width="185" x="376" y="177.74"/><ellipse cx="424.25" cy="193.74" fill="#B4A7E5" rx="11" ry="11" style="stroke:#181818;stroke-width:1.0;"/><path d="M420.6777,190.0051 L420.6777,187.8469 L428.0571,187.8469 L428.0571,190.0051 L425.5918,190.0051 L425.5918,198.0818 L428.0571,198.0818 L428.0571,200.24 L420.6777,200.24 L420.6777,198.0818 L423.1431,198.0818 L423.1431,190.0051 Z " fill="#000000"/><text fill="#000000" font-family="sans-serif" font-size="14" font-style="italic" lengthAdjust="spacing" textLength="80" x="444.75" y="199.031">Describable</text><line style="stroke:#181818;stroke-width:0.5;" x1="377" x2="560" y1="209.74" y2="209.74"/><line style="stroke:#181818;stroke-width:0.5;" x1="377" x2="560" y1="217.74" y2="217.74"/><ellipse cx="387" cy="231.4841" fill="#84BE84" rx="3" ry="3" style="stroke:#038048;stroke-width:1.0;"/><text fill="#000000" font-family="sans-serif" font-size="14" lengthAdjust="spacing" textLength="120" x="396" y="235.2752">getName(): String</text><ellipse cx="387" cy="247.9724" fill="#84BE84" rx="3" ry="3" style="stroke:#038048;stroke-width:1.0;"/><text fill="#000000" font-family="sans-serif" font-size="14" lengthAdjust="spacing" textLength="159" x="396" y="251.7634">getDescription(): String</text></g><!--class Litany--><g id="elem_Litany"><rect codeLine="9" fill="#F1F1F1" height="97.4648" id="Litany" rx="2.5" ry="2.5" style="stroke:#181818;stroke-width:0.5;" width="242" x="7" y="169.49"/><ellipse cx="37.75" cy="185.49" fill="#B4A7E5" rx="11" ry="11" style="stroke:#181818;stroke-width:1.0;"/><path d="M34.1777,181.7551 L34.1777,179.5969 L41.5571,179.5969 L41.5571,181.7551 L39.0918,181.7551 L39.0918,189.8318 L41.5571,189.8318 L41.5571,191.99 L34.1777,191.99 L34.1777,189.8318 L36.6431,189.8318 L36.6431,181.7551 Z " fill="#000000"/><text fill="#000000" font-family="sans-serif" font-size="14" font-style="italic" lengthAdjust="spacing" textLength="40" x="55.25" y="190.781">Litany</text><rect fill="#FFFFFF" height="16.1328" style="stroke:#181818;stroke-width:1.0;stroke-dasharray:2.0,2.0;" width="133" x="119" y="166.49"/><text fill="#000000" font-family="sans-serif" font-size="12" font-style="italic" lengthAdjust="spacing" textLength="131" x="120" y="179.0916">T extends Describable</text><line style="stroke:#181818;stroke-width:0.5;" x1="8" x2="248" y1="201.49" y2="201.49"/><line style="stroke:#181818;stroke-width:0.5;" x1="8" x2="248" y1="209.49" y2="209.49"/><ellipse cx="18" cy="223.2341" fill="#84BE84" rx="3" ry="3" style="stroke:#038048;stroke-width:1.0;"/><text fill="#000000" font-family="sans-serif" font-size="14" lengthAdjust="spacing" textLength="110" x="27" y="227.0252">getAll(): Set&lt;T&gt;</text><ellipse cx="18" cy="239.7224" fill="#84BE84" rx="3" ry="3" style="stroke:#038048;stroke-width:1.0;"/><text fill="#000000" font-family="sans-serif" font-size="14" lengthAdjust="spacing" textLength="120" x="27" y="243.5134">add(item: T): void</text><ellipse cx="18" cy="256.2107" fill="#84BE84" rx="3" ry="3" style="stroke:#038048;stroke-width:1.0;"/><text fill="#000000" font-family="sans-serif" font-size="14" lengthAdjust="spacing" textLength="216" x="27" y="260.0017">remove(itemName: String): void</text></g><!--class Being--><g id="elem_Being"><rect codeLine="15" fill="#F1F1F1" height="113.9531" id="Being" rx="2.5" ry="2.5" style="stroke:#181818;stroke-width:0.5;" width="185" x="688" y="81.25"/><ellipse cx="757.25" cy="97.25" fill="#A9DCDF" rx="11" ry="11" style="stroke:#181818;stroke-width:1.0;"/><path d="M757.1133,92.5981 L755.9595,97.6699 L758.2754,97.6699 Z M755.6191,90.3569 L758.6157,90.3569 L761.9609,102.75 L759.5122,102.75 L758.7485,99.687 L755.4697,99.687 L754.7227,102.75 L752.2739,102.75 Z " fill="#000000"/><text fill="#000000" font-family="sans-serif" font-size="14" font-style="italic" lengthAdjust="spacing" textLength="38" x="777.75" y="102.541">Being</text><line style="stroke:#181818;stroke-width:0.5;" x1="689" x2="872" y1="113.25" y2="113.25"/><rect fill="none" height="6" style="stroke:#C82930;stroke-width:1.0;" width="6" x="696" y="123.9941"/><text fill="#000000" font-family="sans-serif" font-size="14" lengthAdjust="spacing" textLength="87" x="708" y="130.7852">name: String</text><rect fill="none" height="6" style="stroke:#C82930;stroke-width:1.0;" width="6" x="696" y="140.4824"/><text fill="#000000" font-family="sans-serif" font-size="14" lengthAdjust="spacing" textLength="126" x="708" y="147.2734">description: String</text><line style="stroke:#181818;stroke-width:0.5;" x1="689" x2="872" y1="154.2266" y2="154.2266"/><ellipse cx="699" cy="167.9707" fill="#84BE84" rx="3" ry="3" style="stroke:#038048;stroke-width:1.0;"/><text fill="#000000" font-family="sans-serif" font-size="14" lengthAdjust="spacing" textLength="120" x="708" y="171.7617">getName(): String</text><ellipse cx="699" cy="184.459" fill="#84BE84" rx="3" ry="3" style="stroke:#038048;stroke-width:1.0;"/><text fill="#000000" font-family="sans-serif" font-size="14" lengthAdjust="spacing" textLength="159" x="708" y="188.25">getDescription(): String</text></g><!--class Human--><g id="elem_Human"><rect codeLine="22" fill="#F1F1F1" height="130.4414" id="Human" rx="2.5" ry="2.5" style="stroke:#181818;stroke-width:0.5;" width="211" x="934" y="7"/><ellipse cx="1010.75" cy="23" fill="#ADD1B2" rx="11" ry="11" style="stroke:#181818;stroke-width:1.0;"/><path d="M1013.2231,29.1431 Q1012.6421,29.4419 1012.0029,29.5913 Q1011.3638,29.7407 1010.6582,29.7407 Q1008.1514,29.7407 1006.8315,28.0889 Q1005.5117,26.437 1005.5117,23.3159 Q1005.5117,20.1865 1006.8315,18.5347 Q1008.1514,16.8828 1010.6582,16.8828 Q1011.3638,16.8828 1012.0112,17.0322 Q1012.6587,17.1816 1013.2231,17.4805 L1013.2231,20.2031 Q1012.5923,19.6221 1011.9988,19.3523 Q1011.4053,19.0825 1010.7744,19.0825 Q1009.4297,19.0825 1008.7449,20.1492 Q1008.0601,21.2158 1008.0601,23.3159 Q1008.0601,25.4077 1008.7449,26.4744 Q1009.4297,27.541 1010.7744,27.541 Q1011.4053,27.541 1011.9988,27.2712 Q1012.5923,27.0015 1013.2231,26.4204 Z " fill="#000000"/><text fill="#000000" font-family="sans-serif" font-size="14" lengthAdjust="spacing" textLength="49" x="1031.25" y="28.291">Human</text><line style="stroke:#181818;stroke-width:0.5;" x1="935" x2="1144" y1="39" y2="39"/><rect fill="none" height="6" style="stroke:#C82930;stroke-width:1.0;" width="6" x="942" y="49.7441"/><text fill="#000000" font-family="sans-serif" font-size="14" lengthAdjust="spacing" textLength="72" x="954" y="56.5352">birth: Date</text><rect fill="none" height="6" style="stroke:#C82930;stroke-width:1.0;" width="6" x="942" y="66.2324"/><text fill="#000000" font-family="sans-serif" font-size="14" lengthAdjust="spacing" textLength="78" x="954" y="73.0234">death: Date</text><line style="stroke:#181818;stroke-width:0.5;" x1="935" x2="1144" y1="79.9766" y2="79.9766"/><ellipse cx="945" cy="93.7207" fill="#84BE84" rx="3" ry="3" style="stroke:#038048;stroke-width:1.0;"/><text fill="#000000" font-family="sans-serif" font-size="14" lengthAdjust="spacing" textLength="103" x="954" y="97.5117">getBirth(): Date</text><ellipse cx="945" cy="110.209" fill="#84BE84" rx="3" ry="3" style="stroke:#038048;stroke-width:1.0;"/><text fill="#000000" font-family="sans-serif" font-size="14" lengthAdjust="spacing" textLength="111" x="954" y="114">getDeath(): Date</text><ellipse cx="945" cy="126.6973" fill="#84BE84" rx="3" ry="3" style="stroke:#038048;stroke-width:1.0;"/><text fill="#000000" font-family="sans-serif" font-size="14" lengthAdjust="spacing" textLength="185" x="954" y="130.4883">setDeath(death: Date): void</text></g><!--class God--><g id="elem_God"><rect codeLine="30" fill="#F1F1F1" height="64.4883" id="God" rx="2.5" ry="2.5" style="stroke:#181818;stroke-width:0.5;" width="112" x="983.5" y="171.98"/><ellipse cx="1021.9" cy="187.98" fill="#ADD1B2" rx="11" ry="11" style="stroke:#181818;stroke-width:1.0;"/><path d="M1024.3731,194.1231 Q1023.7921,194.4219 1023.1529,194.5713 Q1022.5138,194.7207 1021.8082,194.7207 Q1019.3014,194.7207 1017.9815,193.0689 Q1016.6617,191.417 1016.6617,188.2959 Q1016.6617,185.1665 1017.9815,183.5147 Q1019.3014,181.8628 1021.8082,181.8628 Q1022.5138,181.8628 1023.1612,182.0122 Q1023.8087,182.1616 1024.3731,182.4605 L1024.3731,185.1831 Q1023.7423,184.6021 1023.1488,184.3323 Q1022.5553,184.0625 1021.9244,184.0625 Q1020.5797,184.0625 1019.8949,185.1292 Q1019.2101,186.1958 1019.2101,188.2959 Q1019.2101,190.3877 1019.8949,191.4544 Q1020.5797,192.521 1021.9244,192.521 Q1022.5553,192.521 1023.1488,192.2512 Q1023.7423,191.9815 1024.3731,191.4004 Z " fill="#000000"/><text fill="#000000" font-family="sans-serif" font-size="14" lengthAdjust="spacing" textLength="28" x="1041.1" y="193.271">God</text><line style="stroke:#181818;stroke-width:0.5;" x1="984.5" x2="1094.5" y1="203.98" y2="203.98"/><line style="stroke:#181818;stroke-width:0.5;" x1="984.5" x2="1094.5" y1="211.98" y2="211.98"/><ellipse cx="994.5" cy="225.7241" fill="#84BE84" rx="3" ry="3" style="stroke:#038048;stroke-width:1.0;"/><text fill="#000000" font-family="sans-serif" font-size="14" lengthAdjust="spacing" textLength="86" x="1003.5" y="229.5152">wrath(): void</text></g><!--class Family--><g id="elem_Family"><rect codeLine="34" fill="#F1F1F1" height="113.9531" id="Family" rx="2.5" ry="2.5" style="stroke:#181818;stroke-width:0.5;" width="247" x="345" y="29.25"/><ellipse cx="442.25" cy="45.25" fill="#ADD1B2" rx="11" ry="11" style="stroke:#181818;stroke-width:1.0;"/><path d="M444.7231,51.3931 Q444.1421,51.6919 443.5029,51.8413 Q442.8638,51.9907 442.1582,51.9907 Q439.6514,51.9907 438.3315,50.3389 Q437.0117,48.687 437.0117,45.5659 Q437.0117,42.4365 438.3315,40.7847 Q439.6514,39.1328 442.1582,39.1328 Q442.8638,39.1328 443.5112,39.2822 Q444.1587,39.4316 444.7231,39.7305 L444.7231,42.4531 Q444.0923,41.8721 443.4988,41.6023 Q442.9053,41.3325 442.2744,41.3325 Q440.9297,41.3325 440.2449,42.3992 Q439.5601,43.4658 439.5601,45.5659 Q439.5601,47.6577 440.2449,48.7244 Q440.9297,49.791 442.2744,49.791 Q442.9053,49.791 443.4988,49.5212 Q444.0923,49.2515 444.7231,48.6704 Z " fill="#000000"/><text fill="#000000" font-family="sans-serif" font-size="14" lengthAdjust="spacing" textLength="44" x="462.75" y="50.541">Family</text><line style="stroke:#181818;stroke-width:0.5;" x1="346" x2="591" y1="61.25" y2="61.25"/><rect fill="none" height="6" style="stroke:#C82930;stroke-width:1.0;" width="6" x="353" y="71.9941"/><text fill="#000000" font-family="sans-serif" font-size="14" lengthAdjust="spacing" textLength="141" x="365" y="78.7852">parents: Set&lt;Being&gt;</text><line style="stroke:#181818;stroke-width:0.5;" x1="346" x2="591" y1="85.7383" y2="85.7383"/><ellipse cx="356" cy="99.4824" fill="#84BE84" rx="3" ry="3" style="stroke:#038048;stroke-width:1.0;"/><text fill="#000000" font-family="sans-serif" font-size="14" lengthAdjust="spacing" textLength="139" x="365" y="103.2734">getAll(): Set&lt;Being&gt;</text><ellipse cx="356" cy="115.9707" fill="#84BE84" rx="3" ry="3" style="stroke:#038048;stroke-width:1.0;"/><text fill="#000000" font-family="sans-serif" font-size="14" lengthAdjust="spacing" textLength="154" x="365" y="119.7617">add(Being being): void</text><ellipse cx="356" cy="132.459" fill="#84BE84" rx="3" ry="3" style="stroke:#038048;stroke-width:1.0;"/><text fill="#000000" font-family="sans-serif" font-size="14" lengthAdjust="spacing" textLength="221" x="365" y="136.25">remove(String beingName): void</text></g><!--class Deed--><g id="elem_Deed"><rect codeLine="41" fill="#F1F1F1" height="113.9531" id="Deed" rx="2.5" ry="2.5" style="stroke:#181818;stroke-width:0.5;" width="185" x="688" y="249.25"/><ellipse cx="758.75" cy="265.25" fill="#ADD1B2" rx="11" ry="11" style="stroke:#181818;stroke-width:1.0;"/><path d="M761.2231,271.3931 Q760.6421,271.6919 760.0029,271.8413 Q759.3638,271.9907 758.6582,271.9907 Q756.1514,271.9907 754.8315,270.3389 Q753.5117,268.687 753.5117,265.5659 Q753.5117,262.4365 754.8315,260.7847 Q756.1514,259.1328 758.6582,259.1328 Q759.3638,259.1328 760.0112,259.2822 Q760.6587,259.4316 761.2231,259.7305 L761.2231,262.4531 Q760.5923,261.8721 759.9988,261.6023 Q759.4053,261.3325 758.7744,261.3325 Q757.4297,261.3325 756.7449,262.3992 Q756.0601,263.4658 756.0601,265.5659 Q756.0601,267.6577 756.7449,268.7244 Q757.4297,269.791 758.7744,269.791 Q759.4053,269.791 759.9988,269.5212 Q760.5923,269.2515 761.2231,268.6704 Z " fill="#000000"/><text fill="#000000" font-family="sans-serif" font-size="14" lengthAdjust="spacing" textLength="35" x="779.25" y="270.541">Deed</text><line style="stroke:#181818;stroke-width:0.5;" x1="689" x2="872" y1="281.25" y2="281.25"/><rect fill="none" height="6" style="stroke:#C82930;stroke-width:1.0;" width="6" x="696" y="291.9941"/><text fill="#000000" font-family="sans-serif" font-size="14" lengthAdjust="spacing" textLength="87" x="708" y="298.7852">name: String</text><rect fill="none" height="6" style="stroke:#C82930;stroke-width:1.0;" width="6" x="696" y="308.4824"/><text fill="#000000" font-family="sans-serif" font-size="14" lengthAdjust="spacing" textLength="126" x="708" y="315.2734">description: String</text><line style="stroke:#181818;stroke-width:0.5;" x1="689" x2="872" y1="322.2266" y2="322.2266"/><ellipse cx="699" cy="335.9707" fill="#84BE84" rx="3" ry="3" style="stroke:#038048;stroke-width:1.0;"/><text fill="#000000" font-family="sans-serif" font-size="14" lengthAdjust="spacing" textLength="120" x="708" y="339.7617">getName(): String</text><ellipse cx="699" cy="352.459" fill="#84BE84" rx="3" ry="3" style="stroke:#038048;stroke-width:1.0;"/><text fill="#000000" font-family="sans-serif" font-size="14" lengthAdjust="spacing" textLength="159" x="708" y="356.25">getDescription(): String</text></g><!--class Legend--><g id="elem_Legend"><rect codeLine="48" fill="#F1F1F1" height="113.9531" id="Legend" rx="2.5" ry="2.5" style="stroke:#181818;stroke-width:0.5;" width="242" x="347.5" y="293.25"/><ellipse cx="439.25" cy="309.25" fill="#ADD1B2" rx="11" ry="11" style="stroke:#181818;stroke-width:1.0;"/><path d="M441.7231,315.3931 Q441.1421,315.6919 440.5029,315.8413 Q439.8638,315.9907 439.1582,315.9907 Q436.6514,315.9907 435.3315,314.3389 Q434.0117,312.687 434.0117,309.5659 Q434.0117,306.4365 435.3315,304.7847 Q436.6514,303.1328 439.1582,303.1328 Q439.8638,303.1328 440.5112,303.2822 Q441.1587,303.4316 441.7231,303.7305 L441.7231,306.4531 Q441.0923,305.8721 440.4988,305.6023 Q439.9053,305.3325 439.2744,305.3325 Q437.9297,305.3325 437.2449,306.3992 Q436.5601,307.4658 436.5601,309.5659 Q436.5601,311.6577 437.2449,312.7244 Q437.9297,313.791 439.2744,313.791 Q439.9053,313.791 440.4988,313.5212 Q441.0923,313.2515 441.7231,312.6704 Z " fill="#000000"/><text fill="#000000" font-family="sans-serif" font-size="14" lengthAdjust="spacing" textLength="50" x="459.75" y="314.541">Legend</text><line style="stroke:#181818;stroke-width:0.5;" x1="348.5" x2="588.5" y1="325.25" y2="325.25"/><rect fill="none" height="6" style="stroke:#C82930;stroke-width:1.0;" width="6" x="355.5" y="335.9941"/><text fill="#000000" font-family="sans-serif" font-size="14" lengthAdjust="spacing" textLength="127" x="367.5" y="342.7852">deeds: Set&lt;Deed&gt;</text><line style="stroke:#181818;stroke-width:0.5;" x1="348.5" x2="588.5" y1="349.7383" y2="349.7383"/><ellipse cx="358.5" cy="363.4824" fill="#84BE84" rx="3" ry="3" style="stroke:#038048;stroke-width:1.0;"/><text fill="#000000" font-family="sans-serif" font-size="14" lengthAdjust="spacing" textLength="136" x="367.5" y="367.2734">getAll(): Set&lt;Deed&gt;</text><ellipse cx="358.5" cy="379.9707" fill="#84BE84" rx="3" ry="3" style="stroke:#038048;stroke-width:1.0;"/><text fill="#000000" font-family="sans-serif" font-size="14" lengthAdjust="spacing" textLength="146" x="367.5" y="383.7617">add(Deed deed): void</text><ellipse cx="358.5" cy="396.459" fill="#84BE84" rx="3" ry="3" style="stroke:#038048;stroke-width:1.0;"/><text fill="#000000" font-family="sans-serif" font-size="14" lengthAdjust="spacing" textLength="216" x="367.5" y="400.25">remove(String deedName): void</text></g><!--reverse link Describable to Being--><g id="link_Describable_Being"><path d="M578.6789,190.0519 C618.5889,179.7519 647.81,172.21 687.72,161.91 " fill="none" id="Describable-backto-Being" style="stroke:#181818;stroke-width:1.0;stroke-dasharray:7.0,7.0;"/><polygon fill="none" points="561.25,194.55,580.1783,195.8616,577.1796,184.2423,561.25,194.55" style="stroke:#181818;stroke-width:1.0;"/></g><!--reverse link Being to Human--><g id="link_Being_Human"><path d="M890.6234,110.1994 C910.2334,105.1594 913.65,104.29 933.71,99.14 " fill="none" id="Being-backto-Human" style="stroke:#181818;stroke-width:1.0;"/><polygon fill="none" points="873.19,114.68,892.117,116.0105,889.1299,104.3883,873.19,114.68" style="stroke:#181818;stroke-width:1.0;"/></g><!--reverse link Being to God--><g id="link_Being_God"><path d="M890.6243,166.2471 C927.3843,175.6871 951.1,181.78 983.15,190.01 " fill="none" id="Being-backto-God" style="stroke:#181818;stroke-width:1.0;"/><polygon fill="none" points="873.19,161.77,889.1319,172.0586,892.1167,160.4357,873.19,161.77" style="stroke:#181818;stroke-width:1.0;"/></g><!--reverse link Litany to Family--><g id="link_Litany_Family"><path d="M266.0695,164.769 C297.0395,152.689 313.64,146.22 344.74,134.1 " fill="none" id="Litany-backto-Family" style="stroke:#181818;stroke-width:1.0;stroke-dasharray:7.0,7.0;"/><polygon fill="none" points="249.3,171.31,268.2498,170.3588,263.8891,159.1792,249.3,171.31" style="stroke:#181818;stroke-width:1.0;"/></g><!--reverse link Describable to Deed--><g id="link_Describable_Deed"><path d="M578.5658,249.1857 C618.4758,260.5157 647.81,268.84 687.72,280.17 " fill="none" id="Describable-backto-Deed" style="stroke:#181818;stroke-width:1.0;stroke-dasharray:7.0,7.0;"/><polygon fill="none" points="561.25,244.27,576.9272,254.9577,580.2043,243.4138,561.25,244.27" style="stroke:#181818;stroke-width:1.0;"/></g><!--reverse link Litany to Legend--><g id="link_Litany_Legend"><path d="M266.0688,271.6726 C297.7988,284.0526 315.28,290.86 347.02,303.24 " fill="none" id="Litany-backto-Legend" style="stroke:#181818;stroke-width:1.0;stroke-dasharray:7.0,7.0;"/><polygon fill="none" points="249.3,265.13,263.888,277.2623,268.2497,266.083,249.3,265.13" style="stroke:#181818;stroke-width:1.0;"/></g><!--reverse link Legend to Deed--><g id="link_Legend_Deed"><path codeLine="55" d="M601.6811,331.4647 C634.1811,326.8547 656.96,323.62 687.63,319.26 " fill="none" id="Legend-backto-Deed" style="stroke:#181818;stroke-width:1.0;"/><polygon fill="none" points="589.8,333.15,596.3023,336.2677,601.6811,331.4647,595.1788,328.347,589.8,333.15" style="stroke:#181818;stroke-width:1.0;"/><text fill="#000000" font-family="sans-serif" font-size="13" lengthAdjust="spacing" textLength="34" x="623" y="320.7884">many</text></g><!--reverse link Family to Being--><g id="link_Family_Being"><path codeLine="57" d="M604.3047,108.8349 C636.0847,114.1649 657.9,117.83 687.78,122.84 " fill="none" id="Family-backto-Being" style="stroke:#181818;stroke-width:1.0;"/><polygon fill="none" points="592.47,106.85,597.7257,111.7873,604.3047,108.8349,599.049,103.8975,592.47,106.85" style="stroke:#181818;stroke-width:1.0;"/><text fill="#000000" font-family="sans-serif" font-size="13" lengthAdjust="spacing" textLength="34" x="623" y="108.7884">many</text></g><!--reverse link Litany to Describable--><g id="link_Litany_Describable"><path codeLine="59" d="M261.3,218.22 C302.82,218.22 336.64,218.22 375.53,218.22 " fill="none" id="Litany-backto-Describable" style="stroke:#181818;stroke-width:1.0;"/><polygon fill="none" points="249.3,218.22,255.3,222.22,261.3,218.22,255.3,214.22,249.3,218.22" style="stroke:#181818;stroke-width:1.0;"/><text fill="#000000" font-family="sans-serif" font-size="13" lengthAdjust="spacing" textLength="34" x="280" y="214.7884">many</text></g><!--SRC=[pL91JiCm4Bpd5QkUYgf-8AegKKN0eU92F-34szIIurJsKgWGVyURJLg71YHkv3YpdfsTYSKz0RNWJNqWqCPZHQPrMMOSeT-h2g70K7bJgj8YV6GGlqMDzAmQdD_by4BUkFe2o_2HDHBsCzNR6bBklDe1lXCw7T85wsJ3lRMT1D9gjnPKQJqtX4qEkyYSMgC5zzYq9-mezZNi7MRYUbK6ygeYgAmA0JOOQJ3DqMA3ZiB4aKkNA0cYhyVT7FxNFCJ7qskZt2K8STMlBusdGmw58Xosgn70yXiUOk4HMl3a60q3cgWayOYRnrPFUbcy-LvmFF-W6cFFQOpIxN32KNb6fSDES3tLRifmmxAwnAJ1j6N9K7XE_SPMWQZ_GRTRh6EIFwUZeyq-6tOy6Kr2S3BTPVpkbroO_XPBxwHTBYMR76RnjplFignla1b9_KhrPkNHDS3Bm1S0]--></g></svg>