<?xml version="1.0" encoding="us-ascii" standalone="no"?><svg xmlns="http://www.w3.org/2000/svg" xmlns:xlink="http://www.w3.org/1999/xlink" contentStyleType="text/css" height="144px" preserveAspectRatio="none" style="width:451px;height:144px;background:#FFFFFF;" version="1.1" viewBox="0 0 451 144" width="451px" zoomAndPan="magnify"><defs/><g><!--class Human--><g id="elem_Human"><rect codeLine="4" fill="#F1F1F1" height="130.4414" id="Human" rx="2.5" ry="2.5" style="stroke:#181818;stroke-width:0.5;" width="211" x="7" y="7"/><ellipse cx="83.75" cy="23" fill="#ADD1B2" rx="11" ry="11" style="stroke:#181818;stroke-width:1.0;"/><path d="M86.2231,29.1431 Q85.6421,29.4419 85.0029,29.5913 Q84.3638,29.7407 83.6582,29.7407 Q81.1514,29.7407 79.8315,28.0889 Q78.5117,26.437 78.5117,23.3159 Q78.5117,20.1865 79.8315,18.5347 Q81.1514,16.8828 83.6582,16.8828 Q84.3638,16.8828 85.0112,17.0322 Q85.6587,17.1816 86.2231,17.4805 L86.2231,20.2031 Q85.5923,19.6221 84.9988,19.3523 Q84.4053,19.0825 83.7744,19.0825 Q82.4297,19.0825 81.7449,20.1492 Q81.0601,21.2158 81.0601,23.3159 Q81.0601,25.4077 81.7449,26.4744 Q82.4297,27.541 83.7744,27.541 Q84.4053,27.541 84.9988,27.2712 Q85.5923,27.0015 86.2231,26.4204 Z " fill="#000000"/><text fill="#000000" font-family="sans-serif" font-size="14" lengthAdjust="spacing" textLength="49" x="104.25" y="28.291">Human</text><line style="stroke:#181818;stroke-width:0.5;" x1="8" x2="217" y1="39" y2="39"/><rect fill="none" height="6" style="stroke:#C82930;stroke-width:1.0;" width="6" x="15" y="49.7441"/><text fill="#000000" font-family="sans-serif" font-size="14" lengthAdjust="spacing" textLength="72" x="27" y="56.5352">birth: Date</text><rect fill="none" height="6" style="stroke:#C82930;stroke-width:1.0;" width="6" x="15" y="66.2324"/><text fill="#000000" font-family="sans-serif" font-size="14" lengthAdjust="spacing" textLength="78" x="27" y="73.0234">death: Date</text><line style="stroke:#181818;stroke-width:0.5;" x1="8" x2="217" y1="79.9766" y2="79.9766"/><ellipse cx="18" cy="93.7207" fill="#84BE84" rx="3" ry="3" style="stroke:#038048;stroke-width:1.0;"/><text fill="#000000" font-family="sans-serif" font-size="14" lengthAdjust="spacing" textLength="103" x="27" y="97.5117">getBirth(): Date</text><ellipse cx="18" cy="110.209" fill="#84BE84" rx="3" ry="3" style="stroke:#038048;stroke-width:1.0;"/><text fill="#000000" font-family="sans-serif" font-size="14" lengthAdjust="spacing" textLength="111" x="27" y="114">getDeath(): Date</text><ellipse cx="18" cy="126.6973" fill="#84BE84" rx="3" ry="3" style="stroke:#038048;stroke-width:1.0;"/><text fill="#000000" font-family="sans-serif" font-size="14" lengthAdjust="spacing" textLength="185" x="27" y="130.4883">setDeath(death: Date): void</text></g><!--class Hero--><g id="elem_Hero"><rect codeLine="12" fill="#F1F1F1" height="80.9766" id="Hero" rx="2.5" ry="2.5" style="stroke:#181818;stroke-width:0.5;" width="166" x="278" y="31.73"/><ellipse cx="340.25" cy="47.73" fill="#ADD1B2" rx="11" ry="11" style="stroke:#181818;stroke-width:1.0;"/><path d="M342.7231,53.8731 Q342.1421,54.1719 341.5029,54.3213 Q340.8638,54.4707 340.1582,54.4707 Q337.6514,54.4707 336.3315,52.8189 Q335.0117,51.167 335.0117,48.0459 Q335.0117,44.9165 336.3315,43.2647 Q337.6514,41.6128 340.1582,41.6128 Q340.8638,41.6128 341.5112,41.7622 Q342.1587,41.9116 342.7231,42.2105 L342.7231,44.9331 Q342.0923,44.3521 341.4988,44.0823 Q340.9053,43.8125 340.2744,43.8125 Q338.9297,43.8125 338.2449,44.8792 Q337.5601,45.9458 337.5601,48.0459 Q337.5601,50.1377 338.2449,51.2044 Q338.9297,52.271 340.2744,52.271 Q340.9053,52.271 341.4988,52.0012 Q342.0923,51.7315 342.7231,51.1504 Z " fill="#000000"/><text fill="#000000" font-family="sans-serif" font-size="14" lengthAdjust="spacing" textLength="33" x="360.75" y="53.021">Hero</text><line style="stroke:#181818;stroke-width:0.5;" x1="279" x2="443" y1="63.73" y2="63.73"/><rect fill="none" height="6" style="stroke:#C82930;stroke-width:1.0;" width="6" x="286" y="74.4741"/><text fill="#000000" font-family="sans-serif" font-size="14" lengthAdjust="spacing" textLength="105" x="298" y="81.2652">legend: Legend</text><line style="stroke:#181818;stroke-width:0.5;" x1="279" x2="443" y1="88.2183" y2="88.2183"/><ellipse cx="289" cy="101.9624" fill="#84BE84" rx="3" ry="3" style="stroke:#038048;stroke-width:1.0;"/><text fill="#000000" font-family="sans-serif" font-size="14" lengthAdjust="spacing" textLength="140" x="298" y="105.7534">getLegend(): Legend</text></g><!--reverse link Human to Hero--><g id="link_Human_Hero"><path d="M236.4,72.22 C256.18,72.22 258.61,72.22 277.59,72.22 " fill="none" id="Human-backto-Hero" style="stroke:#181818;stroke-width:1.0;"/><polygon fill="none" points="218.4,72.22,236.4,78.22,236.4,66.22,218.4,72.22" style="stroke:#181818;stroke-width:1.0;"/></g><!--SRC=[NOx12W8n34Jl-OevAk8Fx57suC6VgDlO3TGMsYY2xB_RMYswkOIy6JBZ-QBGY2HkLbX9FAd4G3HvapEEjwi9U1BAxC-IT1um6kK6B9i_i7EiXshQR1j5nsErhd3-ufy_nN6FOa5Bhy0fWX_AmQxwU7O53ZYzTuzgPytw20kz0000]--></g></svg>