<?xml version="1.0" encoding="us-ascii" standalone="no"?><svg xmlns="http://www.w3.org/2000/svg" xmlns:xlink="http://www.w3.org/1999/xlink" contentStyleType="text/css" height="433px" preserveAspectRatio="none" style="width:729px;height:433px;background:#FFFFFF;" version="1.1" viewBox="0 0 729 433" width="729px" zoomAndPan="magnify"><defs/><g><!--class Being--><g id="elem_Being"><rect codeLine="2" fill="#F1F1F1" height="130.4414" id="Being" rx="2.5" ry="2.5" style="stroke:#181818;stroke-width:0.5;" width="295" x="7" y="48.22"/><ellipse cx="131.25" cy="64.22" fill="#ADD1B2" rx="11" ry="11" style="stroke:#181818;stroke-width:1.0;"/><path d="M133.7231,70.3631 Q133.1421,70.6619 132.5029,70.8113 Q131.8638,70.9607 131.1582,70.9607 Q128.6514,70.9607 127.3315,69.3089 Q126.0117,67.657 126.0117,64.5359 Q126.0117,61.4065 127.3315,59.7547 Q128.6514,58.1028 131.1582,58.1028 Q131.8638,58.1028 132.5112,58.2522 Q133.1587,58.4016 133.7231,58.7005 L133.7231,61.4231 Q133.0923,60.8421 132.4988,60.5723 Q131.9053,60.3025 131.2744,60.3025 Q129.9297,60.3025 129.2449,61.3692 Q128.5601,62.4358 128.5601,64.5359 Q128.5601,66.6277 129.2449,67.6944 Q129.9297,68.761 131.2744,68.761 Q131.9053,68.761 132.4988,68.4912 Q133.0923,68.2215 133.7231,67.6404 Z " fill="#000000"/><text fill="#000000" font-family="sans-serif" font-size="14" lengthAdjust="spacing" textLength="38" x="151.75" y="69.511">Being</text><line style="stroke:#181818;stroke-width:0.5;" x1="8" x2="301" y1="80.22" y2="80.22"/><rect fill="none" height="6" style="stroke:#C82930;stroke-width:1.0;" width="6" x="15" y="90.9641"/><text fill="#000000" font-family="sans-serif" font-size="14" lengthAdjust="spacing" textLength="87" x="27" y="97.7552">name: String</text><rect fill="none" height="6" style="stroke:#C82930;stroke-width:1.0;" width="6" x="15" y="107.4524"/><text fill="#000000" font-family="sans-serif" font-size="14" lengthAdjust="spacing" textLength="126" x="27" y="114.2434">description: String</text><line style="stroke:#181818;stroke-width:0.5;" x1="8" x2="301" y1="121.1966" y2="121.1966"/><ellipse cx="18" cy="134.9407" fill="#84BE84" rx="3" ry="3" style="stroke:#038048;stroke-width:1.0;"/><text fill="#000000" font-family="sans-serif" font-size="14" lengthAdjust="spacing" textLength="269" x="27" y="138.7317">Being(name: String, description: String)</text><ellipse cx="18" cy="151.429" fill="#84BE84" rx="3" ry="3" style="stroke:#038048;stroke-width:1.0;"/><text fill="#000000" font-family="sans-serif" font-size="14" lengthAdjust="spacing" textLength="120" x="27" y="155.22">getName(): String</text><ellipse cx="18" cy="167.9173" fill="#84BE84" rx="3" ry="3" style="stroke:#038048;stroke-width:1.0;"/><text fill="#000000" font-family="sans-serif" font-size="14" lengthAdjust="spacing" textLength="159" x="27" y="171.7083">getDescription(): String</text></g><!--class Human--><g id="elem_Human"><rect codeLine="10" fill="#F1F1F1" height="212.8828" id="Human" rx="2.5" ry="2.5" style="stroke:#181818;stroke-width:0.5;" width="386" x="336.5" y="7"/><ellipse cx="500.75" cy="23" fill="#ADD1B2" rx="11" ry="11" style="stroke:#181818;stroke-width:1.0;"/><path d="M503.2231,29.1431 Q502.6421,29.4419 502.0029,29.5913 Q501.3638,29.7407 500.6582,29.7407 Q498.1514,29.7407 496.8315,28.0889 Q495.5117,26.437 495.5117,23.3159 Q495.5117,20.1865 496.8315,18.5347 Q498.1514,16.8828 500.6582,16.8828 Q501.3638,16.8828 502.0112,17.0322 Q502.6587,17.1816 503.2231,17.4805 L503.2231,20.2031 Q502.5923,19.6221 501.9988,19.3523 Q501.4053,19.0825 500.7744,19.0825 Q499.4297,19.0825 498.7449,20.1492 Q498.0601,21.2158 498.0601,23.3159 Q498.0601,25.4077 498.7449,26.4744 Q499.4297,27.541 500.7744,27.541 Q501.4053,27.541 501.9988,27.2712 Q502.5923,27.0015 503.2231,26.4204 Z " fill="#000000"/><text fill="#000000" font-family="sans-serif" font-size="14" lengthAdjust="spacing" textLength="49" x="521.25" y="28.291">Human</text><line style="stroke:#181818;stroke-width:0.5;" x1="337.5" x2="721.5" y1="39" y2="39"/><rect fill="none" height="6" style="stroke:#C82930;stroke-width:1.0;" width="6" x="344.5" y="49.7441"/><text fill="#000000" font-family="sans-serif" font-size="14" lengthAdjust="spacing" textLength="87" x="356.5" y="56.5352">name: String</text><rect fill="none" height="6" style="stroke:#C82930;stroke-width:1.0;" width="6" x="344.5" y="66.2324"/><text fill="#000000" font-family="sans-serif" font-size="14" lengthAdjust="spacing" textLength="126" x="356.5" y="73.0234">description: String</text><rect fill="none" height="6" style="stroke:#C82930;stroke-width:1.0;" width="6" x="344.5" y="82.7207"/><text fill="#000000" font-family="sans-serif" font-size="14" lengthAdjust="spacing" textLength="72" x="356.5" y="89.5117">birth: Date</text><rect fill="none" height="6" style="stroke:#C82930;stroke-width:1.0;" width="6" x="344.5" y="99.209"/><text fill="#000000" font-family="sans-serif" font-size="14" lengthAdjust="spacing" textLength="78" x="356.5" y="106">death: Date</text><line style="stroke:#181818;stroke-width:0.5;" x1="337.5" x2="721.5" y1="112.9531" y2="112.9531"/><ellipse cx="347.5" cy="126.6973" fill="#84BE84" rx="3" ry="3" style="stroke:#038048;stroke-width:1.0;"/><text fill="#000000" font-family="sans-serif" font-size="14" lengthAdjust="spacing" textLength="360" x="356.5" y="130.4883">Human(name: String, description: String, birth: Date)</text><ellipse cx="347.5" cy="143.1855" fill="#84BE84" rx="3" ry="3" style="stroke:#038048;stroke-width:1.0;"/><text fill="#000000" font-family="sans-serif" font-size="14" lengthAdjust="spacing" textLength="120" x="356.5" y="146.9766">getName(): String</text><ellipse cx="347.5" cy="159.6738" fill="#84BE84" rx="3" ry="3" style="stroke:#038048;stroke-width:1.0;"/><text fill="#000000" font-family="sans-serif" font-size="14" lengthAdjust="spacing" textLength="159" x="356.5" y="163.4648">getDescription(): String</text><ellipse cx="347.5" cy="176.1621" fill="#84BE84" rx="3" ry="3" style="stroke:#038048;stroke-width:1.0;"/><text fill="#000000" font-family="sans-serif" font-size="14" lengthAdjust="spacing" textLength="103" x="356.5" y="179.9531">getBirth(): Date</text><ellipse cx="347.5" cy="192.6504" fill="#84BE84" rx="3" ry="3" style="stroke:#038048;stroke-width:1.0;"/><text fill="#000000" font-family="sans-serif" font-size="14" lengthAdjust="spacing" textLength="111" x="356.5" y="196.4414">getDeath(): Date</text><ellipse cx="347.5" cy="209.1387" fill="#84BE84" rx="3" ry="3" style="stroke:#038048;stroke-width:1.0;"/><text fill="#000000" font-family="sans-serif" font-size="14" lengthAdjust="spacing" textLength="185" x="356.5" y="212.9297">setDeath(death: Date): void</text></g><!--class God--><g id="elem_God"><rect codeLine="24" fill="#F1F1F1" height="146.9297" id="God" rx="2.5" ry="2.5" style="stroke:#181818;stroke-width:0.5;" width="285" x="12" y="279.88"/><ellipse cx="136.25" cy="295.88" fill="#ADD1B2" rx="11" ry="11" style="stroke:#181818;stroke-width:1.0;"/><path d="M138.7231,302.0231 Q138.1421,302.3219 137.5029,302.4713 Q136.8638,302.6207 136.1582,302.6207 Q133.6514,302.6207 132.3315,300.9689 Q131.0117,299.317 131.0117,296.1959 Q131.0117,293.0665 132.3315,291.4147 Q133.6514,289.7628 136.1582,289.7628 Q136.8638,289.7628 137.5112,289.9122 Q138.1587,290.0616 138.7231,290.3605 L138.7231,293.0831 Q138.0923,292.5021 137.4988,292.2323 Q136.9053,291.9625 136.2744,291.9625 Q134.9297,291.9625 134.2449,293.0292 Q133.5601,294.0958 133.5601,296.1959 Q133.5601,298.2877 134.2449,299.3544 Q134.9297,300.421 136.2744,300.421 Q136.9053,300.421 137.4988,300.1512 Q138.0923,299.8815 138.7231,299.3004 Z " fill="#000000"/><text fill="#000000" font-family="sans-serif" font-size="14" lengthAdjust="spacing" textLength="28" x="156.75" y="301.171">God</text><line style="stroke:#181818;stroke-width:0.5;" x1="13" x2="296" y1="311.88" y2="311.88"/><rect fill="none" height="6" style="stroke:#C82930;stroke-width:1.0;" width="6" x="20" y="322.6241"/><text fill="#000000" font-family="sans-serif" font-size="14" lengthAdjust="spacing" textLength="87" x="32" y="329.4152">name: String</text><rect fill="none" height="6" style="stroke:#C82930;stroke-width:1.0;" width="6" x="20" y="339.1124"/><text fill="#000000" font-family="sans-serif" font-size="14" lengthAdjust="spacing" textLength="126" x="32" y="345.9034">description: String</text><line style="stroke:#181818;stroke-width:0.5;" x1="13" x2="296" y1="352.8566" y2="352.8566"/><ellipse cx="23" cy="366.6007" fill="#84BE84" rx="3" ry="3" style="stroke:#038048;stroke-width:1.0;"/><text fill="#000000" font-family="sans-serif" font-size="14" lengthAdjust="spacing" textLength="259" x="32" y="370.3917">God(name: String, description: String)</text><ellipse cx="23" cy="383.089" fill="#84BE84" rx="3" ry="3" style="stroke:#038048;stroke-width:1.0;"/><text fill="#000000" font-family="sans-serif" font-size="14" lengthAdjust="spacing" textLength="120" x="32" y="386.88">getName(): String</text><ellipse cx="23" cy="399.5773" fill="#84BE84" rx="3" ry="3" style="stroke:#038048;stroke-width:1.0;"/><text fill="#000000" font-family="sans-serif" font-size="14" lengthAdjust="spacing" textLength="159" x="32" y="403.3683">getDescription(): String</text><ellipse cx="23" cy="416.0655" fill="#84BE84" rx="3" ry="3" style="stroke:#038048;stroke-width:1.0;"/><text fill="#000000" font-family="sans-serif" font-size="14" lengthAdjust="spacing" textLength="86" x="32" y="419.8566">wrath(): void</text></g><!--SRC=[Iyv9B2vMS4hDp4jNgEPI00BTlCJSL2k5u98Ye1X492MrEBaeiw0aCpyFHK8Rh4y3MOEE0XR5cX3LwQabVa2b6fgeXW25NH1wa6HhkRYImSxpACrDp8CwZrGtwYPb5fLaM2cu99QambGceWXeWuqdx0iT1IIZoFGIJDO9P1987E4Ai9v4TD5Yc2YIgu4Aol8pKn3XuvwVGaRa0NNHBEh0ikL5KEz0NGi0]--></g></svg>