<?xml version="1.0" encoding="us-ascii" standalone="no"?><svg xmlns="http://www.w3.org/2000/svg" xmlns:xlink="http://www.w3.org/1999/xlink" contentStyleType="text/css" height="400px" preserveAspectRatio="none" style="width:479px;height:400px;background:#FFFFFF;" version="1.1" viewBox="0 0 479 400" width="479px" zoomAndPan="magnify"><defs/><g><!--class Being--><g id="elem_Being"><rect codeLine="2" fill="#F1F1F1" height="113.9531" id="Being" rx="2.5" ry="2.5" style="stroke:#181818;stroke-width:0.5;" width="185" x="7" y="48.22"/><ellipse cx="76.25" cy="64.22" fill="#ADD1B2" rx="11" ry="11" style="stroke:#181818;stroke-width:1.0;"/><path d="M78.7231,70.3631 Q78.1421,70.6619 77.5029,70.8113 Q76.8638,70.9607 76.1582,70.9607 Q73.6514,70.9607 72.3315,69.3089 Q71.0117,67.657 71.0117,64.5359 Q71.0117,61.4065 72.3315,59.7547 Q73.6514,58.1028 76.1582,58.1028 Q76.8638,58.1028 77.5112,58.2522 Q78.1587,58.4016 78.7231,58.7005 L78.7231,61.4231 Q78.0923,60.8421 77.4988,60.5723 Q76.9053,60.3025 76.2744,60.3025 Q74.9297,60.3025 74.2449,61.3692 Q73.5601,62.4358 73.5601,64.5359 Q73.5601,66.6277 74.2449,67.6944 Q74.9297,68.761 76.2744,68.761 Q76.9053,68.761 77.4988,68.4912 Q78.0923,68.2215 78.7231,67.6404 Z " fill="#000000"/><text fill="#000000" font-family="sans-serif" font-size="14" lengthAdjust="spacing" textLength="38" x="96.75" y="69.511">Being</text><line style="stroke:#181818;stroke-width:0.5;" x1="8" x2="191" y1="80.22" y2="80.22"/><rect fill="none" height="6" style="stroke:#C82930;stroke-width:1.0;" width="6" x="15" y="90.9641"/><text fill="#000000" font-family="sans-serif" font-size="14" lengthAdjust="spacing" textLength="87" x="27" y="97.7552">name: String</text><rect fill="none" height="6" style="stroke:#C82930;stroke-width:1.0;" width="6" x="15" y="107.4524"/><text fill="#000000" font-family="sans-serif" font-size="14" lengthAdjust="spacing" textLength="126" x="27" y="114.2434">description: String</text><line style="stroke:#181818;stroke-width:0.5;" x1="8" x2="191" y1="121.1966" y2="121.1966"/><ellipse cx="18" cy="134.9407" fill="#84BE84" rx="3" ry="3" style="stroke:#038048;stroke-width:1.0;"/><text fill="#000000" font-family="sans-serif" font-size="14" lengthAdjust="spacing" textLength="120" x="27" y="138.7317">getName(): String</text><ellipse cx="18" cy="151.429" fill="#84BE84" rx="3" ry="3" style="stroke:#038048;stroke-width:1.0;"/><text fill="#000000" font-family="sans-serif" font-size="14" lengthAdjust="spacing" textLength="159" x="27" y="155.22">getDescription(): String</text></g><!--class Human--><g id="elem_Human"><rect codeLine="9" fill="#F1F1F1" height="196.3945" id="Human" rx="2.5" ry="2.5" style="stroke:#181818;stroke-width:0.5;" width="246" x="226.5" y="7"/><ellipse cx="320.75" cy="23" fill="#ADD1B2" rx="11" ry="11" style="stroke:#181818;stroke-width:1.0;"/><path d="M323.2231,29.1431 Q322.6421,29.4419 322.0029,29.5913 Q321.3638,29.7407 320.6582,29.7407 Q318.1514,29.7407 316.8315,28.0889 Q315.5117,26.437 315.5117,23.3159 Q315.5117,20.1865 316.8315,18.5347 Q318.1514,16.8828 320.6582,16.8828 Q321.3638,16.8828 322.0112,17.0322 Q322.6587,17.1816 323.2231,17.4805 L323.2231,20.2031 Q322.5923,19.6221 321.9988,19.3523 Q321.4053,19.0825 320.7744,19.0825 Q319.4297,19.0825 318.7449,20.1492 Q318.0601,21.2158 318.0601,23.3159 Q318.0601,25.4077 318.7449,26.4744 Q319.4297,27.541 320.7744,27.541 Q321.4053,27.541 321.9988,27.2712 Q322.5923,27.0015 323.2231,26.4204 Z " fill="#000000"/><text fill="#000000" font-family="sans-serif" font-size="14" lengthAdjust="spacing" textLength="49" x="341.25" y="28.291">Human</text><line style="stroke:#181818;stroke-width:0.5;" x1="227.5" x2="471.5" y1="39" y2="39"/><rect fill="none" height="6" style="stroke:#C82930;stroke-width:1.0;" width="6" x="234.5" y="49.7441"/><text fill="#000000" font-family="sans-serif" font-size="14" lengthAdjust="spacing" textLength="107" x="246.5" y="56.5352">birth: LocalDate</text><rect fill="none" height="6" style="stroke:#C82930;stroke-width:1.0;" width="6" x="234.5" y="66.2324"/><text fill="#000000" font-family="sans-serif" font-size="14" lengthAdjust="spacing" textLength="113" x="246.5" y="73.0234">death: LocalDate</text><rect fill="none" height="6" style="stroke:#C82930;stroke-width:1.0;" width="6" x="234.5" y="82.7207"/><text fill="#000000" font-family="sans-serif" font-size="14" lengthAdjust="spacing" textLength="87" x="246.5" y="89.5117">name: String</text><rect fill="none" height="6" style="stroke:#C82930;stroke-width:1.0;" width="6" x="234.5" y="99.209"/><text fill="#000000" font-family="sans-serif" font-size="14" lengthAdjust="spacing" textLength="126" x="246.5" y="106">description: String</text><line style="stroke:#181818;stroke-width:0.5;" x1="227.5" x2="471.5" y1="112.9531" y2="112.9531"/><ellipse cx="237.5" cy="126.6973" fill="#84BE84" rx="3" ry="3" style="stroke:#038048;stroke-width:1.0;"/><text fill="#000000" font-family="sans-serif" font-size="14" lengthAdjust="spacing" textLength="120" x="246.5" y="130.4883">getName(): String</text><ellipse cx="237.5" cy="143.1855" fill="#84BE84" rx="3" ry="3" style="stroke:#038048;stroke-width:1.0;"/><text fill="#000000" font-family="sans-serif" font-size="14" lengthAdjust="spacing" textLength="159" x="246.5" y="146.9766">getDescription(): String</text><ellipse cx="237.5" cy="159.6738" fill="#84BE84" rx="3" ry="3" style="stroke:#038048;stroke-width:1.0;"/><text fill="#000000" font-family="sans-serif" font-size="14" lengthAdjust="spacing" textLength="138" x="246.5" y="163.4648">getBirth(): LocalDate</text><ellipse cx="237.5" cy="176.1621" fill="#84BE84" rx="3" ry="3" style="stroke:#038048;stroke-width:1.0;"/><text fill="#000000" font-family="sans-serif" font-size="14" lengthAdjust="spacing" textLength="146" x="246.5" y="179.9531">getDeath(): LocalDate</text><ellipse cx="237.5" cy="192.6504" fill="#84BE84" rx="3" ry="3" style="stroke:#038048;stroke-width:1.0;"/><text fill="#000000" font-family="sans-serif" font-size="14" lengthAdjust="spacing" textLength="220" x="246.5" y="196.4414">setDeath(death: LocalDate): void</text></g><!--class God--><g id="elem_God"><rect codeLine="22" fill="#F1F1F1" height="130.4414" id="God" rx="2.5" ry="2.5" style="stroke:#181818;stroke-width:0.5;" width="185" x="7" y="263.4"/><ellipse cx="81.25" cy="279.4" fill="#ADD1B2" rx="11" ry="11" style="stroke:#181818;stroke-width:1.0;"/><path d="M83.7231,285.5431 Q83.1421,285.8419 82.5029,285.9913 Q81.8638,286.1407 81.1582,286.1407 Q78.6514,286.1407 77.3315,284.4889 Q76.0117,282.837 76.0117,279.7159 Q76.0117,276.5865 77.3315,274.9347 Q78.6514,273.2828 81.1582,273.2828 Q81.8638,273.2828 82.5112,273.4322 Q83.1587,273.5816 83.7231,273.8805 L83.7231,276.6031 Q83.0923,276.0221 82.4988,275.7523 Q81.9053,275.4825 81.2744,275.4825 Q79.9297,275.4825 79.2449,276.5492 Q78.5601,277.6158 78.5601,279.7159 Q78.5601,281.8077 79.2449,282.8744 Q79.9297,283.941 81.2744,283.941 Q81.9053,283.941 82.4988,283.6712 Q83.0923,283.4015 83.7231,282.8204 Z " fill="#000000"/><text fill="#000000" font-family="sans-serif" font-size="14" lengthAdjust="spacing" textLength="28" x="101.75" y="284.691">God</text><line style="stroke:#181818;stroke-width:0.5;" x1="8" x2="191" y1="295.4" y2="295.4"/><rect fill="none" height="6" style="stroke:#C82930;stroke-width:1.0;" width="6" x="15" y="306.1441"/><text fill="#000000" font-family="sans-serif" font-size="14" lengthAdjust="spacing" textLength="87" x="27" y="312.9352">name: String</text><rect fill="none" height="6" style="stroke:#C82930;stroke-width:1.0;" width="6" x="15" y="322.6324"/><text fill="#000000" font-family="sans-serif" font-size="14" lengthAdjust="spacing" textLength="126" x="27" y="329.4234">description: String</text><line style="stroke:#181818;stroke-width:0.5;" x1="8" x2="191" y1="336.3766" y2="336.3766"/><ellipse cx="18" cy="350.1207" fill="#84BE84" rx="3" ry="3" style="stroke:#038048;stroke-width:1.0;"/><text fill="#000000" font-family="sans-serif" font-size="14" lengthAdjust="spacing" textLength="120" x="27" y="353.9117">getName(): String</text><ellipse cx="18" cy="366.609" fill="#84BE84" rx="3" ry="3" style="stroke:#038048;stroke-width:1.0;"/><text fill="#000000" font-family="sans-serif" font-size="14" lengthAdjust="spacing" textLength="159" x="27" y="370.4">getDescription(): String</text><ellipse cx="18" cy="383.0973" fill="#84BE84" rx="3" ry="3" style="stroke:#038048;stroke-width:1.0;"/><text fill="#000000" font-family="sans-serif" font-size="14" lengthAdjust="spacing" textLength="86" x="27" y="386.8883">wrath(): void</text></g><!--SRC=[Iyv9B2vMS4hDp4jNgEPI00BTlCJSL2k5u98Ye1X492MrEBaeiw0aCpyFHK8xFRN43wXQGnD3s0MX1Kcsbeih6MoXHsbkOXxKGeWTIPb59HbM2ZxvoOavBeabgJ2R4x68qj25C5ada7D0ugXMGpGcOfKgXacXEngej2m_CmNXU_Vy53e4DbYsl0ZgMAWB0000]--></g></svg>