<?xml version="1.0" encoding="us-ascii" standalone="no"?><svg xmlns="http://www.w3.org/2000/svg" xmlns:xlink="http://www.w3.org/1999/xlink" contentStyleType="text/css" height="318px" preserveAspectRatio="none" style="width:372px;height:318px;background:#FFFFFF;" version="1.1" viewBox="0 0 372 318" width="372px" zoomAndPan="magnify"><defs/><g><!--class Being--><g id="elem_Being"><rect codeLine="2" fill="#F1F1F1" height="113.9531" id="Being" rx="2.5" ry="2.5" style="stroke:#181818;stroke-width:0.5;" width="185" x="118" y="7"/><ellipse cx="187.25" cy="23" fill="#A9DCDF" rx="11" ry="11" style="stroke:#181818;stroke-width:1.0;"/><path d="M187.1133,18.3481 L185.9595,23.4199 L188.2754,23.4199 Z M185.6191,16.1069 L188.6157,16.1069 L191.9609,28.5 L189.5122,28.5 L188.7485,25.437 L185.4697,25.437 L184.7227,28.5 L182.2739,28.5 Z " fill="#000000"/><text fill="#000000" font-family="sans-serif" font-size="14" font-style="italic" lengthAdjust="spacing" textLength="38" x="207.75" y="28.291">Being</text><line style="stroke:#181818;stroke-width:0.5;" x1="119" x2="302" y1="39" y2="39"/><rect fill="none" height="6" style="stroke:#C82930;stroke-width:1.0;" width="6" x="126" y="49.7441"/><text fill="#000000" font-family="sans-serif" font-size="14" lengthAdjust="spacing" textLength="87" x="138" y="56.5352">name: String</text><rect fill="none" height="6" style="stroke:#C82930;stroke-width:1.0;" width="6" x="126" y="66.2324"/><text fill="#000000" font-family="sans-serif" font-size="14" lengthAdjust="spacing" textLength="126" x="138" y="73.0234">description: String</text><line style="stroke:#181818;stroke-width:0.5;" x1="119" x2="302" y1="79.9766" y2="79.9766"/><ellipse cx="129" cy="93.7207" fill="#84BE84" rx="3" ry="3" style="stroke:#038048;stroke-width:1.0;"/><text fill="#000000" font-family="sans-serif" font-size="14" lengthAdjust="spacing" textLength="120" x="138" y="97.5117">getName(): String</text><ellipse cx="129" cy="110.209" fill="#84BE84" rx="3" ry="3" style="stroke:#038048;stroke-width:1.0;"/><text fill="#000000" font-family="sans-serif" font-size="14" lengthAdjust="spacing" textLength="159" x="138" y="114">getDescription(): String</text></g><!--class Human--><g id="elem_Human"><rect codeLine="9" fill="#F1F1F1" height="130.4414" id="Human" rx="2.5" ry="2.5" style="stroke:#181818;stroke-width:0.5;" width="211" x="7" y="180.95"/><ellipse cx="83.75" cy="196.95" fill="#ADD1B2" rx="11" ry="11" style="stroke:#181818;stroke-width:1.0;"/><path d="M86.2231,203.0931 Q85.6421,203.3919 85.0029,203.5413 Q84.3638,203.6907 83.6582,203.6907 Q81.1514,203.6907 79.8315,202.0389 Q78.5117,200.387 78.5117,197.2659 Q78.5117,194.1365 79.8315,192.4847 Q81.1514,190.8328 83.6582,190.8328 Q84.3638,190.8328 85.0112,190.9822 Q85.6587,191.1316 86.2231,191.4305 L86.2231,194.1531 Q85.5923,193.5721 84.9988,193.3023 Q84.4053,193.0325 83.7744,193.0325 Q82.4297,193.0325 81.7449,194.0992 Q81.0601,195.1658 81.0601,197.2659 Q81.0601,199.3577 81.7449,200.4244 Q82.4297,201.491 83.7744,201.491 Q84.4053,201.491 84.9988,201.2212 Q85.5923,200.9515 86.2231,200.3704 Z " fill="#000000"/><text fill="#000000" font-family="sans-serif" font-size="14" lengthAdjust="spacing" textLength="49" x="104.25" y="202.241">Human</text><line style="stroke:#181818;stroke-width:0.5;" x1="8" x2="217" y1="212.95" y2="212.95"/><rect fill="none" height="6" style="stroke:#C82930;stroke-width:1.0;" width="6" x="15" y="223.6941"/><text fill="#000000" font-family="sans-serif" font-size="14" lengthAdjust="spacing" textLength="72" x="27" y="230.4852">birth: Date</text><rect fill="none" height="6" style="stroke:#C82930;stroke-width:1.0;" width="6" x="15" y="240.1824"/><text fill="#000000" font-family="sans-serif" font-size="14" lengthAdjust="spacing" textLength="78" x="27" y="246.9734">death: Date</text><line style="stroke:#181818;stroke-width:0.5;" x1="8" x2="217" y1="253.9266" y2="253.9266"/><ellipse cx="18" cy="267.6707" fill="#84BE84" rx="3" ry="3" style="stroke:#038048;stroke-width:1.0;"/><text fill="#000000" font-family="sans-serif" font-size="14" lengthAdjust="spacing" textLength="103" x="27" y="271.4617">getBirth(): Date</text><ellipse cx="18" cy="284.159" fill="#84BE84" rx="3" ry="3" style="stroke:#038048;stroke-width:1.0;"/><text fill="#000000" font-family="sans-serif" font-size="14" lengthAdjust="spacing" textLength="111" x="27" y="287.95">getDeath(): Date</text><ellipse cx="18" cy="300.6473" fill="#84BE84" rx="3" ry="3" style="stroke:#038048;stroke-width:1.0;"/><text fill="#000000" font-family="sans-serif" font-size="14" lengthAdjust="spacing" textLength="185" x="27" y="304.4383">setDeath(death: Date): void</text></g><!--class God--><g id="elem_God"><rect codeLine="18" fill="#F1F1F1" height="64.4883" id="God" rx="2.5" ry="2.5" style="stroke:#181818;stroke-width:0.5;" width="112" x="253.5" y="213.93"/><ellipse cx="291.9" cy="229.93" fill="#ADD1B2" rx="11" ry="11" style="stroke:#181818;stroke-width:1.0;"/><path d="M294.3731,236.0731 Q293.7921,236.3719 293.1529,236.5213 Q292.5138,236.6707 291.8082,236.6707 Q289.3014,236.6707 287.9815,235.0189 Q286.6617,233.367 286.6617,230.2459 Q286.6617,227.1165 287.9815,225.4647 Q289.3014,223.8128 291.8082,223.8128 Q292.5138,223.8128 293.1612,223.9622 Q293.8087,224.1116 294.3731,224.4105 L294.3731,227.1331 Q293.7423,226.5521 293.1488,226.2823 Q292.5553,226.0125 291.9244,226.0125 Q290.5797,226.0125 289.8949,227.0792 Q289.2101,228.1458 289.2101,230.2459 Q289.2101,232.3377 289.8949,233.4044 Q290.5797,234.471 291.9244,234.471 Q292.5553,234.471 293.1488,234.2012 Q293.7423,233.9315 294.3731,233.3504 Z " fill="#000000"/><text fill="#000000" font-family="sans-serif" font-size="14" lengthAdjust="spacing" textLength="28" x="311.1" y="235.221">God</text><line style="stroke:#181818;stroke-width:0.5;" x1="254.5" x2="364.5" y1="245.93" y2="245.93"/><line style="stroke:#181818;stroke-width:0.5;" x1="254.5" x2="364.5" y1="253.93" y2="253.93"/><ellipse cx="264.5" cy="267.6741" fill="#84BE84" rx="3" ry="3" style="stroke:#038048;stroke-width:1.0;"/><text fill="#000000" font-family="sans-serif" font-size="14" lengthAdjust="spacing" textLength="86" x="273.5" y="271.4652">wrath(): void</text></g><!--reverse link Being to Human--><g id="link_Being_Human"><path d="M171.4329,136.8142 C161.1529,155.7242 158.19,161.16 147.58,180.67 " fill="none" id="Being-backto-Human" style="stroke:#181818;stroke-width:1.0;"/><polygon fill="none" points="180.03,121,166.1615,133.9486,176.7044,139.6799,180.03,121" style="stroke:#181818;stroke-width:1.0;"/></g><!--reverse link Being to God--><g id="link_Being_God"><path d="M249.949,136.7749 C266.699,167.2549 278.12,188.06 292.15,213.59 " fill="none" id="Being-backto-God" style="stroke:#181818;stroke-width:1.0;"/><polygon fill="none" points="241.28,121,244.6907,139.6646,255.2073,133.8853,241.28,121" style="stroke:#181818;stroke-width:1.0;"/></g><!--SRC=[ROv12i8m44NtESKibU85kYm1NRdn1DDag0CsaMIqWdXt4zBI1itopSl_7_ie0Os0kM6Cq16x0TuAqZiu7Ac5YuJ42h4KJU2xi7VLeHb8pidUxN-mNhzihX-bIk7fCQ83UWavMzUNnfw3N5lGABHCm0haZYvBERsYEfirZGlTf2JXwTckauxU_XtKJ64EdFql]--></g></svg>