<?xml version="1.0" encoding="us-ascii" standalone="no"?><svg xmlns="http://www.w3.org/2000/svg" xmlns:xlink="http://www.w3.org/1999/xlink" contentStyleType="text/css" height="351px" preserveAspectRatio="none" style="width:547px;height:351px;background:#FFFFFF;" version="1.1" viewBox="0 0 547 351" width="547px" zoomAndPan="magnify"><defs/><g><!--class Being--><g id="elem_Being"><rect codeLine="2" fill="#F1F1F1" height="130.4414" id="Being" rx="2.5" ry="2.5" style="stroke:#181818;stroke-width:0.5;" width="295" x="194.5" y="7"/><ellipse cx="318.75" cy="23" fill="#A9DCDF" rx="11" ry="11" style="stroke:#181818;stroke-width:1.0;"/><path d="M318.6133,18.3481 L317.4595,23.4199 L319.7754,23.4199 Z M317.1191,16.1069 L320.1157,16.1069 L323.4609,28.5 L321.0122,28.5 L320.2485,25.437 L316.9697,25.437 L316.2227,28.5 L313.7739,28.5 Z " fill="#000000"/><text fill="#000000" font-family="sans-serif" font-size="14" font-style="italic" lengthAdjust="spacing" textLength="38" x="339.25" y="28.291">Being</text><line style="stroke:#181818;stroke-width:0.5;" x1="195.5" x2="488.5" y1="39" y2="39"/><rect fill="none" height="6" style="stroke:#C82930;stroke-width:1.0;" width="6" x="202.5" y="49.7441"/><text fill="#000000" font-family="sans-serif" font-size="14" lengthAdjust="spacing" textLength="87" x="214.5" y="56.5352">name: String</text><rect fill="none" height="6" style="stroke:#C82930;stroke-width:1.0;" width="6" x="202.5" y="66.2324"/><text fill="#000000" font-family="sans-serif" font-size="14" lengthAdjust="spacing" textLength="126" x="214.5" y="73.0234">description: String</text><line style="stroke:#181818;stroke-width:0.5;" x1="195.5" x2="488.5" y1="79.9766" y2="79.9766"/><ellipse cx="205.5" cy="93.7207" fill="#84BE84" rx="3" ry="3" style="stroke:#038048;stroke-width:1.0;"/><text fill="#000000" font-family="sans-serif" font-size="14" lengthAdjust="spacing" textLength="269" x="214.5" y="97.5117">Being(name: String, description: String)</text><ellipse cx="205.5" cy="110.209" fill="#84BE84" rx="3" ry="3" style="stroke:#038048;stroke-width:1.0;"/><text fill="#000000" font-family="sans-serif" font-size="14" lengthAdjust="spacing" textLength="120" x="214.5" y="114">getName(): String</text><ellipse cx="205.5" cy="126.6973" fill="#84BE84" rx="3" ry="3" style="stroke:#038048;stroke-width:1.0;"/><text fill="#000000" font-family="sans-serif" font-size="14" lengthAdjust="spacing" textLength="159" x="214.5" y="130.4883">getDescription(): String</text></g><!--class Human--><g id="elem_Human"><rect codeLine="10" fill="#F1F1F1" height="146.9297" id="Human" rx="2.5" ry="2.5" style="stroke:#181818;stroke-width:0.5;" width="386" x="7" y="197.44"/><ellipse cx="171.25" cy="213.44" fill="#ADD1B2" rx="11" ry="11" style="stroke:#181818;stroke-width:1.0;"/><path d="M173.7231,219.5831 Q173.1421,219.8819 172.5029,220.0313 Q171.8638,220.1807 171.1582,220.1807 Q168.6514,220.1807 167.3315,218.5289 Q166.0117,216.877 166.0117,213.7559 Q166.0117,210.6265 167.3315,208.9747 Q168.6514,207.3228 171.1582,207.3228 Q171.8638,207.3228 172.5112,207.4722 Q173.1587,207.6216 173.7231,207.9205 L173.7231,210.6431 Q173.0923,210.0621 172.4988,209.7923 Q171.9053,209.5225 171.2744,209.5225 Q169.9297,209.5225 169.2449,210.5892 Q168.5601,211.6558 168.5601,213.7559 Q168.5601,215.8477 169.2449,216.9144 Q169.9297,217.981 171.2744,217.981 Q171.9053,217.981 172.4988,217.7112 Q173.0923,217.4415 173.7231,216.8604 Z " fill="#000000"/><text fill="#000000" font-family="sans-serif" font-size="14" lengthAdjust="spacing" textLength="49" x="191.75" y="218.731">Human</text><line style="stroke:#181818;stroke-width:0.5;" x1="8" x2="392" y1="229.44" y2="229.44"/><rect fill="none" height="6" style="stroke:#C82930;stroke-width:1.0;" width="6" x="15" y="240.1841"/><text fill="#000000" font-family="sans-serif" font-size="14" lengthAdjust="spacing" textLength="72" x="27" y="246.9752">birth: Date</text><rect fill="none" height="6" style="stroke:#C82930;stroke-width:1.0;" width="6" x="15" y="256.6724"/><text fill="#000000" font-family="sans-serif" font-size="14" lengthAdjust="spacing" textLength="78" x="27" y="263.4634">death: Date</text><line style="stroke:#181818;stroke-width:0.5;" x1="8" x2="392" y1="270.4166" y2="270.4166"/><ellipse cx="18" cy="284.1607" fill="#84BE84" rx="3" ry="3" style="stroke:#038048;stroke-width:1.0;"/><text fill="#000000" font-family="sans-serif" font-size="14" lengthAdjust="spacing" textLength="360" x="27" y="287.9517">Human(name: String, description: String, birth: Date)</text><ellipse cx="18" cy="300.649" fill="#84BE84" rx="3" ry="3" style="stroke:#038048;stroke-width:1.0;"/><text fill="#000000" font-family="sans-serif" font-size="14" lengthAdjust="spacing" textLength="103" x="27" y="304.44">getBirth(): Date</text><ellipse cx="18" cy="317.1373" fill="#84BE84" rx="3" ry="3" style="stroke:#038048;stroke-width:1.0;"/><text fill="#000000" font-family="sans-serif" font-size="14" lengthAdjust="spacing" textLength="111" x="27" y="320.9283">getDeath(): Date</text><ellipse cx="18" cy="333.6255" fill="#84BE84" rx="3" ry="3" style="stroke:#038048;stroke-width:1.0;"/><text fill="#000000" font-family="sans-serif" font-size="14" lengthAdjust="spacing" textLength="185" x="27" y="337.4166">setDeath(death: Date): void</text></g><!--class God--><g id="elem_God"><rect codeLine="20" fill="#F1F1F1" height="64.4883" id="God" rx="2.5" ry="2.5" style="stroke:#181818;stroke-width:0.5;" width="112" x="428" y="238.66"/><ellipse cx="466.4" cy="254.66" fill="#ADD1B2" rx="11" ry="11" style="stroke:#181818;stroke-width:1.0;"/><path d="M468.8731,260.8031 Q468.2921,261.1019 467.6529,261.2513 Q467.0138,261.4007 466.3082,261.4007 Q463.8014,261.4007 462.4815,259.7489 Q461.1617,258.097 461.1617,254.9759 Q461.1617,251.8465 462.4815,250.1947 Q463.8014,248.5428 466.3082,248.5428 Q467.0138,248.5428 467.6612,248.6922 Q468.3087,248.8416 468.8731,249.1405 L468.8731,251.8631 Q468.2423,251.2821 467.6488,251.0123 Q467.0553,250.7425 466.4244,250.7425 Q465.0797,250.7425 464.3949,251.8092 Q463.7101,252.8758 463.7101,254.9759 Q463.7101,257.0677 464.3949,258.1344 Q465.0797,259.201 466.4244,259.201 Q467.0553,259.201 467.6488,258.9312 Q468.2423,258.6615 468.8731,258.0804 Z " fill="#000000"/><text fill="#000000" font-family="sans-serif" font-size="14" lengthAdjust="spacing" textLength="28" x="485.6" y="259.951">God</text><line style="stroke:#181818;stroke-width:0.5;" x1="429" x2="539" y1="270.66" y2="270.66"/><line style="stroke:#181818;stroke-width:0.5;" x1="429" x2="539" y1="278.66" y2="278.66"/><ellipse cx="439" cy="292.4041" fill="#84BE84" rx="3" ry="3" style="stroke:#038048;stroke-width:1.0;"/><text fill="#000000" font-family="sans-serif" font-size="14" lengthAdjust="spacing" textLength="86" x="448" y="296.1952">wrath(): void</text></g><!--reverse link Being to Human--><g id="link_Being_Human"><path d="M284.7771,152.4865 C271.1171,171.4165 266.62,177.63 252.62,197.02 " fill="none" id="Being-backto-Human" style="stroke:#181818;stroke-width:1.0;"/><polygon fill="none" points="295.31,137.89,279.9116,148.9755,289.6426,155.9975,295.31,137.89" style="stroke:#181818;stroke-width:1.0;"/></g><!--reverse link Being to God--><g id="link_Being_God"><path d="M399.2242,152.4855 C423.5542,186.1955 441.69,211.3 461.18,238.3 " fill="none" id="Being-backto-God" style="stroke:#181818;stroke-width:1.0;"/><polygon fill="none" points="388.69,137.89,394.3591,155.997,404.0894,148.9741,388.69,137.89" style="stroke:#181818;stroke-width:1.0;"/></g><!--SRC=[XOz13e8m44Ntd6AM4F02B0c9hjnuWg6TO1CffXtHn7Xt2uMqDIJEyisVdpVOMJOe6CGDhOM6bExXdO6RWyQ1QhYmSSmJILOOTMSrwcHHBdTvV531JhZmwPxuxA9vaPOut8QRQFl9CgztUWoeWLvCMgQotgzJXgyrjCYq2MC2ogNXlsW5KLMmRcOuYuN2HHf_gTre9E02qwXa-EOuojrVogTP2zVy5m00]--></g></svg>