<?xml version="1.0" encoding="us-ascii" standalone="no"?><svg xmlns="http://www.w3.org/2000/svg" xmlns:xlink="http://www.w3.org/1999/xlink" contentStyleType="text/css" height="459px" preserveAspectRatio="none" style="width:592px;height:459px;background:#FFFFFF;" version="1.1" viewBox="0 0 592 459" width="592px" zoomAndPan="magnify"><defs/><g><!--class Describable--><g id="elem_Describable"><rect codeLine="2" fill="#F1F1F1" height="80.9766" id="Describable" rx="2.5" ry="2.5" style="stroke:#181818;stroke-width:0.5;" width="185" x="253" y="7"/><ellipse cx="301.25" cy="23" fill="#B4A7E5" rx="11" ry="11" style="stroke:#181818;stroke-width:1.0;"/><path d="M297.6777,19.2651 L297.6777,17.1069 L305.0571,17.1069 L305.0571,19.2651 L302.5918,19.2651 L302.5918,27.3418 L305.0571,27.3418 L305.0571,29.5 L297.6777,29.5 L297.6777,27.3418 L300.1431,27.3418 L300.1431,19.2651 Z " fill="#000000"/><text fill="#000000" font-family="sans-serif" font-size="14" font-style="italic" lengthAdjust="spacing" textLength="80" x="321.75" y="28.291">Describable</text><line style="stroke:#181818;stroke-width:0.5;" x1="254" x2="437" y1="39" y2="39"/><line style="stroke:#181818;stroke-width:0.5;" x1="254" x2="437" y1="47" y2="47"/><ellipse cx="264" cy="60.7441" fill="#84BE84" rx="3" ry="3" style="stroke:#038048;stroke-width:1.0;"/><text fill="#000000" font-family="sans-serif" font-size="14" lengthAdjust="spacing" textLength="120" x="273" y="64.5352">getName(): String</text><ellipse cx="264" cy="77.2324" fill="#84BE84" rx="3" ry="3" style="stroke:#038048;stroke-width:1.0;"/><text fill="#000000" font-family="sans-serif" font-size="14" lengthAdjust="spacing" textLength="159" x="273" y="81.0234">getDescription(): String</text></g><!--class Mortal--><g id="elem_Mortal"><rect codeLine="7" fill="#F1F1F1" height="97.4648" id="Mortal" rx="2.5" ry="2.5" style="stroke:#181818;stroke-width:0.5;" width="211" x="7" y="156.22"/><ellipse cx="86.25" cy="172.22" fill="#B4A7E5" rx="11" ry="11" style="stroke:#181818;stroke-width:1.0;"/><path d="M82.6777,168.4851 L82.6777,166.3269 L90.0571,166.3269 L90.0571,168.4851 L87.5918,168.4851 L87.5918,176.5618 L90.0571,176.5618 L90.0571,178.72 L82.6777,178.72 L82.6777,176.5618 L85.1431,176.5618 L85.1431,168.4851 Z " fill="#000000"/><text fill="#000000" font-family="sans-serif" font-size="14" font-style="italic" lengthAdjust="spacing" textLength="44" x="106.75" y="177.511">Mortal</text><line style="stroke:#181818;stroke-width:0.5;" x1="8" x2="217" y1="188.22" y2="188.22"/><line style="stroke:#181818;stroke-width:0.5;" x1="8" x2="217" y1="196.22" y2="196.22"/><ellipse cx="18" cy="209.9641" fill="#84BE84" rx="3" ry="3" style="stroke:#038048;stroke-width:1.0;"/><text fill="#000000" font-family="sans-serif" font-size="14" lengthAdjust="spacing" textLength="103" x="27" y="213.7552">getBirth(): Date</text><ellipse cx="18" cy="226.4524" fill="#84BE84" rx="3" ry="3" style="stroke:#038048;stroke-width:1.0;"/><text fill="#000000" font-family="sans-serif" font-size="14" lengthAdjust="spacing" textLength="111" x="27" y="230.2434">getDeath(): Date</text><ellipse cx="18" cy="242.9407" fill="#84BE84" rx="3" ry="3" style="stroke:#038048;stroke-width:1.0;"/><text fill="#000000" font-family="sans-serif" font-size="14" lengthAdjust="spacing" textLength="185" x="27" y="246.7317">setDeath(death: Date): void</text></g><!--class Wrath--><g id="elem_Wrath"><rect codeLine="13" fill="#F1F1F1" height="64.4883" id="Wrath" rx="2.5" ry="2.5" style="stroke:#181818;stroke-width:0.5;" width="112" x="473.5" y="172.71"/><ellipse cx="506.5" cy="188.71" fill="#B4A7E5" rx="11" ry="11" style="stroke:#181818;stroke-width:1.0;"/><path d="M502.9277,184.9751 L502.9277,182.8169 L510.3071,182.8169 L510.3071,184.9751 L507.8418,184.9751 L507.8418,193.0518 L510.3071,193.0518 L510.3071,195.21 L502.9277,195.21 L502.9277,193.0518 L505.3931,193.0518 L505.3931,184.9751 Z " fill="#000000"/><text fill="#000000" font-family="sans-serif" font-size="14" font-style="italic" lengthAdjust="spacing" textLength="40" x="524.5" y="194.001">Wrath</text><line style="stroke:#181818;stroke-width:0.5;" x1="474.5" x2="584.5" y1="204.71" y2="204.71"/><line style="stroke:#181818;stroke-width:0.5;" x1="474.5" x2="584.5" y1="212.71" y2="212.71"/><ellipse cx="484.5" cy="226.4541" fill="#84BE84" rx="3" ry="3" style="stroke:#038048;stroke-width:1.0;"/><text fill="#000000" font-family="sans-serif" font-size="14" lengthAdjust="spacing" textLength="86" x="493.5" y="230.2452">wrath(): void</text></g><!--class Being--><g id="elem_Being"><rect codeLine="17" fill="#F1F1F1" height="113.9531" id="Being" rx="2.5" ry="2.5" style="stroke:#181818;stroke-width:0.5;" width="185" x="253" y="147.98"/><ellipse cx="322.25" cy="163.98" fill="#A9DCDF" rx="11" ry="11" style="stroke:#181818;stroke-width:1.0;"/><path d="M322.1133,159.3281 L320.9595,164.3999 L323.2754,164.3999 Z M320.6191,157.0869 L323.6157,157.0869 L326.9609,169.48 L324.5122,169.48 L323.7485,166.417 L320.4697,166.417 L319.7227,169.48 L317.2739,169.48 Z " fill="#000000"/><text fill="#000000" font-family="sans-serif" font-size="14" font-style="italic" lengthAdjust="spacing" textLength="38" x="342.75" y="169.271">Being</text><line style="stroke:#181818;stroke-width:0.5;" x1="254" x2="437" y1="179.98" y2="179.98"/><rect fill="none" height="6" style="stroke:#C82930;stroke-width:1.0;" width="6" x="261" y="190.7241"/><text fill="#000000" font-family="sans-serif" font-size="14" lengthAdjust="spacing" textLength="87" x="273" y="197.5152">name: String</text><rect fill="none" height="6" style="stroke:#C82930;stroke-width:1.0;" width="6" x="261" y="207.2124"/><text fill="#000000" font-family="sans-serif" font-size="14" lengthAdjust="spacing" textLength="126" x="273" y="214.0034">description: String</text><line style="stroke:#181818;stroke-width:0.5;" x1="254" x2="437" y1="220.9566" y2="220.9566"/><ellipse cx="264" cy="234.7007" fill="#84BE84" rx="3" ry="3" style="stroke:#038048;stroke-width:1.0;"/><text fill="#000000" font-family="sans-serif" font-size="14" lengthAdjust="spacing" textLength="120" x="273" y="238.4917">getName(): String</text><ellipse cx="264" cy="251.189" fill="#84BE84" rx="3" ry="3" style="stroke:#038048;stroke-width:1.0;"/><text fill="#000000" font-family="sans-serif" font-size="14" lengthAdjust="spacing" textLength="159" x="273" y="254.98">getDescription(): String</text></g><!--class Human--><g id="elem_Human"><rect codeLine="24" fill="#F1F1F1" height="130.4414" id="Human" rx="2.5" ry="2.5" style="stroke:#181818;stroke-width:0.5;" width="211" x="117" y="321.93"/><ellipse cx="193.75" cy="337.93" fill="#ADD1B2" rx="11" ry="11" style="stroke:#181818;stroke-width:1.0;"/><path d="M196.2231,344.0731 Q195.6421,344.3719 195.0029,344.5213 Q194.3638,344.6707 193.6582,344.6707 Q191.1514,344.6707 189.8315,343.0189 Q188.5117,341.367 188.5117,338.2459 Q188.5117,335.1165 189.8315,333.4647 Q191.1514,331.8128 193.6582,331.8128 Q194.3638,331.8128 195.0112,331.9622 Q195.6587,332.1116 196.2231,332.4105 L196.2231,335.1331 Q195.5923,334.5521 194.9988,334.2823 Q194.4053,334.0125 193.7744,334.0125 Q192.4297,334.0125 191.7449,335.0792 Q191.0601,336.1458 191.0601,338.2459 Q191.0601,340.3377 191.7449,341.4044 Q192.4297,342.471 193.7744,342.471 Q194.4053,342.471 194.9988,342.2012 Q195.5923,341.9315 196.2231,341.3504 Z " fill="#000000"/><text fill="#000000" font-family="sans-serif" font-size="14" lengthAdjust="spacing" textLength="49" x="214.25" y="343.221">Human</text><line style="stroke:#181818;stroke-width:0.5;" x1="118" x2="327" y1="353.93" y2="353.93"/><rect fill="none" height="6" style="stroke:#C82930;stroke-width:1.0;" width="6" x="125" y="364.6741"/><text fill="#000000" font-family="sans-serif" font-size="14" lengthAdjust="spacing" textLength="72" x="137" y="371.4652">birth: Date</text><rect fill="none" height="6" style="stroke:#C82930;stroke-width:1.0;" width="6" x="125" y="381.1624"/><text fill="#000000" font-family="sans-serif" font-size="14" lengthAdjust="spacing" textLength="78" x="137" y="387.9534">death: Date</text><line style="stroke:#181818;stroke-width:0.5;" x1="118" x2="327" y1="394.9066" y2="394.9066"/><ellipse cx="128" cy="408.6507" fill="#84BE84" rx="3" ry="3" style="stroke:#038048;stroke-width:1.0;"/><text fill="#000000" font-family="sans-serif" font-size="14" lengthAdjust="spacing" textLength="103" x="137" y="412.4417">getBirth(): Date</text><ellipse cx="128" cy="425.139" fill="#84BE84" rx="3" ry="3" style="stroke:#038048;stroke-width:1.0;"/><text fill="#000000" font-family="sans-serif" font-size="14" lengthAdjust="spacing" textLength="111" x="137" y="428.93">getDeath(): Date</text><ellipse cx="128" cy="441.6273" fill="#84BE84" rx="3" ry="3" style="stroke:#038048;stroke-width:1.0;"/><text fill="#000000" font-family="sans-serif" font-size="14" lengthAdjust="spacing" textLength="185" x="137" y="445.4183">setDeath(death: Date): void</text></g><!--class God--><g id="elem_God"><rect codeLine="32" fill="#F1F1F1" height="64.4883" id="God" rx="2.5" ry="2.5" style="stroke:#181818;stroke-width:0.5;" width="112" x="381.5" y="354.91"/><ellipse cx="419.9" cy="370.91" fill="#ADD1B2" rx="11" ry="11" style="stroke:#181818;stroke-width:1.0;"/><path d="M422.3731,377.0531 Q421.7921,377.3519 421.1529,377.5013 Q420.5138,377.6507 419.8082,377.6507 Q417.3014,377.6507 415.9815,375.9989 Q414.6617,374.347 414.6617,371.2259 Q414.6617,368.0965 415.9815,366.4447 Q417.3014,364.7928 419.8082,364.7928 Q420.5138,364.7928 421.1612,364.9422 Q421.8087,365.0916 422.3731,365.3905 L422.3731,368.1131 Q421.7423,367.5321 421.1488,367.2623 Q420.5553,366.9925 419.9244,366.9925 Q418.5797,366.9925 417.8949,368.0592 Q417.2101,369.1258 417.2101,371.2259 Q417.2101,373.3177 417.8949,374.3844 Q418.5797,375.451 419.9244,375.451 Q420.5553,375.451 421.1488,375.1812 Q421.7423,374.9115 422.3731,374.3304 Z " fill="#000000"/><text fill="#000000" font-family="sans-serif" font-size="14" lengthAdjust="spacing" textLength="28" x="439.1" y="376.201">God</text><line style="stroke:#181818;stroke-width:0.5;" x1="382.5" x2="492.5" y1="386.91" y2="386.91"/><line style="stroke:#181818;stroke-width:0.5;" x1="382.5" x2="492.5" y1="394.91" y2="394.91"/><ellipse cx="392.5" cy="408.6541" fill="#84BE84" rx="3" ry="3" style="stroke:#038048;stroke-width:1.0;"/><text fill="#000000" font-family="sans-serif" font-size="14" lengthAdjust="spacing" textLength="86" x="401.5" y="412.4452">wrath(): void</text></g><!--reverse link Describable to Being--><g id="link_Describable_Being"><path d="M345.5,106.12 C345.5,124.2 345.5,127.94 345.5,147.67 " fill="none" id="Describable-backto-Being" style="stroke:#181818;stroke-width:1.0;stroke-dasharray:7.0,7.0;"/><polygon fill="none" points="345.5,88.12,339.5,106.12,351.5,106.12,345.5,88.12" style="stroke:#181818;stroke-width:1.0;"/></g><!--reverse link Being to Human--><g id="link_Being_Human"><path d="M297.1109,276.8459 C284.2009,295.7559 279.84,302.14 266.53,321.65 " fill="none" id="Being-backto-Human" style="stroke:#181818;stroke-width:1.0;"/><polygon fill="none" points="307.26,261.98,292.1556,273.4629,302.0662,280.229,307.26,261.98" style="stroke:#181818;stroke-width:1.0;"/></g><!--reverse link Mortal to Human--><g id="link_Mortal_Human"><path d="M151.0704,269.1325 C163.7404,289.8825 169.38,299.14 183.02,321.48 " fill="none" id="Mortal-backto-Human" style="stroke:#181818;stroke-width:1.0;stroke-dasharray:7.0,7.0;"/><polygon fill="none" points="141.69,253.77,145.9496,272.2594,156.1913,266.0057,141.69,253.77" style="stroke:#181818;stroke-width:1.0;"/></g><!--reverse link Being to God--><g id="link_Being_God"><path d="M382.2942,278.0118 C397.8542,308.4918 408.34,329.04 421.38,354.57 " fill="none" id="Being-backto-God" style="stroke:#181818;stroke-width:1.0;"/><polygon fill="none" points="374.11,261.98,376.9503,280.7399,387.6381,275.2837,374.11,261.98" style="stroke:#181818;stroke-width:1.0;"/></g><!--reverse link Wrath to God--><g id="link_Wrath_God"><path d="M505.2858,253.3718 C488.5058,286.2418 470.48,321.55 453.65,354.52 " fill="none" id="Wrath-backto-God" style="stroke:#181818;stroke-width:1.0;stroke-dasharray:7.0,7.0;"/><polygon fill="none" points="513.47,237.34,499.9419,250.6438,510.6298,256.0999,513.47,237.34" style="stroke:#181818;stroke-width:1.0;"/></g><!--SRC=[hP3D2i8m48JlVOeS5SaBU2m5lUZ5W-TDijP0aqYo_e3uxgR4rbIh89X33hl3xCodBQ7VWKHMOP1U2n0Dicl1uflLI6imE9dEsOQyjdK_Jk83QMUpxQqeTE-tSfwWoQnAxMdVgYiWp9pWTHgwgMh_j8c2azDgU6BhuxwxSFOFequ78f07IKms408hCKPasXmQD6WfZ1JcDhOTTENgMVGDmgziKexbqO1bU26qQYJL01iNBREC3S-G_1riohTmwdEwhyJl]--></g></svg>