<?xml version="1.0" encoding="us-ascii" standalone="no"?><svg xmlns="http://www.w3.org/2000/svg" xmlns:xlink="http://www.w3.org/1999/xlink" contentStyleType="text/css" height="459px" preserveAspectRatio="none" style="width:556px;height:459px;background:#FFFFFF;" version="1.1" viewBox="0 0 556 459" width="556px" zoomAndPan="magnify"><defs/><g><!--class Describable--><g id="elem_Describable"><rect codeLine="2" fill="#F1F1F1" height="80.9766" id="Describable" rx="2.5" ry="2.5" style="stroke:#181818;stroke-width:0.5;" width="167" x="244" y="7"/><ellipse cx="283.75" cy="23" fill="#B4A7E5" rx="11" ry="11" style="stroke:#181818;stroke-width:1.0;"/><path d="M280.1777,19.2651 L280.1777,17.1069 L287.5571,17.1069 L287.5571,19.2651 L285.0918,19.2651 L285.0918,27.3418 L287.5571,27.3418 L287.5571,29.5 L280.1777,29.5 L280.1777,27.3418 L282.6431,27.3418 L282.6431,19.2651 Z " fill="#000000"/><text fill="#000000" font-family="sans-serif" font-size="14" font-style="italic" lengthAdjust="spacing" textLength="80" x="303.25" y="28.291">Describable</text><line style="stroke:#181818;stroke-width:0.5;" x1="245" x2="410" y1="39" y2="39"/><line style="stroke:#181818;stroke-width:0.5;" x1="245" x2="410" y1="47" y2="47"/><text fill="#000000" font-family="sans-serif" font-size="14" lengthAdjust="spacing" textLength="116" x="250" y="64.5352">String getName()</text><text fill="#000000" font-family="sans-serif" font-size="14" lengthAdjust="spacing" textLength="155" x="250" y="81.0234">String getDescription()</text></g><!--class Mortal--><g id="elem_Mortal"><rect codeLine="7" fill="#F1F1F1" height="97.4648" id="Mortal" rx="2.5" ry="2.5" style="stroke:#181818;stroke-width:0.5;" width="193" x="7" y="156.22"/><ellipse cx="77.25" cy="172.22" fill="#B4A7E5" rx="11" ry="11" style="stroke:#181818;stroke-width:1.0;"/><path d="M73.6777,168.4851 L73.6777,166.3269 L81.0571,166.3269 L81.0571,168.4851 L78.5918,168.4851 L78.5918,176.5618 L81.0571,176.5618 L81.0571,178.72 L73.6777,178.72 L73.6777,176.5618 L76.1431,176.5618 L76.1431,168.4851 Z " fill="#000000"/><text fill="#000000" font-family="sans-serif" font-size="14" font-style="italic" lengthAdjust="spacing" textLength="44" x="97.75" y="177.511">Mortal</text><line style="stroke:#181818;stroke-width:0.5;" x1="8" x2="199" y1="188.22" y2="188.22"/><line style="stroke:#181818;stroke-width:0.5;" x1="8" x2="199" y1="196.22" y2="196.22"/><text fill="#000000" font-family="sans-serif" font-size="14" lengthAdjust="spacing" textLength="99" x="13" y="213.7552">Date getBirth()</text><text fill="#000000" font-family="sans-serif" font-size="14" lengthAdjust="spacing" textLength="107" x="13" y="230.2434">Date getDeath()</text><text fill="#000000" font-family="sans-serif" font-size="14" lengthAdjust="spacing" textLength="181" x="13" y="246.7317">void setDeath(death: Date)</text></g><!--class Wrath--><g id="elem_Wrath"><rect codeLine="13" fill="#F1F1F1" height="64.4883" id="Wrath" rx="2.5" ry="2.5" style="stroke:#181818;stroke-width:0.5;" width="94" x="455.5" y="172.71"/><ellipse cx="480.4" cy="188.71" fill="#B4A7E5" rx="11" ry="11" style="stroke:#181818;stroke-width:1.0;"/><path d="M476.8277,184.9751 L476.8277,182.8169 L484.2071,182.8169 L484.2071,184.9751 L481.7418,184.9751 L481.7418,193.0518 L484.2071,193.0518 L484.2071,195.21 L476.8277,195.21 L476.8277,193.0518 L479.2931,193.0518 L479.2931,184.9751 Z " fill="#000000"/><text fill="#000000" font-family="sans-serif" font-size="14" font-style="italic" lengthAdjust="spacing" textLength="40" x="496.6" y="194.001">Wrath</text><line style="stroke:#181818;stroke-width:0.5;" x1="456.5" x2="548.5" y1="204.71" y2="204.71"/><line style="stroke:#181818;stroke-width:0.5;" x1="456.5" x2="548.5" y1="212.71" y2="212.71"/><text fill="#000000" font-family="sans-serif" font-size="14" lengthAdjust="spacing" textLength="82" x="461.5" y="230.2452">void wrath()</text></g><!--class Being--><g id="elem_Being"><rect codeLine="17" fill="#F1F1F1" height="113.9531" id="Being" rx="2.5" ry="2.5" style="stroke:#181818;stroke-width:0.5;" width="185" x="235" y="147.98"/><ellipse cx="304.25" cy="163.98" fill="#A9DCDF" rx="11" ry="11" style="stroke:#181818;stroke-width:1.0;"/><path d="M304.1133,159.3281 L302.9595,164.3999 L305.2754,164.3999 Z M302.6191,157.0869 L305.6157,157.0869 L308.9609,169.48 L306.5122,169.48 L305.7485,166.417 L302.4697,166.417 L301.7227,169.48 L299.2739,169.48 Z " fill="#000000"/><text fill="#000000" font-family="sans-serif" font-size="14" font-style="italic" lengthAdjust="spacing" textLength="38" x="324.75" y="169.271">Being</text><line style="stroke:#181818;stroke-width:0.5;" x1="236" x2="419" y1="179.98" y2="179.98"/><rect fill="none" height="6" style="stroke:#C82930;stroke-width:1.0;" width="6" x="243" y="190.7241"/><text fill="#000000" font-family="sans-serif" font-size="14" lengthAdjust="spacing" textLength="87" x="255" y="197.5152">name: String</text><rect fill="none" height="6" style="stroke:#C82930;stroke-width:1.0;" width="6" x="243" y="207.2124"/><text fill="#000000" font-family="sans-serif" font-size="14" lengthAdjust="spacing" textLength="126" x="255" y="214.0034">description: String</text><line style="stroke:#181818;stroke-width:0.5;" x1="236" x2="419" y1="220.9566" y2="220.9566"/><ellipse cx="246" cy="234.7007" fill="#84BE84" rx="3" ry="3" style="stroke:#038048;stroke-width:1.0;"/><text fill="#000000" font-family="sans-serif" font-size="14" lengthAdjust="spacing" textLength="120" x="255" y="238.4917">getName(): String</text><ellipse cx="246" cy="251.189" fill="#84BE84" rx="3" ry="3" style="stroke:#038048;stroke-width:1.0;"/><text fill="#000000" font-family="sans-serif" font-size="14" lengthAdjust="spacing" textLength="159" x="255" y="254.98">getDescription(): String</text></g><!--class Human--><g id="elem_Human"><rect codeLine="24" fill="#F1F1F1" height="130.4414" id="Human" rx="2.5" ry="2.5" style="stroke:#181818;stroke-width:0.5;" width="211" x="99" y="321.93"/><ellipse cx="175.75" cy="337.93" fill="#ADD1B2" rx="11" ry="11" style="stroke:#181818;stroke-width:1.0;"/><path d="M178.2231,344.0731 Q177.6421,344.3719 177.0029,344.5213 Q176.3638,344.6707 175.6582,344.6707 Q173.1514,344.6707 171.8315,343.0189 Q170.5117,341.367 170.5117,338.2459 Q170.5117,335.1165 171.8315,333.4647 Q173.1514,331.8128 175.6582,331.8128 Q176.3638,331.8128 177.0112,331.9622 Q177.6587,332.1116 178.2231,332.4105 L178.2231,335.1331 Q177.5923,334.5521 176.9988,334.2823 Q176.4053,334.0125 175.7744,334.0125 Q174.4297,334.0125 173.7449,335.0792 Q173.0601,336.1458 173.0601,338.2459 Q173.0601,340.3377 173.7449,341.4044 Q174.4297,342.471 175.7744,342.471 Q176.4053,342.471 176.9988,342.2012 Q177.5923,341.9315 178.2231,341.3504 Z " fill="#000000"/><text fill="#000000" font-family="sans-serif" font-size="14" lengthAdjust="spacing" textLength="49" x="196.25" y="343.221">Human</text><line style="stroke:#181818;stroke-width:0.5;" x1="100" x2="309" y1="353.93" y2="353.93"/><rect fill="none" height="6" style="stroke:#C82930;stroke-width:1.0;" width="6" x="107" y="364.6741"/><text fill="#000000" font-family="sans-serif" font-size="14" lengthAdjust="spacing" textLength="72" x="119" y="371.4652">birth: Date</text><rect fill="none" height="6" style="stroke:#C82930;stroke-width:1.0;" width="6" x="107" y="381.1624"/><text fill="#000000" font-family="sans-serif" font-size="14" lengthAdjust="spacing" textLength="78" x="119" y="387.9534">death: Date</text><line style="stroke:#181818;stroke-width:0.5;" x1="100" x2="309" y1="394.9066" y2="394.9066"/><ellipse cx="110" cy="408.6507" fill="#84BE84" rx="3" ry="3" style="stroke:#038048;stroke-width:1.0;"/><text fill="#000000" font-family="sans-serif" font-size="14" lengthAdjust="spacing" textLength="103" x="119" y="412.4417">getBirth(): Date</text><ellipse cx="110" cy="425.139" fill="#84BE84" rx="3" ry="3" style="stroke:#038048;stroke-width:1.0;"/><text fill="#000000" font-family="sans-serif" font-size="14" lengthAdjust="spacing" textLength="111" x="119" y="428.93">getDeath(): Date</text><ellipse cx="110" cy="441.6273" fill="#84BE84" rx="3" ry="3" style="stroke:#038048;stroke-width:1.0;"/><text fill="#000000" font-family="sans-serif" font-size="14" lengthAdjust="spacing" textLength="185" x="119" y="445.4183">setDeath(death: Date): void</text></g><!--class God--><g id="elem_God"><rect codeLine="32" fill="#F1F1F1" height="64.4883" id="God" rx="2.5" ry="2.5" style="stroke:#181818;stroke-width:0.5;" width="112" x="358.5" y="354.91"/><ellipse cx="396.9" cy="370.91" fill="#ADD1B2" rx="11" ry="11" style="stroke:#181818;stroke-width:1.0;"/><path d="M399.3731,377.0531 Q398.7921,377.3519 398.1529,377.5013 Q397.5138,377.6507 396.8082,377.6507 Q394.3014,377.6507 392.9815,375.9989 Q391.6617,374.347 391.6617,371.2259 Q391.6617,368.0965 392.9815,366.4447 Q394.3014,364.7928 396.8082,364.7928 Q397.5138,364.7928 398.1612,364.9422 Q398.8087,365.0916 399.3731,365.3905 L399.3731,368.1131 Q398.7423,367.5321 398.1488,367.2623 Q397.5553,366.9925 396.9244,366.9925 Q395.5797,366.9925 394.8949,368.0592 Q394.2101,369.1258 394.2101,371.2259 Q394.2101,373.3177 394.8949,374.3844 Q395.5797,375.451 396.9244,375.451 Q397.5553,375.451 398.1488,375.1812 Q398.7423,374.9115 399.3731,374.3304 Z " fill="#000000"/><text fill="#000000" font-family="sans-serif" font-size="14" lengthAdjust="spacing" textLength="28" x="416.1" y="376.201">God</text><line style="stroke:#181818;stroke-width:0.5;" x1="359.5" x2="469.5" y1="386.91" y2="386.91"/><line style="stroke:#181818;stroke-width:0.5;" x1="359.5" x2="469.5" y1="394.91" y2="394.91"/><ellipse cx="369.5" cy="408.6541" fill="#84BE84" rx="3" ry="3" style="stroke:#038048;stroke-width:1.0;"/><text fill="#000000" font-family="sans-serif" font-size="14" lengthAdjust="spacing" textLength="86" x="378.5" y="412.4452">wrath(): void</text></g><!--reverse link Describable to Being--><g id="link_Describable_Being"><path d="M327.5,106.12 C327.5,124.2 327.5,127.94 327.5,147.67 " fill="none" id="Describable-backto-Being" style="stroke:#181818;stroke-width:1.0;stroke-dasharray:7.0,7.0;"/><polygon fill="none" points="327.5,88.12,321.5,106.12,333.5,106.12,327.5,88.12" style="stroke:#181818;stroke-width:1.0;"/></g><!--reverse link Being to Human--><g id="link_Being_Human"><path d="M279.1109,276.8459 C266.2009,295.7559 261.84,302.14 248.53,321.65 " fill="none" id="Being-backto-Human" style="stroke:#181818;stroke-width:1.0;"/><polygon fill="none" points="289.26,261.98,274.1556,273.4629,284.0662,280.229,289.26,261.98" style="stroke:#181818;stroke-width:1.0;"/></g><!--reverse link Mortal to Human--><g id="link_Mortal_Human"><path d="M139.1006,269.4719 C150.7306,290.2219 155.73,299.14 168.25,321.48 " fill="none" id="Mortal-backto-Human" style="stroke:#181818;stroke-width:1.0;stroke-dasharray:7.0,7.0;"/><polygon fill="none" points="130.3,253.77,133.8667,272.4054,144.3346,266.5383,130.3,253.77" style="stroke:#181818;stroke-width:1.0;"/></g><!--reverse link Being to God--><g id="link_Being_God"><path d="M362.3779,278.1888 C377.0979,308.6688 386.93,329.04 399.25,354.57 " fill="none" id="Being-backto-God" style="stroke:#181818;stroke-width:1.0;"/><polygon fill="none" points="354.55,261.98,356.9749,280.7981,367.7808,275.5795,354.55,261.98" style="stroke:#181818;stroke-width:1.0;"/></g><!--reverse link Wrath to God--><g id="link_Wrath_God"><path d="M479.2721,253.5148 C463.2221,286.3848 446.05,321.55 429.95,354.52 " fill="none" id="Wrath-backto-God" style="stroke:#181818;stroke-width:1.0;stroke-dasharray:7.0,7.0;"/><polygon fill="none" points="487.17,237.34,473.8805,250.8821,484.6637,256.1474,487.17,237.34" style="stroke:#181818;stroke-width:1.0;"/></g><!--SRC=[TP0x3i8m44JxdC8bACe5KaQHe866WdfjBy5IuY1x-KY8k-F4ZlCXk70nkpkQUKeJcWi8P2LQOHG7NYDx9yoz4ncbArOX7Q71pNOX-eCRgLQxsIT9LFGwj8QW3ZOb47RxXJ9q3Iw3LY94xT4goUoWoUxF-yM5-TcuIV3kRvx6cxWju9OC26AY1cjPWLrMrTngR52JNIcPQTSj3xMy8iTYiq4QIVp8CnPnwWBv7Fjx0vhXYr3BbLGpN1dlEFdcGnwO2Ua8Sw46d5Dr5MZUWnlpxLhvFzsKTnfOHuCl]--></g></svg>