<?xml version="1.0" encoding="us-ascii" standalone="no"?><svg xmlns="http://www.w3.org/2000/svg" xmlns:xlink="http://www.w3.org/1999/xlink" contentStyleType="text/css" height="359px" preserveAspectRatio="none" style="width:931px;height:359px;background:#FFFFFF;" version="1.1" viewBox="0 0 931 359" width="931px" zoomAndPan="magnify"><defs/><g><!--class Describable--><g id="elem_Describable"><rect codeLine="4" fill="#F1F1F1" height="80.9766" id="Describable" rx="2.5" ry="2.5" style="stroke:#181818;stroke-width:0.5;" width="167" x="7" y="156.25"/><ellipse cx="46.75" cy="172.25" fill="#B4A7E5" rx="11" ry="11" style="stroke:#181818;stroke-width:1.0;"/><path d="M43.1777,168.5151 L43.1777,166.3569 L50.5571,166.3569 L50.5571,168.5151 L48.0918,168.5151 L48.0918,176.5918 L50.5571,176.5918 L50.5571,178.75 L43.1777,178.75 L43.1777,176.5918 L45.6431,176.5918 L45.6431,168.5151 Z " fill="#000000"/><text fill="#000000" font-family="sans-serif" font-size="14" font-style="italic" lengthAdjust="spacing" textLength="80" x="66.25" y="177.541">Describable</text><line style="stroke:#181818;stroke-width:0.5;" x1="8" x2="173" y1="188.25" y2="188.25"/><line style="stroke:#181818;stroke-width:0.5;" x1="8" x2="173" y1="196.25" y2="196.25"/><text fill="#000000" font-family="sans-serif" font-size="14" lengthAdjust="spacing" textLength="116" x="13" y="213.7852">String getName()</text><text fill="#000000" font-family="sans-serif" font-size="14" lengthAdjust="spacing" textLength="155" x="13" y="230.2734">String getDescription()</text></g><!--class Mortal--><g id="elem_Mortal"><rect codeLine="9" fill="#F1F1F1" height="97.4648" id="Mortal" rx="2.5" ry="2.5" style="stroke:#181818;stroke-width:0.5;" width="193" x="234" y="7"/><ellipse cx="304.25" cy="23" fill="#B4A7E5" rx="11" ry="11" style="stroke:#181818;stroke-width:1.0;"/><path d="M300.6777,19.2651 L300.6777,17.1069 L308.0571,17.1069 L308.0571,19.2651 L305.5918,19.2651 L305.5918,27.3418 L308.0571,27.3418 L308.0571,29.5 L300.6777,29.5 L300.6777,27.3418 L303.1431,27.3418 L303.1431,19.2651 Z " fill="#000000"/><text fill="#000000" font-family="sans-serif" font-size="14" font-style="italic" lengthAdjust="spacing" textLength="44" x="324.75" y="28.291">Mortal</text><line style="stroke:#181818;stroke-width:0.5;" x1="235" x2="426" y1="39" y2="39"/><line style="stroke:#181818;stroke-width:0.5;" x1="235" x2="426" y1="47" y2="47"/><text fill="#000000" font-family="sans-serif" font-size="14" lengthAdjust="spacing" textLength="99" x="240" y="64.5352">Date getBirth()</text><text fill="#000000" font-family="sans-serif" font-size="14" lengthAdjust="spacing" textLength="107" x="240" y="81.0234">Date getDeath()</text><text fill="#000000" font-family="sans-serif" font-size="14" lengthAdjust="spacing" textLength="181" x="240" y="97.5117">void setDeath(death: Date)</text></g><!--class Wrath--><g id="elem_Wrath"><rect codeLine="15" fill="#F1F1F1" height="64.4883" id="Wrath" rx="2.5" ry="2.5" style="stroke:#181818;stroke-width:0.5;" width="94" x="283.5" y="288.49"/><ellipse cx="308.4" cy="304.49" fill="#B4A7E5" rx="11" ry="11" style="stroke:#181818;stroke-width:1.0;"/><path d="M304.8277,300.7551 L304.8277,298.5969 L312.2071,298.5969 L312.2071,300.7551 L309.7418,300.7551 L309.7418,308.8318 L312.2071,308.8318 L312.2071,310.99 L304.8277,310.99 L304.8277,308.8318 L307.2931,308.8318 L307.2931,300.7551 Z " fill="#000000"/><text fill="#000000" font-family="sans-serif" font-size="14" font-style="italic" lengthAdjust="spacing" textLength="40" x="324.6" y="309.781">Wrath</text><line style="stroke:#181818;stroke-width:0.5;" x1="284.5" x2="376.5" y1="320.49" y2="320.49"/><line style="stroke:#181818;stroke-width:0.5;" x1="284.5" x2="376.5" y1="328.49" y2="328.49"/><text fill="#000000" font-family="sans-serif" font-size="14" lengthAdjust="spacing" textLength="82" x="289.5" y="346.0252">void wrath()</text></g><!--class Being--><g id="elem_Being"><rect codeLine="19" fill="#F1F1F1" height="113.9531" id="Being" rx="2.5" ry="2.5" style="stroke:#181818;stroke-width:0.5;" width="185" x="238" y="139.76"/><ellipse cx="307.25" cy="155.76" fill="#A9DCDF" rx="11" ry="11" style="stroke:#181818;stroke-width:1.0;"/><path d="M307.1133,151.1081 L305.9595,156.1799 L308.2754,156.1799 Z M305.6191,148.8669 L308.6157,148.8669 L311.9609,161.26 L309.5122,161.26 L308.7485,158.197 L305.4697,158.197 L304.7227,161.26 L302.2739,161.26 Z " fill="#000000"/><text fill="#000000" font-family="sans-serif" font-size="14" font-style="italic" lengthAdjust="spacing" textLength="38" x="327.75" y="161.051">Being</text><line style="stroke:#181818;stroke-width:0.5;" x1="239" x2="422" y1="171.76" y2="171.76"/><rect fill="none" height="6" style="stroke:#C82930;stroke-width:1.0;" width="6" x="246" y="182.5041"/><text fill="#000000" font-family="sans-serif" font-size="14" lengthAdjust="spacing" textLength="87" x="258" y="189.2952">name: String</text><rect fill="none" height="6" style="stroke:#C82930;stroke-width:1.0;" width="6" x="246" y="198.9924"/><text fill="#000000" font-family="sans-serif" font-size="14" lengthAdjust="spacing" textLength="126" x="258" y="205.7834">description: String</text><line style="stroke:#181818;stroke-width:0.5;" x1="239" x2="422" y1="212.7366" y2="212.7366"/><ellipse cx="249" cy="226.4807" fill="#84BE84" rx="3" ry="3" style="stroke:#038048;stroke-width:1.0;"/><text fill="#000000" font-family="sans-serif" font-size="14" lengthAdjust="spacing" textLength="120" x="258" y="230.2717">getName(): String</text><ellipse cx="249" cy="242.969" fill="#84BE84" rx="3" ry="3" style="stroke:#038048;stroke-width:1.0;"/><text fill="#000000" font-family="sans-serif" font-size="14" lengthAdjust="spacing" textLength="159" x="258" y="246.76">getDescription(): String</text></g><!--class Human--><g id="elem_Human"><rect codeLine="27" fill="#F1F1F1" height="130.4414" id="Human" rx="2.5" ry="2.5" style="stroke:#181818;stroke-width:0.5;" width="211" x="487" y="61.52"/><ellipse cx="563.75" cy="77.52" fill="#ADD1B2" rx="11" ry="11" style="stroke:#181818;stroke-width:1.0;"/><path d="M566.2231,83.6631 Q565.6421,83.9619 565.0029,84.1113 Q564.3638,84.2607 563.6582,84.2607 Q561.1514,84.2607 559.8315,82.6089 Q558.5117,80.957 558.5117,77.8359 Q558.5117,74.7065 559.8315,73.0547 Q561.1514,71.4028 563.6582,71.4028 Q564.3638,71.4028 565.0112,71.5522 Q565.6587,71.7016 566.2231,72.0005 L566.2231,74.7231 Q565.5923,74.1421 564.9988,73.8723 Q564.4053,73.6025 563.7744,73.6025 Q562.4297,73.6025 561.7449,74.6692 Q561.0601,75.7358 561.0601,77.8359 Q561.0601,79.9277 561.7449,80.9944 Q562.4297,82.061 563.7744,82.061 Q564.4053,82.061 564.9988,81.7912 Q565.5923,81.5215 566.2231,80.9404 Z " fill="#000000"/><text fill="#000000" font-family="sans-serif" font-size="14" lengthAdjust="spacing" textLength="49" x="584.25" y="82.811">Human</text><line style="stroke:#181818;stroke-width:0.5;" x1="488" x2="697" y1="93.52" y2="93.52"/><rect fill="none" height="6" style="stroke:#C82930;stroke-width:1.0;" width="6" x="495" y="104.2641"/><text fill="#000000" font-family="sans-serif" font-size="14" lengthAdjust="spacing" textLength="72" x="507" y="111.0552">birth: Date</text><rect fill="none" height="6" style="stroke:#C82930;stroke-width:1.0;" width="6" x="495" y="120.7524"/><text fill="#000000" font-family="sans-serif" font-size="14" lengthAdjust="spacing" textLength="78" x="507" y="127.5434">death: Date</text><line style="stroke:#181818;stroke-width:0.5;" x1="488" x2="697" y1="134.4966" y2="134.4966"/><ellipse cx="498" cy="148.2407" fill="#84BE84" rx="3" ry="3" style="stroke:#038048;stroke-width:1.0;"/><text fill="#000000" font-family="sans-serif" font-size="14" lengthAdjust="spacing" textLength="103" x="507" y="152.0317">getBirth(): Date</text><ellipse cx="498" cy="164.729" fill="#84BE84" rx="3" ry="3" style="stroke:#038048;stroke-width:1.0;"/><text fill="#000000" font-family="sans-serif" font-size="14" lengthAdjust="spacing" textLength="111" x="507" y="168.52">getDeath(): Date</text><ellipse cx="498" cy="181.2173" fill="#84BE84" rx="3" ry="3" style="stroke:#038048;stroke-width:1.0;"/><text fill="#000000" font-family="sans-serif" font-size="14" lengthAdjust="spacing" textLength="185" x="507" y="185.0083">setDeath(death: Date): void</text></g><!--class God--><g id="elem_God"><rect codeLine="35" fill="#F1F1F1" height="64.4883" id="God" rx="2.5" ry="2.5" style="stroke:#181818;stroke-width:0.5;" width="112" x="536.5" y="226.49"/><ellipse cx="574.9" cy="242.49" fill="#ADD1B2" rx="11" ry="11" style="stroke:#181818;stroke-width:1.0;"/><path d="M577.3731,248.6331 Q576.7921,248.9319 576.1529,249.0813 Q575.5138,249.2307 574.8082,249.2307 Q572.3014,249.2307 570.9815,247.5789 Q569.6617,245.927 569.6617,242.8059 Q569.6617,239.6765 570.9815,238.0247 Q572.3014,236.3728 574.8082,236.3728 Q575.5138,236.3728 576.1612,236.5222 Q576.8087,236.6716 577.3731,236.9705 L577.3731,239.6931 Q576.7423,239.1121 576.1488,238.8423 Q575.5553,238.5725 574.9244,238.5725 Q573.5797,238.5725 572.8949,239.6392 Q572.2101,240.7058 572.2101,242.8059 Q572.2101,244.8977 572.8949,245.9644 Q573.5797,247.031 574.9244,247.031 Q575.5553,247.031 576.1488,246.7612 Q576.7423,246.4915 577.3731,245.9104 Z " fill="#000000"/><text fill="#000000" font-family="sans-serif" font-size="14" lengthAdjust="spacing" textLength="28" x="594.1" y="247.781">God</text><line style="stroke:#181818;stroke-width:0.5;" x1="537.5" x2="647.5" y1="258.49" y2="258.49"/><line style="stroke:#181818;stroke-width:0.5;" x1="537.5" x2="647.5" y1="266.49" y2="266.49"/><ellipse cx="547.5" cy="280.2341" fill="#84BE84" rx="3" ry="3" style="stroke:#038048;stroke-width:1.0;"/><text fill="#000000" font-family="sans-serif" font-size="14" lengthAdjust="spacing" textLength="86" x="556.5" y="284.0252">wrath(): void</text></g><!--class Hero--><g id="elem_Hero"><rect codeLine="39" fill="#F1F1F1" height="80.9766" id="Hero" rx="2.5" ry="2.5" style="stroke:#181818;stroke-width:0.5;" width="166" x="758" y="86.25"/><ellipse cx="820.25" cy="102.25" fill="#ADD1B2" rx="11" ry="11" style="stroke:#181818;stroke-width:1.0;"/><path d="M822.7231,108.3931 Q822.1421,108.6919 821.5029,108.8413 Q820.8638,108.9907 820.1582,108.9907 Q817.6514,108.9907 816.3315,107.3389 Q815.0117,105.687 815.0117,102.5659 Q815.0117,99.4365 816.3315,97.7847 Q817.6514,96.1328 820.1582,96.1328 Q820.8638,96.1328 821.5112,96.2822 Q822.1587,96.4316 822.7231,96.7305 L822.7231,99.4531 Q822.0923,98.8721 821.4988,98.6023 Q820.9053,98.3325 820.2744,98.3325 Q818.9297,98.3325 818.2449,99.3992 Q817.5601,100.4658 817.5601,102.5659 Q817.5601,104.6577 818.2449,105.7244 Q818.9297,106.791 820.2744,106.791 Q820.9053,106.791 821.4988,106.5212 Q822.0923,106.2515 822.7231,105.6704 Z " fill="#000000"/><text fill="#000000" font-family="sans-serif" font-size="14" lengthAdjust="spacing" textLength="33" x="840.75" y="107.541">Hero</text><line style="stroke:#181818;stroke-width:0.5;" x1="759" x2="923" y1="118.25" y2="118.25"/><rect fill="none" height="6" style="stroke:#C82930;stroke-width:1.0;" width="6" x="766" y="128.9941"/><text fill="#000000" font-family="sans-serif" font-size="14" lengthAdjust="spacing" textLength="105" x="778" y="135.7852">legend: Legend</text><line style="stroke:#181818;stroke-width:0.5;" x1="759" x2="923" y1="142.7383" y2="142.7383"/><ellipse cx="769" cy="156.4824" fill="#84BE84" rx="3" ry="3" style="stroke:#038048;stroke-width:1.0;"/><text fill="#000000" font-family="sans-serif" font-size="14" lengthAdjust="spacing" textLength="140" x="778" y="160.2734">getLegend(): Legend</text></g><!--class SemiGod--><g id="elem_SemiGod"><rect codeLine="44" fill="#F1F1F1" height="80.9766" id="SemiGod" rx="2.5" ry="2.5" style="stroke:#181818;stroke-width:0.5;" width="166" x="758" y="210.25"/><ellipse cx="806.25" cy="226.25" fill="#ADD1B2" rx="11" ry="11" style="stroke:#181818;stroke-width:1.0;"/><path d="M808.7231,232.3931 Q808.1421,232.6919 807.5029,232.8413 Q806.8638,232.9907 806.1582,232.9907 Q803.6514,232.9907 802.3315,231.3389 Q801.0117,229.687 801.0117,226.5659 Q801.0117,223.4365 802.3315,221.7847 Q803.6514,220.1328 806.1582,220.1328 Q806.8638,220.1328 807.5112,220.2822 Q808.1587,220.4316 808.7231,220.7305 L808.7231,223.4531 Q808.0923,222.8721 807.4988,222.6023 Q806.9053,222.3325 806.2744,222.3325 Q804.9297,222.3325 804.2449,223.3992 Q803.5601,224.4658 803.5601,226.5659 Q803.5601,228.6577 804.2449,229.7244 Q804.9297,230.791 806.2744,230.791 Q806.9053,230.791 807.4988,230.5212 Q808.0923,230.2515 808.7231,229.6704 Z " fill="#000000"/><text fill="#000000" font-family="sans-serif" font-size="14" lengthAdjust="spacing" textLength="61" x="826.75" y="231.541">SemiGod</text><line style="stroke:#181818;stroke-width:0.5;" x1="759" x2="923" y1="242.25" y2="242.25"/><rect fill="none" height="6" style="stroke:#C82930;stroke-width:1.0;" width="6" x="766" y="252.9941"/><text fill="#000000" font-family="sans-serif" font-size="14" lengthAdjust="spacing" textLength="105" x="778" y="259.7852">legend: Legend</text><line style="stroke:#181818;stroke-width:0.5;" x1="759" x2="923" y1="266.7383" y2="266.7383"/><ellipse cx="769" cy="280.4824" fill="#84BE84" rx="3" ry="3" style="stroke:#038048;stroke-width:1.0;"/><text fill="#000000" font-family="sans-serif" font-size="14" lengthAdjust="spacing" textLength="140" x="778" y="284.2734">getLegend(): Legend</text></g><!--reverse link Describable to Being--><g id="link_Describable_Being"><path d="M192.41,196.74 C212.8,196.74 216.75,196.74 237.54,196.74 " fill="none" id="Describable-backto-Being" style="stroke:#181818;stroke-width:1.0;stroke-dasharray:7.0,7.0;"/><polygon fill="none" points="174.41,196.74,192.41,202.74,192.41,190.74,174.41,196.74" style="stroke:#181818;stroke-width:1.0;"/></g><!--reverse link Being to Human--><g id="link_Being_Human"><path d="M440.5508,167.3796 C461.1608,161.8296 465.81,160.58 486.91,154.9 " fill="none" id="Being-backto-Human" style="stroke:#181818;stroke-width:1.0;"/><polygon fill="none" points="423.17,172.06,442.111,173.1732,438.9907,161.586,423.17,172.06" style="stroke:#181818;stroke-width:1.0;"/></g><!--reverse link Mortal to Human--><g id="link_Mortal_Human"><path d="M444.5737,86.6137 C463.9737,91.9137 467.11,92.77 486.8,98.15 " fill="none" id="Mortal-backto-Human" style="stroke:#181818;stroke-width:1.0;stroke-dasharray:7.0,7.0;"/><polygon fill="none" points="427.21,81.87,442.9925,92.4016,446.1549,80.8258,427.21,81.87" style="stroke:#181818;stroke-width:1.0;"/></g><!--reverse link Being to God--><g id="link_Being_God"><path d="M440.6785,222.7675 C478.3985,231.7675 503.34,237.71 536.17,245.54 " fill="none" id="Being-backto-God" style="stroke:#181818;stroke-width:1.0;"/><polygon fill="none" points="423.17,218.59,439.286,228.6037,442.071,216.9314,423.17,218.59" style="stroke:#181818;stroke-width:1.0;"/></g><!--reverse link Wrath to God--><g id="link_Wrath_God"><path d="M395.4891,305.4748 C439.8991,294.8848 489.33,283.1 536.4,271.87 " fill="none" id="Wrath-backto-God" style="stroke:#181818;stroke-width:1.0;stroke-dasharray:7.0,7.0;"/><polygon fill="none" points="377.98,309.65,396.8808,311.3111,394.0973,299.6384,377.98,309.65" style="stroke:#181818;stroke-width:1.0;"/></g><!--reverse link Human to Hero--><g id="link_Human_Hero"><path d="M716.4,126.74 C736.18,126.74 738.61,126.74 757.59,126.74 " fill="none" id="Human-backto-Hero" style="stroke:#181818;stroke-width:1.0;"/><polygon fill="none" points="698.4,126.74,716.4,132.74,716.4,120.74,698.4,126.74" style="stroke:#181818;stroke-width:1.0;"/></g><!--reverse link Human to SemiGod--><g id="link_Human_SemiGod"><path d="M714.4805,187.5881 C734.6605,197.7381 739.43,200.14 758.72,209.85 " fill="none" id="Human-backto-SemiGod" style="stroke:#181818;stroke-width:1.0;"/><polygon fill="none" points="698.4,179.5,711.7845,192.9482,717.1765,182.2279,698.4,179.5" style="stroke:#181818;stroke-width:1.0;"/></g><!--reverse link God to SemiGod--><g id="link_God_SemiGod"><path d="M666.8105,256.3568 C698.8905,255.3168 721.91,254.57 757.71,253.41 " fill="none" id="God-backto-SemiGod" style="stroke:#181818;stroke-width:1.0;"/><polygon fill="none" points="648.82,256.94,667.005,262.3536,666.6161,250.3599,648.82,256.94" style="stroke:#181818;stroke-width:1.0;"/></g><!--SRC=[bP2zJiGm48JxFCMMe70laF8KYIk0vWhgJRoNi-JO9tiFa13lZl_Y_2WKf4YKsTrFCwFemi06h1ok349QwbaQNLLICzaBzWGjkTxA3Zj5y5s1VyvifHvW87x3aHuUDs8wk0MEd_qiMQ_6CggCQP4fx1-bvMkcJ5fBMBGF8mMuIHFXtSJ53VpT-abcnvjFco1-2pl75dk6Ng5pSAJWLOutHIDfTZiX3zfdQtAif8WvM1d4ILsgM1tKspBAr3jAHaxt4JNG5vCMExPMVHswK5IAFXd2bL3FRMxKtETItMsqYStD_fwD-DlTil0wbxq5dCYQGaXfSnf5WnSRU8dVuZJz1b0U5DIPHhdq4sbFqUA_aRy0]--></g></svg>