<?xml version="1.0" encoding="us-ascii" standalone="no"?><svg xmlns="http://www.w3.org/2000/svg" xmlns:xlink="http://www.w3.org/1999/xlink" contentStyleType="text/css" height="210px" preserveAspectRatio="none" style="width:773px;height:210px;background:#FFFFFF;" version="1.1" viewBox="0 0 773 210" width="773px" zoomAndPan="magnify"><defs/><g><!--class Hero--><g id="elem_Hero"><rect codeLine="4" fill="#F1F1F1" height="80.9766" id="Hero" rx="2.5" ry="2.5" style="stroke:#181818;stroke-width:0.5;" width="166" x="7" y="7"/><ellipse cx="69.25" cy="23" fill="#ADD1B2" rx="11" ry="11" style="stroke:#181818;stroke-width:1.0;"/><path d="M71.7231,29.1431 Q71.1421,29.4419 70.5029,29.5913 Q69.8638,29.7407 69.1582,29.7407 Q66.6514,29.7407 65.3315,28.0889 Q64.0117,26.437 64.0117,23.3159 Q64.0117,20.1865 65.3315,18.5347 Q66.6514,16.8828 69.1582,16.8828 Q69.8638,16.8828 70.5112,17.0322 Q71.1587,17.1816 71.7231,17.4805 L71.7231,20.2031 Q71.0923,19.6221 70.4988,19.3523 Q69.9053,19.0825 69.2744,19.0825 Q67.9297,19.0825 67.2449,20.1492 Q66.5601,21.2158 66.5601,23.3159 Q66.5601,25.4077 67.2449,26.4744 Q67.9297,27.541 69.2744,27.541 Q69.9053,27.541 70.4988,27.2712 Q71.0923,27.0015 71.7231,26.4204 Z " fill="#000000"/><text fill="#000000" font-family="sans-serif" font-size="14" lengthAdjust="spacing" textLength="33" x="89.75" y="28.291">Hero</text><line style="stroke:#181818;stroke-width:0.5;" x1="8" x2="172" y1="39" y2="39"/><rect fill="none" height="6" style="stroke:#C82930;stroke-width:1.0;" width="6" x="15" y="49.7441"/><text fill="#000000" font-family="sans-serif" font-size="14" lengthAdjust="spacing" textLength="105" x="27" y="56.5352">legend: Legend</text><line style="stroke:#181818;stroke-width:0.5;" x1="8" x2="172" y1="63.4883" y2="63.4883"/><ellipse cx="18" cy="77.2324" fill="#84BE84" rx="3" ry="3" style="stroke:#038048;stroke-width:1.0;"/><text fill="#000000" font-family="sans-serif" font-size="14" lengthAdjust="spacing" textLength="140" x="27" y="81.0234">getLegend(): Legend</text></g><!--class SemiGod--><g id="elem_SemiGod"><rect codeLine="9" fill="#F1F1F1" height="80.9766" id="SemiGod" rx="2.5" ry="2.5" style="stroke:#181818;stroke-width:0.5;" width="166" x="7" y="123"/><ellipse cx="55.25" cy="139" fill="#ADD1B2" rx="11" ry="11" style="stroke:#181818;stroke-width:1.0;"/><path d="M57.7231,145.1431 Q57.1421,145.4419 56.5029,145.5913 Q55.8638,145.7407 55.1582,145.7407 Q52.6514,145.7407 51.3315,144.0889 Q50.0117,142.437 50.0117,139.3159 Q50.0117,136.1865 51.3315,134.5347 Q52.6514,132.8828 55.1582,132.8828 Q55.8638,132.8828 56.5112,133.0322 Q57.1587,133.1816 57.7231,133.4805 L57.7231,136.2031 Q57.0923,135.6221 56.4988,135.3523 Q55.9053,135.0825 55.2744,135.0825 Q53.9297,135.0825 53.2449,136.1492 Q52.5601,137.2158 52.5601,139.3159 Q52.5601,141.4077 53.2449,142.4744 Q53.9297,143.541 55.2744,143.541 Q55.9053,143.541 56.4988,143.2712 Q57.0923,143.0015 57.7231,142.4204 Z " fill="#000000"/><text fill="#000000" font-family="sans-serif" font-size="14" lengthAdjust="spacing" textLength="61" x="75.75" y="144.291">SemiGod</text><line style="stroke:#181818;stroke-width:0.5;" x1="8" x2="172" y1="155" y2="155"/><rect fill="none" height="6" style="stroke:#C82930;stroke-width:1.0;" width="6" x="15" y="165.7441"/><text fill="#000000" font-family="sans-serif" font-size="14" lengthAdjust="spacing" textLength="105" x="27" y="172.5352">legend: Legend</text><line style="stroke:#181818;stroke-width:0.5;" x1="8" x2="172" y1="179.4883" y2="179.4883"/><ellipse cx="18" cy="193.2324" fill="#84BE84" rx="3" ry="3" style="stroke:#038048;stroke-width:1.0;"/><text fill="#000000" font-family="sans-serif" font-size="14" lengthAdjust="spacing" textLength="140" x="27" y="197.0234">getLegend(): Legend</text></g><!--class Deed--><g id="elem_Deed"><rect codeLine="14" fill="#F1F1F1" height="113.9531" id="Deed" rx="2.5" ry="2.5" style="stroke:#181818;stroke-width:0.5;" width="185" x="581" y="48.52"/><ellipse cx="651.75" cy="64.52" fill="#ADD1B2" rx="11" ry="11" style="stroke:#181818;stroke-width:1.0;"/><path d="M654.2231,70.6631 Q653.6421,70.9619 653.0029,71.1113 Q652.3638,71.2607 651.6582,71.2607 Q649.1514,71.2607 647.8315,69.6089 Q646.5117,67.957 646.5117,64.8359 Q646.5117,61.7065 647.8315,60.0547 Q649.1514,58.4028 651.6582,58.4028 Q652.3638,58.4028 653.0112,58.5522 Q653.6587,58.7016 654.2231,59.0005 L654.2231,61.7231 Q653.5923,61.1421 652.9988,60.8723 Q652.4053,60.6025 651.7744,60.6025 Q650.4297,60.6025 649.7449,61.6692 Q649.0601,62.7358 649.0601,64.8359 Q649.0601,66.9277 649.7449,67.9944 Q650.4297,69.061 651.7744,69.061 Q652.4053,69.061 652.9988,68.7912 Q653.5923,68.5215 654.2231,67.9404 Z " fill="#000000"/><text fill="#000000" font-family="sans-serif" font-size="14" lengthAdjust="spacing" textLength="35" x="672.25" y="69.811">Deed</text><line style="stroke:#181818;stroke-width:0.5;" x1="582" x2="765" y1="80.52" y2="80.52"/><rect fill="none" height="6" style="stroke:#C82930;stroke-width:1.0;" width="6" x="589" y="91.2641"/><text fill="#000000" font-family="sans-serif" font-size="14" lengthAdjust="spacing" textLength="87" x="601" y="98.0552">name: String</text><rect fill="none" height="6" style="stroke:#C82930;stroke-width:1.0;" width="6" x="589" y="107.7524"/><text fill="#000000" font-family="sans-serif" font-size="14" lengthAdjust="spacing" textLength="126" x="601" y="114.5434">description: String</text><line style="stroke:#181818;stroke-width:0.5;" x1="582" x2="765" y1="121.4966" y2="121.4966"/><ellipse cx="592" cy="135.2407" fill="#84BE84" rx="3" ry="3" style="stroke:#038048;stroke-width:1.0;"/><text fill="#000000" font-family="sans-serif" font-size="14" lengthAdjust="spacing" textLength="120" x="601" y="139.0317">getName(): String</text><ellipse cx="592" cy="151.729" fill="#84BE84" rx="3" ry="3" style="stroke:#038048;stroke-width:1.0;"/><text fill="#000000" font-family="sans-serif" font-size="14" lengthAdjust="spacing" textLength="159" x="601" y="155.52">getDescription(): String</text></g><!--class Legend--><g id="elem_Legend"><rect codeLine="21" fill="#F1F1F1" height="113.9531" id="Legend" rx="2.5" ry="2.5" style="stroke:#181818;stroke-width:0.5;" width="242" x="243" y="48.52"/><ellipse cx="334.75" cy="64.52" fill="#ADD1B2" rx="11" ry="11" style="stroke:#181818;stroke-width:1.0;"/><path d="M337.2231,70.6631 Q336.6421,70.9619 336.0029,71.1113 Q335.3638,71.2607 334.6582,71.2607 Q332.1514,71.2607 330.8315,69.6089 Q329.5117,67.957 329.5117,64.8359 Q329.5117,61.7065 330.8315,60.0547 Q332.1514,58.4028 334.6582,58.4028 Q335.3638,58.4028 336.0112,58.5522 Q336.6587,58.7016 337.2231,59.0005 L337.2231,61.7231 Q336.5923,61.1421 335.9988,60.8723 Q335.4053,60.6025 334.7744,60.6025 Q333.4297,60.6025 332.7449,61.6692 Q332.0601,62.7358 332.0601,64.8359 Q332.0601,66.9277 332.7449,67.9944 Q333.4297,69.061 334.7744,69.061 Q335.4053,69.061 335.9988,68.7912 Q336.5923,68.5215 337.2231,67.9404 Z " fill="#000000"/><text fill="#000000" font-family="sans-serif" font-size="14" lengthAdjust="spacing" textLength="50" x="355.25" y="69.811">Legend</text><line style="stroke:#181818;stroke-width:0.5;" x1="244" x2="484" y1="80.52" y2="80.52"/><rect fill="none" height="6" style="stroke:#C82930;stroke-width:1.0;" width="6" x="251" y="91.2641"/><text fill="#000000" font-family="sans-serif" font-size="14" lengthAdjust="spacing" textLength="127" x="263" y="98.0552">deeds: Set&lt;Deed&gt;</text><line style="stroke:#181818;stroke-width:0.5;" x1="244" x2="484" y1="105.0083" y2="105.0083"/><ellipse cx="254" cy="118.7524" fill="#84BE84" rx="3" ry="3" style="stroke:#038048;stroke-width:1.0;"/><text fill="#000000" font-family="sans-serif" font-size="14" lengthAdjust="spacing" textLength="136" x="263" y="122.5434">getAll(): Set&lt;Deed&gt;</text><ellipse cx="254" cy="135.2407" fill="#84BE84" rx="3" ry="3" style="stroke:#038048;stroke-width:1.0;"/><text fill="#000000" font-family="sans-serif" font-size="14" lengthAdjust="spacing" textLength="146" x="263" y="139.0317">add(Deed deed): void</text><ellipse cx="254" cy="151.729" fill="#84BE84" rx="3" ry="3" style="stroke:#038048;stroke-width:1.0;"/><text fill="#000000" font-family="sans-serif" font-size="14" lengthAdjust="spacing" textLength="216" x="263" y="155.52">remove(String deedName): void</text></g><!--reverse link Legend to Deed--><g id="link_Legend_Deed"><path codeLine="28" d="M497.21,105.49 C529.05,105.49 550.9,105.49 580.94,105.49 " fill="none" id="Legend-backto-Deed" style="stroke:#181818;stroke-width:1.0;"/><polygon fill="none" points="485.21,105.49,491.21,109.49,497.21,105.49,491.21,101.49,485.21,105.49" style="stroke:#181818;stroke-width:1.0;"/><text fill="#000000" font-family="sans-serif" font-size="13" lengthAdjust="spacing" textLength="34" x="516" y="102.0584">many</text></g><!--reverse link Hero to Legend--><g id="link_Hero_Legend"><path codeLine="30" d="M185.0862,67.5522 C206.8962,72.2022 219.16,74.82 242.55,79.81 " fill="none" id="Hero-backto-Legend" style="stroke:#181818;stroke-width:1.0;"/><polygon fill="#181818" points="173.35,65.05,178.384,70.2132,185.0862,67.5522,180.0522,62.389,173.35,65.05" style="stroke:#181818;stroke-width:1.0;"/><text fill="#000000" font-family="sans-serif" font-size="13" lengthAdjust="spacing" textLength="8" x="204" y="70.0584">1</text></g><!--reverse link SemiGod to Legend--><g id="link_SemiGod_Legend"><path codeLine="31" d="M185.0862,143.4278 C206.8962,138.7778 219.16,136.16 242.55,131.18 " fill="none" id="SemiGod-backto-Legend" style="stroke:#181818;stroke-width:1.0;"/><polygon fill="#181818" points="173.35,145.93,180.0522,148.591,185.0862,143.4278,178.384,140.7668,173.35,145.93" style="stroke:#181818;stroke-width:1.0;"/><text fill="#000000" font-family="sans-serif" font-size="13" lengthAdjust="spacing" textLength="8" x="204" y="134.0584">1</text></g><!--SRC=[dL2x2i8m5Dtp5PTELUdWMaGG11t4fLyGcciDv259A8Zux-RHHAkRMKBEuvvp8_3Ym6amVBWwODnWxxXMXFI2MWj7D1eU1Fnf10weM0kdU4TiDQ1BptfHY6SsToZvGRE__Nl4ObPKOWkTCrmD2M5eUyDleUsC23FFNXqcVi7xj-M3BNafFoSodswz2Dqc5DcMAJiXedjEKCRgM3ZuF3rgFkreKEeHwvGMwL0lItpwbAkR9gtSGYMfkbU4nEzVUdoIU6PTaVolFyGB]--></g></svg>