<?xml version="1.0" encoding="us-ascii" standalone="no"?><svg xmlns="http://www.w3.org/2000/svg" xmlns:xlink="http://www.w3.org/1999/xlink" contentStyleType="text/css" height="243px" preserveAspectRatio="none" style="width:875px;height:243px;background:#FFFFFF;" version="1.1" viewBox="0 0 875 243" width="875px" zoomAndPan="magnify"><defs/><g><!--class Describable--><g id="elem_Describable"><rect codeLine="4" fill="#F1F1F1" height="80.9766" id="Describable" rx="2.5" ry="2.5" style="stroke:#181818;stroke-width:0.5;" width="167" x="382.5" y="7"/><ellipse cx="422.25" cy="23" fill="#B4A7E5" rx="11" ry="11" style="stroke:#181818;stroke-width:1.0;"/><path d="M418.6777,19.2651 L418.6777,17.1069 L426.0571,17.1069 L426.0571,19.2651 L423.5918,19.2651 L423.5918,27.3418 L426.0571,27.3418 L426.0571,29.5 L418.6777,29.5 L418.6777,27.3418 L421.1431,27.3418 L421.1431,19.2651 Z " fill="#000000"/><text fill="#000000" font-family="sans-serif" font-size="14" font-style="italic" lengthAdjust="spacing" textLength="80" x="441.75" y="28.291">Describable</text><line style="stroke:#181818;stroke-width:0.5;" x1="383.5" x2="548.5" y1="39" y2="39"/><line style="stroke:#181818;stroke-width:0.5;" x1="383.5" x2="548.5" y1="47" y2="47"/><text fill="#000000" font-family="sans-serif" font-size="14" lengthAdjust="spacing" textLength="116" x="388.5" y="64.5352">String getName()</text><text fill="#000000" font-family="sans-serif" font-size="14" lengthAdjust="spacing" textLength="155" x="388.5" y="81.0234">String getDescription()</text></g><!--class Litany--><g id="elem_Litany"><rect codeLine="9" fill="#F1F1F1" height="97.4648" id="Litany" rx="2.5" ry="2.5" style="stroke:#181818;stroke-width:0.5;" width="242" x="7" y="65.75"/><ellipse cx="37.75" cy="81.75" fill="#B4A7E5" rx="11" ry="11" style="stroke:#181818;stroke-width:1.0;"/><path d="M34.1777,78.0151 L34.1777,75.8569 L41.5571,75.8569 L41.5571,78.0151 L39.0918,78.0151 L39.0918,86.0918 L41.5571,86.0918 L41.5571,88.25 L34.1777,88.25 L34.1777,86.0918 L36.6431,86.0918 L36.6431,78.0151 Z " fill="#000000"/><text fill="#000000" font-family="sans-serif" font-size="14" font-style="italic" lengthAdjust="spacing" textLength="40" x="55.25" y="87.041">Litany</text><rect fill="#FFFFFF" height="16.1328" style="stroke:#181818;stroke-width:1.0;stroke-dasharray:2.0,2.0;" width="133" x="119" y="62.75"/><text fill="#000000" font-family="sans-serif" font-size="12" font-style="italic" lengthAdjust="spacing" textLength="131" x="120" y="75.3516">T extends Describable</text><line style="stroke:#181818;stroke-width:0.5;" x1="8" x2="248" y1="97.75" y2="97.75"/><line style="stroke:#181818;stroke-width:0.5;" x1="8" x2="248" y1="105.75" y2="105.75"/><ellipse cx="18" cy="119.4941" fill="#84BE84" rx="3" ry="3" style="stroke:#038048;stroke-width:1.0;"/><text fill="#000000" font-family="sans-serif" font-size="14" lengthAdjust="spacing" textLength="110" x="27" y="123.2852">getAll(): Set&lt;T&gt;</text><ellipse cx="18" cy="135.9824" fill="#84BE84" rx="3" ry="3" style="stroke:#038048;stroke-width:1.0;"/><text fill="#000000" font-family="sans-serif" font-size="14" lengthAdjust="spacing" textLength="120" x="27" y="139.7734">add(item: T): void</text><ellipse cx="18" cy="152.4707" fill="#84BE84" rx="3" ry="3" style="stroke:#038048;stroke-width:1.0;"/><text fill="#000000" font-family="sans-serif" font-size="14" lengthAdjust="spacing" textLength="216" x="27" y="156.2617">remove(itemName: String): void</text></g><!--class Deed--><g id="elem_Deed"><rect codeLine="15" fill="#F1F1F1" height="113.9531" id="Deed" rx="2.5" ry="2.5" style="stroke:#181818;stroke-width:0.5;" width="185" x="683" y="56.51"/><ellipse cx="753.75" cy="72.51" fill="#ADD1B2" rx="11" ry="11" style="stroke:#181818;stroke-width:1.0;"/><path d="M756.2231,78.6531 Q755.6421,78.9519 755.0029,79.1013 Q754.3638,79.2507 753.6582,79.2507 Q751.1514,79.2507 749.8315,77.5989 Q748.5117,75.947 748.5117,72.8259 Q748.5117,69.6965 749.8315,68.0447 Q751.1514,66.3928 753.6582,66.3928 Q754.3638,66.3928 755.0112,66.5422 Q755.6587,66.6916 756.2231,66.9905 L756.2231,69.7131 Q755.5923,69.1321 754.9988,68.8623 Q754.4053,68.5925 753.7744,68.5925 Q752.4297,68.5925 751.7449,69.6592 Q751.0601,70.7258 751.0601,72.8259 Q751.0601,74.9177 751.7449,75.9844 Q752.4297,77.051 753.7744,77.051 Q754.4053,77.051 754.9988,76.7812 Q755.5923,76.5115 756.2231,75.9304 Z " fill="#000000"/><text fill="#000000" font-family="sans-serif" font-size="14" lengthAdjust="spacing" textLength="35" x="774.25" y="77.801">Deed</text><line style="stroke:#181818;stroke-width:0.5;" x1="684" x2="867" y1="88.51" y2="88.51"/><rect fill="none" height="6" style="stroke:#C82930;stroke-width:1.0;" width="6" x="691" y="99.2541"/><text fill="#000000" font-family="sans-serif" font-size="14" lengthAdjust="spacing" textLength="87" x="703" y="106.0452">name: String</text><rect fill="none" height="6" style="stroke:#C82930;stroke-width:1.0;" width="6" x="691" y="115.7424"/><text fill="#000000" font-family="sans-serif" font-size="14" lengthAdjust="spacing" textLength="126" x="703" y="122.5334">description: String</text><line style="stroke:#181818;stroke-width:0.5;" x1="684" x2="867" y1="129.4866" y2="129.4866"/><ellipse cx="694" cy="143.2307" fill="#84BE84" rx="3" ry="3" style="stroke:#038048;stroke-width:1.0;"/><text fill="#000000" font-family="sans-serif" font-size="14" lengthAdjust="spacing" textLength="120" x="703" y="147.0217">getName(): String</text><ellipse cx="694" cy="159.719" fill="#84BE84" rx="3" ry="3" style="stroke:#038048;stroke-width:1.0;"/><text fill="#000000" font-family="sans-serif" font-size="14" lengthAdjust="spacing" textLength="159" x="703" y="163.51">getDescription(): String</text></g><!--class Legend--><g id="elem_Legend"><rect codeLine="22" fill="#F1F1F1" height="113.9531" id="Legend" rx="2.5" ry="2.5" style="stroke:#181818;stroke-width:0.5;" width="242" x="345" y="122.51"/><ellipse cx="436.75" cy="138.51" fill="#ADD1B2" rx="11" ry="11" style="stroke:#181818;stroke-width:1.0;"/><path d="M439.2231,144.6531 Q438.6421,144.9519 438.0029,145.1013 Q437.3638,145.2507 436.6582,145.2507 Q434.1514,145.2507 432.8315,143.5989 Q431.5117,141.947 431.5117,138.8259 Q431.5117,135.6965 432.8315,134.0447 Q434.1514,132.3928 436.6582,132.3928 Q437.3638,132.3928 438.0112,132.5422 Q438.6587,132.6916 439.2231,132.9905 L439.2231,135.7131 Q438.5923,135.1321 437.9988,134.8623 Q437.4053,134.5925 436.7744,134.5925 Q435.4297,134.5925 434.7449,135.6592 Q434.0601,136.7258 434.0601,138.8259 Q434.0601,140.9177 434.7449,141.9844 Q435.4297,143.051 436.7744,143.051 Q437.4053,143.051 437.9988,142.7812 Q438.5923,142.5115 439.2231,141.9304 Z " fill="#000000"/><text fill="#000000" font-family="sans-serif" font-size="14" lengthAdjust="spacing" textLength="50" x="457.25" y="143.801">Legend</text><line style="stroke:#181818;stroke-width:0.5;" x1="346" x2="586" y1="154.51" y2="154.51"/><rect fill="none" height="6" style="stroke:#C82930;stroke-width:1.0;" width="6" x="353" y="165.2541"/><text fill="#000000" font-family="sans-serif" font-size="14" lengthAdjust="spacing" textLength="127" x="365" y="172.0452">deeds: Set&lt;Deed&gt;</text><line style="stroke:#181818;stroke-width:0.5;" x1="346" x2="586" y1="178.9983" y2="178.9983"/><ellipse cx="356" cy="192.7424" fill="#84BE84" rx="3" ry="3" style="stroke:#038048;stroke-width:1.0;"/><text fill="#000000" font-family="sans-serif" font-size="14" lengthAdjust="spacing" textLength="136" x="365" y="196.5334">getAll(): Set&lt;Deed&gt;</text><ellipse cx="356" cy="209.2307" fill="#84BE84" rx="3" ry="3" style="stroke:#038048;stroke-width:1.0;"/><text fill="#000000" font-family="sans-serif" font-size="14" lengthAdjust="spacing" textLength="146" x="365" y="213.0217">add(Deed deed): void</text><ellipse cx="356" cy="225.719" fill="#84BE84" rx="3" ry="3" style="stroke:#038048;stroke-width:1.0;"/><text fill="#000000" font-family="sans-serif" font-size="14" lengthAdjust="spacing" textLength="216" x="365" y="229.51">remove(String deedName): void</text></g><!--reverse link Describable to Deed--><g id="link_Describable_Deed"><path d="M567.4092,69.0374 C608.4092,77.8374 640.43,84.71 682.61,93.76 " fill="none" id="Describable-backto-Deed" style="stroke:#181818;stroke-width:1.0;stroke-dasharray:7.0,7.0;"/><polygon fill="none" points="549.81,65.26,566.1501,74.9038,568.6683,63.171,549.81,65.26" style="stroke:#181818;stroke-width:1.0;"/></g><!--reverse link Litany to Legend--><g id="link_Litany_Legend"><path d="M267.0227,141.187 C298.0027,147.177 313.66,150.21 344.64,156.2 " fill="none" id="Litany-backto-Legend" style="stroke:#181818;stroke-width:1.0;stroke-dasharray:7.0,7.0;"/><polygon fill="none" points="249.35,137.77,265.8837,147.0779,268.1617,135.2961,249.35,137.77" style="stroke:#181818;stroke-width:1.0;"/></g><!--reverse link Legend to Deed--><g id="link_Legend_Deed"><path codeLine="29" d="M598.9431,151.1631 C630.7831,144.3331 652.9,139.58 682.94,133.13 " fill="none" id="Legend-backto-Deed" style="stroke:#181818;stroke-width:1.0;"/><polygon fill="none" points="587.21,153.68,593.9155,156.3326,598.9431,151.1631,592.2376,148.5105,587.21,153.68" style="stroke:#181818;stroke-width:1.0;"/><text fill="#000000" font-family="sans-serif" font-size="13" lengthAdjust="spacing" textLength="34" x="618" y="137.0484">many</text></g><!--reverse link Litany to Describable--><g id="link_Litany_Describable"><path codeLine="31" d="M261.1187,88.1354 C305.0887,79.3754 342.04,72 382.03,64.03 " fill="none" id="Litany-backto-Describable" style="stroke:#181818;stroke-width:1.0;"/><polygon fill="none" points="249.35,90.48,256.0159,93.2306,261.1187,88.1354,254.4528,85.3848,249.35,90.48" style="stroke:#181818;stroke-width:1.0;"/><text fill="#000000" font-family="sans-serif" font-size="13" lengthAdjust="spacing" textLength="34" x="280" y="76.0484">many</text></g><!--SRC=[RP5DYW8n48NtVOh2LOlq1Hff670fRkmBn4xP5kH7aa9c6ERkavWOqsgMzL8lttjHU6PW2uxc2uCaXnEJDKr3Xj6TnOImGpyvEecJGlXj89mZEp8ppCW7eR5TlmpJmZNw1EslzjeJ2_Ep7G6_6OtqjVcGtJVHuqkfTjt34Nax3daif6o9KVSm1kbcIMR1eROtl6iHgCyiZqk1O5B2nyTG0kchGes6_OTadQdsqqG-qoo4JOd_DbuKKDI2iSSvPAz1KYqF1XamVSeUYOVYMvLI2R6MUxAujoWczv9_9ieHkAebazYkIztqiD81P1MKH9IKPqlbmZy0]--></g></svg>