<?xml version="1.0" encoding="us-ascii" standalone="no"?><svg xmlns="http://www.w3.org/2000/svg" xmlns:xlink="http://www.w3.org/1999/xlink" contentStyleType="text/css" height="268px" preserveAspectRatio="none" style="width:1021px;height:268px;background:#FFFFFF;" version="1.1" viewBox="0 0 1021 268" width="1021px" zoomAndPan="magnify"><defs/><g><!--class Describable--><g id="elem_Describable"><rect codeLine="4" fill="#F1F1F1" height="80.9766" id="Describable" rx="2.5" ry="2.5" style="stroke:#181818;stroke-width:0.5;" width="167" x="7" y="97.74"/><ellipse cx="46.75" cy="113.74" fill="#B4A7E5" rx="11" ry="11" style="stroke:#181818;stroke-width:1.0;"/><path d="M43.1777,110.0051 L43.1777,107.8469 L50.5571,107.8469 L50.5571,110.0051 L48.0918,110.0051 L48.0918,118.0818 L50.5571,118.0818 L50.5571,120.24 L43.1777,120.24 L43.1777,118.0818 L45.6431,118.0818 L45.6431,110.0051 Z " fill="#000000"/><text fill="#000000" font-family="sans-serif" font-size="14" font-style="italic" lengthAdjust="spacing" textLength="80" x="66.25" y="119.031">Describable</text><line style="stroke:#181818;stroke-width:0.5;" x1="8" x2="173" y1="129.74" y2="129.74"/><line style="stroke:#181818;stroke-width:0.5;" x1="8" x2="173" y1="137.74" y2="137.74"/><text fill="#000000" font-family="sans-serif" font-size="14" lengthAdjust="spacing" textLength="116" x="13" y="155.2752">String getName()</text><text fill="#000000" font-family="sans-serif" font-size="14" lengthAdjust="spacing" textLength="155" x="13" y="171.7634">String getDescription()</text></g><!--class Being--><g id="elem_Being"><rect codeLine="9" fill="#F1F1F1" height="113.9531" id="Being" rx="2.5" ry="2.5" style="stroke:#181818;stroke-width:0.5;" width="167" x="234" y="81.25"/><ellipse cx="294.25" cy="97.25" fill="#A9DCDF" rx="11" ry="11" style="stroke:#181818;stroke-width:1.0;"/><path d="M294.1133,92.5981 L292.9595,97.6699 L295.2754,97.6699 Z M292.6191,90.3569 L295.6157,90.3569 L298.9609,102.75 L296.5122,102.75 L295.7485,99.687 L292.4697,99.687 L291.7227,102.75 L289.2739,102.75 Z " fill="#000000"/><text fill="#000000" font-family="sans-serif" font-size="14" font-style="italic" lengthAdjust="spacing" textLength="38" x="314.75" y="102.541">Being</text><line style="stroke:#181818;stroke-width:0.5;" x1="235" x2="400" y1="113.25" y2="113.25"/><rect fill="none" height="6" style="stroke:#C82930;stroke-width:1.0;" width="6" x="242" y="123.9941"/><text fill="#000000" font-family="sans-serif" font-size="14" lengthAdjust="spacing" textLength="87" x="254" y="130.7852">name: String</text><rect fill="none" height="6" style="stroke:#C82930;stroke-width:1.0;" width="6" x="242" y="140.4824"/><text fill="#000000" font-family="sans-serif" font-size="14" lengthAdjust="spacing" textLength="126" x="254" y="147.2734">description: String</text><line style="stroke:#181818;stroke-width:0.5;" x1="235" x2="400" y1="154.2266" y2="154.2266"/><text fill="#000000" font-family="sans-serif" font-size="14" lengthAdjust="spacing" textLength="116" x="240" y="171.7617">String getName()</text><text fill="#000000" font-family="sans-serif" font-size="14" lengthAdjust="spacing" textLength="155" x="240" y="188.25">String getDescription()</text></g><!--class Human--><g id="elem_Human"><rect codeLine="16" fill="#F1F1F1" height="130.4414" id="Human" rx="2.5" ry="2.5" style="stroke:#181818;stroke-width:0.5;" width="211" x="461" y="7"/><ellipse cx="537.75" cy="23" fill="#ADD1B2" rx="11" ry="11" style="stroke:#181818;stroke-width:1.0;"/><path d="M540.2231,29.1431 Q539.6421,29.4419 539.0029,29.5913 Q538.3638,29.7407 537.6582,29.7407 Q535.1514,29.7407 533.8315,28.0889 Q532.5117,26.437 532.5117,23.3159 Q532.5117,20.1865 533.8315,18.5347 Q535.1514,16.8828 537.6582,16.8828 Q538.3638,16.8828 539.0112,17.0322 Q539.6587,17.1816 540.2231,17.4805 L540.2231,20.2031 Q539.5923,19.6221 538.9988,19.3523 Q538.4053,19.0825 537.7744,19.0825 Q536.4297,19.0825 535.7449,20.1492 Q535.0601,21.2158 535.0601,23.3159 Q535.0601,25.4077 535.7449,26.4744 Q536.4297,27.541 537.7744,27.541 Q538.4053,27.541 538.9988,27.2712 Q539.5923,27.0015 540.2231,26.4204 Z " fill="#000000"/><text fill="#000000" font-family="sans-serif" font-size="14" lengthAdjust="spacing" textLength="49" x="558.25" y="28.291">Human</text><line style="stroke:#181818;stroke-width:0.5;" x1="462" x2="671" y1="39" y2="39"/><rect fill="none" height="6" style="stroke:#C82930;stroke-width:1.0;" width="6" x="469" y="49.7441"/><text fill="#000000" font-family="sans-serif" font-size="14" lengthAdjust="spacing" textLength="72" x="481" y="56.5352">birth: Date</text><rect fill="none" height="6" style="stroke:#C82930;stroke-width:1.0;" width="6" x="469" y="66.2324"/><text fill="#000000" font-family="sans-serif" font-size="14" lengthAdjust="spacing" textLength="78" x="481" y="73.0234">death: Date</text><line style="stroke:#181818;stroke-width:0.5;" x1="462" x2="671" y1="79.9766" y2="79.9766"/><ellipse cx="472" cy="93.7207" fill="#84BE84" rx="3" ry="3" style="stroke:#038048;stroke-width:1.0;"/><text fill="#000000" font-family="sans-serif" font-size="14" lengthAdjust="spacing" textLength="103" x="481" y="97.5117">getBirth(): Date</text><ellipse cx="472" cy="110.209" fill="#84BE84" rx="3" ry="3" style="stroke:#038048;stroke-width:1.0;"/><text fill="#000000" font-family="sans-serif" font-size="14" lengthAdjust="spacing" textLength="111" x="481" y="114">getDeath(): Date</text><ellipse cx="472" cy="126.6973" fill="#84BE84" rx="3" ry="3" style="stroke:#038048;stroke-width:1.0;"/><text fill="#000000" font-family="sans-serif" font-size="14" lengthAdjust="spacing" textLength="185" x="481" y="130.4883">setDeath(death: Date): void</text></g><!--class God--><g id="elem_God"><rect codeLine="24" fill="#F1F1F1" height="64.4883" id="God" rx="2.5" ry="2.5" style="stroke:#181818;stroke-width:0.5;" width="112" x="510.5" y="171.98"/><ellipse cx="548.9" cy="187.98" fill="#ADD1B2" rx="11" ry="11" style="stroke:#181818;stroke-width:1.0;"/><path d="M551.3731,194.1231 Q550.7921,194.4219 550.1529,194.5713 Q549.5138,194.7207 548.8082,194.7207 Q546.3014,194.7207 544.9815,193.0689 Q543.6617,191.417 543.6617,188.2959 Q543.6617,185.1665 544.9815,183.5147 Q546.3014,181.8628 548.8082,181.8628 Q549.5138,181.8628 550.1612,182.0122 Q550.8087,182.1616 551.3731,182.4605 L551.3731,185.1831 Q550.7423,184.6021 550.1488,184.3323 Q549.5553,184.0625 548.9244,184.0625 Q547.5797,184.0625 546.8949,185.1292 Q546.2101,186.1958 546.2101,188.2959 Q546.2101,190.3877 546.8949,191.4544 Q547.5797,192.521 548.9244,192.521 Q549.5553,192.521 550.1488,192.2512 Q550.7423,191.9815 551.3731,191.4004 Z " fill="#000000"/><text fill="#000000" font-family="sans-serif" font-size="14" lengthAdjust="spacing" textLength="28" x="568.1" y="193.271">God</text><line style="stroke:#181818;stroke-width:0.5;" x1="511.5" x2="621.5" y1="203.98" y2="203.98"/><line style="stroke:#181818;stroke-width:0.5;" x1="511.5" x2="621.5" y1="211.98" y2="211.98"/><ellipse cx="521.5" cy="225.7241" fill="#84BE84" rx="3" ry="3" style="stroke:#038048;stroke-width:1.0;"/><text fill="#000000" font-family="sans-serif" font-size="14" lengthAdjust="spacing" textLength="86" x="530.5" y="229.5152">wrath(): void</text></g><!--class Hero--><g id="elem_Hero"><rect codeLine="28" fill="#F1F1F1" height="80.9766" id="Hero" rx="2.5" ry="2.5" style="stroke:#181818;stroke-width:0.5;" width="166" x="790" y="31.74"/><ellipse cx="852.25" cy="47.74" fill="#ADD1B2" rx="11" ry="11" style="stroke:#181818;stroke-width:1.0;"/><path d="M854.7231,53.8831 Q854.1421,54.1819 853.5029,54.3313 Q852.8638,54.4807 852.1582,54.4807 Q849.6514,54.4807 848.3315,52.8289 Q847.0117,51.177 847.0117,48.0559 Q847.0117,44.9265 848.3315,43.2747 Q849.6514,41.6228 852.1582,41.6228 Q852.8638,41.6228 853.5112,41.7722 Q854.1587,41.9216 854.7231,42.2205 L854.7231,44.9431 Q854.0923,44.3621 853.4988,44.0923 Q852.9053,43.8225 852.2744,43.8225 Q850.9297,43.8225 850.2449,44.8892 Q849.5601,45.9558 849.5601,48.0559 Q849.5601,50.1477 850.2449,51.2144 Q850.9297,52.281 852.2744,52.281 Q852.9053,52.281 853.4988,52.0112 Q854.0923,51.7415 854.7231,51.1604 Z " fill="#000000"/><text fill="#000000" font-family="sans-serif" font-size="14" lengthAdjust="spacing" textLength="33" x="872.75" y="53.031">Hero</text><line style="stroke:#181818;stroke-width:0.5;" x1="791" x2="955" y1="63.74" y2="63.74"/><rect fill="none" height="6" style="stroke:#C82930;stroke-width:1.0;" width="6" x="798" y="74.4841"/><text fill="#000000" font-family="sans-serif" font-size="14" lengthAdjust="spacing" textLength="105" x="810" y="81.2752">legend: Legend</text><line style="stroke:#181818;stroke-width:0.5;" x1="791" x2="955" y1="88.2283" y2="88.2283"/><ellipse cx="801" cy="101.9724" fill="#84BE84" rx="3" ry="3" style="stroke:#038048;stroke-width:1.0;"/><text fill="#000000" font-family="sans-serif" font-size="14" lengthAdjust="spacing" textLength="140" x="810" y="105.7634">getLegend(): Legend</text></g><!--class SemiGod--><g id="elem_SemiGod"><rect codeLine="33" fill="#F1F1F1" height="113.9531" id="SemiGod" rx="2.5" ry="2.5" style="stroke:#181818;stroke-width:0.5;" width="282" x="732" y="147.25"/><ellipse cx="838.25" cy="163.25" fill="#ADD1B2" rx="11" ry="11" style="stroke:#181818;stroke-width:1.0;"/><path d="M840.7231,169.3931 Q840.1421,169.6919 839.5029,169.8413 Q838.8638,169.9907 838.1582,169.9907 Q835.6514,169.9907 834.3315,168.3389 Q833.0117,166.687 833.0117,163.5659 Q833.0117,160.4365 834.3315,158.7847 Q835.6514,157.1328 838.1582,157.1328 Q838.8638,157.1328 839.5112,157.2822 Q840.1587,157.4316 840.7231,157.7305 L840.7231,160.4531 Q840.0923,159.8721 839.4988,159.6023 Q838.9053,159.3325 838.2744,159.3325 Q836.9297,159.3325 836.2449,160.3992 Q835.5601,161.4658 835.5601,163.5659 Q835.5601,165.6577 836.2449,166.7244 Q836.9297,167.791 838.2744,167.791 Q838.9053,167.791 839.4988,167.5212 Q840.0923,167.2515 840.7231,166.6704 Z " fill="#000000"/><text fill="#000000" font-family="sans-serif" font-size="14" lengthAdjust="spacing" textLength="61" x="858.75" y="168.541">SemiGod</text><line style="stroke:#181818;stroke-width:0.5;" x1="733" x2="1013" y1="179.25" y2="179.25"/><rect fill="none" height="6" style="stroke:#C82930;stroke-width:1.0;" width="6" x="740" y="189.9941"/><text fill="#000000" font-family="sans-serif" font-size="14" lengthAdjust="spacing" textLength="105" x="752" y="196.7852">legend: Legend</text><line style="stroke:#181818;stroke-width:0.5;" x1="733" x2="1013" y1="203.7383" y2="203.7383"/><ellipse cx="743" cy="217.4824" fill="#84BE84" rx="3" ry="3" style="stroke:#038048;stroke-width:1.0;"/><text fill="#000000" font-family="sans-serif" font-size="14" lengthAdjust="spacing" textLength="140" x="752" y="221.2734">getLegend(): Legend</text><ellipse cx="743" cy="233.9707" fill="#84BE84" rx="3" ry="3" style="stroke:#038048;stroke-width:1.0;"/><text fill="#000000" font-family="sans-serif" font-size="14" lengthAdjust="spacing" textLength="256" x="752" y="237.7617">{override} setDeath(death: Date): void</text><ellipse cx="743" cy="250.459" fill="#84BE84" rx="3" ry="3" style="stroke:#038048;stroke-width:1.0;"/><text fill="#000000" font-family="sans-serif" font-size="14" lengthAdjust="spacing" textLength="157" x="752" y="254.25">{override} wrath(): void</text></g><!--reverse link Describable to Being--><g id="link_Describable_Being"><path d="M192.32,138.22 C211.74,138.22 214.44,138.22 233.85,138.22 " fill="none" id="Describable-backto-Being" style="stroke:#181818;stroke-width:1.0;stroke-dasharray:7.0,7.0;"/><polygon fill="none" points="174.32,138.22,192.32,144.22,192.32,132.22,174.32,138.22" style="stroke:#181818;stroke-width:1.0;"/></g><!--reverse link Being to Human--><g id="link_Being_Human"><path d="M418.8206,111.4158 C437.8806,106.3258 441.01,105.49 460.85,100.19 " fill="none" id="Being-backto-Human" style="stroke:#181818;stroke-width:1.0;"/><polygon fill="none" points="401.43,116.06,420.3686,117.2127,417.2725,105.619,401.43,116.06" style="stroke:#181818;stroke-width:1.0;"/></g><!--reverse link Being to God--><g id="link_Being_God"><path d="M418.8196,165.0279 C454.6996,174.6179 478.33,180.93 510.38,189.49 " fill="none" id="Being-backto-God" style="stroke:#181818;stroke-width:1.0;"/><polygon fill="none" points="401.43,160.38,417.2703,170.8244,420.3689,159.2314,401.43,160.38" style="stroke:#181818;stroke-width:1.0;"/></g><!--reverse link Human to Hero--><g id="link_Human_Hero"><path d="M690.29,72.22 C728.65,72.22 753.49,72.22 789.61,72.22 " fill="none" id="Human-backto-Hero" style="stroke:#181818;stroke-width:1.0;"/><polygon fill="none" points="672.29,72.22,690.29,78.22,690.29,66.22,672.29,72.22" style="stroke:#181818;stroke-width:1.0;"/></g><!--reverse link Human to SemiGod--><g id="link_Human_SemiGod"><path d="M688.8045,124.8104 C710.4845,134.2104 717.07,137.06 739.58,146.82 " fill="none" id="Human-backto-SemiGod" style="stroke:#181818;stroke-width:1.0;"/><polygon fill="none" points="672.29,117.65,686.4177,130.3152,691.1913,119.3055,672.29,117.65" style="stroke:#181818;stroke-width:1.0;"/></g><!--reverse link God to SemiGod--><g id="link_God_SemiGod"><path d="M641,204.22 C671.62,204.22 693.15,204.22 731.66,204.22 " fill="none" id="God-backto-SemiGod" style="stroke:#181818;stroke-width:1.0;"/><polygon fill="none" points="623,204.22,641,210.22,641,198.22,623,204.22" style="stroke:#181818;stroke-width:1.0;"/></g><!--SRC=[bP31Ri8m38RlUGeVGMmlq2Eg18Tf5vuWRKonr2J8CMmIujr9cXHeXwOjboY_Vt_-dHxt0kA1gJi8669iXRnJYfmWxtMBK6DecHhTz0WN1V7iXCbrqA5yQekBvKpC3SV4YRMhKhe9mheLQ7iT0gmn6SaUUxJe9BoOyEuYk2hCh9W7TLBuRvYSONkosW5-2pep9YgZ6s8vL51hmN6odWYhY5qdqs8vK-ladAfXL9yeqN3sP1vfDjwypBBwuWAS-hV8_jwGLodXeSSkgXLy37Ucf7_8xuGgbJjiXvQU0moyjo5JWVwPcIiNVqPcCdY5txR_OPulUmC0]--></g></svg>