<?xml version="1.0" encoding="us-ascii" standalone="no"?><svg xmlns="http://www.w3.org/2000/svg" xmlns:xlink="http://www.w3.org/1999/xlink" contentStyleType="text/css" height="443px" preserveAspectRatio="none" style="width:1672px;height:443px;background:#FFFFFF;" version="1.1" viewBox="0 0 1672 443" width="1672px" zoomAndPan="magnify"><defs/><g><!--class Describable--><g id="elem_Describable"><rect codeLine="4" fill="#F1F1F1" height="80.9766" id="Describable" rx="2.5" ry="2.5" style="stroke:#181818;stroke-width:0.5;" width="185" x="345" y="191.51"/><ellipse cx="393.25" cy="207.51" fill="#B4A7E5" rx="11" ry="11" style="stroke:#181818;stroke-width:1.0;"/><path d="M389.6777,203.7751 L389.6777,201.6169 L397.0571,201.6169 L397.0571,203.7751 L394.5918,203.7751 L394.5918,211.8518 L397.0571,211.8518 L397.0571,214.01 L389.6777,214.01 L389.6777,211.8518 L392.1431,211.8518 L392.1431,203.7751 Z " fill="#000000"/><text fill="#000000" font-family="sans-serif" font-size="14" font-style="italic" lengthAdjust="spacing" textLength="80" x="413.75" y="212.801">Describable</text><line style="stroke:#181818;stroke-width:0.5;" x1="346" x2="529" y1="223.51" y2="223.51"/><line style="stroke:#181818;stroke-width:0.5;" x1="346" x2="529" y1="231.51" y2="231.51"/><ellipse cx="356" cy="245.2541" fill="#84BE84" rx="3" ry="3" style="stroke:#038048;stroke-width:1.0;"/><text fill="#000000" font-family="sans-serif" font-size="14" lengthAdjust="spacing" textLength="120" x="365" y="249.0452">getName(): String</text><ellipse cx="356" cy="261.7424" fill="#84BE84" rx="3" ry="3" style="stroke:#038048;stroke-width:1.0;"/><text fill="#000000" font-family="sans-serif" font-size="14" lengthAdjust="spacing" textLength="159" x="365" y="265.5334">getDescription(): String</text></g><!--class Mortal--><g id="elem_Mortal"><rect codeLine="9" fill="#F1F1F1" height="97.4648" id="Mortal" rx="2.5" ry="2.5" style="stroke:#181818;stroke-width:0.5;" width="211" x="591" y="59.27"/><ellipse cx="670.25" cy="75.27" fill="#B4A7E5" rx="11" ry="11" style="stroke:#181818;stroke-width:1.0;"/><path d="M666.6777,71.5351 L666.6777,69.3769 L674.0571,69.3769 L674.0571,71.5351 L671.5918,71.5351 L671.5918,79.6118 L674.0571,79.6118 L674.0571,81.77 L666.6777,81.77 L666.6777,79.6118 L669.1431,79.6118 L669.1431,71.5351 Z " fill="#000000"/><text fill="#000000" font-family="sans-serif" font-size="14" font-style="italic" lengthAdjust="spacing" textLength="44" x="690.75" y="80.561">Mortal</text><line style="stroke:#181818;stroke-width:0.5;" x1="592" x2="801" y1="91.27" y2="91.27"/><line style="stroke:#181818;stroke-width:0.5;" x1="592" x2="801" y1="99.27" y2="99.27"/><ellipse cx="602" cy="113.0141" fill="#84BE84" rx="3" ry="3" style="stroke:#038048;stroke-width:1.0;"/><text fill="#000000" font-family="sans-serif" font-size="14" lengthAdjust="spacing" textLength="103" x="611" y="116.8052">getBirth(): Date</text><ellipse cx="602" cy="129.5024" fill="#84BE84" rx="3" ry="3" style="stroke:#038048;stroke-width:1.0;"/><text fill="#000000" font-family="sans-serif" font-size="14" lengthAdjust="spacing" textLength="111" x="611" y="133.2934">getDeath(): Date</text><ellipse cx="602" cy="145.9907" fill="#84BE84" rx="3" ry="3" style="stroke:#038048;stroke-width:1.0;"/><text fill="#000000" font-family="sans-serif" font-size="14" lengthAdjust="spacing" textLength="185" x="611" y="149.7817">setDeath(death: Date): void</text></g><!--class Wrath--><g id="elem_Wrath"><rect codeLine="15" fill="#F1F1F1" height="64.4883" id="Wrath" rx="2.5" ry="2.5" style="stroke:#181818;stroke-width:0.5;" width="112" x="640.5" y="307.76"/><ellipse cx="673.5" cy="323.76" fill="#B4A7E5" rx="11" ry="11" style="stroke:#181818;stroke-width:1.0;"/><path d="M669.9277,320.0251 L669.9277,317.8669 L677.3071,317.8669 L677.3071,320.0251 L674.8418,320.0251 L674.8418,328.1018 L677.3071,328.1018 L677.3071,330.26 L669.9277,330.26 L669.9277,328.1018 L672.3931,328.1018 L672.3931,320.0251 Z " fill="#000000"/><text fill="#000000" font-family="sans-serif" font-size="14" font-style="italic" lengthAdjust="spacing" textLength="40" x="691.5" y="329.051">Wrath</text><line style="stroke:#181818;stroke-width:0.5;" x1="641.5" x2="751.5" y1="339.76" y2="339.76"/><line style="stroke:#181818;stroke-width:0.5;" x1="641.5" x2="751.5" y1="347.76" y2="347.76"/><ellipse cx="651.5" cy="361.5041" fill="#84BE84" rx="3" ry="3" style="stroke:#038048;stroke-width:1.0;"/><text fill="#000000" font-family="sans-serif" font-size="14" lengthAdjust="spacing" textLength="86" x="660.5" y="365.2952">wrath(): void</text></g><!--class Litany--><g id="elem_Litany"><rect codeLine="19" fill="#F1F1F1" height="97.4648" id="Litany" rx="2.5" ry="2.5" style="stroke:#181818;stroke-width:0.5;" width="242" x="7" y="70.27"/><ellipse cx="37.75" cy="86.27" fill="#B4A7E5" rx="11" ry="11" style="stroke:#181818;stroke-width:1.0;"/><path d="M34.1777,82.5351 L34.1777,80.3769 L41.5571,80.3769 L41.5571,82.5351 L39.0918,82.5351 L39.0918,90.6118 L41.5571,90.6118 L41.5571,92.77 L34.1777,92.77 L34.1777,90.6118 L36.6431,90.6118 L36.6431,82.5351 Z " fill="#000000"/><text fill="#000000" font-family="sans-serif" font-size="14" font-style="italic" lengthAdjust="spacing" textLength="40" x="55.25" y="91.561">Litany</text><rect fill="#FFFFFF" height="16.1328" style="stroke:#181818;stroke-width:1.0;stroke-dasharray:2.0,2.0;" width="133" x="119" y="67.27"/><text fill="#000000" font-family="sans-serif" font-size="12" font-style="italic" lengthAdjust="spacing" textLength="131" x="120" y="79.8716">T extends Describable</text><line style="stroke:#181818;stroke-width:0.5;" x1="8" x2="248" y1="102.27" y2="102.27"/><line style="stroke:#181818;stroke-width:0.5;" x1="8" x2="248" y1="110.27" y2="110.27"/><ellipse cx="18" cy="124.0141" fill="#84BE84" rx="3" ry="3" style="stroke:#038048;stroke-width:1.0;"/><text fill="#000000" font-family="sans-serif" font-size="14" lengthAdjust="spacing" textLength="110" x="27" y="127.8052">getAll(): Set&lt;T&gt;</text><ellipse cx="18" cy="140.5024" fill="#84BE84" rx="3" ry="3" style="stroke:#038048;stroke-width:1.0;"/><text fill="#000000" font-family="sans-serif" font-size="14" lengthAdjust="spacing" textLength="120" x="27" y="144.2934">add(item: T): void</text><ellipse cx="18" cy="156.9907" fill="#84BE84" rx="3" ry="3" style="stroke:#038048;stroke-width:1.0;"/><text fill="#000000" font-family="sans-serif" font-size="14" lengthAdjust="spacing" textLength="216" x="27" y="160.7817">remove(itemName: String): void</text></g><!--class Being--><g id="elem_Being"><rect codeLine="25" fill="#F1F1F1" height="80.9766" id="Being" rx="2.5" ry="2.5" style="stroke:#181818;stroke-width:0.5;" width="152" x="620.5" y="191.51"/><ellipse cx="673.25" cy="207.51" fill="#A9DCDF" rx="11" ry="11" style="stroke:#181818;stroke-width:1.0;"/><path d="M673.1133,202.8581 L671.9595,207.9299 L674.2754,207.9299 Z M671.6191,200.6169 L674.6157,200.6169 L677.9609,213.01 L675.5122,213.01 L674.7485,209.947 L671.4697,209.947 L670.7227,213.01 L668.2739,213.01 Z " fill="#000000"/><text fill="#000000" font-family="sans-serif" font-size="14" font-style="italic" lengthAdjust="spacing" textLength="38" x="693.75" y="212.801">Being</text><line style="stroke:#181818;stroke-width:0.5;" x1="621.5" x2="771.5" y1="223.51" y2="223.51"/><rect fill="none" height="6" style="stroke:#C82930;stroke-width:1.0;" width="6" x="628.5" y="234.2541"/><text fill="#000000" font-family="sans-serif" font-size="14" lengthAdjust="spacing" textLength="87" x="640.5" y="241.0452">name: String</text><rect fill="none" height="6" style="stroke:#C82930;stroke-width:1.0;" width="6" x="628.5" y="250.7424"/><text fill="#000000" font-family="sans-serif" font-size="14" lengthAdjust="spacing" textLength="126" x="640.5" y="257.5334">description: String</text><line style="stroke:#181818;stroke-width:0.5;" x1="621.5" x2="771.5" y1="264.4866" y2="264.4866"/></g><!--class Human--><g id="elem_Human"><rect codeLine="30" fill="#F1F1F1" height="80.9766" id="Human" rx="2.5" ry="2.5" style="stroke:#181818;stroke-width:0.5;" width="104" x="863" y="58.51"/><ellipse cx="888.35" cy="74.51" fill="#ADD1B2" rx="11" ry="11" style="stroke:#181818;stroke-width:1.0;"/><path d="M890.8231,80.6531 Q890.2421,80.9519 889.6029,81.1013 Q888.9638,81.2507 888.2582,81.2507 Q885.7514,81.2507 884.4315,79.5989 Q883.1117,77.947 883.1117,74.8259 Q883.1117,71.6965 884.4315,70.0447 Q885.7514,68.3928 888.2582,68.3928 Q888.9638,68.3928 889.6112,68.5422 Q890.2587,68.6916 890.8231,68.9905 L890.8231,71.7131 Q890.1923,71.1321 889.5988,70.8623 Q889.0053,70.5925 888.3744,70.5925 Q887.0297,70.5925 886.3449,71.6592 Q885.6601,72.7258 885.6601,74.8259 Q885.6601,76.9177 886.3449,77.9844 Q887.0297,79.051 888.3744,79.051 Q889.0053,79.051 889.5988,78.7812 Q890.1923,78.5115 890.8231,77.9304 Z " fill="#000000"/><text fill="#000000" font-family="sans-serif" font-size="14" lengthAdjust="spacing" textLength="49" x="904.65" y="79.801">Human</text><line style="stroke:#181818;stroke-width:0.5;" x1="864" x2="966" y1="90.51" y2="90.51"/><rect fill="none" height="6" style="stroke:#C82930;stroke-width:1.0;" width="6" x="871" y="101.2541"/><text fill="#000000" font-family="sans-serif" font-size="14" lengthAdjust="spacing" textLength="72" x="883" y="108.0452">birth: Date</text><rect fill="none" height="6" style="stroke:#C82930;stroke-width:1.0;" width="6" x="871" y="117.7424"/><text fill="#000000" font-family="sans-serif" font-size="14" lengthAdjust="spacing" textLength="78" x="883" y="124.5334">death: Date</text><line style="stroke:#181818;stroke-width:0.5;" x1="864" x2="966" y1="131.4866" y2="131.4866"/></g><!--class God--><g id="elem_God"><rect codeLine="35" fill="#F1F1F1" height="48" id="God" rx="2.5" ry="2.5" style="stroke:#181818;stroke-width:0.5;" width="60" x="885" y="250"/><ellipse cx="900" cy="266" fill="#ADD1B2" rx="11" ry="11" style="stroke:#181818;stroke-width:1.0;"/><path d="M902.4731,272.1431 Q901.8921,272.4419 901.2529,272.5913 Q900.6138,272.7407 899.9082,272.7407 Q897.4014,272.7407 896.0815,271.0889 Q894.7617,269.437 894.7617,266.3159 Q894.7617,263.1865 896.0815,261.5347 Q897.4014,259.8828 899.9082,259.8828 Q900.6138,259.8828 901.2612,260.0322 Q901.9087,260.1816 902.4731,260.4805 L902.4731,263.2031 Q901.8423,262.6221 901.2488,262.3523 Q900.6553,262.0825 900.0244,262.0825 Q898.6797,262.0825 897.9949,263.1492 Q897.3101,264.2158 897.3101,266.3159 Q897.3101,268.4077 897.9949,269.4744 Q898.6797,270.541 900.0244,270.541 Q900.6553,270.541 901.2488,270.2712 Q901.8423,270.0015 902.4731,269.4204 Z " fill="#000000"/><text fill="#000000" font-family="sans-serif" font-size="14" lengthAdjust="spacing" textLength="28" x="914" y="271.291">God</text><line style="stroke:#181818;stroke-width:0.5;" x1="886" x2="944" y1="282" y2="282"/><line style="stroke:#181818;stroke-width:0.5;" x1="886" x2="944" y1="290" y2="290"/></g><!--class Hero--><g id="elem_Hero"><rect codeLine="38" fill="#F1F1F1" height="80.9766" id="Hero" rx="2.5" ry="2.5" style="stroke:#181818;stroke-width:0.5;" width="166" x="1028" y="58.51"/><ellipse cx="1090.25" cy="74.51" fill="#ADD1B2" rx="11" ry="11" style="stroke:#181818;stroke-width:1.0;"/><path d="M1092.7231,80.6531 Q1092.1421,80.9519 1091.5029,81.1013 Q1090.8638,81.2507 1090.1582,81.2507 Q1087.6514,81.2507 1086.3315,79.5989 Q1085.0117,77.947 1085.0117,74.8259 Q1085.0117,71.6965 1086.3315,70.0447 Q1087.6514,68.3928 1090.1582,68.3928 Q1090.8638,68.3928 1091.5112,68.5422 Q1092.1587,68.6916 1092.7231,68.9905 L1092.7231,71.7131 Q1092.0923,71.1321 1091.4988,70.8623 Q1090.9053,70.5925 1090.2744,70.5925 Q1088.9297,70.5925 1088.2449,71.6592 Q1087.5601,72.7258 1087.5601,74.8259 Q1087.5601,76.9177 1088.2449,77.9844 Q1088.9297,79.051 1090.2744,79.051 Q1090.9053,79.051 1091.4988,78.7812 Q1092.0923,78.5115 1092.7231,77.9304 Z " fill="#000000"/><text fill="#000000" font-family="sans-serif" font-size="14" lengthAdjust="spacing" textLength="33" x="1110.75" y="79.801">Hero</text><line style="stroke:#181818;stroke-width:0.5;" x1="1029" x2="1193" y1="90.51" y2="90.51"/><rect fill="none" height="6" style="stroke:#C82930;stroke-width:1.0;" width="6" x="1036" y="101.2541"/><text fill="#000000" font-family="sans-serif" font-size="14" lengthAdjust="spacing" textLength="105" x="1048" y="108.0452">legend: Legend</text><line style="stroke:#181818;stroke-width:0.5;" x1="1029" x2="1193" y1="114.9983" y2="114.9983"/><ellipse cx="1039" cy="128.7424" fill="#84BE84" rx="3" ry="3" style="stroke:#038048;stroke-width:1.0;"/><text fill="#000000" font-family="sans-serif" font-size="14" lengthAdjust="spacing" textLength="140" x="1048" y="132.5334">getLegend(): Legend</text></g><!--class SemiGod--><g id="elem_SemiGod"><rect codeLine="43" fill="#F1F1F1" height="113.9531" id="SemiGod" rx="2.5" ry="2.5" style="stroke:#181818;stroke-width:0.5;" width="166" x="1028" y="174.03"/><ellipse cx="1076.25" cy="190.03" fill="#ADD1B2" rx="11" ry="11" style="stroke:#181818;stroke-width:1.0;"/><path d="M1078.7231,196.1731 Q1078.1421,196.4719 1077.5029,196.6213 Q1076.8638,196.7707 1076.1582,196.7707 Q1073.6514,196.7707 1072.3315,195.1189 Q1071.0117,193.467 1071.0117,190.3459 Q1071.0117,187.2165 1072.3315,185.5647 Q1073.6514,183.9128 1076.1582,183.9128 Q1076.8638,183.9128 1077.5112,184.0622 Q1078.1587,184.2116 1078.7231,184.5105 L1078.7231,187.2331 Q1078.0923,186.6521 1077.4988,186.3823 Q1076.9053,186.1125 1076.2744,186.1125 Q1074.9297,186.1125 1074.2449,187.1792 Q1073.5601,188.2458 1073.5601,190.3459 Q1073.5601,192.4377 1074.2449,193.5044 Q1074.9297,194.571 1076.2744,194.571 Q1076.9053,194.571 1077.4988,194.3012 Q1078.0923,194.0315 1078.7231,193.4504 Z " fill="#000000"/><text fill="#000000" font-family="sans-serif" font-size="14" lengthAdjust="spacing" textLength="61" x="1096.75" y="195.321">SemiGod</text><line style="stroke:#181818;stroke-width:0.5;" x1="1029" x2="1193" y1="206.03" y2="206.03"/><rect fill="none" height="6" style="stroke:#C82930;stroke-width:1.0;" width="6" x="1036" y="216.7741"/><text fill="#000000" font-family="sans-serif" font-size="14" lengthAdjust="spacing" textLength="72" x="1048" y="223.5652">birth: Date</text><rect fill="none" height="6" style="stroke:#C82930;stroke-width:1.0;" width="6" x="1036" y="233.2624"/><text fill="#000000" font-family="sans-serif" font-size="14" lengthAdjust="spacing" textLength="78" x="1048" y="240.0534">death: Date</text><rect fill="none" height="6" style="stroke:#C82930;stroke-width:1.0;" width="6" x="1036" y="249.7507"/><text fill="#000000" font-family="sans-serif" font-size="14" lengthAdjust="spacing" textLength="105" x="1048" y="256.5417">legend: Legend</text><line style="stroke:#181818;stroke-width:0.5;" x1="1029" x2="1193" y1="263.4948" y2="263.4948"/><ellipse cx="1039" cy="277.239" fill="#84BE84" rx="3" ry="3" style="stroke:#038048;stroke-width:1.0;"/><text fill="#000000" font-family="sans-serif" font-size="14" lengthAdjust="spacing" textLength="140" x="1048" y="281.03">getLegend(): Legend</text></g><!--class Deed--><g id="elem_Deed"><rect codeLine="50" fill="#F1F1F1" height="80.9766" id="Deed" rx="2.5" ry="2.5" style="stroke:#181818;stroke-width:0.5;" width="152" x="1513" y="355.51"/><ellipse cx="1567.25" cy="371.51" fill="#ADD1B2" rx="11" ry="11" style="stroke:#181818;stroke-width:1.0;"/><path d="M1569.7231,377.6531 Q1569.1421,377.9519 1568.5029,378.1013 Q1567.8638,378.2507 1567.1582,378.2507 Q1564.6514,378.2507 1563.3315,376.5989 Q1562.0117,374.947 1562.0117,371.8259 Q1562.0117,368.6965 1563.3315,367.0447 Q1564.6514,365.3928 1567.1582,365.3928 Q1567.8638,365.3928 1568.5112,365.5422 Q1569.1587,365.6916 1569.7231,365.9905 L1569.7231,368.7131 Q1569.0923,368.1321 1568.4988,367.8623 Q1567.9053,367.5925 1567.2744,367.5925 Q1565.9297,367.5925 1565.2449,368.6592 Q1564.5601,369.7258 1564.5601,371.8259 Q1564.5601,373.9177 1565.2449,374.9844 Q1565.9297,376.051 1567.2744,376.051 Q1567.9053,376.051 1568.4988,375.7812 Q1569.0923,375.5115 1569.7231,374.9304 Z " fill="#000000"/><text fill="#000000" font-family="sans-serif" font-size="14" lengthAdjust="spacing" textLength="35" x="1587.75" y="376.801">Deed</text><line style="stroke:#181818;stroke-width:0.5;" x1="1514" x2="1664" y1="387.51" y2="387.51"/><rect fill="none" height="6" style="stroke:#C82930;stroke-width:1.0;" width="6" x="1521" y="398.2541"/><text fill="#000000" font-family="sans-serif" font-size="14" lengthAdjust="spacing" textLength="87" x="1533" y="405.0452">name: String</text><rect fill="none" height="6" style="stroke:#C82930;stroke-width:1.0;" width="6" x="1521" y="414.7424"/><text fill="#000000" font-family="sans-serif" font-size="14" lengthAdjust="spacing" textLength="126" x="1533" y="421.5334">description: String</text><line style="stroke:#181818;stroke-width:0.5;" x1="1514" x2="1664" y1="428.4866" y2="428.4866"/></g><!--class Legend--><g id="elem_Legend"><rect codeLine="55" fill="#F1F1F1" height="64.4883" id="Legend" rx="2.5" ry="2.5" style="stroke:#181818;stroke-width:0.5;" width="153" x="1264" y="116.76"/><ellipse cx="1311.25" cy="132.76" fill="#ADD1B2" rx="11" ry="11" style="stroke:#181818;stroke-width:1.0;"/><path d="M1313.7231,138.9031 Q1313.1421,139.2019 1312.5029,139.3513 Q1311.8638,139.5007 1311.1582,139.5007 Q1308.6514,139.5007 1307.3315,137.8489 Q1306.0117,136.197 1306.0117,133.0759 Q1306.0117,129.9465 1307.3315,128.2947 Q1308.6514,126.6428 1311.1582,126.6428 Q1311.8638,126.6428 1312.5112,126.7922 Q1313.1587,126.9416 1313.7231,127.2405 L1313.7231,129.9631 Q1313.0923,129.3821 1312.4988,129.1123 Q1311.9053,128.8425 1311.2744,128.8425 Q1309.9297,128.8425 1309.2449,129.9092 Q1308.5601,130.9758 1308.5601,133.0759 Q1308.5601,135.1677 1309.2449,136.2344 Q1309.9297,137.301 1311.2744,137.301 Q1311.9053,137.301 1312.4988,137.0312 Q1313.0923,136.7615 1313.7231,136.1804 Z " fill="#000000"/><text fill="#000000" font-family="sans-serif" font-size="14" lengthAdjust="spacing" textLength="50" x="1331.75" y="138.051">Legend</text><line style="stroke:#181818;stroke-width:0.5;" x1="1265" x2="1416" y1="148.76" y2="148.76"/><rect fill="none" height="6" style="stroke:#C82930;stroke-width:1.0;" width="6" x="1272" y="159.5041"/><text fill="#000000" font-family="sans-serif" font-size="14" lengthAdjust="spacing" textLength="127" x="1284" y="166.2952">deeds: Set&lt;Deed&gt;</text><line style="stroke:#181818;stroke-width:0.5;" x1="1265" x2="1416" y1="173.2483" y2="173.2483"/></g><!--reverse link Describable to Being--><g id="link_Describable_Being"><path d="M548.19,232 C577.75,232 592.13,232 620.35,232 " fill="none" id="Describable-backto-Being" style="stroke:#181818;stroke-width:1.0;stroke-dasharray:7.0,7.0;"/><polygon fill="none" points="530.19,232,548.19,238,548.19,226,530.19,232" style="stroke:#181818;stroke-width:1.0;"/></g><!--reverse link Being to Human--><g id="link_Being_Human"><path d="M788.6272,182.1649 C798.4672,176.5549 792.7,179.68 802,174 C822.17,161.68 843.86,147.41 862.73,134.64 " fill="none" id="Being-backto-Human" style="stroke:#181818;stroke-width:1.0;"/><polygon fill="none" points="772.99,191.08,791.5989,187.3773,785.6555,176.9525,772.99,191.08" style="stroke:#181818;stroke-width:1.0;"/></g><!--reverse link Mortal to Human--><g id="link_Mortal_Human"><path d="M820.2443,102.8982 C841.2943,102.0182 844.53,101.89 862.74,101.13 " fill="none" id="Mortal-backto-Human" style="stroke:#181818;stroke-width:1.0;stroke-dasharray:7.0,7.0;"/><polygon fill="none" points="802.26,103.65,820.4949,108.8929,819.9937,96.9034,802.26,103.65" style="stroke:#181818;stroke-width:1.0;"/></g><!--reverse link Being to God--><g id="link_Being_God"><path d="M790.5906,250.0578 C829.1506,257.5378 856.18,262.79 884.76,268.33 " fill="none" id="Being-backto-God" style="stroke:#181818;stroke-width:1.0;"/><polygon fill="none" points="772.92,246.63,789.448,255.948,791.7332,244.1676,772.92,246.63" style="stroke:#181818;stroke-width:1.0;"/></g><!--reverse link Wrath to God--><g id="link_Wrath_God"><path d="M770.1882,317.8429 C812.1582,305.0529 850.93,293.23 884.62,282.96 " fill="none" id="Wrath-backto-God" style="stroke:#181818;stroke-width:1.0;stroke-dasharray:7.0,7.0;"/><polygon fill="none" points="752.97,323.09,771.9373,323.5823,768.4392,312.1035,752.97,323.09" style="stroke:#181818;stroke-width:1.0;"/></g><!--reverse link Human to Hero--><g id="link_Human_Hero"><path d="M985.48,99 C1004,99 1007.39,99 1027.87,99 " fill="none" id="Human-backto-Hero" style="stroke:#181818;stroke-width:1.0;"/><polygon fill="none" points="967.48,99,985.48,105,985.48,93,967.48,99" style="stroke:#181818;stroke-width:1.0;"/></g><!--reverse link God to SemiGod--><g id="link_God_SemiGod"><path d="M963.0344,263.5788 C984.9844,258.7188 998.5,255.72 1027.76,249.23 " fill="none" id="God-backto-SemiGod" style="stroke:#181818;stroke-width:1.0;"/><polygon fill="none" points="945.46,267.47,964.3314,269.4369,961.7373,257.7207,945.46,267.47" style="stroke:#181818;stroke-width:1.0;"/></g><!--reverse link Mortal to SemiGod--><g id="link_Mortal_SemiGod"><path d="M819.6398,144.4224 C889.5798,165.2724 962.96,187.16 1027.69,206.46 " fill="none" id="Mortal-backto-SemiGod" style="stroke:#181818;stroke-width:1.0;stroke-dasharray:7.0,7.0;"/><polygon fill="none" points="802.39,139.28,817.9257,150.1723,821.3539,138.6725,802.39,139.28" style="stroke:#181818;stroke-width:1.0;"/></g><!--reverse link Describable to Deed--><g id="link_Describable_Deed"><path d="M477.228,287.3465 C519.588,344.0065 595.06,425 695.5,425 C695.5,425 695.5,425 1341.5,425 C1399.24,425 1464.07,417.06 1512.75,409.48 " fill="none" id="Describable-backto-Deed" style="stroke:#181818;stroke-width:1.0;stroke-dasharray:7.0,7.0;"/><polygon fill="none" points="466.45,272.93,472.4225,290.9391,482.0335,283.7538,466.45,272.93" style="stroke:#181818;stroke-width:1.0;"/></g><!--reverse link Litany to Legend--><g id="link_Litany_Legend"><path d="M229.1757,61.7927 C289.3357,31.3027 357.3,6 436.5,6 C436.5,6 436.5,6 1112,6 C1194.57,6 1271.72,74.36 1311.47,116.55 " fill="none" id="Litany-backto-Legend" style="stroke:#181818;stroke-width:1.0;stroke-dasharray:7.0,7.0;"/><polygon fill="none" points="213.12,69.93,231.8881,67.1446,226.4633,56.4408,213.12,69.93" style="stroke:#181818;stroke-width:1.0;"/></g><!--reverse link Hero to Legend--><g id="link_Hero_Legend"><path codeLine="59" d="M1206.1698,119.6979 C1228.8098,124.6779 1241.52,127.47 1263.75,132.35 " fill="none" id="Hero-backto-Legend" style="stroke:#181818;stroke-width:1.0;"/><polygon fill="#181818" points="1194.45,117.12,1199.4506,122.3156,1206.1698,119.6979,1201.1692,114.5024,1194.45,117.12" style="stroke:#181818;stroke-width:1.0;"/><text fill="#000000" font-family="sans-serif" font-size="13" lengthAdjust="spacing" textLength="8" x="1225" y="120.5684">1</text></g><!--reverse link SemiGod to Legend--><g id="link_SemiGod_Legend"><path codeLine="60" d="M1205.7391,197.2111 C1228.3791,189.0511 1241.52,184.32 1263.75,176.3 " fill="none" id="SemiGod-backto-Legend" style="stroke:#181818;stroke-width:1.0;"/><polygon fill="#181818" points="1194.45,201.28,1201.4509,203.0086,1205.7391,197.2111,1198.7383,195.4825,1194.45,201.28" style="stroke:#181818;stroke-width:1.0;"/><text fill="#000000" font-family="sans-serif" font-size="13" lengthAdjust="spacing" textLength="8" x="1225" y="184.5684">1</text></g><!--reverse link Legend to Deed--><g id="link_Legend_Deed"><path codeLine="61" d="M1382.4567,190.0438 C1427.0367,234.7138 1498.69,306.51 1547.25,355.16 " fill="none" id="Legend-backto-Deed" style="stroke:#181818;stroke-width:1.0;"/><polygon fill="none" points="1373.98,181.55,1375.3871,188.6225,1382.4567,190.0438,1381.0496,182.9713,1373.98,181.55" style="stroke:#181818;stroke-width:1.0;"/><text fill="#000000" font-family="sans-serif" font-size="13" lengthAdjust="spacing" textLength="34" x="1448" y="254.5684">many</text></g><!--reverse link Litany to Describable--><g id="link_Litany_Describable"><path codeLine="62" d="M260.4736,167.319 C292.3136,179.019 314.9,187.32 344.94,198.36 " fill="none" id="Litany-backto-Describable" style="stroke:#181818;stroke-width:1.0;"/><polygon fill="none" points="249.21,163.18,253.4622,169.004,260.4736,167.319,256.2215,161.4949,249.21,163.18" style="stroke:#181818;stroke-width:1.0;"/><text fill="#000000" font-family="sans-serif" font-size="13" lengthAdjust="spacing" textLength="34" x="280" y="172.5684">many</text></g><!--SRC=[dLBBQiCm4BpxAvQSqXOVUZKXq11e3sal2VGiMnj7e4UGjcb3wRzNiYnRmNr0VF1ZPZspEok9Um8oO4Lx8E32OaF2wA8Gcj3kMOEmHjTOKRDQ8dmMuAyxQ95UcCBvJGLRiaAt8nxBZq4bexzonMTZYSbSR2Ki7KBvcX52BiQck4iu3_V8-PAJ4HmkZLwjBnXytcql5Yel2pU2c3ulTe0VX9gxVEXbtkY3bDrKI8lTieSPvtD1g2hO9V58M5JcX1qNqafXP1smsf5b3K4ZcNEmGa-3K4U92ZMv7x8lGMTIFSJ7pFF4e-ZJcs9w66nYSR6CiWwBY9568Cjub7mq_7V15FhO05epbCTkUZU9hGShs7JFc9eFENw6d7jYaDgY4hbvUBzkbklyruZyd_rCr_FdTg93hXdFOfBZtj750nVCb-7FBj3Riam_Lp2xdnKfcmdHVnYFT_rxrE_Wx8de58bna87_1W00]--></g></svg>