<?xml version="1.0" encoding="us-ascii" standalone="no"?><svg xmlns="http://www.w3.org/2000/svg" xmlns:xlink="http://www.w3.org/1999/xlink" contentStyleType="text/css" height="608px" preserveAspectRatio="none" style="width:1766px;height:608px;background:#FFFFFF;" version="1.1" viewBox="0 0 1766 608" width="1766px" zoomAndPan="magnify"><defs/><g><!--class Gender--><g id="elem_Gender"><rect codeLine="4" fill="#F1F1F1" height="80.9766" id="Gender" rx="2.5" ry="2.5" style="stroke:#181818;stroke-width:0.5;" width="82" x="968" y="67.51"/><ellipse cx="983" cy="83.51" fill="#EB937F" rx="11" ry="11" style="stroke:#181818;stroke-width:1.0;"/><path d="M986.6143,90.01 L978.8945,90.01 L978.8945,77.6169 L986.6143,77.6169 L986.6143,79.7751 L981.3433,79.7751 L981.3433,82.448 L986.1162,82.448 L986.1162,84.6062 L981.3433,84.6062 L981.3433,87.8518 L986.6143,87.8518 Z " fill="#000000"/><text fill="#000000" font-family="sans-serif" font-size="14" lengthAdjust="spacing" textLength="50" x="997" y="88.801">Gender</text><line style="stroke:#181818;stroke-width:0.5;" x1="969" x2="1049" y1="99.51" y2="99.51"/><text fill="#000000" font-family="sans-serif" font-size="14" lengthAdjust="spacing" textLength="37" x="974" y="117.0452">MALE</text><text fill="#000000" font-family="sans-serif" font-size="14" lengthAdjust="spacing" textLength="53" x="974" y="133.5334">FEMALE</text><line style="stroke:#181818;stroke-width:0.5;" x1="969" x2="1049" y1="140.4866" y2="140.4866"/></g><!--class Describable--><g id="elem_Describable"><rect codeLine="9" fill="#F1F1F1" height="80.9766" id="Describable" rx="2.5" ry="2.5" style="stroke:#181818;stroke-width:0.5;" width="185" x="345" y="83.51"/><ellipse cx="393.25" cy="99.51" fill="#B4A7E5" rx="11" ry="11" style="stroke:#181818;stroke-width:1.0;"/><path d="M389.6777,95.7751 L389.6777,93.6169 L397.0571,93.6169 L397.0571,95.7751 L394.5918,95.7751 L394.5918,103.8518 L397.0571,103.8518 L397.0571,106.01 L389.6777,106.01 L389.6777,103.8518 L392.1431,103.8518 L392.1431,95.7751 Z " fill="#000000"/><text fill="#000000" font-family="sans-serif" font-size="14" font-style="italic" lengthAdjust="spacing" textLength="80" x="413.75" y="104.801">Describable</text><line style="stroke:#181818;stroke-width:0.5;" x1="346" x2="529" y1="115.51" y2="115.51"/><line style="stroke:#181818;stroke-width:0.5;" x1="346" x2="529" y1="123.51" y2="123.51"/><ellipse cx="356" cy="137.2541" fill="#84BE84" rx="3" ry="3" style="stroke:#038048;stroke-width:1.0;"/><text fill="#000000" font-family="sans-serif" font-size="14" lengthAdjust="spacing" textLength="120" x="365" y="141.0452">getName(): String</text><ellipse cx="356" cy="153.7424" fill="#84BE84" rx="3" ry="3" style="stroke:#038048;stroke-width:1.0;"/><text fill="#000000" font-family="sans-serif" font-size="14" lengthAdjust="spacing" textLength="159" x="365" y="157.5334">getDescription(): String</text></g><!--class Mortal--><g id="elem_Mortal"><rect codeLine="14" fill="#F1F1F1" height="97.4648" id="Mortal" rx="2.5" ry="2.5" style="stroke:#181818;stroke-width:0.5;" width="211" x="623.5" y="404.27"/><ellipse cx="702.75" cy="420.27" fill="#B4A7E5" rx="11" ry="11" style="stroke:#181818;stroke-width:1.0;"/><path d="M699.1777,416.5351 L699.1777,414.3769 L706.5571,414.3769 L706.5571,416.5351 L704.0918,416.5351 L704.0918,424.6118 L706.5571,424.6118 L706.5571,426.77 L699.1777,426.77 L699.1777,424.6118 L701.6431,424.6118 L701.6431,416.5351 Z " fill="#000000"/><text fill="#000000" font-family="sans-serif" font-size="14" font-style="italic" lengthAdjust="spacing" textLength="44" x="723.25" y="425.561">Mortal</text><line style="stroke:#181818;stroke-width:0.5;" x1="624.5" x2="833.5" y1="436.27" y2="436.27"/><line style="stroke:#181818;stroke-width:0.5;" x1="624.5" x2="833.5" y1="444.27" y2="444.27"/><ellipse cx="634.5" cy="458.0141" fill="#84BE84" rx="3" ry="3" style="stroke:#038048;stroke-width:1.0;"/><text fill="#000000" font-family="sans-serif" font-size="14" lengthAdjust="spacing" textLength="103" x="643.5" y="461.8052">getBirth(): Date</text><ellipse cx="634.5" cy="474.5024" fill="#84BE84" rx="3" ry="3" style="stroke:#038048;stroke-width:1.0;"/><text fill="#000000" font-family="sans-serif" font-size="14" lengthAdjust="spacing" textLength="111" x="643.5" y="478.2934">getDeath(): Date</text><ellipse cx="634.5" cy="490.9907" fill="#84BE84" rx="3" ry="3" style="stroke:#038048;stroke-width:1.0;"/><text fill="#000000" font-family="sans-serif" font-size="14" lengthAdjust="spacing" textLength="185" x="643.5" y="494.7817">setDeath(death: Date): void</text></g><!--class Wrath--><g id="elem_Wrath"><rect codeLine="20" fill="#F1F1F1" height="64.4883" id="Wrath" rx="2.5" ry="2.5" style="stroke:#181818;stroke-width:0.5;" width="112" x="381.5" y="263.75"/><ellipse cx="414.5" cy="279.75" fill="#B4A7E5" rx="11" ry="11" style="stroke:#181818;stroke-width:1.0;"/><path d="M410.9277,276.0151 L410.9277,273.8569 L418.3071,273.8569 L418.3071,276.0151 L415.8418,276.0151 L415.8418,284.0918 L418.3071,284.0918 L418.3071,286.25 L410.9277,286.25 L410.9277,284.0918 L413.3931,284.0918 L413.3931,276.0151 Z " fill="#000000"/><text fill="#000000" font-family="sans-serif" font-size="14" font-style="italic" lengthAdjust="spacing" textLength="40" x="432.5" y="285.041">Wrath</text><line style="stroke:#181818;stroke-width:0.5;" x1="382.5" x2="492.5" y1="295.75" y2="295.75"/><line style="stroke:#181818;stroke-width:0.5;" x1="382.5" x2="492.5" y1="303.75" y2="303.75"/><ellipse cx="392.5" cy="317.4941" fill="#84BE84" rx="3" ry="3" style="stroke:#038048;stroke-width:1.0;"/><text fill="#000000" font-family="sans-serif" font-size="14" lengthAdjust="spacing" textLength="86" x="401.5" y="321.2852">wrath(): void</text></g><!--class MegaWrath--><g id="elem_MegaWrath"><rect codeLine="24" fill="#F1F1F1" height="48" id="MegaWrath" rx="2.5" ry="2.5" style="stroke:#181818;stroke-width:0.5;" width="109" x="674.5" y="224"/><ellipse cx="689.5" cy="240" fill="#B4A7E5" rx="11" ry="11" style="stroke:#181818;stroke-width:1.0;"/><path d="M685.9277,236.2651 L685.9277,234.1069 L693.3071,234.1069 L693.3071,236.2651 L690.8418,236.2651 L690.8418,244.3418 L693.3071,244.3418 L693.3071,246.5 L685.9277,246.5 L685.9277,244.3418 L688.3931,244.3418 L688.3931,236.2651 Z " fill="#000000"/><text fill="#000000" font-family="sans-serif" font-size="14" font-style="italic" lengthAdjust="spacing" textLength="77" x="703.5" y="245.291">MegaWrath</text><line style="stroke:#181818;stroke-width:0.5;" x1="675.5" x2="782.5" y1="256" y2="256"/><line style="stroke:#181818;stroke-width:0.5;" x1="675.5" x2="782.5" y1="264" y2="264"/></g><!--class Litany--><g id="elem_Litany"><rect codeLine="27" fill="#F1F1F1" height="97.4648" id="Litany" rx="2.5" ry="2.5" style="stroke:#181818;stroke-width:0.5;" width="242" x="7" y="504.27"/><ellipse cx="37.75" cy="520.27" fill="#B4A7E5" rx="11" ry="11" style="stroke:#181818;stroke-width:1.0;"/><path d="M34.1777,516.5351 L34.1777,514.3769 L41.5571,514.3769 L41.5571,516.5351 L39.0918,516.5351 L39.0918,524.6118 L41.5571,524.6118 L41.5571,526.77 L34.1777,526.77 L34.1777,524.6118 L36.6431,524.6118 L36.6431,516.5351 Z " fill="#000000"/><text fill="#000000" font-family="sans-serif" font-size="14" font-style="italic" lengthAdjust="spacing" textLength="40" x="55.25" y="525.561">Litany</text><rect fill="#FFFFFF" height="16.1328" style="stroke:#181818;stroke-width:1.0;stroke-dasharray:2.0,2.0;" width="133" x="119" y="501.27"/><text fill="#000000" font-family="sans-serif" font-size="12" font-style="italic" lengthAdjust="spacing" textLength="131" x="120" y="513.8716">T extends Describable</text><line style="stroke:#181818;stroke-width:0.5;" x1="8" x2="248" y1="536.27" y2="536.27"/><line style="stroke:#181818;stroke-width:0.5;" x1="8" x2="248" y1="544.27" y2="544.27"/><ellipse cx="18" cy="558.0141" fill="#84BE84" rx="3" ry="3" style="stroke:#038048;stroke-width:1.0;"/><text fill="#000000" font-family="sans-serif" font-size="14" lengthAdjust="spacing" textLength="110" x="27" y="561.8052">getAll(): Set&lt;T&gt;</text><ellipse cx="18" cy="574.5024" fill="#84BE84" rx="3" ry="3" style="stroke:#038048;stroke-width:1.0;"/><text fill="#000000" font-family="sans-serif" font-size="14" lengthAdjust="spacing" textLength="120" x="27" y="578.2934">add(item: T): void</text><ellipse cx="18" cy="590.9907" fill="#84BE84" rx="3" ry="3" style="stroke:#038048;stroke-width:1.0;"/><text fill="#000000" font-family="sans-serif" font-size="14" lengthAdjust="spacing" textLength="216" x="27" y="594.7817">remove(itemName: String): void</text></g><!--class Being--><g id="elem_Being"><rect codeLine="33" fill="#F1F1F1" height="130.4414" id="Being" rx="2.5" ry="2.5" style="stroke:#181818;stroke-width:0.5;" width="276" x="591" y="58.78"/><ellipse cx="705.75" cy="74.78" fill="#A9DCDF" rx="11" ry="11" style="stroke:#181818;stroke-width:1.0;"/><path d="M705.6133,70.1281 L704.4595,75.1999 L706.7754,75.1999 Z M704.1191,67.8869 L707.1157,67.8869 L710.4609,80.28 L708.0122,80.28 L707.2485,77.217 L703.9697,77.217 L703.2227,80.28 L700.7739,80.28 Z " fill="#000000"/><text fill="#000000" font-family="sans-serif" font-size="14" font-style="italic" lengthAdjust="spacing" textLength="38" x="726.25" y="80.071">Being</text><line style="stroke:#181818;stroke-width:0.5;" x1="592" x2="866" y1="90.78" y2="90.78"/><rect fill="none" height="6" style="stroke:#C82930;stroke-width:1.0;" width="6" x="599" y="101.5241"/><text fill="#000000" font-family="sans-serif" font-size="14" lengthAdjust="spacing" textLength="87" x="611" y="108.3152">name: String</text><rect fill="none" height="6" style="stroke:#C82930;stroke-width:1.0;" width="6" x="599" y="118.0124"/><text fill="#000000" font-family="sans-serif" font-size="14" lengthAdjust="spacing" textLength="126" x="611" y="124.8034">description: String</text><rect fill="none" height="6" style="stroke:#C82930;stroke-width:1.0;" width="6" x="599" y="134.5007"/><text fill="#000000" font-family="sans-serif" font-size="14" lengthAdjust="spacing" textLength="250" x="611" y="141.2917">genderMap: Map&lt;Gender, Boolean&gt;</text><line style="stroke:#181818;stroke-width:0.5;" x1="592" x2="866" y1="148.2448" y2="148.2448"/><ellipse cx="602" cy="161.989" fill="#84BE84" rx="3" ry="3" style="stroke:#038048;stroke-width:1.0;"/><text fill="#000000" font-family="sans-serif" font-size="14" lengthAdjust="spacing" textLength="117" x="611" y="165.78">isMale(): boolean</text><ellipse cx="602" cy="178.4773" fill="#84BE84" rx="3" ry="3" style="stroke:#038048;stroke-width:1.0;"/><text fill="#000000" font-family="sans-serif" font-size="14" lengthAdjust="spacing" textLength="134" x="611" y="182.2683">isFemale(): boolean</text></g><!--class Human--><g id="elem_Human"><rect codeLine="42" fill="#F1F1F1" height="80.9766" id="Human" rx="2.5" ry="2.5" style="stroke:#181818;stroke-width:0.5;" width="104" x="957" y="448.51"/><ellipse cx="982.35" cy="464.51" fill="#ADD1B2" rx="11" ry="11" style="stroke:#181818;stroke-width:1.0;"/><path d="M984.8231,470.6531 Q984.2421,470.9519 983.6029,471.1013 Q982.9638,471.2507 982.2582,471.2507 Q979.7514,471.2507 978.4315,469.5989 Q977.1117,467.947 977.1117,464.8259 Q977.1117,461.6965 978.4315,460.0447 Q979.7514,458.3928 982.2582,458.3928 Q982.9638,458.3928 983.6112,458.5422 Q984.2587,458.6916 984.8231,458.9905 L984.8231,461.7131 Q984.1923,461.1321 983.5988,460.8623 Q983.0053,460.5925 982.3744,460.5925 Q981.0297,460.5925 980.3449,461.6592 Q979.6601,462.7258 979.6601,464.8259 Q979.6601,466.9177 980.3449,467.9844 Q981.0297,469.051 982.3744,469.051 Q983.0053,469.051 983.5988,468.7812 Q984.1923,468.5115 984.8231,467.9304 Z " fill="#000000"/><text fill="#000000" font-family="sans-serif" font-size="14" lengthAdjust="spacing" textLength="49" x="998.65" y="469.801">Human</text><line style="stroke:#181818;stroke-width:0.5;" x1="958" x2="1060" y1="480.51" y2="480.51"/><rect fill="none" height="6" style="stroke:#C82930;stroke-width:1.0;" width="6" x="965" y="491.2541"/><text fill="#000000" font-family="sans-serif" font-size="14" lengthAdjust="spacing" textLength="72" x="977" y="498.0452">birth: Date</text><rect fill="none" height="6" style="stroke:#C82930;stroke-width:1.0;" width="6" x="965" y="507.7424"/><text fill="#000000" font-family="sans-serif" font-size="14" lengthAdjust="spacing" textLength="78" x="977" y="514.5334">death: Date</text><line style="stroke:#181818;stroke-width:0.5;" x1="958" x2="1060" y1="521.4866" y2="521.4866"/></g><!--class God--><g id="elem_God"><rect codeLine="47" fill="#F1F1F1" height="48" id="God" rx="2.5" ry="2.5" style="stroke:#181818;stroke-width:0.5;" width="60" x="979" y="224"/><ellipse cx="994" cy="240" fill="#ADD1B2" rx="11" ry="11" style="stroke:#181818;stroke-width:1.0;"/><path d="M996.4731,246.1431 Q995.8921,246.4419 995.2529,246.5913 Q994.6138,246.7407 993.9082,246.7407 Q991.4014,246.7407 990.0815,245.0889 Q988.7617,243.437 988.7617,240.3159 Q988.7617,237.1865 990.0815,235.5347 Q991.4014,233.8828 993.9082,233.8828 Q994.6138,233.8828 995.2612,234.0322 Q995.9087,234.1816 996.4731,234.4805 L996.4731,237.2031 Q995.8423,236.6221 995.2488,236.3523 Q994.6553,236.0825 994.0244,236.0825 Q992.6797,236.0825 991.9949,237.1492 Q991.3101,238.2158 991.3101,240.3159 Q991.3101,242.4077 991.9949,243.4744 Q992.6797,244.541 994.0244,244.541 Q994.6553,244.541 995.2488,244.2712 Q995.8423,244.0015 996.4731,243.4204 Z " fill="#000000"/><text fill="#000000" font-family="sans-serif" font-size="14" lengthAdjust="spacing" textLength="28" x="1008" y="245.291">God</text><line style="stroke:#181818;stroke-width:0.5;" x1="980" x2="1038" y1="256" y2="256"/><line style="stroke:#181818;stroke-width:0.5;" x1="980" x2="1038" y1="264" y2="264"/></g><!--class Hero--><g id="elem_Hero"><rect codeLine="50" fill="#F1F1F1" height="80.9766" id="Hero" rx="2.5" ry="2.5" style="stroke:#181818;stroke-width:0.5;" width="166" x="1122" y="440.51"/><ellipse cx="1184.25" cy="456.51" fill="#ADD1B2" rx="11" ry="11" style="stroke:#181818;stroke-width:1.0;"/><path d="M1186.7231,462.6531 Q1186.1421,462.9519 1185.5029,463.1013 Q1184.8638,463.2507 1184.1582,463.2507 Q1181.6514,463.2507 1180.3315,461.5989 Q1179.0117,459.947 1179.0117,456.8259 Q1179.0117,453.6965 1180.3315,452.0447 Q1181.6514,450.3928 1184.1582,450.3928 Q1184.8638,450.3928 1185.5112,450.5422 Q1186.1587,450.6916 1186.7231,450.9905 L1186.7231,453.7131 Q1186.0923,453.1321 1185.4988,452.8623 Q1184.9053,452.5925 1184.2744,452.5925 Q1182.9297,452.5925 1182.2449,453.6592 Q1181.5601,454.7258 1181.5601,456.8259 Q1181.5601,458.9177 1182.2449,459.9844 Q1182.9297,461.051 1184.2744,461.051 Q1184.9053,461.051 1185.4988,460.7812 Q1186.0923,460.5115 1186.7231,459.9304 Z " fill="#000000"/><text fill="#000000" font-family="sans-serif" font-size="14" lengthAdjust="spacing" textLength="33" x="1204.75" y="461.801">Hero</text><line style="stroke:#181818;stroke-width:0.5;" x1="1123" x2="1287" y1="472.51" y2="472.51"/><rect fill="none" height="6" style="stroke:#C82930;stroke-width:1.0;" width="6" x="1130" y="483.2541"/><text fill="#000000" font-family="sans-serif" font-size="14" lengthAdjust="spacing" textLength="105" x="1142" y="490.0452">legend: Legend</text><line style="stroke:#181818;stroke-width:0.5;" x1="1123" x2="1287" y1="496.9983" y2="496.9983"/><ellipse cx="1133" cy="510.7424" fill="#84BE84" rx="3" ry="3" style="stroke:#038048;stroke-width:1.0;"/><text fill="#000000" font-family="sans-serif" font-size="14" lengthAdjust="spacing" textLength="140" x="1142" y="514.5334">getLegend(): Legend</text></g><!--class SemiGod--><g id="elem_SemiGod"><rect codeLine="55" fill="#F1F1F1" height="113.9531" id="SemiGod" rx="2.5" ry="2.5" style="stroke:#181818;stroke-width:0.5;" width="166" x="1122" y="284.02"/><ellipse cx="1170.25" cy="300.02" fill="#ADD1B2" rx="11" ry="11" style="stroke:#181818;stroke-width:1.0;"/><path d="M1172.7231,306.1631 Q1172.1421,306.4619 1171.5029,306.6113 Q1170.8638,306.7607 1170.1582,306.7607 Q1167.6514,306.7607 1166.3315,305.1089 Q1165.0117,303.457 1165.0117,300.3359 Q1165.0117,297.2065 1166.3315,295.5547 Q1167.6514,293.9028 1170.1582,293.9028 Q1170.8638,293.9028 1171.5112,294.0522 Q1172.1587,294.2016 1172.7231,294.5005 L1172.7231,297.2231 Q1172.0923,296.6421 1171.4988,296.3723 Q1170.9053,296.1025 1170.2744,296.1025 Q1168.9297,296.1025 1168.2449,297.1692 Q1167.5601,298.2358 1167.5601,300.3359 Q1167.5601,302.4277 1168.2449,303.4944 Q1168.9297,304.561 1170.2744,304.561 Q1170.9053,304.561 1171.4988,304.2912 Q1172.0923,304.0215 1172.7231,303.4404 Z " fill="#000000"/><text fill="#000000" font-family="sans-serif" font-size="14" lengthAdjust="spacing" textLength="61" x="1190.75" y="305.311">SemiGod</text><line style="stroke:#181818;stroke-width:0.5;" x1="1123" x2="1287" y1="316.02" y2="316.02"/><rect fill="none" height="6" style="stroke:#C82930;stroke-width:1.0;" width="6" x="1130" y="326.7641"/><text fill="#000000" font-family="sans-serif" font-size="14" lengthAdjust="spacing" textLength="72" x="1142" y="333.5552">birth: Date</text><rect fill="none" height="6" style="stroke:#C82930;stroke-width:1.0;" width="6" x="1130" y="343.2524"/><text fill="#000000" font-family="sans-serif" font-size="14" lengthAdjust="spacing" textLength="78" x="1142" y="350.0434">death: Date</text><rect fill="none" height="6" style="stroke:#C82930;stroke-width:1.0;" width="6" x="1130" y="359.7407"/><text fill="#000000" font-family="sans-serif" font-size="14" lengthAdjust="spacing" textLength="105" x="1142" y="366.5317">legend: Legend</text><line style="stroke:#181818;stroke-width:0.5;" x1="1123" x2="1287" y1="373.4848" y2="373.4848"/><ellipse cx="1133" cy="387.229" fill="#84BE84" rx="3" ry="3" style="stroke:#038048;stroke-width:1.0;"/><text fill="#000000" font-family="sans-serif" font-size="14" lengthAdjust="spacing" textLength="140" x="1142" y="391.02">getLegend(): Legend</text></g><!--class Deed--><g id="elem_Deed"><rect codeLine="62" fill="#F1F1F1" height="80.9766" id="Deed" rx="2.5" ry="2.5" style="stroke:#181818;stroke-width:0.5;" width="152" x="1607" y="124.51"/><ellipse cx="1661.25" cy="140.51" fill="#ADD1B2" rx="11" ry="11" style="stroke:#181818;stroke-width:1.0;"/><path d="M1663.7231,146.6531 Q1663.1421,146.9519 1662.5029,147.1013 Q1661.8638,147.2507 1661.1582,147.2507 Q1658.6514,147.2507 1657.3315,145.5989 Q1656.0117,143.947 1656.0117,140.8259 Q1656.0117,137.6965 1657.3315,136.0447 Q1658.6514,134.3928 1661.1582,134.3928 Q1661.8638,134.3928 1662.5112,134.5422 Q1663.1587,134.6916 1663.7231,134.9905 L1663.7231,137.7131 Q1663.0923,137.1321 1662.4988,136.8623 Q1661.9053,136.5925 1661.2744,136.5925 Q1659.9297,136.5925 1659.2449,137.6592 Q1658.5601,138.7258 1658.5601,140.8259 Q1658.5601,142.9177 1659.2449,143.9844 Q1659.9297,145.051 1661.2744,145.051 Q1661.9053,145.051 1662.4988,144.7812 Q1663.0923,144.5115 1663.7231,143.9304 Z " fill="#000000"/><text fill="#000000" font-family="sans-serif" font-size="14" lengthAdjust="spacing" textLength="35" x="1681.75" y="145.801">Deed</text><line style="stroke:#181818;stroke-width:0.5;" x1="1608" x2="1758" y1="156.51" y2="156.51"/><rect fill="none" height="6" style="stroke:#C82930;stroke-width:1.0;" width="6" x="1615" y="167.2541"/><text fill="#000000" font-family="sans-serif" font-size="14" lengthAdjust="spacing" textLength="87" x="1627" y="174.0452">name: String</text><rect fill="none" height="6" style="stroke:#C82930;stroke-width:1.0;" width="6" x="1615" y="183.7424"/><text fill="#000000" font-family="sans-serif" font-size="14" lengthAdjust="spacing" textLength="126" x="1627" y="190.5334">description: String</text><line style="stroke:#181818;stroke-width:0.5;" x1="1608" x2="1758" y1="197.4866" y2="197.4866"/></g><!--class Legend--><g id="elem_Legend"><rect codeLine="67" fill="#F1F1F1" height="64.4883" id="Legend" rx="2.5" ry="2.5" style="stroke:#181818;stroke-width:0.5;" width="153" x="1358" y="398.75"/><ellipse cx="1405.25" cy="414.75" fill="#ADD1B2" rx="11" ry="11" style="stroke:#181818;stroke-width:1.0;"/><path d="M1407.7231,420.8931 Q1407.1421,421.1919 1406.5029,421.3413 Q1405.8638,421.4907 1405.1582,421.4907 Q1402.6514,421.4907 1401.3315,419.8389 Q1400.0117,418.187 1400.0117,415.0659 Q1400.0117,411.9365 1401.3315,410.2847 Q1402.6514,408.6328 1405.1582,408.6328 Q1405.8638,408.6328 1406.5112,408.7822 Q1407.1587,408.9316 1407.7231,409.2305 L1407.7231,411.9531 Q1407.0923,411.3721 1406.4988,411.1023 Q1405.9053,410.8325 1405.2744,410.8325 Q1403.9297,410.8325 1403.2449,411.8992 Q1402.5601,412.9658 1402.5601,415.0659 Q1402.5601,417.1577 1403.2449,418.2244 Q1403.9297,419.291 1405.2744,419.291 Q1405.9053,419.291 1406.4988,419.0212 Q1407.0923,418.7515 1407.7231,418.1704 Z " fill="#000000"/><text fill="#000000" font-family="sans-serif" font-size="14" lengthAdjust="spacing" textLength="50" x="1425.75" y="420.041">Legend</text><line style="stroke:#181818;stroke-width:0.5;" x1="1359" x2="1510" y1="430.75" y2="430.75"/><rect fill="none" height="6" style="stroke:#C82930;stroke-width:1.0;" width="6" x="1366" y="441.4941"/><text fill="#000000" font-family="sans-serif" font-size="14" lengthAdjust="spacing" textLength="127" x="1378" y="448.2852">deeds: Set&lt;Deed&gt;</text><line style="stroke:#181818;stroke-width:0.5;" x1="1359" x2="1510" y1="455.2383" y2="455.2383"/></g><!--reverse link Wrath to MegaWrath--><g id="link_Wrath_MegaWrath"><path d="M511.7377,283.8564 C563.6177,275.2564 622.84,265.43 674.18,256.92 " fill="none" id="Wrath-backto-MegaWrath" style="stroke:#181818;stroke-width:1.0;"/><polygon fill="none" points="493.98,286.8,512.7189,289.7756,510.7565,277.9371,493.98,286.8" style="stroke:#181818;stroke-width:1.0;"/></g><!--reverse link Describable to Being--><g id="link_Describable_Being"><path d="M548.5,124 C567.62,124 570.17,124 590.52,124 " fill="none" id="Describable-backto-Being" style="stroke:#181818;stroke-width:1.0;stroke-dasharray:7.0,7.0;"/><polygon fill="none" points="530.5,124,548.5,130,548.5,118,530.5,124" style="stroke:#181818;stroke-width:1.0;"/></g><!--reverse link Being to Human--><g id="link_Being_Human"><path d="M863.625,201.354 C869.705,206.504 861.73,200.3 867,206 C934.12,278.51 976.56,388.96 995.84,448.15 " fill="none" id="Being-backto-Human" style="stroke:#181818;stroke-width:1.0;"/><polygon fill="none" points="849.89,189.72,859.7469,205.9324,867.503,196.7757,849.89,189.72" style="stroke:#181818;stroke-width:1.0;"/></g><!--reverse link Mortal to Human--><g id="link_Mortal_Human"><path d="M852.551,468.8711 C894.261,474.2711 922.52,477.93 956.68,482.35 " fill="none" id="Mortal-backto-Human" style="stroke:#181818;stroke-width:1.0;stroke-dasharray:7.0,7.0;"/><polygon fill="none" points="834.7,466.56,851.7807,474.8214,853.3214,462.9207,834.7,466.56" style="stroke:#181818;stroke-width:1.0;"/></g><!--reverse link Being to God--><g id="link_Being_God"><path d="M884.3454,168.4985 C904.7554,175.9985 908.3,178.36 927,188 C945.82,197.7 964.95,211.63 979.88,223.63 " fill="none" id="Being-backto-God" style="stroke:#181818;stroke-width:1.0;"/><polygon fill="none" points="867.45,162.29,882.2759,174.1303,886.4149,162.8667,867.45,162.29" style="stroke:#181818;stroke-width:1.0;"/></g><!--reverse link MegaWrath to God--><g id="link_MegaWrath_God"><path d="M801.93,248 C860.04,248 932.37,248 978.59,248 " fill="none" id="MegaWrath-backto-God" style="stroke:#181818;stroke-width:1.0;stroke-dasharray:7.0,7.0;"/><polygon fill="none" points="783.93,248,801.93,254,801.93,242,783.93,248" style="stroke:#181818;stroke-width:1.0;"/></g><!--reverse link Human to Hero--><g id="link_Human_Hero"><path d="M1079.4649,486.132 C1097.9849,485.372 1101.39,485.23 1121.87,484.38 " fill="none" id="Human-backto-Hero" style="stroke:#181818;stroke-width:1.0;"/><polygon fill="none" points="1061.48,486.87,1079.7109,492.1269,1079.2188,480.137,1061.48,486.87" style="stroke:#181818;stroke-width:1.0;"/></g><!--reverse link God to SemiGod--><g id="link_God_SemiGod"><path d="M1055.692,269.8995 C1077.642,280.4195 1092.5,287.55 1121.76,301.57 " fill="none" id="God-backto-SemiGod" style="stroke:#181818;stroke-width:1.0;"/><polygon fill="none" points="1039.46,262.12,1053.0988,275.3102,1058.2852,264.4889,1039.46,262.12" style="stroke:#181818;stroke-width:1.0;"/></g><!--reverse link Wrath to SemiGod--><g id="link_Wrath_SemiGod"><path d="M511.829,300.3065 C644.829,308.1265 964.91,326.94 1121.75,336.16 " fill="none" id="Wrath-backto-SemiGod" style="stroke:#181818;stroke-width:1.0;stroke-dasharray:7.0,7.0;"/><polygon fill="none" points="493.86,299.25,511.4768,306.2962,512.1811,294.3169,493.86,299.25" style="stroke:#181818;stroke-width:1.0;"/></g><!--reverse link Mortal to SemiGod--><g id="link_Mortal_SemiGod"><path d="M852.4178,424.0717 C938.8578,403.6517 1042.23,379.22 1121.78,360.42 " fill="none" id="Mortal-backto-SemiGod" style="stroke:#181818;stroke-width:1.0;stroke-dasharray:7.0,7.0;"/><polygon fill="none" points="834.9,428.21,853.7973,429.911,851.0384,418.2324,834.9,428.21" style="stroke:#181818;stroke-width:1.0;"/></g><!--reverse link Describable to Deed--><g id="link_Describable_Deed"><path d="M514.8155,73.7835 C571.4855,39.7035 644.14,6 728,6 C728,6 728,6 1435.5,6 C1522.58,6 1603.31,76.94 1647.32,124.05 " fill="none" id="Describable-backto-Deed" style="stroke:#181818;stroke-width:1.0;stroke-dasharray:7.0,7.0;"/><polygon fill="none" points="499.39,83.06,517.9077,78.9253,511.7233,68.6416,499.39,83.06" style="stroke:#181818;stroke-width:1.0;"/></g><!--reverse link Litany to Legend--><g id="link_Litany_Legend"><path d="M267.1135,571.6542 C323.8035,578.1342 374.57,582 436.5,582 C436.5,582 436.5,582 1206,582 C1291.09,582 1368.7,507.76 1407.49,463.39 " fill="none" id="Litany-backto-Legend" style="stroke:#181818;stroke-width:1.0;stroke-dasharray:7.0,7.0;"/><polygon fill="none" points="249.23,569.61,266.4321,577.6154,267.7949,565.693,249.23,569.61" style="stroke:#181818;stroke-width:1.0;"/></g><!--reverse link Hero to Legend--><g id="link_Hero_Legend"><path codeLine="71" d="M1300.1698,460.3021 C1322.8098,455.3221 1335.52,452.53 1357.75,447.64 " fill="none" id="Hero-backto-Legend" style="stroke:#181818;stroke-width:1.0;"/><polygon fill="#181818" points="1288.45,462.88,1295.1692,465.4976,1300.1698,460.3021,1293.4506,457.6844,1288.45,462.88" style="stroke:#181818;stroke-width:1.0;"/><text fill="#000000" font-family="sans-serif" font-size="13" lengthAdjust="spacing" textLength="8" x="1319" y="450.5684">1</text></g><!--reverse link SemiGod to Legend--><g id="link_SemiGod_Legend"><path codeLine="72" d="M1299.6096,378.0316 C1322.2496,386.9816 1335.52,392.23 1357.75,401.03 " fill="none" id="SemiGod-backto-Legend" style="stroke:#181818;stroke-width:1.0;"/><polygon fill="#181818" points="1288.45,373.62,1292.5593,379.5457,1299.6096,378.0316,1295.5004,372.1059,1288.45,373.62" style="stroke:#181818;stroke-width:1.0;"/><text fill="#000000" font-family="sans-serif" font-size="13" lengthAdjust="spacing" textLength="8" x="1319" y="382.5684">1</text></g><!--reverse link Legend to Deed--><g id="link_Legend_Deed"><path codeLine="73" d="M1473.8864,389.5782 C1518.8764,341.0282 1595.26,258.59 1644.26,205.72 " fill="none" id="Legend-backto-Deed" style="stroke:#181818;stroke-width:1.0;"/><polygon fill="none" points="1465.73,398.38,1472.7422,396.6979,1473.8864,389.5782,1466.8743,391.2603,1465.73,398.38" style="stroke:#181818;stroke-width:1.0;"/><text fill="#000000" font-family="sans-serif" font-size="13" lengthAdjust="spacing" textLength="34" x="1542" y="279.5684">many</text></g><!--reverse link Litany to Describable--><g id="link_Litany_Describable"><path codeLine="74" d="M169.6101,494.1534 C211.7401,433.2934 279.4,336.29 345,246 C364.84,218.69 387.62,188.32 405.48,164.71 " fill="none" id="Litany-backto-Describable" style="stroke:#181818;stroke-width:1.0;"/><polygon fill="none" points="162.78,504.02,169.4839,501.3634,169.6101,494.1534,162.9062,496.81,162.78,504.02" style="stroke:#181818;stroke-width:1.0;"/><text fill="#000000" font-family="sans-serif" font-size="13" lengthAdjust="spacing" textLength="34" x="280" y="292.5684">many</text></g><!--reverse link Being to Gender--><g id="link_Being_Gender"><path codeLine="75" d="M879.3502,115.4005 C916.0102,113.2905 940.84,111.86 967.6,110.32 " fill="none" id="Being-backto-Gender" style="stroke:#181818;stroke-width:1.0;"/><polygon fill="#181818" points="867.37,116.09,873.5899,119.7386,879.3502,115.4005,873.1302,111.7518,867.37,116.09" style="stroke:#181818;stroke-width:1.0;"/><text fill="#000000" font-family="sans-serif" font-size="13" lengthAdjust="spacing" textLength="28" x="898" y="109.5684">(0,2]</text></g><!--SRC=[dLJBRjim4BphAnO-EQqD93qAXe4OpkDWzn83FVL0YHk501y6oQGDWlnxI2v5qtRGelL1fdQMCxCFIEAZ1s_0Yk790nSMUo-CRXhKpmhkK7EqyDP0-6slDpVfS7kJZkzD8xH7-yXwX3MwtegETH9p-bSOq7zd2gSNBJnuA_HmY5FwFafLy17ZrbZFP4ss4jO_nVGrymWr6JkFkp7EuvEmaF9Y18TZeHys91ITNpQJnSmJHpWmIiRVFdJ6bQj7QHlXcNvTx4fMrPjbNS-rbAbuz8lTCeSPvrFXKRMm6pqGO56P5qnOREhOiyeewvothFVGI-OSh3308DHUeaBjtISZceEkg7A87qPpWWnf6xPitq9uB6WvPh0oHYBJooOx5MxBP9fwHqY9tw8wGO9jSdl_h9Wk7JlpVhGCyouk0esK0jMC3vHtXl-1iCpohJA1rfGhv2WhIep5jx19_rHGc22zne8oKAWUK8dQG3nNyabwzYzb_P-DDIB_omwShy1d6r0OIQ7cf7qVwNXGTBJKKNmPRwQ-VfdFnyijJAucpTYYCo2_c11F_aCqZE8r0AH4mA6GWjEK4s7-SWLeUZdxzdFIV000]--></g></svg>