<?xml version="1.0" encoding="us-ascii" standalone="no"?><svg xmlns="http://www.w3.org/2000/svg" xmlns:xlink="http://www.w3.org/1999/xlink" contentStyleType="text/css" height="1214px" preserveAspectRatio="none" style="width:1536px;height:1214px;background:#FFFFFF;" version="1.1" viewBox="-153.6 -121.4 1843.2 1456.8" width="1536px" zoomAndPan="magnify"><defs/><g><!--class Gender--><g id="elem_Gender"><rect codeLine="2" fill="#F1F1F1" height="80.9766" id="Gender" rx="2.5" ry="2.5" style="stroke:#181818;stroke-width:0.5;" width="82" x="727.5" y="7"/><ellipse cx="742.5" cy="23" fill="#EB937F" rx="11" ry="11" style="stroke:#181818;stroke-width:1.0;"/><path d="M746.1143,29.5 L738.3945,29.5 L738.3945,17.1069 L746.1143,17.1069 L746.1143,19.2651 L740.8433,19.2651 L740.8433,21.938 L745.6162,21.938 L745.6162,24.0962 L740.8433,24.0962 L740.8433,27.3418 L746.1143,27.3418 Z " fill="#000000"/><text fill="#000000" font-family="sans-serif" font-size="14" lengthAdjust="spacing" textLength="50" x="756.5" y="28.291">Gender</text><line style="stroke:#181818;stroke-width:0.5;" x1="728.5" x2="808.5" y1="39" y2="39"/><text fill="#000000" font-family="sans-serif" font-size="14" lengthAdjust="spacing" textLength="37" x="733.5" y="56.5352">MALE</text><text fill="#000000" font-family="sans-serif" font-size="14" lengthAdjust="spacing" textLength="53" x="733.5" y="73.0234">FEMALE</text><line style="stroke:#181818;stroke-width:0.5;" x1="728.5" x2="808.5" y1="79.9766" y2="79.9766"/></g><!--class Describable--><g id="elem_Describable"><rect codeLine="7" fill="#F1F1F1" height="80.9766" id="Describable" rx="2.5" ry="2.5" style="stroke:#181818;stroke-width:0.5;" width="167" x="253" y="7"/><ellipse cx="292.75" cy="23" fill="#B4A7E5" rx="11" ry="11" style="stroke:#181818;stroke-width:1.0;"/><path d="M289.1777,19.2651 L289.1777,17.1069 L296.5571,17.1069 L296.5571,19.2651 L294.0918,19.2651 L294.0918,27.3418 L296.5571,27.3418 L296.5571,29.5 L289.1777,29.5 L289.1777,27.3418 L291.6431,27.3418 L291.6431,19.2651 Z " fill="#000000"/><text fill="#000000" font-family="sans-serif" font-size="14" font-style="italic" lengthAdjust="spacing" textLength="80" x="312.25" y="28.291">Describable</text><line style="stroke:#181818;stroke-width:0.5;" x1="254" x2="419" y1="39" y2="39"/><line style="stroke:#181818;stroke-width:0.5;" x1="254" x2="419" y1="47" y2="47"/><text fill="#000000" font-family="sans-serif" font-size="14" lengthAdjust="spacing" textLength="116" x="259" y="64.5352">String getName()</text><text fill="#000000" font-family="sans-serif" font-size="14" lengthAdjust="spacing" textLength="155" x="259" y="81.0234">String getDescription()</text></g><!--class Mortal--><g id="elem_Mortal"><rect codeLine="12" fill="#F1F1F1" height="97.4648" id="Mortal" rx="2.5" ry="2.5" style="stroke:#181818;stroke-width:0.5;" width="228" x="228.5" y="198.44"/><ellipse cx="316.25" cy="214.44" fill="#B4A7E5" rx="11" ry="11" style="stroke:#181818;stroke-width:1.0;"/><path d="M312.6777,210.7051 L312.6777,208.5469 L320.0571,208.5469 L320.0571,210.7051 L317.5918,210.7051 L317.5918,218.7818 L320.0571,218.7818 L320.0571,220.94 L312.6777,220.94 L312.6777,218.7818 L315.1431,218.7818 L315.1431,210.7051 Z " fill="#000000"/><text fill="#000000" font-family="sans-serif" font-size="14" font-style="italic" lengthAdjust="spacing" textLength="44" x="336.75" y="219.731">Mortal</text><line style="stroke:#181818;stroke-width:0.5;" x1="229.5" x2="455.5" y1="230.44" y2="230.44"/><line style="stroke:#181818;stroke-width:0.5;" x1="229.5" x2="455.5" y1="238.44" y2="238.44"/><text fill="#000000" font-family="sans-serif" font-size="14" lengthAdjust="spacing" textLength="134" x="234.5" y="255.9752">LocalDate getBirth()</text><text fill="#000000" font-family="sans-serif" font-size="14" lengthAdjust="spacing" textLength="142" x="234.5" y="272.4634">LocalDate getDeath()</text><text fill="#000000" font-family="sans-serif" font-size="14" lengthAdjust="spacing" textLength="216" x="234.5" y="288.9517">void setDeath(death: LocalDate)</text></g><!--class Wrath--><g id="elem_Wrath"><rect codeLine="18" fill="#F1F1F1" height="64.4883" id="Wrath" rx="2.5" ry="2.5" style="stroke:#181818;stroke-width:0.5;" width="94" x="1324.5" y="15.24"/><ellipse cx="1349.4" cy="31.24" fill="#B4A7E5" rx="11" ry="11" style="stroke:#181818;stroke-width:1.0;"/><path d="M1345.8277,27.5051 L1345.8277,25.3469 L1353.2071,25.3469 L1353.2071,27.5051 L1350.7418,27.5051 L1350.7418,35.5818 L1353.2071,35.5818 L1353.2071,37.74 L1345.8277,37.74 L1345.8277,35.5818 L1348.2931,35.5818 L1348.2931,27.5051 Z " fill="#000000"/><text fill="#000000" font-family="sans-serif" font-size="14" font-style="italic" lengthAdjust="spacing" textLength="40" x="1365.6" y="36.531">Wrath</text><line style="stroke:#181818;stroke-width:0.5;" x1="1325.5" x2="1417.5" y1="47.24" y2="47.24"/><line style="stroke:#181818;stroke-width:0.5;" x1="1325.5" x2="1417.5" y1="55.24" y2="55.24"/><text fill="#000000" font-family="sans-serif" font-size="14" lengthAdjust="spacing" textLength="82" x="1330.5" y="72.7752">void wrath()</text></g><!--class TerribleWrath--><g id="elem_TerribleWrath"><rect codeLine="22" fill="#F1F1F1" height="64.4883" id="TerribleWrath" rx="2.5" ry="2.5" style="stroke:#181818;stroke-width:0.5;" width="126" x="1233.5" y="214.93"/><ellipse cx="1248.5" cy="230.93" fill="#B4A7E5" rx="11" ry="11" style="stroke:#181818;stroke-width:1.0;"/><path d="M1244.9277,227.1951 L1244.9277,225.0369 L1252.3071,225.0369 L1252.3071,227.1951 L1249.8418,227.1951 L1249.8418,235.2718 L1252.3071,235.2718 L1252.3071,237.43 L1244.9277,237.43 L1244.9277,235.2718 L1247.3931,235.2718 L1247.3931,227.1951 Z " fill="#000000"/><text fill="#000000" font-family="sans-serif" font-size="14" font-style="italic" lengthAdjust="spacing" textLength="94" x="1262.5" y="236.221">TerribleWrath</text><line style="stroke:#181818;stroke-width:0.5;" x1="1234.5" x2="1358.5" y1="246.93" y2="246.93"/><line style="stroke:#181818;stroke-width:0.5;" x1="1234.5" x2="1358.5" y1="254.93" y2="254.93"/><text fill="#000000" font-family="sans-serif" font-size="14" lengthAdjust="spacing" textLength="82" x="1239.5" y="272.4652">void wrath()</text></g><!--class OrdinaryWrath--><g id="elem_OrdinaryWrath"><rect codeLine="26" fill="#F1F1F1" height="64.4883" id="OrdinaryWrath" rx="2.5" ry="2.5" style="stroke:#181818;stroke-width:0.5;" width="132" x="1397.5" y="375.37"/><ellipse cx="1412.5" cy="391.37" fill="#B4A7E5" rx="11" ry="11" style="stroke:#181818;stroke-width:1.0;"/><path d="M1408.9277,387.6351 L1408.9277,385.4769 L1416.3071,385.4769 L1416.3071,387.6351 L1413.8418,387.6351 L1413.8418,395.7118 L1416.3071,395.7118 L1416.3071,397.87 L1408.9277,397.87 L1408.9277,395.7118 L1411.3931,395.7118 L1411.3931,387.6351 Z " fill="#000000"/><text fill="#000000" font-family="sans-serif" font-size="14" font-style="italic" lengthAdjust="spacing" textLength="100" x="1426.5" y="396.661">OrdinaryWrath</text><line style="stroke:#181818;stroke-width:0.5;" x1="1398.5" x2="1528.5" y1="407.37" y2="407.37"/><line style="stroke:#181818;stroke-width:0.5;" x1="1398.5" x2="1528.5" y1="415.37" y2="415.37"/><text fill="#000000" font-family="sans-serif" font-size="14" lengthAdjust="spacing" textLength="82" x="1403.5" y="432.9052">void wrath()</text></g><!--class IDeeds--><g id="elem_IDeeds"><rect codeLine="30" fill="#F1F1F1" height="130.4414" id="IDeeds" rx="2.5" ry="2.5" style="stroke:#181818;stroke-width:0.5;" width="290" x="694.5" y="478.1"/><ellipse cx="812.25" cy="494.1" fill="#B4A7E5" rx="11" ry="11" style="stroke:#181818;stroke-width:1.0;"/><path d="M808.6777,490.3651 L808.6777,488.2069 L816.0571,488.2069 L816.0571,490.3651 L813.5918,490.3651 L813.5918,498.4418 L816.0571,498.4418 L816.0571,500.6 L808.6777,500.6 L808.6777,498.4418 L811.1431,498.4418 L811.1431,490.3651 Z " fill="#000000"/><text fill="#000000" font-family="sans-serif" font-size="14" font-style="italic" lengthAdjust="spacing" textLength="46" x="832.75" y="499.391">IDeeds</text><line style="stroke:#181818;stroke-width:0.5;" x1="695.5" x2="983.5" y1="510.1" y2="510.1"/><line style="stroke:#181818;stroke-width:0.5;" x1="695.5" x2="983.5" y1="518.1" y2="518.1"/><text fill="#000000" font-family="sans-serif" font-size="14" lengthAdjust="spacing" textLength="170" x="700.5" y="535.6352">Set&lt;Deed&gt; getDeedSet()</text><text fill="#000000" font-family="sans-serif" font-size="14" lengthAdjust="spacing" textLength="177" x="700.5" y="552.1234">void addDeed(Deed deed)</text><text fill="#000000" font-family="sans-serif" font-size="14" lengthAdjust="spacing" textLength="278" x="700.5" y="568.6117">void addDeeds(Iterator&lt;Deed&gt; deedSet)</text><text fill="#000000" font-family="sans-serif" font-size="14" lengthAdjust="spacing" textLength="247" x="700.5" y="585.1">void removeDeed(String deedName)</text><text fill="#000000" font-family="sans-serif" font-size="14" lengthAdjust="spacing" textLength="207" x="700.5" y="601.5883">static void print(IDeeds deeds)</text></g><!--class Being--><g id="elem_Being"><rect codeLine="104" fill="#F1F1F1" height="196.3945" id="Being" rx="2.5" ry="2.5" style="stroke:#181818;stroke-width:0.5;" width="553" x="492" y="148.97"/><ellipse cx="745.25" cy="164.97" fill="#ADD1B2" rx="11" ry="11" style="stroke:#181818;stroke-width:1.0;"/><path d="M747.7231,171.1131 Q747.1421,171.4119 746.5029,171.5613 Q745.8638,171.7107 745.1582,171.7107 Q742.6514,171.7107 741.3315,170.0589 Q740.0117,168.407 740.0117,165.2859 Q740.0117,162.1565 741.3315,160.5047 Q742.6514,158.8528 745.1582,158.8528 Q745.8638,158.8528 746.5112,159.0022 Q747.1587,159.1516 747.7231,159.4505 L747.7231,162.1731 Q747.0923,161.5921 746.4988,161.3223 Q745.9053,161.0525 745.2744,161.0525 Q743.9297,161.0525 743.2449,162.1192 Q742.5601,163.1858 742.5601,165.2859 Q742.5601,167.3777 743.2449,168.4444 Q743.9297,169.511 745.2744,169.511 Q745.9053,169.511 746.4988,169.2412 Q747.0923,168.9715 747.7231,168.3904 Z " fill="#000000"/><text fill="#000000" font-family="sans-serif" font-size="14" lengthAdjust="spacing" textLength="38" x="765.75" y="170.261">Being</text><line style="stroke:#181818;stroke-width:0.5;" x1="493" x2="1044" y1="180.97" y2="180.97"/><rect fill="none" height="6" style="stroke:#C82930;stroke-width:1.0;" width="6" x="500" y="191.7141"/><text fill="#000000" font-family="sans-serif" font-size="14" lengthAdjust="spacing" textLength="87" x="512" y="198.5052">name: String</text><rect fill="none" height="6" style="stroke:#C82930;stroke-width:1.0;" width="6" x="500" y="208.2024"/><text fill="#000000" font-family="sans-serif" font-size="14" lengthAdjust="spacing" textLength="126" x="512" y="214.9934">description: String</text><rect fill="none" height="6" style="stroke:#C82930;stroke-width:1.0;" width="6" x="500" y="224.6907"/><text fill="#000000" font-family="sans-serif" font-size="14" lengthAdjust="spacing" textLength="250" x="512" y="231.4817">genderMap: Map&lt;Gender, Boolean&gt;</text><line style="stroke:#181818;stroke-width:0.5;" x1="493" x2="1044" y1="238.4348" y2="238.4348"/><ellipse cx="503" cy="252.179" fill="#84BE84" rx="3" ry="3" style="stroke:#038048;stroke-width:1.0;"/><text fill="#000000" font-family="sans-serif" font-size="14" lengthAdjust="spacing" textLength="384" x="512" y="255.97">Being(name: String, description: String, gender: Gender)</text><ellipse cx="503" cy="268.6673" fill="#84BE84" rx="3" ry="3" style="stroke:#038048;stroke-width:1.0;"/><text fill="#000000" font-family="sans-serif" font-size="14" lengthAdjust="spacing" textLength="527" x="512" y="272.4583">Being(name: String, description: String, genderMap: Map&lt;Gender, Boolean&gt;)</text><ellipse cx="503" cy="285.1555" fill="#84BE84" rx="3" ry="3" style="stroke:#038048;stroke-width:1.0;"/><text fill="#000000" font-family="sans-serif" font-size="14" lengthAdjust="spacing" textLength="120" x="512" y="288.9466">getName(): String</text><ellipse cx="503" cy="301.6438" fill="#84BE84" rx="3" ry="3" style="stroke:#038048;stroke-width:1.0;"/><text fill="#000000" font-family="sans-serif" font-size="14" lengthAdjust="spacing" textLength="159" x="512" y="305.4348">getDescription(): String</text><ellipse cx="503" cy="318.1321" fill="#84BE84" rx="3" ry="3" style="stroke:#038048;stroke-width:1.0;"/><text fill="#000000" font-family="sans-serif" font-size="14" lengthAdjust="spacing" textLength="117" x="512" y="321.9231">isMale(): boolean</text><ellipse cx="503" cy="334.6204" fill="#84BE84" rx="3" ry="3" style="stroke:#038048;stroke-width:1.0;"/><text fill="#000000" font-family="sans-serif" font-size="14" lengthAdjust="spacing" textLength="134" x="512" y="338.4114">isFemale(): boolean</text></g><!--class Human--><g id="elem_Human"><rect codeLine="116" fill="#F1F1F1" height="146.9297" id="Human" rx="2.5" ry="2.5" style="stroke:#181818;stroke-width:0.5;" width="536" x="123.5" y="469.86"/><ellipse cx="362.75" cy="485.86" fill="#ADD1B2" rx="11" ry="11" style="stroke:#181818;stroke-width:1.0;"/><path d="M365.2231,492.0031 Q364.6421,492.3019 364.0029,492.4513 Q363.3638,492.6007 362.6582,492.6007 Q360.1514,492.6007 358.8315,490.9489 Q357.5117,489.297 357.5117,486.1759 Q357.5117,483.0465 358.8315,481.3947 Q360.1514,479.7428 362.6582,479.7428 Q363.3638,479.7428 364.0112,479.8922 Q364.6587,480.0416 365.2231,480.3405 L365.2231,483.0631 Q364.5923,482.4821 363.9988,482.2123 Q363.4053,481.9425 362.7744,481.9425 Q361.4297,481.9425 360.7449,483.0092 Q360.0601,484.0758 360.0601,486.1759 Q360.0601,488.2677 360.7449,489.3344 Q361.4297,490.401 362.7744,490.401 Q363.4053,490.401 363.9988,490.1312 Q364.5923,489.8615 365.2231,489.2804 Z " fill="#000000"/><text fill="#000000" font-family="sans-serif" font-size="14" lengthAdjust="spacing" textLength="49" x="383.25" y="491.151">Human</text><line style="stroke:#181818;stroke-width:0.5;" x1="124.5" x2="658.5" y1="501.86" y2="501.86"/><rect fill="none" height="6" style="stroke:#C82930;stroke-width:1.0;" width="6" x="131.5" y="512.6041"/><text fill="#000000" font-family="sans-serif" font-size="14" lengthAdjust="spacing" textLength="107" x="143.5" y="519.3952">birth: LocalDate</text><rect fill="none" height="6" style="stroke:#C82930;stroke-width:1.0;" width="6" x="131.5" y="529.0924"/><text fill="#000000" font-family="sans-serif" font-size="14" lengthAdjust="spacing" textLength="113" x="143.5" y="535.8834">death: LocalDate</text><line style="stroke:#181818;stroke-width:0.5;" x1="124.5" x2="658.5" y1="542.8366" y2="542.8366"/><ellipse cx="134.5" cy="556.5807" fill="#84BE84" rx="3" ry="3" style="stroke:#038048;stroke-width:1.0;"/><text fill="#000000" font-family="sans-serif" font-size="14" lengthAdjust="spacing" textLength="510" x="143.5" y="560.3717">Human(name: String, description: String, gender: Gender, birth: LocalDate)</text><ellipse cx="134.5" cy="573.069" fill="#84BE84" rx="3" ry="3" style="stroke:#038048;stroke-width:1.0;"/><text fill="#000000" font-family="sans-serif" font-size="14" lengthAdjust="spacing" textLength="138" x="143.5" y="576.86">getBirth(): LocalDate</text><ellipse cx="134.5" cy="589.5573" fill="#84BE84" rx="3" ry="3" style="stroke:#038048;stroke-width:1.0;"/><text fill="#000000" font-family="sans-serif" font-size="14" lengthAdjust="spacing" textLength="146" x="143.5" y="593.3483">getDeath(): LocalDate</text><ellipse cx="134.5" cy="606.0455" fill="#84BE84" rx="3" ry="3" style="stroke:#038048;stroke-width:1.0;"/><text fill="#000000" font-family="sans-serif" font-size="14" lengthAdjust="spacing" textLength="220" x="143.5" y="609.8366">setDeath(death: LocalDate): void</text></g><!--class Hero--><g id="elem_Hero"><rect codeLine="119" fill="#F1F1F1" height="146.9297" id="Hero" rx="2.5" ry="2.5" style="stroke:#181818;stroke-width:0.5;" width="405" x="381" y="686.03"/><ellipse cx="562.75" cy="702.03" fill="#ADD1B2" rx="11" ry="11" style="stroke:#181818;stroke-width:1.0;"/><path d="M565.2231,708.1731 Q564.6421,708.4719 564.0029,708.6213 Q563.3638,708.7707 562.6582,708.7707 Q560.1514,708.7707 558.8315,707.1189 Q557.5117,705.467 557.5117,702.3459 Q557.5117,699.2165 558.8315,697.5647 Q560.1514,695.9128 562.6582,695.9128 Q563.3638,695.9128 564.0112,696.0622 Q564.6587,696.2116 565.2231,696.5105 L565.2231,699.2331 Q564.5923,698.6521 563.9988,698.3823 Q563.4053,698.1125 562.7744,698.1125 Q561.4297,698.1125 560.7449,699.1792 Q560.0601,700.2458 560.0601,702.3459 Q560.0601,704.4377 560.7449,705.5044 Q561.4297,706.571 562.7744,706.571 Q563.4053,706.571 563.9988,706.3012 Q564.5923,706.0315 565.2231,705.4504 Z " fill="#000000"/><text fill="#000000" font-family="sans-serif" font-size="14" lengthAdjust="spacing" textLength="33" x="583.25" y="707.321">Hero</text><line style="stroke:#181818;stroke-width:0.5;" x1="382" x2="785" y1="718.03" y2="718.03"/><rect fill="none" height="6" style="stroke:#C82930;stroke-width:1.0;" width="6" x="389" y="728.7741"/><text fill="#000000" font-family="sans-serif" font-size="14" lengthAdjust="spacing" textLength="91" x="401" y="735.5652">deeds: Deeds</text><line style="stroke:#181818;stroke-width:0.5;" x1="382" x2="785" y1="742.5183" y2="742.5183"/><ellipse cx="392" cy="756.2624" fill="#84BE84" rx="3" ry="3" style="stroke:#038048;stroke-width:1.0;"/><text fill="#000000" font-family="sans-serif" font-size="14" lengthAdjust="spacing" textLength="379" x="401" y="760.0534">Hero(name: String, description: String, birth: LocalDate)</text><ellipse cx="392" cy="772.7507" fill="#84BE84" rx="3" ry="3" style="stroke:#038048;stroke-width:1.0;"/><text fill="#000000" font-family="sans-serif" font-size="14" lengthAdjust="spacing" textLength="174" x="401" y="776.5417">getDeedSet(): Set&lt;Deed&gt;</text><ellipse cx="392" cy="789.239" fill="#84BE84" rx="3" ry="3" style="stroke:#038048;stroke-width:1.0;"/><text fill="#000000" font-family="sans-serif" font-size="14" lengthAdjust="spacing" textLength="278" x="401" y="793.03">addDeeds(Iterator&lt;Deed&gt; iterator): void</text><ellipse cx="392" cy="805.7273" fill="#84BE84" rx="3" ry="3" style="stroke:#038048;stroke-width:1.0;"/><text fill="#000000" font-family="sans-serif" font-size="14" lengthAdjust="spacing" textLength="181" x="401" y="809.5183">addDeed(Deed deed): void</text><ellipse cx="392" cy="822.2155" fill="#84BE84" rx="3" ry="3" style="stroke:#038048;stroke-width:1.0;"/><text fill="#000000" font-family="sans-serif" font-size="14" lengthAdjust="spacing" textLength="251" x="401" y="826.0066">removeDeed(String deedName): void</text></g><!--class SemiGod--><g id="elem_SemiGod"><rect codeLine="118" fill="#F1F1F1" height="163.418" id="SemiGod" rx="2.5" ry="2.5" style="stroke:#181818;stroke-width:0.5;" width="548" x="906.5" y="677.79"/><ellipse cx="1145.75" cy="693.79" fill="#ADD1B2" rx="11" ry="11" style="stroke:#181818;stroke-width:1.0;"/><path d="M1148.2231,699.9331 Q1147.6421,700.2319 1147.0029,700.3813 Q1146.3638,700.5307 1145.6582,700.5307 Q1143.1514,700.5307 1141.8315,698.8789 Q1140.5117,697.227 1140.5117,694.1059 Q1140.5117,690.9765 1141.8315,689.3247 Q1143.1514,687.6728 1145.6582,687.6728 Q1146.3638,687.6728 1147.0112,687.8222 Q1147.6587,687.9716 1148.2231,688.2705 L1148.2231,690.9931 Q1147.5923,690.4121 1146.9988,690.1423 Q1146.4053,689.8725 1145.7744,689.8725 Q1144.4297,689.8725 1143.7449,690.9392 Q1143.0601,692.0058 1143.0601,694.1059 Q1143.0601,696.1977 1143.7449,697.2644 Q1144.4297,698.331 1145.7744,698.331 Q1146.4053,698.331 1146.9988,698.0612 Q1147.5923,697.7915 1148.2231,697.2104 Z " fill="#000000"/><text fill="#000000" font-family="sans-serif" font-size="14" lengthAdjust="spacing" textLength="61" x="1166.25" y="699.081">SemiGod</text><line style="stroke:#181818;stroke-width:0.5;" x1="907.5" x2="1453.5" y1="709.79" y2="709.79"/><rect fill="none" height="6" style="stroke:#C82930;stroke-width:1.0;" width="6" x="914.5" y="720.5341"/><text fill="#000000" font-family="sans-serif" font-size="14" lengthAdjust="spacing" textLength="91" x="926.5" y="727.3252">deeds: Deeds</text><line style="stroke:#181818;stroke-width:0.5;" x1="907.5" x2="1453.5" y1="734.2783" y2="734.2783"/><ellipse cx="917.5" cy="748.0224" fill="#84BE84" rx="3" ry="3" style="stroke:#038048;stroke-width:1.0;"/><text fill="#000000" font-family="sans-serif" font-size="14" lengthAdjust="spacing" textLength="522" x="926.5" y="751.8134">SemiGod(name: String, description: String, gender: Gender, birth: LocalDate)</text><ellipse cx="917.5" cy="764.5107" fill="#84BE84" rx="3" ry="3" style="stroke:#038048;stroke-width:1.0;"/><text fill="#000000" font-family="sans-serif" font-size="14" lengthAdjust="spacing" textLength="174" x="926.5" y="768.3017">getDeedSet(): Set&lt;Deed&gt;</text><ellipse cx="917.5" cy="780.999" fill="#84BE84" rx="3" ry="3" style="stroke:#038048;stroke-width:1.0;"/><text fill="#000000" font-family="sans-serif" font-size="14" lengthAdjust="spacing" textLength="278" x="926.5" y="784.79">addDeeds(Iterator&lt;Deed&gt; iterator): void</text><ellipse cx="917.5" cy="797.4873" fill="#84BE84" rx="3" ry="3" style="stroke:#038048;stroke-width:1.0;"/><text fill="#000000" font-family="sans-serif" font-size="14" lengthAdjust="spacing" textLength="181" x="926.5" y="801.2783">addDeed(Deed deed): void</text><ellipse cx="917.5" cy="813.9755" fill="#84BE84" rx="3" ry="3" style="stroke:#038048;stroke-width:1.0;"/><text fill="#000000" font-family="sans-serif" font-size="14" lengthAdjust="spacing" textLength="251" x="926.5" y="817.7666">removeDeed(String deedName): void</text><ellipse cx="917.5" cy="830.4638" fill="#84BE84" rx="3" ry="3" style="stroke:#038048;stroke-width:1.0;"/><text fill="#000000" font-family="sans-serif" font-size="14" lengthAdjust="spacing" textLength="86" x="926.5" y="834.2548">wrath(): void</text></g><!--class God--><g id="elem_God"><rect codeLine="115" fill="#F1F1F1" height="80.9766" id="God" rx="2.5" ry="2.5" style="stroke:#181818;stroke-width:0.5;" width="400" x="1019.5" y="502.83"/><ellipse cx="1201.25" cy="518.83" fill="#ADD1B2" rx="11" ry="11" style="stroke:#181818;stroke-width:1.0;"/><path d="M1203.7231,524.9731 Q1203.1421,525.2719 1202.5029,525.4213 Q1201.8638,525.5707 1201.1582,525.5707 Q1198.6514,525.5707 1197.3315,523.9189 Q1196.0117,522.267 1196.0117,519.1459 Q1196.0117,516.0165 1197.3315,514.3647 Q1198.6514,512.7128 1201.1582,512.7128 Q1201.8638,512.7128 1202.5112,512.8622 Q1203.1587,513.0116 1203.7231,513.3105 L1203.7231,516.0331 Q1203.0923,515.4521 1202.4988,515.1823 Q1201.9053,514.9125 1201.2744,514.9125 Q1199.9297,514.9125 1199.2449,515.9792 Q1198.5601,517.0458 1198.5601,519.1459 Q1198.5601,521.2377 1199.2449,522.3044 Q1199.9297,523.371 1201.2744,523.371 Q1201.9053,523.371 1202.4988,523.1012 Q1203.0923,522.8315 1203.7231,522.2504 Z " fill="#000000"/><text fill="#000000" font-family="sans-serif" font-size="14" lengthAdjust="spacing" textLength="28" x="1221.75" y="524.121">God</text><line style="stroke:#181818;stroke-width:0.5;" x1="1020.5" x2="1418.5" y1="534.83" y2="534.83"/><line style="stroke:#181818;stroke-width:0.5;" x1="1020.5" x2="1418.5" y1="542.83" y2="542.83"/><ellipse cx="1030.5" cy="556.5741" fill="#84BE84" rx="3" ry="3" style="stroke:#038048;stroke-width:1.0;"/><text fill="#000000" font-family="sans-serif" font-size="14" lengthAdjust="spacing" textLength="374" x="1039.5" y="560.3652">God(name: String, description: String, gender: Gender)</text><ellipse cx="1030.5" cy="573.0624" fill="#84BE84" rx="3" ry="3" style="stroke:#038048;stroke-width:1.0;"/><text fill="#000000" font-family="sans-serif" font-size="14" lengthAdjust="spacing" textLength="86" x="1039.5" y="576.8534">wrath(): void</text></g><!--class Deed--><g id="elem_Deed"><rect codeLine="105" fill="#F1F1F1" height="80.9766" id="Deed" rx="2.5" ry="2.5" style="stroke:#181818;stroke-width:0.5;" width="185" x="7" y="1126.13"/><ellipse cx="77.75" cy="1142.13" fill="#ADD1B2" rx="11" ry="11" style="stroke:#181818;stroke-width:1.0;"/><path d="M80.2231,1148.2731 Q79.6421,1148.5719 79.0029,1148.7213 Q78.3638,1148.8707 77.6582,1148.8707 Q75.1514,1148.8707 73.8315,1147.2189 Q72.5117,1145.567 72.5117,1142.4459 Q72.5117,1139.3165 73.8315,1137.6647 Q75.1514,1136.0128 77.6582,1136.0128 Q78.3638,1136.0128 79.0112,1136.1622 Q79.6587,1136.3116 80.2231,1136.6105 L80.2231,1139.3331 Q79.5923,1138.7521 78.9988,1138.4823 Q78.4053,1138.2125 77.7744,1138.2125 Q76.4297,1138.2125 75.7449,1139.2792 Q75.0601,1140.3458 75.0601,1142.4459 Q75.0601,1144.5377 75.7449,1145.6044 Q76.4297,1146.671 77.7744,1146.671 Q78.4053,1146.671 78.9988,1146.4012 Q79.5923,1146.1315 80.2231,1145.5504 Z " fill="#000000"/><text fill="#000000" font-family="sans-serif" font-size="14" lengthAdjust="spacing" textLength="35" x="98.25" y="1147.421">Deed</text><line style="stroke:#181818;stroke-width:0.5;" x1="8" x2="191" y1="1158.13" y2="1158.13"/><line style="stroke:#181818;stroke-width:0.5;" x1="8" x2="191" y1="1166.13" y2="1166.13"/><ellipse cx="18" cy="1179.8741" fill="#84BE84" rx="3" ry="3" style="stroke:#038048;stroke-width:1.0;"/><text fill="#000000" font-family="sans-serif" font-size="14" lengthAdjust="spacing" textLength="120" x="27" y="1183.6652">getName(): String</text><ellipse cx="18" cy="1196.3624" fill="#84BE84" rx="3" ry="3" style="stroke:#038048;stroke-width:1.0;"/><text fill="#000000" font-family="sans-serif" font-size="14" lengthAdjust="spacing" textLength="159" x="27" y="1200.1534">getDescription(): String</text></g><!--class Deeds--><g id="elem_Deeds"><rect codeLine="100" fill="#F1F1F1" height="146.9297" id="Deeds" rx="2.5" ry="2.5" style="stroke:#181818;stroke-width:0.5;" width="338" x="596.5" y="902.2"/><ellipse cx="740.25" cy="918.2" fill="#ADD1B2" rx="11" ry="11" style="stroke:#181818;stroke-width:1.0;"/><path d="M742.7231,924.3431 Q742.1421,924.6419 741.5029,924.7913 Q740.8638,924.9407 740.1582,924.9407 Q737.6514,924.9407 736.3315,923.2889 Q735.0117,921.637 735.0117,918.5159 Q735.0117,915.3865 736.3315,913.7347 Q737.6514,912.0828 740.1582,912.0828 Q740.8638,912.0828 741.5112,912.2322 Q742.1587,912.3816 742.7231,912.6805 L742.7231,915.4031 Q742.0923,914.8221 741.4988,914.5523 Q740.9053,914.2825 740.2744,914.2825 Q738.9297,914.2825 738.2449,915.3492 Q737.5601,916.4158 737.5601,918.5159 Q737.5601,920.6077 738.2449,921.6744 Q738.9297,922.741 740.2744,922.741 Q740.9053,922.741 741.4988,922.4712 Q742.0923,922.2015 742.7231,921.6204 Z " fill="#000000"/><text fill="#000000" font-family="sans-serif" font-size="14" lengthAdjust="spacing" textLength="42" x="760.75" y="923.491">Deeds</text><line style="stroke:#181818;stroke-width:0.5;" x1="597.5" x2="933.5" y1="934.2" y2="934.2"/><rect fill="none" height="6" style="stroke:#C82930;stroke-width:1.0;" width="6" x="604.5" y="944.9441"/><text fill="#000000" font-family="sans-serif" font-size="14" lengthAdjust="spacing" textLength="141" x="616.5" y="951.7352">deedSet: Set&lt;Deed&gt;</text><line style="stroke:#181818;stroke-width:0.5;" x1="597.5" x2="933.5" y1="958.6883" y2="958.6883"/><ellipse cx="607.5" cy="972.4324" fill="#84BE84" rx="3" ry="3" style="stroke:#038048;stroke-width:1.0;"/><text fill="#000000" font-family="sans-serif" font-size="14" lengthAdjust="spacing" textLength="52" x="616.5" y="976.2234">Deeds()</text><ellipse cx="607.5" cy="988.9207" fill="#84BE84" rx="3" ry="3" style="stroke:#038048;stroke-width:1.0;"/><text fill="#000000" font-family="sans-serif" font-size="14" lengthAdjust="spacing" textLength="174" x="616.5" y="992.7117">getDeedSet(): Set&lt;Deed&gt;</text><ellipse cx="607.5" cy="1005.409" fill="#84BE84" rx="3" ry="3" style="stroke:#038048;stroke-width:1.0;"/><text fill="#000000" font-family="sans-serif" font-size="14" lengthAdjust="spacing" textLength="181" x="616.5" y="1009.2">addDeed(Deed deed): void</text><ellipse cx="607.5" cy="1021.8973" fill="#84BE84" rx="3" ry="3" style="stroke:#038048;stroke-width:1.0;"/><text fill="#000000" font-family="sans-serif" font-size="14" lengthAdjust="spacing" textLength="312" x="616.5" y="1025.6883">addDeeds(Iterator&lt;Deed&gt; deedIterator): void</text><ellipse cx="607.5" cy="1038.3855" fill="#84BE84" rx="3" ry="3" style="stroke:#038048;stroke-width:1.0;"/><text fill="#000000" font-family="sans-serif" font-size="14" lengthAdjust="spacing" textLength="251" x="616.5" y="1042.1766">removeDeed(String deedName): void</text></g><!--reverse link Wrath to TerribleWrath--><g id="link_Wrath_TerribleWrath"><path codeLine="97" d="M1353.2324,96.6385 C1339.2224,133.5485 1322.48,177.68 1308.45,214.67 " fill="none" id="Wrath-backto-TerribleWrath" style="stroke:#181818;stroke-width:1.0;"/><polygon fill="none" points="1359.62,79.81,1347.6229,94.5093,1358.8419,98.7677,1359.62,79.81" style="stroke:#181818;stroke-width:1.0;"/></g><!--reverse link Wrath to OrdinaryWrath--><g id="link_Wrath_OrdinaryWrath"><path codeLine="98" d="M1384.0586,97.3839 C1401.4886,165.2339 1437.96,307.19 1455.4,375.09 " fill="none" id="Wrath-backto-OrdinaryWrath" style="stroke:#181818;stroke-width:1.0;"/><polygon fill="none" points="1379.58,79.95,1378.2473,98.8768,1389.8699,95.8911,1379.58,79.95" style="stroke:#181818;stroke-width:1.0;"/></g><!--reverse link IDeeds to Deeds--><g id="link_IDeeds_Deeds"><path d="M833.0567,626.712 C827.7867,687.162 819.49,761.94 803.5,841.2 C799.5,861.04 794.03,882.23 788.49,901.75 " fill="none" id="IDeeds-backto-Deeds" style="stroke:#181818;stroke-width:1.0;stroke-dasharray:7.0,7.0;"/><polygon fill="none" points="834.62,608.78,827.0794,626.1909,839.034,627.2331,834.62,608.78" style="stroke:#181818;stroke-width:1.0;"/></g><!--reverse link IDeeds to Hero--><g id="link_IDeeds_Hero"><path d="M748.5339,620.4195 C719.5339,644.6795 700.18,660.88 670.35,685.83 " fill="none" id="IDeeds-backto-Hero" style="stroke:#181818;stroke-width:1.0;stroke-dasharray:7.0,7.0;"/><polygon fill="none" points="762.34,608.87,744.6841,615.8175,752.3837,625.0216,762.34,608.87" style="stroke:#181818;stroke-width:1.0;"/></g><!--reverse link IDeeds to SemiGod--><g id="link_IDeeds_SemiGod"><path d="M957.512,618.4451 C991.832,640.0051 1015.28,654.72 1051.34,677.38 " fill="none" id="IDeeds-backto-SemiGod" style="stroke:#181818;stroke-width:1.0;stroke-dasharray:7.0,7.0;"/><polygon fill="none" points="942.27,608.87,954.3203,623.5257,960.7037,613.3644,942.27,608.87" style="stroke:#181818;stroke-width:1.0;"/></g><!--reverse link Mortal to Human--><g id="link_Mortal_Human"><path d="M353.4404,313.8449 C361.2704,360.8049 370.34,415.27 379.35,469.37 " fill="none" id="Mortal-backto-Human" style="stroke:#181818;stroke-width:1.0;stroke-dasharray:7.0,7.0;"/><polygon fill="none" points="350.48,296.09,347.5221,314.8317,359.3587,312.8581,350.48,296.09" style="stroke:#181818;stroke-width:1.0;"/></g><!--reverse link Describable to Being--><g id="link_Describable_Being"><path d="M436.6787,94.3278 C475.5687,112.1178 507.38,126.68 555.37,148.64 " fill="none" id="Describable-backto-Being" style="stroke:#181818;stroke-width:1.0;stroke-dasharray:7.0,7.0;"/><polygon fill="none" points="420.31,86.84,434.1828,99.784,439.1746,88.8715,420.31,86.84" style="stroke:#181818;stroke-width:1.0;"/></g><!--reverse link Describable to Deed--><g id="link_Describable_Deed"><path d="M235.7365,78.09 C157.7665,105.76 70.5,153.97 70.5,246.17 C70.5,246.17 70.5,246.17 70.5,976.67 C70.5,1028.61 81.34,1087.66 89.76,1125.72 " fill="none" id="Describable-backto-Deed" style="stroke:#181818;stroke-width:1.0;stroke-dasharray:7.0,7.0;"/><polygon fill="none" points="252.7,72.07,233.7299,72.4355,237.7432,83.7445,252.7,72.07" style="stroke:#181818;stroke-width:1.0;"/></g><!--reverse link OrdinaryWrath to SemiGod--><g id="link_OrdinaryWrath_SemiGod"><path d="M1469.6809,458.1417 C1474.0209,501.7917 1473.77,563.27 1437.5,616.79 C1421.49,640.41 1400.19,660.47 1376.68,677.41 " fill="none" id="OrdinaryWrath-backto-SemiGod" style="stroke:#181818;stroke-width:1.0;stroke-dasharray:7.0,7.0;"/><polygon fill="none" points="1467.9,440.23,1463.7103,458.7353,1475.6515,457.548,1467.9,440.23" style="stroke:#181818;stroke-width:1.0;"/></g><!--reverse link TerribleWrath to God--><g id="link_TerribleWrath_God"><path d="M1283.7025,297.0635 C1269.5825,351.0135 1245.34,443.6 1229.87,502.69 " fill="none" id="TerribleWrath-backto-God" style="stroke:#181818;stroke-width:1.0;stroke-dasharray:7.0,7.0;"/><polygon fill="none" points="1288.26,279.65,1277.898,295.5443,1289.507,298.5826,1288.26,279.65" style="stroke:#181818;stroke-width:1.0;"/></g><!--reverse link Deeds to Deed--><g id="link_Deeds_Deed"><path codeLine="109" d="M584.6057,1027.9954 C456.2757,1064.4054 296.33,1109.78 192.11,1139.35 " fill="none" id="Deeds-backto-Deed" style="stroke:#181818;stroke-width:1.0;"/><polygon fill="#181818" points="596.15,1024.72,589.286,1022.5096,584.6057,1027.9954,591.4696,1030.2058,596.15,1024.72" style="stroke:#181818;stroke-width:1.0;"/><text fill="#000000" font-family="sans-serif" font-size="13" lengthAdjust="spacing" textLength="54" x="393.5" y="1092.6984">contains</text><text fill="#000000" font-family="sans-serif" font-size="13" lengthAdjust="spacing" textLength="8" x="580.2951" y="1024.1784">1</text><text fill="#000000" font-family="sans-serif" font-size="13" lengthAdjust="spacing" textLength="34" x="200.1595" y="1134.3765">many</text></g><!--link Gender to Being--><g id="link_Gender_Being"><path codeLine="111" d="M768.5,88.01 C768.5,105.59 768.5,127.14 768.5,148.61 " fill="none" id="Gender-Being" style="stroke:#181818;stroke-width:1.0;"/></g><!--reverse link Hero to Deeds--><g id="link_Hero_Deeds"><path codeLine="112" d="M653.1394,842.4453 C671.9994,864.6453 684.95,879.88 703.8,902.06 " fill="none" id="Hero-backto-Deeds" style="stroke:#181818;stroke-width:1.0;"/><polygon fill="#181818" points="645.37,833.3,646.2063,840.4624,653.1394,842.4453,652.3031,835.2829,645.37,833.3" style="stroke:#181818;stroke-width:1.0;"/></g><!--reverse link SemiGod to Deeds--><g id="link_SemiGod_Deeds"><path codeLine="113" d="M1012.6462,847.1231 C974.3362,866.8931 944.25,882.42 906.73,901.78 " fill="none" id="SemiGod-backto-Deeds" style="stroke:#181818;stroke-width:1.0;"/><polygon fill="#181818" points="1023.31,841.62,1016.1438,840.8169,1012.6462,847.1231,1019.8125,847.9261,1023.31,841.62" style="stroke:#181818;stroke-width:1.0;"/></g><!--reverse link Being to God--><g id="link_Being_God"><path d="M933.1267,355.5433 C1015.0467,408.9733 1097.04,462.45 1158.45,502.5 " fill="none" id="Being-backto-God" style="stroke:#181818;stroke-width:1.0;"/><polygon fill="none" points="918.05,345.71,929.8489,360.5689,936.4044,350.5178,918.05,345.71" style="stroke:#181818;stroke-width:1.0;"/></g><!--reverse link Being to Human--><g id="link_Being_Human"><path d="M629.2992,356.7835 C577.5392,397.1735 532.73,432.13 484.84,469.49 " fill="none" id="Being-backto-Human" style="stroke:#181818;stroke-width:1.0;"/><polygon fill="none" points="643.49,345.71,625.6081,352.0533,632.9904,361.5138,643.49,345.71" style="stroke:#181818;stroke-width:1.0;"/></g><!--reverse link God to SemiGod--><g id="link_God_SemiGod"><path d="M1209.0353,601.8088 C1204.2553,628.0588 1201.04,645.68 1195.22,677.67 " fill="none" id="God-backto-SemiGod" style="stroke:#181818;stroke-width:1.0;"/><polygon fill="none" points="1212.26,584.1,1203.1324,600.7339,1214.9382,602.8837,1212.26,584.1" style="stroke:#181818;stroke-width:1.0;"/></g><!--reverse link Human to Hero--><g id="link_Human_Hero"><path d="M468.7843,630.5336 C488.6743,652.7236 498.53,663.71 518.41,685.89 " fill="none" id="Human-backto-Hero" style="stroke:#181818;stroke-width:1.0;"/><polygon fill="none" points="456.77,617.13,464.3164,634.5384,473.2522,626.5288,456.77,617.13" style="stroke:#181818;stroke-width:1.0;"/></g><!--SRC=[pLPDRzim3BtxLmWvEKjosDK82Yn8smLejaC7xCnOR2R0bW99xLPq- -_JPopPSP06Eom7mU4ZdyWdqZBovvRS8wSeoLj1p6_xwU7MFTpTkiS_HS6uHla4DP8rgbgo7UmQ3EwFMZA-9tlKNw35Sjep-e23Pe8RBEFQ2gcX2JGFeePc3Hfjq8f9_IDGPS0QuGYy24Q9YZPgrwhpxktrNHeuREK2VqhFb7bzGscAQ_0oxw-ICWxozJBlpHgHgYWQwgNzV-EBGceCQLb0gRMMTY7KB4DCbHj33Lh8m4GzJU8fiHKlw8Z2WLWVUqpUIMdGhFQ-1uFhCYHftPJB7tPAIwWrgHjGYgpGilWQ5jmGLU6elOLsXvq3UzTWMpXKn2nBtszpiXAYGU0tpcdcoCkKTKvECCw9Pwj2sqwlYXxD9T0T-pahPDRlw1nbQWkDYzbvjcY-mxO766szf9-VM-1Hqfrj_AIBewmmjCvSuFlbcfF-9bt5OUu6MtMJDu361x1oZPKKYbB4Ebs3LSHrMwZ6e9SKCvxySOogRhmyE3OnBFoDgQREoUYbw9cHwjVxY2sx5tIyvE3mRu_mFr71kONtO5-OJfJPLULFpxAxZD-k6-ACHAKdPxGS2EhLV8Vq8sgUUw5lJXtEHKteRwNbxyKYlzPI8Bl1yjfPUsYmHQvLkBdIAHu3OykF1hjtNOBwJu0YlLmIDFdOI0_thCU95F8gknvCN7A52Y_1vEE4V30gJKpIhnE_TqLgmJKmheeYV3KP3vTvuQIn0Rxac4bdIVR6Nzf4XvepTNAaLrK4pNDw7j7i68hYBm00]--></g></svg>